<svg width="685" height="401" viewBox="0 0 685 401" fill="none" xmlns="http://www.w3.org/2000/svg">
<g clip-path="url(#clip0_1414_445)">
<g opacity="0.43">
<path opacity="0.43" d="M157.002 543.547C155.156 543.188 153.416 542.695 151.831 542.082C149.698 541.258 147.914 540.237 146.53 539.05C141.626 534.843 139.818 526.925 139.801 526.846L139.789 526.791L139.77 526.738L51.1291 269.08C51.0042 268.553 49.6435 262.554 50.9447 256.877C52.2605 251.137 56.3438 245.491 56.6641 245.054L234.222 40.7826C234.553 40.438 240.776 34.0297 246.805 31.9616C250.437 30.7159 254.075 31.0137 256.488 31.483C258.043 31.7854 259.033 32.1527 259.043 32.1564L259.121 32.1855L259.204 32.2019L523.569 83.6211C524.193 83.812 531.547 86.1228 536.583 90.4573C541.634 94.8041 544.546 101.36 544.756 101.842L633.336 359.321C633.431 359.645 635.119 365.551 633.814 371.075C632.49 376.681 628.037 382.15 627.857 382.37L450.906 585.943L450.874 585.98L450.845 586.021C450.833 586.038 449.564 587.812 447.444 589.839C445.516 591.684 442.464 594.126 438.879 595.283C436.657 596.001 433.979 596.317 430.92 596.223C428.302 596.143 425.951 595.776 424.441 595.482C423.334 595.266 422.657 595.086 422.65 595.084L422.617 595.075L422.582 595.068L159.869 543.97L159.813 543.959L159.756 543.955C159.745 543.954 158.632 543.864 157.002 543.547Z" fill="url(#paint0_linear_1414_445)"/>
<path opacity="0.43" d="M256.297 32.4641C254.004 32.0182 250.552 31.733 247.129 32.907C241.402 34.8717 235.413 40.9891 234.961 41.4566L57.446 245.679C57.0139 246.273 53.1652 251.667 51.9197 257.1C50.6976 262.432 51.9294 268.101 52.0912 268.801L140.753 526.518L140.777 526.628C140.794 526.704 142.527 534.297 147.181 538.29C150.233 540.908 154.764 542.091 157.193 542.564C158.758 542.868 159.825 542.956 159.834 542.957L159.948 542.966L422.842 594.099L422.909 594.117C422.915 594.119 423.566 594.292 424.632 594.499C426.106 594.786 428.399 595.144 430.951 595.222C433.895 595.313 436.459 595.013 438.572 594.331C445.147 592.207 449.982 585.507 450.029 585.441L450.086 585.361L450.151 585.286L627.094 381.721C627.355 381.401 631.586 376.157 632.841 370.844C634.066 365.654 632.507 360.059 632.382 359.625L543.822 102.202C543.536 101.551 540.74 95.3539 535.931 91.2147C531.149 87.0989 524.156 84.8497 523.325 84.5921L258.852 33.1534L258.693 33.0926C258.654 33.0783 257.732 32.7433 256.297 32.4641ZM256.679 30.5002C258.35 30.8252 259.395 31.2191 259.395 31.2191L523.809 82.6479C523.809 82.6479 531.766 84.9902 537.236 89.6982C542.706 94.4063 545.689 101.48 545.689 101.48L634.288 359.015C634.288 359.015 636.205 365.304 634.788 371.304C633.371 377.304 628.621 383.015 628.621 383.015L451.661 586.598C451.661 586.598 446.504 593.872 439.186 596.235C431.869 598.597 422.391 596.05 422.391 596.05L159.678 544.952C159.678 544.952 151.092 544.281 145.878 539.808C140.665 535.336 138.824 527.062 138.824 527.062L50.1677 269.36C50.1677 269.36 48.5408 262.886 49.9694 256.653C51.3982 250.42 55.8825 244.428 55.8825 244.428L233.483 40.1072C233.483 40.1072 240.002 33.2366 246.48 31.0145C250.348 29.6877 254.202 30.0184 256.679 30.5002Z" fill="#9E1EE3"/>
</g>
</g>
<defs>
<linearGradient id="paint0_linear_1414_445" x1="433.242" y1="590.367" x2="318.272" y2="29.4224" gradientUnits="userSpaceOnUse">
<stop stop-color="#9E1EE3"/>
<stop offset="1"/>
</linearGradient>
<clipPath id="clip0_1414_445">
<rect width="685" height="401" fill="white"/>
</clipPath>
</defs>
</svg>
