<svg xmlns="http://www.w3.org/2000/svg" width="50.817" height="84.475" viewBox="0 0 50.817 84.475">
  <g id="Group_4492" data-name="Group 4492" transform="translate(-288 -5127.37)">
    <g id="mobile" transform="translate(189.334 5062.537)">
      <path id="Path_1897" data-name="Path 1897" d="M145.506,149.308H102.643a3.977,3.977,0,0,1-3.977-3.977V68.81a3.977,3.977,0,0,1,3.977-3.977h42.863a3.977,3.977,0,0,1,3.977,3.977v76.521a3.977,3.977,0,0,1-3.977,3.977Z" transform="translate(0 0)" fill="rgba(255,255,255,0.7)"/>
      <path id="Path_1898" data-name="Path 1898" d="M113.333,96.167h44.336v68.338H113.333Z" transform="translate(-11.426 -24.411)" fill="#282828"/>
      <path id="Path_1899" data-name="Path 1899" d="M191.995,419.784H179.247a1.58,1.58,0,1,0,0,3.16h12.747a1.58,1.58,0,1,0,0-3.16Z" transform="translate(-61.546 -276.526)"/>
      <path id="Path_2234" data-name="Path 2234" d="M6.322,0H30.979A6.322,6.322,0,0,1,37.3,6.322V52.474A6.322,6.322,0,0,1,30.979,58.8H6.322A6.322,6.322,0,0,1,0,52.474V6.322A6.322,6.322,0,0,1,6.322,0Z" transform="translate(106.056 77.477)" fill="rgba(255,255,255,0.7)"/>
    </g>
    <path id="Icon_awesome-coins" data-name="Icon awesome-coins" d="M0,12.192v1.284C0,14.538,2.587,15.4,5.775,15.4s5.775-.863,5.775-1.925V12.192c-1.242.875-3.513,1.284-5.775,1.284S1.242,13.067,0,12.192ZM9.626,3.85c3.189,0,5.775-.863,5.775-1.925S12.814,0,9.626,0,3.85.863,3.85,1.925,6.437,3.85,9.626,3.85ZM0,9.036v1.552c0,1.062,2.587,1.925,5.775,1.925s5.775-.863,5.775-1.925V9.036a9.687,9.687,0,0,1-5.775,1.552A9.687,9.687,0,0,1,0,9.036Zm12.514.331C14.237,9.033,15.4,8.414,15.4,7.7V6.416a7.387,7.387,0,0,1-2.888,1.038ZM5.775,4.813C2.587,4.813,0,5.89,0,7.219S2.587,9.626,5.775,9.626s5.775-1.077,5.775-2.406S8.964,4.813,5.775,4.813Zm6.6,1.694c1.8-.325,3.029-.963,3.029-1.694V3.528a9.793,9.793,0,0,1-4.834,1.257A3.369,3.369,0,0,1,12.372,6.506Z" transform="translate(306.054 5161.907)"/>
  </g>
</svg>
