<svg xmlns="http://www.w3.org/2000/svg" width="50.817" height="84.475" viewBox="0 0 50.817 84.475">
  <g id="mobile" transform="translate(-98.666 -64.833)">
    <path id="Path_1897" data-name="Path 1897" d="M145.506,149.308H102.643a3.977,3.977,0,0,1-3.977-3.977V68.81a3.977,3.977,0,0,1,3.977-3.977h42.863a3.977,3.977,0,0,1,3.977,3.977v76.521a3.977,3.977,0,0,1-3.977,3.977Z" transform="translate(0 0)" fill="rgba(255,255,255,0.7)"/>
    <path id="Path_1898" data-name="Path 1898" d="M113.333,96.167h44.336v68.338H113.333Z" transform="translate(-11.426 -24.411)" fill="#282828"/>
    <path id="Path_1899" data-name="Path 1899" d="M191.995,419.784H179.247a1.58,1.58,0,1,0,0,3.16h12.747a1.58,1.58,0,1,0,0-3.16Z" transform="translate(-61.546 -276.526)"/>
    <path id="Path_2234" data-name="Path 2234" d="M2.581,0H12.648c1.426,0,2.581.7,2.581,1.571V13.04c0,.868-1.156,1.571-2.581,1.571H2.581C1.156,14.611,0,13.908,0,13.04V1.571C0,.7,1.156,0,2.581,0Z" transform="translate(106.056 77.478)" fill="rgba(255,255,255,0.7)"/>
    <path id="Path_2235" data-name="Path 2235" d="M2.581,0H12.648c1.426,0,2.581.7,2.581,1.571V13.04c0,.868-1.156,1.571-2.581,1.571H2.581C1.156,14.611,0,13.908,0,13.04V1.571C0,.7,1.156,0,2.581,0Z" transform="translate(126.261 77.478)" fill="rgba(255,255,255,0.7)"/>
    <path id="Path_2236" data-name="Path 2236" d="M2.581,0H12.648c1.426,0,2.581.7,2.581,1.571V13.04c0,.868-1.156,1.571-2.581,1.571H2.581C1.156,14.611,0,13.908,0,13.04V1.571C0,.7,1.156,0,2.581,0Z" transform="translate(106.056 96.619)" fill="rgba(255,255,255,0.7)"/>
    <path id="Path_2237" data-name="Path 2237" d="M2.581,0H12.648c1.426,0,2.581.7,2.581,1.571V13.04c0,.868-1.156,1.571-2.581,1.571H2.581C1.156,14.611,0,13.908,0,13.04V1.571C0,.7,1.156,0,2.581,0Z" transform="translate(126.261 96.619)" fill="rgba(255,255,255,0.7)"/>
    <path id="Path_2238" data-name="Path 2238" d="M2.581,0H12.648c1.426,0,2.581.7,2.581,1.571V13.04c0,.868-1.156,1.571-2.581,1.571H2.581C1.156,14.611,0,13.908,0,13.04V1.571C0,.7,1.156,0,2.581,0Z" transform="translate(106.056 115.762)" fill="rgba(255,255,255,0.7)"/>
    <path id="Path_2239" data-name="Path 2239" d="M2.581,0H12.648c1.426,0,2.581.7,2.581,1.571V13.04c0,.868-1.156,1.571-2.581,1.571H2.581C1.156,14.611,0,13.908,0,13.04V1.571C0,.7,1.156,0,2.581,0Z" transform="translate(126.261 115.762)" fill="rgba(255,255,255,0.7)"/>
  </g>
</svg>
