<svg xmlns="http://www.w3.org/2000/svg" width="74.496" height="74.496" viewBox="0 0 74.496 74.496">
  <g id="Group_3950" data-name="Group 3950" transform="translate(-784.659 -1358.401)">
    <path id="Path_1904" data-name="Path 1904" d="M50.548,13.3A37.248,37.248,0,1,0,87.8,50.548,37.249,37.249,0,0,0,50.548,13.3Zm0,70.969A33.722,33.722,0,1,1,84.269,50.548,33.769,33.769,0,0,1,50.548,84.269Z" transform="translate(771.359 1345.101)" fill="#d4d4d4"/>
    <path id="Path_1905" data-name="Path 1905" d="M65.126,54.934V34.363a1.763,1.763,0,0,0-3.526,0V55.669a1.917,1.917,0,0,0,.514,1.249L76.293,71.1a1.774,1.774,0,0,0,2.5,0,1.821,1.821,0,0,0,0-2.5Z" transform="translate(758.544 1339.98)" fill="#d4d4d4"/>
  </g>
</svg>
