<svg xmlns="http://www.w3.org/2000/svg" xmlns:xlink="http://www.w3.org/1999/xlink" width="684.665" height="627.483" viewBox="0 0 684.665 627.483">
  <defs>
    <linearGradient id="linear-gradient" x1="0.739" y1="0.987" x2="0.279" y2="0.016" gradientUnits="objectBoundingBox">
      <stop offset="0" stop-color="#9e1ee3"/>
      <stop offset="1"/>
    </linearGradient>
  </defs>
  <g id="Path_2257" data-name="Path 2257" transform="matrix(0.982, 0.191, -0.191, 0.982, 95.6, -0.641)" opacity="0.43" fill="url(#linear-gradient)">
    <path d="M 164.1036529541016 522.2416381835938 C 162.2236633300781 522.2416381835938 160.4226531982422 522.0902099609375 158.7505035400391 521.79150390625 C 156.4998168945312 521.3894653320312 154.5551147460938 520.7288208007812 152.9703521728516 519.8279418945312 C 147.3557434082031 516.6360473632812 144.071044921875 509.2120056152344 144.0384979248047 509.1373901367188 L 144.0160369873047 509.0857543945312 L 143.9878845214844 509.0370788574219 L 7.839414119720459 273.1377258300781 C 7.616316795349121 272.6445922851562 5.136198997497559 267.0177917480469 5.329581737518311 261.199462890625 C 5.525111198425293 255.3157501220703 8.45414924621582 248.9963989257812 8.685159683227539 248.507080078125 L 143.9220275878906 14.18730354309082 C 144.1814270019531 13.78593254089355 149.0642395019531 6.310381412506104 154.5851898193359 3.130609512329102 C 157.9112701416016 1.215071082115173 161.5381927490234 0.8129172325134277 163.9951934814453 0.8129172325134277 C 165.5788879394531 0.8129172325134277 166.6204223632812 0.9843018054962158 166.6307373046875 0.9860710501670837 L 166.7128143310547 0.9997633695602417 L 166.7971954345703 0.999994158744812 L 436.0078430175781 0.999994158744812 C 436.6567993164062 1.068138957023621 444.3136596679688 1.932063102722168 450.0823364257812 5.223994255065918 C 455.867431640625 8.525263786315918 459.976318359375 14.4018497467041 460.2742919921875 14.83532619476318 L 596.3285522460938 250.5711822509766 C 596.483642578125 250.8708190917969 599.2671508789062 256.3435363769531 599.0413208007812 262.0129089355469 C 598.8121948242188 267.765869140625 595.4862060546875 273.982666015625 595.3513793945312 274.2320861816406 L 460.5768127441406 507.7506713867188 L 460.5520324707031 507.79345703125 L 460.53173828125 507.8385314941406 C 460.5230407714844 507.8576965332031 459.6162719726562 509.8407592773438 457.9234924316406 512.2344360351562 C 456.3831176757812 514.4125366210938 453.85498046875 517.3909301757812 450.558349609375 519.2108154296875 C 448.5147399902344 520.3390502929688 445.947509765625 521.160400390625 442.9280395507812 521.6519165039062 C 440.3438110351562 522.0726928710938 437.9674987792969 522.1610107421875 436.4290466308594 522.1610107421875 C 435.3018188476562 522.1610107421875 434.6033630371094 522.1130981445312 434.596435546875 522.1126098632812 L 434.5616455078125 522.1101684570312 L 434.5263366699219 522.1101684570312 L 166.9978942871094 522.1101684570312 L 166.9407348632812 522.1101684570312 L 166.8840484619141 522.11669921875 C 166.8735046386719 522.1178588867188 165.7638854980469 522.2416381835938 164.1036529541016 522.2416381835938 Z" stroke="none"/>
    <path d="M 163.9950561523438 1.81292724609375 C 161.6600341796875 1.81292724609375 158.21875 2.19183349609375 155.0842590332031 3.9970703125 C 149.8394165039062 7.01788330078125 145.1300048828125 14.1634521484375 144.7760009765625 14.70831298828125 L 9.57177734375 248.9715881347656 C 9.26104736328125 249.6363220214844 6.51409912109375 255.6634826660156 6.3289794921875 261.2326049804688 C 6.14739990234375 266.6975402832031 8.43804931640625 272.025146484375 8.7303466796875 272.6807556152344 L 144.9101867675781 508.6346130371094 L 144.9551086425781 508.7378540039062 C 144.9863586425781 508.8093872070312 148.1360473632812 515.9293823242188 153.4645080566406 518.9585571289062 C 156.9588928222656 520.9450073242188 161.6301879882812 521.2416381835938 164.1036682128906 521.2416381835938 C 165.6975708007812 521.2416381835938 166.7618103027344 521.1240844726562 166.7702026367188 521.1231689453125 L 166.8836669921875 521.1101684570312 L 434.5969848632812 521.1102294921875 L 434.6658325195312 521.114990234375 C 434.6724243164062 521.115478515625 435.3438720703125 521.1610107421875 436.4290466308594 521.1610107421875 C 437.9306030273438 521.1610107421875 440.2491149902344 521.0748901367188 442.7672729492188 520.6649780273438 C 445.67333984375 520.1918334960938 448.1320495605469 519.4080810546875 450.0750427246094 518.3353881835938 C 456.1214294433594 514.9974365234375 459.5872802734375 507.4995422363281 459.6204833984375 507.4265441894531 L 459.6612548828125 507.3364562988281 L 459.7106628417969 507.2507629394531 L 594.4793701171875 273.7423706054688 C 594.6746826171875 273.3784790039062 597.8250122070312 267.4251403808594 598.0421752929688 261.9730834960938 C 598.2543334960938 256.6465759277344 595.6567993164062 251.4534301757812 595.4512329101562 251.0519409179688 L 459.4267578125 15.36749267578125 C 459.0222778320312 14.78256225585938 455.095458984375 9.23614501953125 449.586669921875 6.09246826171875 C 444.1092529296875 2.9666748046875 436.819091796875 2.09417724609375 435.9544677734375 2 L 166.6332092285156 2.001708984375 L 166.4655456542969 1.97235107421875 C 166.4247131347656 1.96575927734375 165.4568481445312 1.81292724609375 163.9950561523438 1.81292724609375 M 163.9950866699219 -0.18707275390625 C 165.6971130371094 -0.18707275390625 166.7972106933594 0 166.7972106933594 0 L 436.0582885742188 0 C 436.0582885742188 0 444.3121948242188 0.77978515625 450.5779724121094 4.35540771484375 C 456.84375 7.93109130859375 461.121337890625 14.30252075195312 461.121337890625 14.30252075195312 L 597.2052612304688 250.0899047851562 C 597.2052612304688 250.0899047851562 600.2858276367188 255.8951416015625 600.0405883789062 262.0526733398438 C 599.7953491210938 268.210205078125 596.224365234375 274.7200012207031 596.224365234375 274.7200012207031 L 461.44287109375 508.2505187988281 C 461.44287109375 508.2505187988281 457.7708129882812 516.3713989257812 451.0416564941406 520.0863037109375 C 444.3125 523.8012084960938 434.5263671875 523.1101684570312 434.5263671875 523.1101684570312 L 166.9978942871094 523.1101684570312 C 166.9979248046875 523.1101684570312 158.445068359375 524.0905151367188 152.4761352539062 520.6972045898438 C 146.5070495605469 517.3038940429688 143.1217346191406 509.5369262695312 143.1217346191406 509.5369262695312 L 6.94970703125 273.5966796875 C 6.94970703125 273.5966796875 4.1177978515625 267.5548400878906 4.33001708984375 261.1662292480469 C 4.54241943359375 254.7775268554688 7.79888916015625 248.042236328125 7.79888916015625 248.042236328125 L 143.068115234375 13.6663818359375 C 143.068115234375 13.6663818359375 148.1539001464844 5.6806640625 154.0861206054688 2.26397705078125 C 157.6282958984375 0.22393798828125 161.4725952148438 -0.18707275390625 163.9950866699219 -0.18707275390625 Z" stroke="none" fill="#9e1ee3"/>
  </g>
</svg>
