<svg width="302" height="400" viewBox="0 0 302 400" fill="none" xmlns="http://www.w3.org/2000/svg">
<g clip-path="url(#clip0_1425_1485)">
<g opacity="0.43">
<path opacity="0.43" d="M157.002 370.545C155.156 370.186 153.416 369.693 151.831 369.08C149.698 368.256 147.914 367.235 146.53 366.048C141.626 361.841 139.818 353.923 139.801 353.844L139.789 353.789L139.77 353.736L51.1291 96.0782C51.0042 95.5514 49.6435 89.5521 50.9447 83.8755C52.2605 78.135 56.3438 72.4889 56.6641 72.0525L234.222 -132.219C234.553 -132.564 240.776 -138.972 246.805 -141.04C250.437 -142.286 254.075 -141.988 256.488 -141.519C258.043 -141.217 259.033 -140.849 259.043 -140.846L259.121 -140.816L259.204 -140.8L523.569 -89.3809C524.193 -89.19 531.547 -86.8792 536.583 -82.5447C541.634 -78.1979 544.546 -71.6423 544.756 -71.1597L633.336 186.319C633.431 186.643 635.119 192.549 633.814 198.073C632.49 203.679 628.037 209.148 627.857 209.368L450.906 412.941L450.874 412.978L450.845 413.019C450.833 413.036 449.564 414.81 447.444 416.837C445.516 418.682 442.464 421.124 438.879 422.281C436.657 422.999 433.979 423.315 430.92 423.221C428.302 423.141 425.951 422.774 424.441 422.48C423.334 422.264 422.657 422.084 422.65 422.082L422.617 422.073L422.582 422.066L159.869 370.968L159.813 370.958L159.756 370.953C159.745 370.952 158.632 370.862 157.002 370.545Z" fill="url(#paint0_linear_1425_1485)"/>
<path opacity="0.43" d="M256.297 -140.538C254.004 -140.984 250.552 -141.269 247.129 -140.095C241.402 -138.13 235.413 -132.013 234.961 -131.545L57.446 72.6772C57.0139 73.2706 53.1652 78.6646 51.9197 84.0981C50.6976 89.43 51.9294 95.0992 52.0912 95.7989L140.753 353.516L140.777 353.626C140.794 353.702 142.527 361.296 147.181 365.288C150.233 367.906 154.764 369.09 157.193 369.562C158.758 369.866 159.825 369.954 159.834 369.955L159.948 369.964L422.842 421.097L422.909 421.115C422.915 421.117 423.566 421.29 424.632 421.497C426.106 421.784 428.399 422.142 430.951 422.22C433.895 422.311 436.459 422.011 438.572 421.329C445.147 419.206 449.982 412.505 450.029 412.439L450.086 412.359L450.151 412.284L627.094 208.719C627.355 208.399 631.586 203.155 632.841 197.842C634.066 192.652 632.507 187.057 632.382 186.623L543.822 -70.7998C543.536 -71.4514 540.74 -77.648 535.931 -81.7873C531.149 -85.903 524.156 -88.1522 523.325 -88.4099L258.852 -139.849L258.693 -139.909C258.654 -139.924 257.732 -140.259 256.297 -140.538ZM256.679 -142.502C258.35 -142.177 259.395 -141.783 259.395 -141.783L523.809 -90.354C523.809 -90.354 531.766 -88.0118 537.236 -83.3038C542.706 -78.5957 545.689 -71.5219 545.689 -71.5219L634.288 186.013C634.288 186.013 636.205 192.302 634.788 198.302C633.371 204.302 628.621 210.013 628.621 210.013L451.661 413.596C451.661 413.596 446.504 420.87 439.186 423.233C431.869 425.595 422.391 423.048 422.391 423.048L159.678 371.95C159.678 371.95 151.092 371.279 145.878 366.806C140.665 362.334 138.824 354.06 138.824 354.06L50.1677 96.3582C50.1677 96.3582 48.5408 89.8842 49.9694 83.6511C51.3982 77.418 55.8825 71.4259 55.8825 71.4259L233.483 -132.895C233.483 -132.895 240.002 -139.765 246.48 -141.987C250.348 -143.314 254.202 -142.984 256.679 -142.502Z" fill="#9E1EE3"/>
</g>
</g>
<defs>
<linearGradient id="paint0_linear_1425_1485" x1="433.242" y1="417.365" x2="318.272" y2="-143.58" gradientUnits="userSpaceOnUse">
<stop stop-color="#9E1EE3"/>
<stop offset="1"/>
</linearGradient>
<clipPath id="clip0_1425_1485">
<rect width="302" height="400" fill="white"/>
</clipPath>
</defs>
</svg>
