<svg width="310" height="281" viewBox="0 0 310 281" fill="none" xmlns="http://www.w3.org/2000/svg">
<g clip-path="url(#clip0_1446_248)">
<g opacity="0.59">
<path opacity="0.59" d="M-208.836 120.04C-208.477 118.195 -207.985 116.456 -207.372 114.871C-206.548 112.739 -205.529 110.956 -204.342 109.572C-200.137 104.67 -192.223 102.862 -192.144 102.844L-192.089 102.832L-192.035 102.814L65.5082 14.1783C66.0348 14.0533 72.0315 12.6924 77.706 13.9925C83.4443 15.3071 89.0886 19.3881 89.5249 19.7082L293.735 197.171C294.08 197.502 300.486 203.721 302.554 209.748C303.8 213.378 303.502 217.015 303.034 219.427C302.731 220.982 302.365 221.971 302.361 221.981L302.332 222.059L302.315 222.142L250.948 486.406C250.757 487.03 248.448 494.382 244.116 499.416C239.771 504.465 233.219 507.377 232.736 507.587L-24.6289 596.161C-24.9526 596.256 -30.8559 597.944 -36.378 596.641C-41.9816 595.318 -47.4495 590.867 -47.6686 590.687L-251.181 413.831L-251.218 413.799L-251.258 413.77C-251.275 413.758 -253.049 412.49 -255.076 410.371C-256.92 408.444 -259.361 405.394 -260.519 401.81C-261.236 399.589 -261.553 396.912 -261.459 393.854C-261.379 391.237 -261.012 388.888 -260.719 387.378C-260.504 386.271 -260.323 385.595 -260.321 385.588L-260.312 385.554L-260.306 385.52L-209.259 122.906L-209.248 122.85L-209.243 122.793C-209.243 122.783 -209.152 121.67 -208.836 120.04Z" fill="url(#paint0_linear_1446_248)"/>
<path opacity="0.59" d="M302.052 219.236C302.498 216.944 302.783 213.494 301.609 210.072C299.644 204.347 293.528 198.361 293.061 197.91L88.9001 20.4899C88.3069 20.058 82.9146 16.2115 77.4832 14.9672C72.1533 13.7462 66.4865 14.9782 65.7871 15.14L-191.816 103.796L-191.926 103.82C-192.002 103.837 -199.592 105.57 -203.582 110.223C-206.199 113.274 -207.382 117.803 -207.854 120.231C-208.158 121.796 -208.245 122.863 -208.246 122.871L-208.255 122.985L-259.337 385.78L-259.355 385.846C-259.357 385.853 -259.53 386.503 -259.737 387.568C-260.023 389.042 -260.381 391.335 -260.459 393.885C-260.549 396.828 -260.249 399.391 -259.567 401.503C-257.444 408.075 -250.745 412.908 -250.68 412.954L-250.599 413.012L-250.524 413.076L-47.0212 589.925C-46.7012 590.186 -41.4584 594.414 -36.1479 595.668C-30.9598 596.892 -25.3664 595.333 -24.9331 595.208L232.376 506.654C233.027 506.368 239.221 503.572 243.358 498.764C247.472 493.984 249.719 486.994 249.977 486.163L301.364 221.79L301.425 221.631C301.439 221.592 301.774 220.671 302.052 219.236ZM304.016 219.618C303.691 221.288 303.297 222.333 303.297 222.333L251.92 486.647C251.92 486.647 249.58 494.6 244.874 500.069C240.169 505.537 233.098 508.52 233.098 508.52L-24.3234 597.113C-24.3234 597.113 -30.6098 599.03 -36.6074 597.614C-42.605 596.198 -48.3138 591.451 -48.3138 591.451L-251.836 414.586C-251.836 414.586 -259.107 409.432 -261.47 402.118C-263.833 394.803 -261.287 385.329 -261.287 385.329L-210.24 122.716C-210.24 122.716 -209.57 114.133 -205.101 108.921C-200.631 103.709 -192.36 101.868 -192.36 101.868L65.2278 13.2173C65.2278 13.2173 71.699 11.5903 77.9297 13.0176C84.1605 14.4451 90.1507 18.9269 90.1507 18.9269L294.41 196.432C294.41 196.432 301.278 202.948 303.5 209.423C304.827 213.289 304.497 217.142 304.016 219.618Z" fill="#FD8605"/>
</g>
</g>
<defs>
<linearGradient id="paint0_linear_1446_248" x1="-255.605" y1="396.175" x2="305.101" y2="281.186" gradientUnits="userSpaceOnUse">
<stop stop-color="#A8743A"/>
<stop offset="1"/>
</linearGradient>
<clipPath id="clip0_1446_248">
<rect width="310" height="281" fill="white"/>
</clipPath>
</defs>
</svg>
