<svg xmlns="http://www.w3.org/2000/svg" width="80" height="80" viewBox="0 0 80 80">
  <g id="Group_4238" data-name="Group 4238" transform="translate(-1578 -5113.543)">
    <circle id="Ellipse_2138" data-name="Ellipse 2138" cx="40" cy="40" r="40" transform="translate(1578 5113.543)" fill="#ff9d00"/>
    <path id="Union_20" data-name="Union 20" d="M5791.047,6238.547l.032-.124a5.048,5.048,0,0,1-1.128-.883l-9.611-9.972c-1.517-1.574-1.777-3.789-.583-4.946l1.082-1.049c1.195-1.157,3.394-.821,4.91.753l7.367,7.644,18.89-18.923c1.936-1.938,4.577-2.43,5.9-1.1l1.2,1.2c1.325,1.33.83,3.979-1.1,5.916l-19.265,19.3a19.224,19.224,0,0,1-1.574,1.386,6.9,6.9,0,0,1-4.134,1.431A2.774,2.774,0,0,1,5791.047,6238.547Z" transform="translate(-4181.637 -1070.194)" fill="#fff"/>
  </g>
</svg>
