<svg xmlns="http://www.w3.org/2000/svg" width="26" height="26" viewBox="0 0 26 26">
  <g id="Group_4494" data-name="Group 4494" transform="translate(-0.064 -2.467)">
    <circle id="Ellipse_1994" data-name="Ellipse 1994" cx="13" cy="13" r="13" transform="translate(0.064 2.467)" fill="#10bd53"/>
    <path id="Union_20" data-name="Union 20" d="M5781.489,6219.12a2,2,0,0,1-.237-.21l-4.863-5.034a2,2,0,0,1,.05-2.828l.719-.695a2,2,0,0,1,2.827.048l3.121,3.231,6.218-6.217a2,2,0,0,1,2.829,0l.707.706a2,2,0,0,1,0,2.829l-7.778,7.778a5.411,5.411,0,0,1-.652.542,2.248,2.248,0,0,1-1.356.377A2.338,2.338,0,0,1,5781.489,6219.12Z" transform="translate(-5771.696 -6197.537)" fill="#fff"/>
  </g>
</svg>
