<svg id="globe-white" xmlns="http://www.w3.org/2000/svg" width="70.746" height="68.884" viewBox="0 0 70.746 68.884">
  <g id="Ellipse_10" data-name="Ellipse 10" transform="translate(0 0)" fill="none" stroke="#fff" stroke-width="3">
    <ellipse cx="35.373" cy="34.442" rx="35.373" ry="34.442" stroke="none"/>
    <ellipse cx="35.373" cy="34.442" rx="33.873" ry="32.942" fill="none"/>
  </g>
  <path id="Path_1749" data-name="Path 1749" d="M-2308.243,2440.211s-28.238,31.7,0,65.608" transform="translate(2339.005 -2438.551)" fill="none" stroke="#fff" stroke-width="3"/>
  <path id="Path_1750" data-name="Path 1750" d="M0,0S28.237,31.6,0,65.4" transform="matrix(1, -0.017, 0.017, 1, 41.42, 1.88)" fill="none" stroke="#fff" stroke-width="3"/>
  <path id="Path_1751" data-name="Path 1751" d="M-2290.5,2436.655v66.539" transform="translate(2325.841 -2436.03)" fill="none" stroke="#fff" stroke-width="5"/>
  <path id="Path_1752" data-name="Path 1752" d="M-2328.836,2452.307s19.339,10.161,42.939,0" transform="translate(2342.5 -2442.832)" fill="none" stroke="#fff" stroke-width="3"/>
  <path id="Path_1753" data-name="Path 1753" d="M44.475,4.943S24.445-6.178,0,4.943" transform="matrix(1, 0.017, -0.017, 1, 12.177, 54.484)" fill="none" stroke="#fff" stroke-width="3"/>
  <path id="Path_1754" data-name="Path 1754" d="M-2350.08,2496.5h67.166" transform="translate(2351.731 -2462.036)" fill="none" stroke="#fff" stroke-width="3"/>
</svg>
