<svg xmlns="http://www.w3.org/2000/svg" width="74.439" height="77.584" viewBox="0 0 74.439 77.584">
  <g id="Group_4496" data-name="Group 4496" transform="translate(-8.518)">
    <g id="providers-list" transform="translate(8.518)">
      <g id="internet" transform="translate(0 0)">
        <path id="globe-lg" d="M38.016,35.882a60.98,60.98,0,0,0-2.072,15.75H51.057V37.44a72.908,72.908,0,0,1-13.041-1.558Zm.709-2.265a70.422,70.422,0,0,0,12.332,1.459V19.554a8.37,8.37,0,0,0-3.185.461,23.119,23.119,0,0,0-3.219,3.054,31.38,31.38,0,0,0-5.927,10.548Zm27.567,2.292a72.7,72.7,0,0,1-12.91,1.531V51.632H68.495A57.737,57.737,0,0,0,66.292,35.909Zm-.746-2.258a32.753,32.753,0,0,0-5.781-10.163A25.391,25.391,0,0,0,56.17,20a7.654,7.654,0,0,0-2.788-.427v15.5A70.292,70.292,0,0,0,65.546,33.651ZM26.359,32.7a33.256,33.256,0,0,0-6.685,18.932H33.619a59.623,59.623,0,0,1,2.215-16.224q-3.713-.85-7.35-2-1.068-.337-2.125-.709Zm1.588-1.946q4.254,1.412,8.628,2.4c2.4-6.608,5.87-10.476,8.933-12.725a32.425,32.425,0,0,0-17.56,10.323ZM78.08,32.7l-.473.167c-.479.164-1.03.348-1.652.544q-3.7,1.169-7.485,2.029a56.633,56.633,0,0,1,2.35,16.193H84.765A33.256,33.256,0,0,0,78.08,32.7Zm-1.588-1.945A32.4,32.4,0,0,0,58.295,20.3c3.137,2.262,6.834,6.183,9.4,12.893q3.825-.865,7.571-2.04c.475-.149.886-.284,1.23-.4ZM38.014,69.745a72.946,72.946,0,0,1,13.043-1.558V53.995H35.944a60.968,60.968,0,0,0,2.072,15.75Zm.712,2.265a31.333,31.333,0,0,0,5.927,10.548,23.239,23.239,0,0,0,3.05,2.922,8.353,8.353,0,0,0,3.353.461V70.55a70.383,70.383,0,0,0-12.33,1.459Zm27.565-2.292a57.806,57.806,0,0,0,2.2-15.723H53.382V68.187a72.7,72.7,0,0,1,12.91,1.531Zm-.746,2.258a70.286,70.286,0,0,0-12.164-1.424v15.34a8.188,8.188,0,0,0,3.153-.56,25.64,25.64,0,0,0,3.229-3.193A32.753,32.753,0,0,0,65.546,71.976Zm-39.187.951.473-.166c.479-.164,1.03-.348,1.652-.544q3.634-1.148,7.35-2a59.623,59.623,0,0,1-2.215-16.224H19.674a33.256,33.256,0,0,0,6.685,18.932Zm1.588,1.947A32.425,32.425,0,0,0,45.507,85.2c-3.063-2.251-6.533-6.115-8.933-12.723q-4.368.989-8.628,2.4ZM78.08,72.928a33.256,33.256,0,0,0,6.685-18.934H70.82a56.632,56.632,0,0,1-2.35,16.193q3.781.859,7.485,2.029,1.068.337,2.125.709Zm-1.588,1.945q-4.339-1.439-8.8-2.44c-2.561,6.709-6.256,10.631-9.393,12.893A32.4,32.4,0,0,0,76.492,74.873ZM52.219,90.627C31.664,90.627,15,73.7,15,52.814S31.664,15,52.219,15,89.439,31.93,89.439,52.814,72.775,90.627,52.219,90.627Z" transform="translate(-15 -15)" fill="#fff" fill-rule="evenodd"/>
      </g>
    </g>
    <path id="Path_1747" data-name="Path 1747" d="M-3184.278,2251.168l-16.107,6.406s-3.294,26.173,16.107,31.3c1.115.295,1.587-.017,2.745-.732,1.22-.752,3.1-2.014,4.027-2.746,2.191-1.723,3.038-3.02,5.255-5.237,5.663-8.923,3.9-22.711,3.9-22.583C-3168.355,2257.757-3184.278,2251.168-3184.278,2251.168Z" transform="translate(3246.334 -2213.355)" fill="#d2d2d4" stroke="#000" stroke-width="4"/>
    <path id="Path_1748" data-name="Path 1748" d="M-3341.408,2352.039l4.1,5.363,12.935-10.1" transform="translate(3395.672 -2296.744)" fill="#d2d2d4" stroke="#000" stroke-width="4"/>
  </g>
</svg>
