<svg xmlns="http://www.w3.org/2000/svg" width="79.263" height="78.569" viewBox="0 0 79.263 78.569">
  <g id="Group_4497" data-name="Group 4497" transform="translate(-0.307 2)">
    <g id="Ellipse_12" data-name="Ellipse 12" transform="translate(33.122 16.671)" fill="none" stroke="#fff" stroke-width="5">
      <ellipse cx="15.827" cy="14.772" rx="15.827" ry="14.772" stroke="none"/>
      <ellipse cx="15.827" cy="14.772" rx="13.327" ry="12.272" fill="none"/>
    </g>
    <text id="_" data-name="$" transform="translate(47.829 35.625)" fill="#fff" font-size="17" font-family="Montserrat-Medium, Montserrat" font-weight="500"><tspan x="-5.279" y="0">$</tspan></text>
    <line id="Line_3" data-name="Line 3" y2="8.441" transform="translate(41.352 6.331)" fill="none" stroke="#fff" stroke-linecap="round" stroke-width="4"/>
    <line id="Line_4" data-name="Line 4" y2="14.772" transform="translate(48.527)" fill="none" stroke="#fff" stroke-linecap="round" stroke-width="4"/>
    <line id="Line_5" data-name="Line 5" y2="8.441" transform="translate(55.702 6.331)" fill="none" stroke="#fff" stroke-linecap="round" stroke-width="4"/>
    <g id="Group_3611" data-name="Group 3611" transform="translate(0.307 41.202)">
      <path id="Path_1760" data-name="Path 1760" d="M968.24,1747.3l18.553-8.6a3.423,3.423,0,0,1,4.275,2.066,3.506,3.506,0,0,1-1.532,4.422l-.626.354-25.667,13.952a9.9,9.9,0,0,1-7.635,1.208l-26.4-8.939-.759-19.594h14.458a12.38,12.38,0,0,1,8.7,3.519,12.071,12.071,0,0,1,1.5,1.78q.331.48.614.992a10.684,10.684,0,0,1,.516.979h12.528a4.061,4.061,0,1,1,0,8.12H948.384" transform="translate(-913.397 -1726.947)" fill="none" stroke="#000" stroke-width="1" fill-rule="evenodd"/>
      <path id="Path_1761" data-name="Path 1761" d="M924.077,1778.172a1.321,1.321,0,0,0-1.321,1.321v27.263a1.321,1.321,0,0,0,1.321,1.321h14.458a1.321,1.321,0,0,0,1.321-1.321v-1.95l24.683,8.362c.034,0,.068.026.1.032a11.051,11.051,0,0,0,8.7-1.394l25.561-13.89h.021l.625-.351a4.856,4.856,0,0,0,2.1-6.09,4.805,4.805,0,0,0-3.649-2.973h0a5.363,5.363,0,0,0-2.266.164c-.044.026-.087.037-.129.058l-14.092,6.535a5.021,5.021,0,0,0,.057-.532,5.43,5.43,0,0,0-5.44-5.384H964.39c-.05-.088-.109-.212-.155-.294-.21-.379-.437-.749-.681-1.1a13.447,13.447,0,0,0-1.662-1.977,13.719,13.719,0,0,0-9.627-3.892H939.857V1779.5a1.322,1.322,0,0,0-1.321-1.321H931.3Zm1.321,2.643h11.815v24.62H925.4Zm14.458,3.9h12.409a11.045,11.045,0,0,1,7.774,3.138,10.784,10.784,0,0,1,1.337,1.585c.2.285.379.58.547.883.207.375.348.6.459.862l.341.8h13.4a2.736,2.736,0,0,1,2.8,2.741,2.694,2.694,0,0,1-1.647,2.493l-.078.037a2.927,2.927,0,0,1-1.073.211H957.742v2.643h18.381a5.393,5.393,0,0,0,1.523-.248,1.128,1.128,0,0,0,.511-.14l18.443-8.553a2.591,2.591,0,0,1,1.012-.061c.567.082,1.112.238,1.6,1.394a2.159,2.159,0,0,1-.965,2.756l-.619.351-25.654,13.941c-.037.027-.073.042-.108.066a8.768,8.768,0,0,1-6.566,1.022h-.005l-25.437-8.615Z" transform="translate(-922.755 -1778.172)" fill="#fff"/>
    </g>
  </g>
</svg>
