<svg width="14" height="15" viewBox="0 0 14 15" fill="none" xmlns="http://www.w3.org/2000/svg">
<g clip-path="url(#clip0_1549_96)">
<path d="M12.867 2.39L7.383 0.105002C7.21595 0.0356818 7.03686 0 6.856 0C6.67514 0 6.49605 0.0356818 6.329 0.105002L0.845 2.39C0.594913 2.49376 0.381178 2.66929 0.230784 2.89444C0.0803904 3.11958 8.2013e-05 3.38425 0 3.655C0 9.325 3.27 13.243 6.327 14.517C6.49405 14.5863 6.67314 14.622 6.854 14.622C7.03486 14.622 7.21395 14.5863 7.381 14.517C9.829 13.497 13.71 9.976 13.71 3.655C13.71 3.3845 13.6299 3.12006 13.4799 2.89497C13.3299 2.66987 13.1166 2.49418 12.867 2.39V2.39ZM6.858 12.746V1.864L11.875 3.958C11.781 8.282 9.53 11.416 6.854 12.747L6.858 12.746Z" fill="#D58400"/>
</g>
<defs>
<clipPath id="clip0_1549_96">
<rect width="13.71" height="14.623" fill="white"/>
</clipPath>
</defs>
</svg>
