<svg width="1222" height="223" viewBox="0 0 1222 223" fill="none" xmlns="http://www.w3.org/2000/svg">
<g clip-path="url(#clip0_1305_23)">
<path d="M-18.7329 28.9V33.511H-10.3589V66H-5.11186V28.9H-18.7329ZM18.1614 66.424C26.8004 66.424 33.2664 59.534 33.2664 47.45C33.2664 35.366 26.8004 28.476 18.1614 28.476C9.46935 28.476 3.00335 35.366 3.00335 47.45C3.00335 59.534 9.46935 66.424 18.1614 66.424ZM18.1614 61.707C12.3314 61.707 8.30335 56.937 8.30335 47.45C8.30335 37.963 12.3314 33.193 18.1614 33.193C23.9384 33.193 27.9664 37.963 27.9664 47.45C27.9664 56.937 23.9384 61.707 18.1614 61.707ZM36.0787 28.9V33.511H44.4527V66H49.6997V28.9H36.0787ZM72.9729 66.424C81.6119 66.424 88.0779 59.534 88.0779 47.45C88.0779 35.366 81.6119 28.476 72.9729 28.476C64.2809 28.476 57.8149 35.366 57.8149 47.45C57.8149 59.534 64.2809 66.424 72.9729 66.424ZM72.9729 61.707C67.1429 61.707 63.1149 56.937 63.1149 47.45C63.1149 37.963 67.1429 33.193 72.9729 33.193C78.7499 33.193 82.7779 37.963 82.7779 47.45C82.7779 56.937 78.7499 61.707 72.9729 61.707ZM90.8902 28.9V33.511H99.2642V66H104.511V28.9H90.8902ZM127.784 66.424C136.423 66.424 142.889 59.534 142.889 47.45C142.889 35.366 136.423 28.476 127.784 28.476C119.092 28.476 112.626 35.366 112.626 47.45C112.626 59.534 119.092 66.424 127.784 66.424ZM127.784 61.707C121.954 61.707 117.926 56.937 117.926 47.45C117.926 37.963 121.954 33.193 127.784 33.193C133.561 33.193 137.589 37.963 137.589 47.45C137.589 56.937 133.561 61.707 127.784 61.707ZM145.702 28.9V33.511H154.076V66H159.323V28.9H145.702ZM182.596 66.424C191.235 66.424 197.701 59.534 197.701 47.45C197.701 35.366 191.235 28.476 182.596 28.476C173.904 28.476 167.438 35.366 167.438 47.45C167.438 59.534 173.904 66.424 182.596 66.424ZM182.596 61.707C176.766 61.707 172.738 56.937 172.738 47.45C172.738 37.963 176.766 33.193 182.596 33.193C188.373 33.193 192.401 37.963 192.401 47.45C192.401 56.937 188.373 61.707 182.596 61.707ZM200.513 28.9V33.511H208.887V66H214.134V28.9H200.513ZM237.407 66.424C246.046 66.424 252.512 59.534 252.512 47.45C252.512 35.366 246.046 28.476 237.407 28.476C228.715 28.476 222.249 35.366 222.249 47.45C222.249 59.534 228.715 66.424 237.407 66.424ZM237.407 61.707C231.577 61.707 227.549 56.937 227.549 47.45C227.549 37.963 231.577 33.193 237.407 33.193C243.184 33.193 247.212 37.963 247.212 47.45C247.212 56.937 243.184 61.707 237.407 61.707ZM255.325 28.9V33.511H263.699V66H268.946V28.9H255.325ZM292.219 66.424C300.858 66.424 307.324 59.534 307.324 47.45C307.324 35.366 300.858 28.476 292.219 28.476C283.527 28.476 277.061 35.366 277.061 47.45C277.061 59.534 283.527 66.424 292.219 66.424ZM292.219 61.707C286.389 61.707 282.361 56.937 282.361 47.45C282.361 37.963 286.389 33.193 292.219 33.193C297.996 33.193 302.024 37.963 302.024 47.45C302.024 56.937 297.996 61.707 292.219 61.707ZM310.136 28.9V33.511H318.51V66H323.757V28.9H310.136ZM347.03 66.424C355.669 66.424 362.135 59.534 362.135 47.45C362.135 35.366 355.669 28.476 347.03 28.476C338.338 28.476 331.872 35.366 331.872 47.45C331.872 59.534 338.338 66.424 347.03 66.424ZM347.03 61.707C341.2 61.707 337.172 56.937 337.172 47.45C337.172 37.963 341.2 33.193 347.03 33.193C352.807 33.193 356.835 37.963 356.835 47.45C356.835 56.937 352.807 61.707 347.03 61.707ZM364.948 28.9V33.511H373.322V66H378.569V28.9H364.948ZM401.842 66.424C410.481 66.424 416.947 59.534 416.947 47.45C416.947 35.366 410.481 28.476 401.842 28.476C393.15 28.476 386.684 35.366 386.684 47.45C386.684 59.534 393.15 66.424 401.842 66.424ZM401.842 61.707C396.012 61.707 391.984 56.937 391.984 47.45C391.984 37.963 396.012 33.193 401.842 33.193C407.619 33.193 411.647 37.963 411.647 47.45C411.647 56.937 407.619 61.707 401.842 61.707ZM419.759 28.9V33.511H428.133V66H433.38V28.9H419.759ZM456.654 66.424C465.293 66.424 471.759 59.534 471.759 47.45C471.759 35.366 465.293 28.476 456.654 28.476C447.962 28.476 441.496 35.366 441.496 47.45C441.496 59.534 447.962 66.424 456.654 66.424ZM456.654 61.707C450.824 61.707 446.796 56.937 446.796 47.45C446.796 37.963 450.824 33.193 456.654 33.193C462.431 33.193 466.459 37.963 466.459 47.45C466.459 56.937 462.431 61.707 456.654 61.707ZM474.571 28.9V33.511H482.945V66H488.192V28.9H474.571ZM511.465 66.424C520.104 66.424 526.57 59.534 526.57 47.45C526.57 35.366 520.104 28.476 511.465 28.476C502.773 28.476 496.307 35.366 496.307 47.45C496.307 59.534 502.773 66.424 511.465 66.424ZM511.465 61.707C505.635 61.707 501.607 56.937 501.607 47.45C501.607 37.963 505.635 33.193 511.465 33.193C517.242 33.193 521.27 37.963 521.27 47.45C521.27 56.937 517.242 61.707 511.465 61.707ZM529.382 28.9V33.511H537.756V66H543.003V28.9H529.382ZM566.277 66.424C574.916 66.424 581.382 59.534 581.382 47.45C581.382 35.366 574.916 28.476 566.277 28.476C557.585 28.476 551.119 35.366 551.119 47.45C551.119 59.534 557.585 66.424 566.277 66.424ZM566.277 61.707C560.447 61.707 556.419 56.937 556.419 47.45C556.419 37.963 560.447 33.193 566.277 33.193C572.054 33.193 576.082 37.963 576.082 47.45C576.082 56.937 572.054 61.707 566.277 61.707ZM584.194 28.9V33.511H592.568V66H597.815V28.9H584.194ZM621.088 66.424C629.727 66.424 636.193 59.534 636.193 47.45C636.193 35.366 629.727 28.476 621.088 28.476C612.396 28.476 605.93 35.366 605.93 47.45C605.93 59.534 612.396 66.424 621.088 66.424ZM621.088 61.707C615.258 61.707 611.23 56.937 611.23 47.45C611.23 37.963 615.258 33.193 621.088 33.193C626.865 33.193 630.893 37.963 630.893 47.45C630.893 56.937 626.865 61.707 621.088 61.707ZM639.005 28.9V33.511H647.379V66H652.626V28.9H639.005ZM675.9 66.424C684.539 66.424 691.005 59.534 691.005 47.45C691.005 35.366 684.539 28.476 675.9 28.476C667.208 28.476 660.742 35.366 660.742 47.45C660.742 59.534 667.208 66.424 675.9 66.424ZM675.9 61.707C670.07 61.707 666.042 56.937 666.042 47.45C666.042 37.963 670.07 33.193 675.9 33.193C681.677 33.193 685.705 37.963 685.705 47.45C685.705 56.937 681.677 61.707 675.9 61.707ZM693.817 28.9V33.511H702.191V66H707.438V28.9H693.817ZM730.711 66.424C739.35 66.424 745.816 59.534 745.816 47.45C745.816 35.366 739.35 28.476 730.711 28.476C722.019 28.476 715.553 35.366 715.553 47.45C715.553 59.534 722.019 66.424 730.711 66.424ZM730.711 61.707C724.881 61.707 720.853 56.937 720.853 47.45C720.853 37.963 724.881 33.193 730.711 33.193C736.488 33.193 740.516 37.963 740.516 47.45C740.516 56.937 736.488 61.707 730.711 61.707ZM748.628 28.9V33.511H757.002V66H762.249V28.9H748.628ZM785.523 66.424C794.162 66.424 800.628 59.534 800.628 47.45C800.628 35.366 794.162 28.476 785.523 28.476C776.831 28.476 770.365 35.366 770.365 47.45C770.365 59.534 776.831 66.424 785.523 66.424ZM785.523 61.707C779.693 61.707 775.665 56.937 775.665 47.45C775.665 37.963 779.693 33.193 785.523 33.193C791.3 33.193 795.328 37.963 795.328 47.45C795.328 56.937 791.3 61.707 785.523 61.707ZM803.44 28.9V33.511H811.814V66H817.061V28.9H803.44ZM840.334 66.424C848.973 66.424 855.439 59.534 855.439 47.45C855.439 35.366 848.973 28.476 840.334 28.476C831.642 28.476 825.176 35.366 825.176 47.45C825.176 59.534 831.642 66.424 840.334 66.424ZM840.334 61.707C834.504 61.707 830.476 56.937 830.476 47.45C830.476 37.963 834.504 33.193 840.334 33.193C846.111 33.193 850.139 37.963 850.139 47.45C850.139 56.937 846.111 61.707 840.334 61.707ZM858.252 28.9V33.511H866.626V66H871.873V28.9H858.252ZM895.146 66.424C903.785 66.424 910.251 59.534 910.251 47.45C910.251 35.366 903.785 28.476 895.146 28.476C886.454 28.476 879.988 35.366 879.988 47.45C879.988 59.534 886.454 66.424 895.146 66.424ZM895.146 61.707C889.316 61.707 885.288 56.937 885.288 47.45C885.288 37.963 889.316 33.193 895.146 33.193C900.923 33.193 904.951 37.963 904.951 47.45C904.951 56.937 900.923 61.707 895.146 61.707ZM913.063 28.9V33.511H921.437V66H926.684V28.9H913.063ZM949.957 66.424C958.596 66.424 965.062 59.534 965.062 47.45C965.062 35.366 958.596 28.476 949.957 28.476C941.265 28.476 934.799 35.366 934.799 47.45C934.799 59.534 941.265 66.424 949.957 66.424ZM949.957 61.707C944.127 61.707 940.099 56.937 940.099 47.45C940.099 37.963 944.127 33.193 949.957 33.193C955.734 33.193 959.762 37.963 959.762 47.45C959.762 56.937 955.734 61.707 949.957 61.707ZM967.875 28.9V33.511H976.249V66H981.496V28.9H967.875ZM1004.77 66.424C1013.41 66.424 1019.87 59.534 1019.87 47.45C1019.87 35.366 1013.41 28.476 1004.77 28.476C996.077 28.476 989.611 35.366 989.611 47.45C989.611 59.534 996.077 66.424 1004.77 66.424ZM1004.77 61.707C998.939 61.707 994.911 56.937 994.911 47.45C994.911 37.963 998.939 33.193 1004.77 33.193C1010.55 33.193 1014.57 37.963 1014.57 47.45C1014.57 56.937 1010.55 61.707 1004.77 61.707ZM1022.69 28.9V33.511H1031.06V66H1036.31V28.9H1022.69ZM1059.58 66.424C1068.22 66.424 1074.69 59.534 1074.69 47.45C1074.69 35.366 1068.22 28.476 1059.58 28.476C1050.89 28.476 1044.42 35.366 1044.42 47.45C1044.42 59.534 1050.89 66.424 1059.58 66.424ZM1059.58 61.707C1053.75 61.707 1049.72 56.937 1049.72 47.45C1049.72 37.963 1053.75 33.193 1059.58 33.193C1065.36 33.193 1069.39 37.963 1069.39 47.45C1069.39 56.937 1065.36 61.707 1059.58 61.707ZM1077.5 28.9V33.511H1085.87V66H1091.12V28.9H1077.5ZM1114.39 66.424C1123.03 66.424 1129.5 59.534 1129.5 47.45C1129.5 35.366 1123.03 28.476 1114.39 28.476C1105.7 28.476 1099.23 35.366 1099.23 47.45C1099.23 59.534 1105.7 66.424 1114.39 66.424ZM1114.39 61.707C1108.56 61.707 1104.53 56.937 1104.53 47.45C1104.53 37.963 1108.56 33.193 1114.39 33.193C1120.17 33.193 1124.2 37.963 1124.2 47.45C1124.2 56.937 1120.17 61.707 1114.39 61.707ZM1149.74 66.424C1158.38 66.424 1164.85 59.534 1164.85 47.45C1164.85 35.366 1158.38 28.476 1149.74 28.476C1141.05 28.476 1134.58 35.366 1134.58 47.45C1134.58 59.534 1141.05 66.424 1149.74 66.424ZM1149.74 61.707C1143.91 61.707 1139.88 56.937 1139.88 47.45C1139.88 37.963 1143.91 33.193 1149.74 33.193C1155.52 33.193 1159.55 37.963 1159.55 47.45C1159.55 56.937 1155.52 61.707 1149.74 61.707ZM1167.66 28.9V33.511H1176.03V66H1181.28V28.9H1167.66ZM1204.55 66.424C1213.19 66.424 1219.66 59.534 1219.66 47.45C1219.66 35.366 1213.19 28.476 1204.55 28.476C1195.86 28.476 1189.4 35.366 1189.4 47.45C1189.4 59.534 1195.86 66.424 1204.55 66.424ZM1204.55 61.707C1198.72 61.707 1194.7 56.937 1194.7 47.45C1194.7 37.963 1198.72 33.193 1204.55 33.193C1210.33 33.193 1214.36 37.963 1214.36 47.45C1214.36 56.937 1210.33 61.707 1204.55 61.707ZM1222.47 28.9V33.511H1230.85V66H1236.09V28.9H1222.47ZM1259.37 66.424C1268 66.424 1274.47 59.534 1274.47 47.45C1274.47 35.366 1268 28.476 1259.37 28.476C1250.67 28.476 1244.21 35.366 1244.21 47.45C1244.21 59.534 1250.67 66.424 1259.37 66.424ZM1259.37 61.707C1253.54 61.707 1249.51 56.937 1249.51 47.45C1249.51 37.963 1253.54 33.193 1259.37 33.193C1265.14 33.193 1269.17 37.963 1269.17 47.45C1269.17 56.937 1265.14 61.707 1259.37 61.707ZM1277.28 28.9V33.511H1285.66V66H1290.9V28.9H1277.28ZM1314.18 66.424C1322.82 66.424 1329.28 59.534 1329.28 47.45C1329.28 35.366 1322.82 28.476 1314.18 28.476C1305.48 28.476 1299.02 35.366 1299.02 47.45C1299.02 59.534 1305.48 66.424 1314.18 66.424ZM1314.18 61.707C1308.35 61.707 1304.32 56.937 1304.32 47.45C1304.32 37.963 1308.35 33.193 1314.18 33.193C1319.95 33.193 1323.98 37.963 1323.98 47.45C1323.98 56.937 1319.95 61.707 1314.18 61.707ZM1332.09 28.9V33.511H1340.47V66H1345.72V28.9H1332.09ZM1368.99 66.424C1377.63 66.424 1384.09 59.534 1384.09 47.45C1384.09 35.366 1377.63 28.476 1368.99 28.476C1360.3 28.476 1353.83 35.366 1353.83 47.45C1353.83 59.534 1360.3 66.424 1368.99 66.424ZM1368.99 61.707C1363.16 61.707 1359.13 56.937 1359.13 47.45C1359.13 37.963 1363.16 33.193 1368.99 33.193C1374.77 33.193 1378.79 37.963 1378.79 47.45C1378.79 56.937 1374.77 61.707 1368.99 61.707ZM1386.91 28.9V33.511H1395.28V66H1400.53V28.9H1386.91ZM1423.8 66.424C1432.44 66.424 1438.91 59.534 1438.91 47.45C1438.91 35.366 1432.44 28.476 1423.8 28.476C1415.11 28.476 1408.64 35.366 1408.64 47.45C1408.64 59.534 1415.11 66.424 1423.8 66.424ZM1423.8 61.707C1417.97 61.707 1413.94 56.937 1413.94 47.45C1413.94 37.963 1417.97 33.193 1423.8 33.193C1429.58 33.193 1433.61 37.963 1433.61 47.45C1433.61 56.937 1429.58 61.707 1423.8 61.707ZM1441.72 28.9V33.511H1450.09V66H1455.34V28.9H1441.72ZM1478.61 66.424C1487.25 66.424 1493.72 59.534 1493.72 47.45C1493.72 35.366 1487.25 28.476 1478.61 28.476C1469.92 28.476 1463.45 35.366 1463.45 47.45C1463.45 59.534 1469.92 66.424 1478.61 66.424ZM1478.61 61.707C1472.78 61.707 1468.75 56.937 1468.75 47.45C1468.75 37.963 1472.78 33.193 1478.61 33.193C1484.39 33.193 1488.42 37.963 1488.42 47.45C1488.42 56.937 1484.39 61.707 1478.61 61.707ZM1496.53 28.9V33.511H1504.9V66H1510.15V28.9H1496.53ZM1533.42 66.424C1542.06 66.424 1548.53 59.534 1548.53 47.45C1548.53 35.366 1542.06 28.476 1533.42 28.476C1524.73 28.476 1518.27 35.366 1518.27 47.45C1518.27 59.534 1524.73 66.424 1533.42 66.424ZM1533.42 61.707C1527.59 61.707 1523.57 56.937 1523.57 47.45C1523.57 37.963 1527.59 33.193 1533.42 33.193C1539.2 33.193 1543.23 37.963 1543.23 47.45C1543.23 56.937 1539.2 61.707 1533.42 61.707ZM1551.34 28.9V33.511H1559.71V66H1564.96V28.9H1551.34ZM1588.23 66.424C1596.87 66.424 1603.34 59.534 1603.34 47.45C1603.34 35.366 1596.87 28.476 1588.23 28.476C1579.54 28.476 1573.08 35.366 1573.08 47.45C1573.08 59.534 1579.54 66.424 1588.23 66.424ZM1588.23 61.707C1582.4 61.707 1578.38 56.937 1578.38 47.45C1578.38 37.963 1582.4 33.193 1588.23 33.193C1594.01 33.193 1598.04 37.963 1598.04 47.45C1598.04 56.937 1594.01 61.707 1588.23 61.707ZM1606.15 28.9V33.511H1614.53V66H1619.77V28.9H1606.15ZM1643.05 66.424C1651.69 66.424 1658.15 59.534 1658.15 47.45C1658.15 35.366 1651.69 28.476 1643.05 28.476C1634.35 28.476 1627.89 35.366 1627.89 47.45C1627.89 59.534 1634.35 66.424 1643.05 66.424ZM1643.05 61.707C1637.22 61.707 1633.19 56.937 1633.19 47.45C1633.19 37.963 1637.22 33.193 1643.05 33.193C1648.82 33.193 1652.85 37.963 1652.85 47.45C1652.85 56.937 1648.82 61.707 1643.05 61.707ZM1660.96 28.9V33.511H1669.34V66H1674.58V28.9H1660.96ZM1697.86 66.424C1706.5 66.424 1712.96 59.534 1712.96 47.45C1712.96 35.366 1706.5 28.476 1697.86 28.476C1689.17 28.476 1682.7 35.366 1682.7 47.45C1682.7 59.534 1689.17 66.424 1697.86 66.424ZM1697.86 61.707C1692.03 61.707 1688 56.937 1688 47.45C1688 37.963 1692.03 33.193 1697.86 33.193C1703.63 33.193 1707.66 37.963 1707.66 47.45C1707.66 56.937 1703.63 61.707 1697.86 61.707ZM1715.77 28.9V33.511H1724.15V66H1729.4V28.9H1715.77ZM1752.67 66.424C1761.31 66.424 1767.77 59.534 1767.77 47.45C1767.77 35.366 1761.31 28.476 1752.67 28.476C1743.98 28.476 1737.51 35.366 1737.51 47.45C1737.51 59.534 1743.98 66.424 1752.67 66.424ZM1752.67 61.707C1746.84 61.707 1742.81 56.937 1742.81 47.45C1742.81 37.963 1746.84 33.193 1752.67 33.193C1758.45 33.193 1762.47 37.963 1762.47 47.45C1762.47 56.937 1758.45 61.707 1752.67 61.707ZM1770.59 28.9V33.511H1778.96V66H1784.21V28.9H1770.59ZM1807.48 66.424C1816.12 66.424 1822.59 59.534 1822.59 47.45C1822.59 35.366 1816.12 28.476 1807.48 28.476C1798.79 28.476 1792.32 35.366 1792.32 47.45C1792.32 59.534 1798.79 66.424 1807.48 66.424ZM1807.48 61.707C1801.65 61.707 1797.62 56.937 1797.62 47.45C1797.62 37.963 1801.65 33.193 1807.48 33.193C1813.26 33.193 1817.29 37.963 1817.29 47.45C1817.29 56.937 1813.26 61.707 1807.48 61.707ZM1825.4 28.9V33.511H1833.77V66H1839.02V28.9H1825.4ZM1862.29 66.424C1870.93 66.424 1877.4 59.534 1877.4 47.45C1877.4 35.366 1870.93 28.476 1862.29 28.476C1853.6 28.476 1847.13 35.366 1847.13 47.45C1847.13 59.534 1853.6 66.424 1862.29 66.424ZM1862.29 61.707C1856.46 61.707 1852.43 56.937 1852.43 47.45C1852.43 37.963 1856.46 33.193 1862.29 33.193C1868.07 33.193 1872.1 37.963 1872.1 47.45C1872.1 56.937 1868.07 61.707 1862.29 61.707ZM1880.21 28.9V33.511H1888.58V66H1893.83V28.9H1880.21ZM1917.1 66.424C1925.74 66.424 1932.21 59.534 1932.21 47.45C1932.21 35.366 1925.74 28.476 1917.1 28.476C1908.41 28.476 1901.95 35.366 1901.95 47.45C1901.95 59.534 1908.41 66.424 1917.1 66.424ZM1917.1 61.707C1911.27 61.707 1907.25 56.937 1907.25 47.45C1907.25 37.963 1911.27 33.193 1917.1 33.193C1922.88 33.193 1926.91 37.963 1926.91 47.45C1926.91 56.937 1922.88 61.707 1917.1 61.707ZM1935.02 28.9V33.511H1943.4V66H1948.64V28.9H1935.02ZM1971.92 66.424C1980.55 66.424 1987.02 59.534 1987.02 47.45C1987.02 35.366 1980.55 28.476 1971.92 28.476C1963.22 28.476 1956.76 35.366 1956.76 47.45C1956.76 59.534 1963.22 66.424 1971.92 66.424ZM1971.92 61.707C1966.09 61.707 1962.06 56.937 1962.06 47.45C1962.06 37.963 1966.09 33.193 1971.92 33.193C1977.69 33.193 1981.72 37.963 1981.72 47.45C1981.72 56.937 1977.69 61.707 1971.92 61.707ZM1989.83 28.9V33.511H1998.21V66H2003.45V28.9H1989.83ZM2026.73 66.424C2035.37 66.424 2041.83 59.534 2041.83 47.45C2041.83 35.366 2035.37 28.476 2026.73 28.476C2018.03 28.476 2011.57 35.366 2011.57 47.45C2011.57 59.534 2018.03 66.424 2026.73 66.424ZM2026.73 61.707C2020.9 61.707 2016.87 56.937 2016.87 47.45C2016.87 37.963 2020.9 33.193 2026.73 33.193C2032.5 33.193 2036.53 37.963 2036.53 47.45C2036.53 56.937 2032.5 61.707 2026.73 61.707ZM2044.64 28.9V33.511H2053.02V66H2058.27V28.9H2044.64ZM2081.54 66.424C2090.18 66.424 2096.64 59.534 2096.64 47.45C2096.64 35.366 2090.18 28.476 2081.54 28.476C2072.85 28.476 2066.38 35.366 2066.38 47.45C2066.38 59.534 2072.85 66.424 2081.54 66.424ZM2081.54 61.707C2075.71 61.707 2071.68 56.937 2071.68 47.45C2071.68 37.963 2075.71 33.193 2081.54 33.193C2087.32 33.193 2091.34 37.963 2091.34 47.45C2091.34 56.937 2087.32 61.707 2081.54 61.707ZM2099.46 28.9V33.511H2107.83V66H2113.08V28.9H2099.46ZM2136.35 66.424C2144.99 66.424 2151.45 59.534 2151.45 47.45C2151.45 35.366 2144.99 28.476 2136.35 28.476C2127.66 28.476 2121.19 35.366 2121.19 47.45C2121.19 59.534 2127.66 66.424 2136.35 66.424ZM2136.35 61.707C2130.52 61.707 2126.49 56.937 2126.49 47.45C2126.49 37.963 2130.52 33.193 2136.35 33.193C2142.13 33.193 2146.15 37.963 2146.15 47.45C2146.15 56.937 2142.13 61.707 2136.35 61.707ZM2154.27 28.9V33.511H2162.64V66H2167.89V28.9H2154.27ZM2191.16 66.424C2199.8 66.424 2206.27 59.534 2206.27 47.45C2206.27 35.366 2199.8 28.476 2191.16 28.476C2182.47 28.476 2176 35.366 2176 47.45C2176 59.534 2182.47 66.424 2191.16 66.424ZM2191.16 61.707C2185.33 61.707 2181.3 56.937 2181.3 47.45C2181.3 37.963 2185.33 33.193 2191.16 33.193C2196.94 33.193 2200.97 37.963 2200.97 47.45C2200.97 56.937 2196.94 61.707 2191.16 61.707ZM2209.08 28.9V33.511H2217.45V66H2222.7V28.9H2209.08ZM2245.97 66.424C2254.61 66.424 2261.08 59.534 2261.08 47.45C2261.08 35.366 2254.61 28.476 2245.97 28.476C2237.28 28.476 2230.81 35.366 2230.81 47.45C2230.81 59.534 2237.28 66.424 2245.97 66.424ZM2245.97 61.707C2240.14 61.707 2236.11 56.937 2236.11 47.45C2236.11 37.963 2240.14 33.193 2245.97 33.193C2251.75 33.193 2255.78 37.963 2255.78 47.45C2255.78 56.937 2251.75 61.707 2245.97 61.707ZM2263.89 28.9V33.511H2272.26V66H2277.51V28.9H2263.89ZM2283.51 28.9V33.511H2291.88V66H2297.13V28.9H2283.51ZM2320.4 66.424C2329.04 66.424 2335.51 59.534 2335.51 47.45C2335.51 35.366 2329.04 28.476 2320.4 28.476C2311.71 28.476 2305.24 35.366 2305.24 47.45C2305.24 59.534 2311.71 66.424 2320.4 66.424ZM2320.4 61.707C2314.57 61.707 2310.54 56.937 2310.54 47.45C2310.54 37.963 2314.57 33.193 2320.4 33.193C2326.18 33.193 2330.21 37.963 2330.21 47.45C2330.21 56.937 2326.18 61.707 2320.4 61.707ZM2338.32 28.9V33.511H2346.69V66H2351.94V28.9H2338.32ZM2375.21 66.424C2383.85 66.424 2390.32 59.534 2390.32 47.45C2390.32 35.366 2383.85 28.476 2375.21 28.476C2366.52 28.476 2360.05 35.366 2360.05 47.45C2360.05 59.534 2366.52 66.424 2375.21 66.424ZM2375.21 61.707C2369.38 61.707 2365.35 56.937 2365.35 47.45C2365.35 37.963 2369.38 33.193 2375.21 33.193C2380.99 33.193 2385.02 37.963 2385.02 47.45C2385.02 56.937 2380.99 61.707 2375.21 61.707ZM2393.13 28.9V33.511H2401.5V66H2406.75V28.9H2393.13ZM2430.02 66.424C2438.66 66.424 2445.13 59.534 2445.13 47.45C2445.13 35.366 2438.66 28.476 2430.02 28.476C2421.33 28.476 2414.87 35.366 2414.87 47.45C2414.87 59.534 2421.33 66.424 2430.02 66.424ZM2430.02 61.707C2424.19 61.707 2420.17 56.937 2420.17 47.45C2420.17 37.963 2424.19 33.193 2430.02 33.193C2435.8 33.193 2439.83 37.963 2439.83 47.45C2439.83 56.937 2435.8 61.707 2430.02 61.707ZM2447.94 28.9V33.511H2456.31V66H2461.56V28.9H2447.94ZM2484.84 66.424C2493.47 66.424 2499.94 59.534 2499.94 47.45C2499.94 35.366 2493.47 28.476 2484.84 28.476C2476.14 28.476 2469.68 35.366 2469.68 47.45C2469.68 59.534 2476.14 66.424 2484.84 66.424ZM2484.84 61.707C2479.01 61.707 2474.98 56.937 2474.98 47.45C2474.98 37.963 2479.01 33.193 2484.84 33.193C2490.61 33.193 2494.64 37.963 2494.64 47.45C2494.64 56.937 2490.61 61.707 2484.84 61.707ZM2502.75 28.9V33.511H2511.13V66H2516.37V28.9H2502.75ZM2539.65 66.424C2548.29 66.424 2554.75 59.534 2554.75 47.45C2554.75 35.366 2548.29 28.476 2539.65 28.476C2530.95 28.476 2524.49 35.366 2524.49 47.45C2524.49 59.534 2530.95 66.424 2539.65 66.424ZM2539.65 61.707C2533.82 61.707 2529.79 56.937 2529.79 47.45C2529.79 37.963 2533.82 33.193 2539.65 33.193C2545.42 33.193 2549.45 37.963 2549.45 47.45C2549.45 56.937 2545.42 61.707 2539.65 61.707ZM2557.56 28.9V33.511H2565.94V66H2571.19V28.9H2557.56ZM2594.46 66.424C2603.1 66.424 2609.56 59.534 2609.56 47.45C2609.56 35.366 2603.1 28.476 2594.46 28.476C2585.77 28.476 2579.3 35.366 2579.3 47.45C2579.3 59.534 2585.77 66.424 2594.46 66.424ZM2594.46 61.707C2588.63 61.707 2584.6 56.937 2584.6 47.45C2584.6 37.963 2588.63 33.193 2594.46 33.193C2600.24 33.193 2604.26 37.963 2604.26 47.45C2604.26 56.937 2600.24 61.707 2594.46 61.707ZM2612.38 28.9V33.511H2620.75V66H2626V28.9H2612.38ZM2649.27 66.424C2657.91 66.424 2664.37 59.534 2664.37 47.45C2664.37 35.366 2657.91 28.476 2649.27 28.476C2640.58 28.476 2634.11 35.366 2634.11 47.45C2634.11 59.534 2640.58 66.424 2649.27 66.424ZM2649.27 61.707C2643.44 61.707 2639.41 56.937 2639.41 47.45C2639.41 37.963 2643.44 33.193 2649.27 33.193C2655.05 33.193 2659.07 37.963 2659.07 47.45C2659.07 56.937 2655.05 61.707 2649.27 61.707ZM2667.19 28.9V33.511H2675.56V66H2680.81V28.9H2667.19ZM2704.08 66.424C2712.72 66.424 2719.19 59.534 2719.19 47.45C2719.19 35.366 2712.72 28.476 2704.08 28.476C2695.39 28.476 2688.92 35.366 2688.92 47.45C2688.92 59.534 2695.39 66.424 2704.08 66.424ZM2704.08 61.707C2698.25 61.707 2694.22 56.937 2694.22 47.45C2694.22 37.963 2698.25 33.193 2704.08 33.193C2709.86 33.193 2713.89 37.963 2713.89 47.45C2713.89 56.937 2709.86 61.707 2704.08 61.707ZM2722 28.9V33.511H2730.37V66H2735.62V28.9H2722ZM2758.89 66.424C2767.53 66.424 2774 59.534 2774 47.45C2774 35.366 2767.53 28.476 2758.89 28.476C2750.2 28.476 2743.73 35.366 2743.73 47.45C2743.73 59.534 2750.2 66.424 2758.89 66.424ZM2758.89 61.707C2753.06 61.707 2749.03 56.937 2749.03 47.45C2749.03 37.963 2753.06 33.193 2758.89 33.193C2764.67 33.193 2768.7 37.963 2768.7 47.45C2768.7 56.937 2764.67 61.707 2758.89 61.707ZM2776.81 28.9V33.511H2785.18V66H2790.43V28.9H2776.81ZM2813.7 66.424C2822.34 66.424 2828.81 59.534 2828.81 47.45C2828.81 35.366 2822.34 28.476 2813.7 28.476C2805.01 28.476 2798.55 35.366 2798.55 47.45C2798.55 59.534 2805.01 66.424 2813.7 66.424ZM2813.7 61.707C2807.87 61.707 2803.85 56.937 2803.85 47.45C2803.85 37.963 2807.87 33.193 2813.7 33.193C2819.48 33.193 2823.51 37.963 2823.51 47.45C2823.51 56.937 2819.48 61.707 2813.7 61.707ZM2831.62 28.9V33.511H2840V66H2845.24V28.9H2831.62ZM2868.52 66.424C2877.15 66.424 2883.62 59.534 2883.62 47.45C2883.62 35.366 2877.15 28.476 2868.52 28.476C2859.82 28.476 2853.36 35.366 2853.36 47.45C2853.36 59.534 2859.82 66.424 2868.52 66.424ZM2868.52 61.707C2862.69 61.707 2858.66 56.937 2858.66 47.45C2858.66 37.963 2862.69 33.193 2868.52 33.193C2874.29 33.193 2878.32 37.963 2878.32 47.45C2878.32 56.937 2874.29 61.707 2868.52 61.707ZM2886.43 28.9V33.511H2894.81V66H2900.05V28.9H2886.43ZM2923.33 66.424C2931.97 66.424 2938.43 59.534 2938.43 47.45C2938.43 35.366 2931.97 28.476 2923.33 28.476C2914.64 28.476 2908.17 35.366 2908.17 47.45C2908.17 59.534 2914.64 66.424 2923.33 66.424ZM2923.33 61.707C2917.5 61.707 2913.47 56.937 2913.47 47.45C2913.47 37.963 2917.5 33.193 2923.33 33.193C2929.1 33.193 2933.13 37.963 2933.13 47.45C2933.13 56.937 2929.1 61.707 2923.33 61.707ZM2941.24 28.9V33.511H2949.62V66H2954.87V28.9H2941.24ZM2978.14 66.424C2986.78 66.424 2993.24 59.534 2993.24 47.45C2993.24 35.366 2986.78 28.476 2978.14 28.476C2969.45 28.476 2962.98 35.366 2962.98 47.45C2962.98 59.534 2969.45 66.424 2978.14 66.424ZM2978.14 61.707C2972.31 61.707 2968.28 56.937 2968.28 47.45C2968.28 37.963 2972.31 33.193 2978.14 33.193C2983.92 33.193 2987.94 37.963 2987.94 47.45C2987.94 56.937 2983.92 61.707 2978.14 61.707ZM2996.06 28.9V33.511H3004.43V66H3009.68V28.9H2996.06ZM3032.95 66.424C3041.59 66.424 3048.06 59.534 3048.06 47.45C3048.06 35.366 3041.59 28.476 3032.95 28.476C3024.26 28.476 3017.79 35.366 3017.79 47.45C3017.79 59.534 3024.26 66.424 3032.95 66.424ZM3032.95 61.707C3027.12 61.707 3023.09 56.937 3023.09 47.45C3023.09 37.963 3027.12 33.193 3032.95 33.193C3038.73 33.193 3042.76 37.963 3042.76 47.45C3042.76 56.937 3038.73 61.707 3032.95 61.707ZM3050.87 28.9V33.511H3059.24V66H3064.49V28.9H3050.87ZM3087.76 66.424C3096.4 66.424 3102.87 59.534 3102.87 47.45C3102.87 35.366 3096.4 28.476 3087.76 28.476C3079.07 28.476 3072.6 35.366 3072.6 47.45C3072.6 59.534 3079.07 66.424 3087.76 66.424ZM3087.76 61.707C3081.93 61.707 3077.9 56.937 3077.9 47.45C3077.9 37.963 3081.93 33.193 3087.76 33.193C3093.54 33.193 3097.57 37.963 3097.57 47.45C3097.57 56.937 3093.54 61.707 3087.76 61.707ZM3105.68 28.9V33.511H3114.05V66H3119.3V28.9H3105.68ZM3142.57 66.424C3151.21 66.424 3157.68 59.534 3157.68 47.45C3157.68 35.366 3151.21 28.476 3142.57 28.476C3133.88 28.476 3127.42 35.366 3127.42 47.45C3127.42 59.534 3133.88 66.424 3142.57 66.424ZM3142.57 61.707C3136.74 61.707 3132.72 56.937 3132.72 47.45C3132.72 37.963 3136.74 33.193 3142.57 33.193C3148.35 33.193 3152.38 37.963 3152.38 47.45C3152.38 56.937 3148.35 61.707 3142.57 61.707ZM3160.49 28.9V33.511H3168.86V66H3174.11V28.9H3160.49ZM3197.38 66.424C3206.02 66.424 3212.49 59.534 3212.49 47.45C3212.49 35.366 3206.02 28.476 3197.38 28.476C3188.69 28.476 3182.23 35.366 3182.23 47.45C3182.23 59.534 3188.69 66.424 3197.38 66.424ZM3197.38 61.707C3191.55 61.707 3187.53 56.937 3187.53 47.45C3187.53 37.963 3191.55 33.193 3197.38 33.193C3203.16 33.193 3207.19 37.963 3207.19 47.45C3207.19 56.937 3203.16 61.707 3197.38 61.707ZM3215.3 28.9V33.511H3223.68V66H3228.92V28.9H3215.3ZM3252.2 66.424C3260.84 66.424 3267.3 59.534 3267.3 47.45C3267.3 35.366 3260.84 28.476 3252.2 28.476C3243.5 28.476 3237.04 35.366 3237.04 47.45C3237.04 59.534 3243.5 66.424 3252.2 66.424ZM3252.2 61.707C3246.37 61.707 3242.34 56.937 3242.34 47.45C3242.34 37.963 3246.37 33.193 3252.2 33.193C3257.97 33.193 3262 37.963 3262 47.45C3262 56.937 3257.97 61.707 3252.2 61.707ZM3270.11 28.9V33.511H3278.49V66H3283.73V28.9H3270.11ZM3307.01 66.424C3315.65 66.424 3322.11 59.534 3322.11 47.45C3322.11 35.366 3315.65 28.476 3307.01 28.476C3298.32 28.476 3291.85 35.366 3291.85 47.45C3291.85 59.534 3298.32 66.424 3307.01 66.424ZM3307.01 61.707C3301.18 61.707 3297.15 56.937 3297.15 47.45C3297.15 37.963 3301.18 33.193 3307.01 33.193C3312.79 33.193 3316.81 37.963 3316.81 47.45C3316.81 56.937 3312.79 61.707 3307.01 61.707ZM3324.93 28.9V33.511H3333.3V66H3338.55V28.9H3324.93ZM3361.82 66.424C3370.46 66.424 3376.92 59.534 3376.92 47.45C3376.92 35.366 3370.46 28.476 3361.82 28.476C3353.13 28.476 3346.66 35.366 3346.66 47.45C3346.66 59.534 3353.13 66.424 3361.82 66.424ZM3361.82 61.707C3355.99 61.707 3351.96 56.937 3351.96 47.45C3351.96 37.963 3355.99 33.193 3361.82 33.193C3367.6 33.193 3371.62 37.963 3371.62 47.45C3371.62 56.937 3367.6 61.707 3361.82 61.707ZM3379.74 28.9V33.511H3388.11V66H3393.36V28.9H3379.74ZM3416.63 66.424C3425.27 66.424 3431.74 59.534 3431.74 47.45C3431.74 35.366 3425.27 28.476 3416.63 28.476C3407.94 28.476 3401.47 35.366 3401.47 47.45C3401.47 59.534 3407.94 66.424 3416.63 66.424ZM3416.63 61.707C3410.8 61.707 3406.77 56.937 3406.77 47.45C3406.77 37.963 3410.8 33.193 3416.63 33.193C3422.41 33.193 3426.44 37.963 3426.44 47.45C3426.44 56.937 3422.41 61.707 3416.63 61.707Z" fill="white"/>
<path d="M-18.7329 88.9V93.511H-10.3589V126H-5.11186V88.9H-18.7329ZM18.1614 126.424C26.8004 126.424 33.2664 119.534 33.2664 107.45C33.2664 95.366 26.8004 88.476 18.1614 88.476C9.46935 88.476 3.00335 95.366 3.00335 107.45C3.00335 119.534 9.46935 126.424 18.1614 126.424ZM18.1614 121.707C12.3314 121.707 8.30335 116.937 8.30335 107.45C8.30335 97.963 12.3314 93.193 18.1614 93.193C23.9384 93.193 27.9664 97.963 27.9664 107.45C27.9664 116.937 23.9384 121.707 18.1614 121.707ZM36.0787 88.9V93.511H44.4527V126H49.6997V88.9H36.0787ZM72.9729 126.424C81.6119 126.424 88.0779 119.534 88.0779 107.45C88.0779 95.366 81.6119 88.476 72.9729 88.476C64.2809 88.476 57.8149 95.366 57.8149 107.45C57.8149 119.534 64.2809 126.424 72.9729 126.424ZM72.9729 121.707C67.1429 121.707 63.1149 116.937 63.1149 107.45C63.1149 97.963 67.1429 93.193 72.9729 93.193C78.7499 93.193 82.7779 97.963 82.7779 107.45C82.7779 116.937 78.7499 121.707 72.9729 121.707ZM90.8902 88.9V93.511H99.2642V126H104.511V88.9H90.8902ZM127.784 126.424C136.423 126.424 142.889 119.534 142.889 107.45C142.889 95.366 136.423 88.476 127.784 88.476C119.092 88.476 112.626 95.366 112.626 107.45C112.626 119.534 119.092 126.424 127.784 126.424ZM127.784 121.707C121.954 121.707 117.926 116.937 117.926 107.45C117.926 97.963 121.954 93.193 127.784 93.193C133.561 93.193 137.589 97.963 137.589 107.45C137.589 116.937 133.561 121.707 127.784 121.707ZM145.702 88.9V93.511H154.076V126H159.323V88.9H145.702ZM182.596 126.424C191.235 126.424 197.701 119.534 197.701 107.45C197.701 95.366 191.235 88.476 182.596 88.476C173.904 88.476 167.438 95.366 167.438 107.45C167.438 119.534 173.904 126.424 182.596 126.424ZM182.596 121.707C176.766 121.707 172.738 116.937 172.738 107.45C172.738 97.963 176.766 93.193 182.596 93.193C188.373 93.193 192.401 97.963 192.401 107.45C192.401 116.937 188.373 121.707 182.596 121.707ZM200.513 88.9V93.511H208.887V126H214.134V88.9H200.513ZM237.407 126.424C246.046 126.424 252.512 119.534 252.512 107.45C252.512 95.366 246.046 88.476 237.407 88.476C228.715 88.476 222.249 95.366 222.249 107.45C222.249 119.534 228.715 126.424 237.407 126.424ZM237.407 121.707C231.577 121.707 227.549 116.937 227.549 107.45C227.549 97.963 231.577 93.193 237.407 93.193C243.184 93.193 247.212 97.963 247.212 107.45C247.212 116.937 243.184 121.707 237.407 121.707ZM255.325 88.9V93.511H263.699V126H268.946V88.9H255.325ZM292.219 126.424C300.858 126.424 307.324 119.534 307.324 107.45C307.324 95.366 300.858 88.476 292.219 88.476C283.527 88.476 277.061 95.366 277.061 107.45C277.061 119.534 283.527 126.424 292.219 126.424ZM292.219 121.707C286.389 121.707 282.361 116.937 282.361 107.45C282.361 97.963 286.389 93.193 292.219 93.193C297.996 93.193 302.024 97.963 302.024 107.45C302.024 116.937 297.996 121.707 292.219 121.707ZM310.136 88.9V93.511H318.51V126H323.757V88.9H310.136ZM347.03 126.424C355.669 126.424 362.135 119.534 362.135 107.45C362.135 95.366 355.669 88.476 347.03 88.476C338.338 88.476 331.872 95.366 331.872 107.45C331.872 119.534 338.338 126.424 347.03 126.424ZM347.03 121.707C341.2 121.707 337.172 116.937 337.172 107.45C337.172 97.963 341.2 93.193 347.03 93.193C352.807 93.193 356.835 97.963 356.835 107.45C356.835 116.937 352.807 121.707 347.03 121.707ZM364.948 88.9V93.511H373.322V126H378.569V88.9H364.948ZM401.842 126.424C410.481 126.424 416.947 119.534 416.947 107.45C416.947 95.366 410.481 88.476 401.842 88.476C393.15 88.476 386.684 95.366 386.684 107.45C386.684 119.534 393.15 126.424 401.842 126.424ZM401.842 121.707C396.012 121.707 391.984 116.937 391.984 107.45C391.984 97.963 396.012 93.193 401.842 93.193C407.619 93.193 411.647 97.963 411.647 107.45C411.647 116.937 407.619 121.707 401.842 121.707ZM419.759 88.9V93.511H428.133V126H433.38V88.9H419.759ZM456.654 126.424C465.293 126.424 471.759 119.534 471.759 107.45C471.759 95.366 465.293 88.476 456.654 88.476C447.962 88.476 441.496 95.366 441.496 107.45C441.496 119.534 447.962 126.424 456.654 126.424ZM456.654 121.707C450.824 121.707 446.796 116.937 446.796 107.45C446.796 97.963 450.824 93.193 456.654 93.193C462.431 93.193 466.459 97.963 466.459 107.45C466.459 116.937 462.431 121.707 456.654 121.707ZM474.571 88.9V93.511H482.945V126H488.192V88.9H474.571ZM511.465 126.424C520.104 126.424 526.57 119.534 526.57 107.45C526.57 95.366 520.104 88.476 511.465 88.476C502.773 88.476 496.307 95.366 496.307 107.45C496.307 119.534 502.773 126.424 511.465 126.424ZM511.465 121.707C505.635 121.707 501.607 116.937 501.607 107.45C501.607 97.963 505.635 93.193 511.465 93.193C517.242 93.193 521.27 97.963 521.27 107.45C521.27 116.937 517.242 121.707 511.465 121.707ZM529.382 88.9V93.511H537.756V126H543.003V88.9H529.382ZM566.277 126.424C574.916 126.424 581.382 119.534 581.382 107.45C581.382 95.366 574.916 88.476 566.277 88.476C557.585 88.476 551.119 95.366 551.119 107.45C551.119 119.534 557.585 126.424 566.277 126.424ZM566.277 121.707C560.447 121.707 556.419 116.937 556.419 107.45C556.419 97.963 560.447 93.193 566.277 93.193C572.054 93.193 576.082 97.963 576.082 107.45C576.082 116.937 572.054 121.707 566.277 121.707ZM584.194 88.9V93.511H592.568V126H597.815V88.9H584.194ZM621.088 126.424C629.727 126.424 636.193 119.534 636.193 107.45C636.193 95.366 629.727 88.476 621.088 88.476C612.396 88.476 605.93 95.366 605.93 107.45C605.93 119.534 612.396 126.424 621.088 126.424ZM621.088 121.707C615.258 121.707 611.23 116.937 611.23 107.45C611.23 97.963 615.258 93.193 621.088 93.193C626.865 93.193 630.893 97.963 630.893 107.45C630.893 116.937 626.865 121.707 621.088 121.707ZM639.005 88.9V93.511H647.379V126H652.626V88.9H639.005ZM675.9 126.424C684.539 126.424 691.005 119.534 691.005 107.45C691.005 95.366 684.539 88.476 675.9 88.476C667.208 88.476 660.742 95.366 660.742 107.45C660.742 119.534 667.208 126.424 675.9 126.424ZM675.9 121.707C670.07 121.707 666.042 116.937 666.042 107.45C666.042 97.963 670.07 93.193 675.9 93.193C681.677 93.193 685.705 97.963 685.705 107.45C685.705 116.937 681.677 121.707 675.9 121.707ZM693.817 88.9V93.511H702.191V126H707.438V88.9H693.817ZM730.711 126.424C739.35 126.424 745.816 119.534 745.816 107.45C745.816 95.366 739.35 88.476 730.711 88.476C722.019 88.476 715.553 95.366 715.553 107.45C715.553 119.534 722.019 126.424 730.711 126.424ZM730.711 121.707C724.881 121.707 720.853 116.937 720.853 107.45C720.853 97.963 724.881 93.193 730.711 93.193C736.488 93.193 740.516 97.963 740.516 107.45C740.516 116.937 736.488 121.707 730.711 121.707ZM748.628 88.9V93.511H757.002V126H762.249V88.9H748.628ZM785.523 126.424C794.162 126.424 800.628 119.534 800.628 107.45C800.628 95.366 794.162 88.476 785.523 88.476C776.831 88.476 770.365 95.366 770.365 107.45C770.365 119.534 776.831 126.424 785.523 126.424ZM785.523 121.707C779.693 121.707 775.665 116.937 775.665 107.45C775.665 97.963 779.693 93.193 785.523 93.193C791.3 93.193 795.328 97.963 795.328 107.45C795.328 116.937 791.3 121.707 785.523 121.707ZM803.44 88.9V93.511H811.814V126H817.061V88.9H803.44ZM840.334 126.424C848.973 126.424 855.439 119.534 855.439 107.45C855.439 95.366 848.973 88.476 840.334 88.476C831.642 88.476 825.176 95.366 825.176 107.45C825.176 119.534 831.642 126.424 840.334 126.424ZM840.334 121.707C834.504 121.707 830.476 116.937 830.476 107.45C830.476 97.963 834.504 93.193 840.334 93.193C846.111 93.193 850.139 97.963 850.139 107.45C850.139 116.937 846.111 121.707 840.334 121.707ZM858.252 88.9V93.511H866.626V126H871.873V88.9H858.252ZM895.146 126.424C903.785 126.424 910.251 119.534 910.251 107.45C910.251 95.366 903.785 88.476 895.146 88.476C886.454 88.476 879.988 95.366 879.988 107.45C879.988 119.534 886.454 126.424 895.146 126.424ZM895.146 121.707C889.316 121.707 885.288 116.937 885.288 107.45C885.288 97.963 889.316 93.193 895.146 93.193C900.923 93.193 904.951 97.963 904.951 107.45C904.951 116.937 900.923 121.707 895.146 121.707ZM913.063 88.9V93.511H921.437V126H926.684V88.9H913.063ZM949.957 126.424C958.596 126.424 965.062 119.534 965.062 107.45C965.062 95.366 958.596 88.476 949.957 88.476C941.265 88.476 934.799 95.366 934.799 107.45C934.799 119.534 941.265 126.424 949.957 126.424ZM949.957 121.707C944.127 121.707 940.099 116.937 940.099 107.45C940.099 97.963 944.127 93.193 949.957 93.193C955.734 93.193 959.762 97.963 959.762 107.45C959.762 116.937 955.734 121.707 949.957 121.707ZM967.875 88.9V93.511H976.249V126H981.496V88.9H967.875ZM1004.77 126.424C1013.41 126.424 1019.87 119.534 1019.87 107.45C1019.87 95.366 1013.41 88.476 1004.77 88.476C996.077 88.476 989.611 95.366 989.611 107.45C989.611 119.534 996.077 126.424 1004.77 126.424ZM1004.77 121.707C998.939 121.707 994.911 116.937 994.911 107.45C994.911 97.963 998.939 93.193 1004.77 93.193C1010.55 93.193 1014.57 97.963 1014.57 107.45C1014.57 116.937 1010.55 121.707 1004.77 121.707ZM1022.69 88.9V93.511H1031.06V126H1036.31V88.9H1022.69ZM1059.58 126.424C1068.22 126.424 1074.69 119.534 1074.69 107.45C1074.69 95.366 1068.22 88.476 1059.58 88.476C1050.89 88.476 1044.42 95.366 1044.42 107.45C1044.42 119.534 1050.89 126.424 1059.58 126.424ZM1059.58 121.707C1053.75 121.707 1049.72 116.937 1049.72 107.45C1049.72 97.963 1053.75 93.193 1059.58 93.193C1065.36 93.193 1069.39 97.963 1069.39 107.45C1069.39 116.937 1065.36 121.707 1059.58 121.707ZM1077.5 88.9V93.511H1085.87V126H1091.12V88.9H1077.5ZM1114.39 126.424C1123.03 126.424 1129.5 119.534 1129.5 107.45C1129.5 95.366 1123.03 88.476 1114.39 88.476C1105.7 88.476 1099.23 95.366 1099.23 107.45C1099.23 119.534 1105.7 126.424 1114.39 126.424ZM1114.39 121.707C1108.56 121.707 1104.53 116.937 1104.53 107.45C1104.53 97.963 1108.56 93.193 1114.39 93.193C1120.17 93.193 1124.2 97.963 1124.2 107.45C1124.2 116.937 1120.17 121.707 1114.39 121.707ZM1149.74 126.424C1158.38 126.424 1164.85 119.534 1164.85 107.45C1164.85 95.366 1158.38 88.476 1149.74 88.476C1141.05 88.476 1134.58 95.366 1134.58 107.45C1134.58 119.534 1141.05 126.424 1149.74 126.424ZM1149.74 121.707C1143.91 121.707 1139.88 116.937 1139.88 107.45C1139.88 97.963 1143.91 93.193 1149.74 93.193C1155.52 93.193 1159.55 97.963 1159.55 107.45C1159.55 116.937 1155.52 121.707 1149.74 121.707ZM1167.66 88.9V93.511H1176.03V126H1181.28V88.9H1167.66ZM1204.55 126.424C1213.19 126.424 1219.66 119.534 1219.66 107.45C1219.66 95.366 1213.19 88.476 1204.55 88.476C1195.86 88.476 1189.4 95.366 1189.4 107.45C1189.4 119.534 1195.86 126.424 1204.55 126.424ZM1204.55 121.707C1198.72 121.707 1194.7 116.937 1194.7 107.45C1194.7 97.963 1198.72 93.193 1204.55 93.193C1210.33 93.193 1214.36 97.963 1214.36 107.45C1214.36 116.937 1210.33 121.707 1204.55 121.707ZM1222.47 88.9V93.511H1230.85V126H1236.09V88.9H1222.47ZM1259.37 126.424C1268 126.424 1274.47 119.534 1274.47 107.45C1274.47 95.366 1268 88.476 1259.37 88.476C1250.67 88.476 1244.21 95.366 1244.21 107.45C1244.21 119.534 1250.67 126.424 1259.37 126.424ZM1259.37 121.707C1253.54 121.707 1249.51 116.937 1249.51 107.45C1249.51 97.963 1253.54 93.193 1259.37 93.193C1265.14 93.193 1269.17 97.963 1269.17 107.45C1269.17 116.937 1265.14 121.707 1259.37 121.707ZM1277.28 88.9V93.511H1285.66V126H1290.9V88.9H1277.28ZM1314.18 126.424C1322.82 126.424 1329.28 119.534 1329.28 107.45C1329.28 95.366 1322.82 88.476 1314.18 88.476C1305.48 88.476 1299.02 95.366 1299.02 107.45C1299.02 119.534 1305.48 126.424 1314.18 126.424ZM1314.18 121.707C1308.35 121.707 1304.32 116.937 1304.32 107.45C1304.32 97.963 1308.35 93.193 1314.18 93.193C1319.95 93.193 1323.98 97.963 1323.98 107.45C1323.98 116.937 1319.95 121.707 1314.18 121.707ZM1332.09 88.9V93.511H1340.47V126H1345.72V88.9H1332.09ZM1368.99 126.424C1377.63 126.424 1384.09 119.534 1384.09 107.45C1384.09 95.366 1377.63 88.476 1368.99 88.476C1360.3 88.476 1353.83 95.366 1353.83 107.45C1353.83 119.534 1360.3 126.424 1368.99 126.424ZM1368.99 121.707C1363.16 121.707 1359.13 116.937 1359.13 107.45C1359.13 97.963 1363.16 93.193 1368.99 93.193C1374.77 93.193 1378.79 97.963 1378.79 107.45C1378.79 116.937 1374.77 121.707 1368.99 121.707ZM1386.91 88.9V93.511H1395.28V126H1400.53V88.9H1386.91ZM1423.8 126.424C1432.44 126.424 1438.91 119.534 1438.91 107.45C1438.91 95.366 1432.44 88.476 1423.8 88.476C1415.11 88.476 1408.64 95.366 1408.64 107.45C1408.64 119.534 1415.11 126.424 1423.8 126.424ZM1423.8 121.707C1417.97 121.707 1413.94 116.937 1413.94 107.45C1413.94 97.963 1417.97 93.193 1423.8 93.193C1429.58 93.193 1433.61 97.963 1433.61 107.45C1433.61 116.937 1429.58 121.707 1423.8 121.707ZM1441.72 88.9V93.511H1450.09V126H1455.34V88.9H1441.72ZM1478.61 126.424C1487.25 126.424 1493.72 119.534 1493.72 107.45C1493.72 95.366 1487.25 88.476 1478.61 88.476C1469.92 88.476 1463.45 95.366 1463.45 107.45C1463.45 119.534 1469.92 126.424 1478.61 126.424ZM1478.61 121.707C1472.78 121.707 1468.75 116.937 1468.75 107.45C1468.75 97.963 1472.78 93.193 1478.61 93.193C1484.39 93.193 1488.42 97.963 1488.42 107.45C1488.42 116.937 1484.39 121.707 1478.61 121.707ZM1496.53 88.9V93.511H1504.9V126H1510.15V88.9H1496.53ZM1533.42 126.424C1542.06 126.424 1548.53 119.534 1548.53 107.45C1548.53 95.366 1542.06 88.476 1533.42 88.476C1524.73 88.476 1518.27 95.366 1518.27 107.45C1518.27 119.534 1524.73 126.424 1533.42 126.424ZM1533.42 121.707C1527.59 121.707 1523.57 116.937 1523.57 107.45C1523.57 97.963 1527.59 93.193 1533.42 93.193C1539.2 93.193 1543.23 97.963 1543.23 107.45C1543.23 116.937 1539.2 121.707 1533.42 121.707ZM1551.34 88.9V93.511H1559.71V126H1564.96V88.9H1551.34ZM1588.23 126.424C1596.87 126.424 1603.34 119.534 1603.34 107.45C1603.34 95.366 1596.87 88.476 1588.23 88.476C1579.54 88.476 1573.08 95.366 1573.08 107.45C1573.08 119.534 1579.54 126.424 1588.23 126.424ZM1588.23 121.707C1582.4 121.707 1578.38 116.937 1578.38 107.45C1578.38 97.963 1582.4 93.193 1588.23 93.193C1594.01 93.193 1598.04 97.963 1598.04 107.45C1598.04 116.937 1594.01 121.707 1588.23 121.707ZM1606.15 88.9V93.511H1614.53V126H1619.77V88.9H1606.15ZM1643.05 126.424C1651.69 126.424 1658.15 119.534 1658.15 107.45C1658.15 95.366 1651.69 88.476 1643.05 88.476C1634.35 88.476 1627.89 95.366 1627.89 107.45C1627.89 119.534 1634.35 126.424 1643.05 126.424ZM1643.05 121.707C1637.22 121.707 1633.19 116.937 1633.19 107.45C1633.19 97.963 1637.22 93.193 1643.05 93.193C1648.82 93.193 1652.85 97.963 1652.85 107.45C1652.85 116.937 1648.82 121.707 1643.05 121.707ZM1660.96 88.9V93.511H1669.34V126H1674.58V88.9H1660.96ZM1697.86 126.424C1706.5 126.424 1712.96 119.534 1712.96 107.45C1712.96 95.366 1706.5 88.476 1697.86 88.476C1689.17 88.476 1682.7 95.366 1682.7 107.45C1682.7 119.534 1689.17 126.424 1697.86 126.424ZM1697.86 121.707C1692.03 121.707 1688 116.937 1688 107.45C1688 97.963 1692.03 93.193 1697.86 93.193C1703.63 93.193 1707.66 97.963 1707.66 107.45C1707.66 116.937 1703.63 121.707 1697.86 121.707ZM1715.77 88.9V93.511H1724.15V126H1729.4V88.9H1715.77ZM1752.67 126.424C1761.31 126.424 1767.77 119.534 1767.77 107.45C1767.77 95.366 1761.31 88.476 1752.67 88.476C1743.98 88.476 1737.51 95.366 1737.51 107.45C1737.51 119.534 1743.98 126.424 1752.67 126.424ZM1752.67 121.707C1746.84 121.707 1742.81 116.937 1742.81 107.45C1742.81 97.963 1746.84 93.193 1752.67 93.193C1758.45 93.193 1762.47 97.963 1762.47 107.45C1762.47 116.937 1758.45 121.707 1752.67 121.707ZM1770.59 88.9V93.511H1778.96V126H1784.21V88.9H1770.59ZM1807.48 126.424C1816.12 126.424 1822.59 119.534 1822.59 107.45C1822.59 95.366 1816.12 88.476 1807.48 88.476C1798.79 88.476 1792.32 95.366 1792.32 107.45C1792.32 119.534 1798.79 126.424 1807.48 126.424ZM1807.48 121.707C1801.65 121.707 1797.62 116.937 1797.62 107.45C1797.62 97.963 1801.65 93.193 1807.48 93.193C1813.26 93.193 1817.29 97.963 1817.29 107.45C1817.29 116.937 1813.26 121.707 1807.48 121.707ZM1825.4 88.9V93.511H1833.77V126H1839.02V88.9H1825.4ZM1862.29 126.424C1870.93 126.424 1877.4 119.534 1877.4 107.45C1877.4 95.366 1870.93 88.476 1862.29 88.476C1853.6 88.476 1847.13 95.366 1847.13 107.45C1847.13 119.534 1853.6 126.424 1862.29 126.424ZM1862.29 121.707C1856.46 121.707 1852.43 116.937 1852.43 107.45C1852.43 97.963 1856.46 93.193 1862.29 93.193C1868.07 93.193 1872.1 97.963 1872.1 107.45C1872.1 116.937 1868.07 121.707 1862.29 121.707ZM1880.21 88.9V93.511H1888.58V126H1893.83V88.9H1880.21ZM1917.1 126.424C1925.74 126.424 1932.21 119.534 1932.21 107.45C1932.21 95.366 1925.74 88.476 1917.1 88.476C1908.41 88.476 1901.95 95.366 1901.95 107.45C1901.95 119.534 1908.41 126.424 1917.1 126.424ZM1917.1 121.707C1911.27 121.707 1907.25 116.937 1907.25 107.45C1907.25 97.963 1911.27 93.193 1917.1 93.193C1922.88 93.193 1926.91 97.963 1926.91 107.45C1926.91 116.937 1922.88 121.707 1917.1 121.707ZM1935.02 88.9V93.511H1943.4V126H1948.64V88.9H1935.02ZM1971.92 126.424C1980.55 126.424 1987.02 119.534 1987.02 107.45C1987.02 95.366 1980.55 88.476 1971.92 88.476C1963.22 88.476 1956.76 95.366 1956.76 107.45C1956.76 119.534 1963.22 126.424 1971.92 126.424ZM1971.92 121.707C1966.09 121.707 1962.06 116.937 1962.06 107.45C1962.06 97.963 1966.09 93.193 1971.92 93.193C1977.69 93.193 1981.72 97.963 1981.72 107.45C1981.72 116.937 1977.69 121.707 1971.92 121.707ZM1989.83 88.9V93.511H1998.21V126H2003.45V88.9H1989.83ZM2026.73 126.424C2035.37 126.424 2041.83 119.534 2041.83 107.45C2041.83 95.366 2035.37 88.476 2026.73 88.476C2018.03 88.476 2011.57 95.366 2011.57 107.45C2011.57 119.534 2018.03 126.424 2026.73 126.424ZM2026.73 121.707C2020.9 121.707 2016.87 116.937 2016.87 107.45C2016.87 97.963 2020.9 93.193 2026.73 93.193C2032.5 93.193 2036.53 97.963 2036.53 107.45C2036.53 116.937 2032.5 121.707 2026.73 121.707ZM2044.64 88.9V93.511H2053.02V126H2058.27V88.9H2044.64ZM2081.54 126.424C2090.18 126.424 2096.64 119.534 2096.64 107.45C2096.64 95.366 2090.18 88.476 2081.54 88.476C2072.85 88.476 2066.38 95.366 2066.38 107.45C2066.38 119.534 2072.85 126.424 2081.54 126.424ZM2081.54 121.707C2075.71 121.707 2071.68 116.937 2071.68 107.45C2071.68 97.963 2075.71 93.193 2081.54 93.193C2087.32 93.193 2091.34 97.963 2091.34 107.45C2091.34 116.937 2087.32 121.707 2081.54 121.707ZM2099.46 88.9V93.511H2107.83V126H2113.08V88.9H2099.46ZM2136.35 126.424C2144.99 126.424 2151.45 119.534 2151.45 107.45C2151.45 95.366 2144.99 88.476 2136.35 88.476C2127.66 88.476 2121.19 95.366 2121.19 107.45C2121.19 119.534 2127.66 126.424 2136.35 126.424ZM2136.35 121.707C2130.52 121.707 2126.49 116.937 2126.49 107.45C2126.49 97.963 2130.52 93.193 2136.35 93.193C2142.13 93.193 2146.15 97.963 2146.15 107.45C2146.15 116.937 2142.13 121.707 2136.35 121.707ZM2154.27 88.9V93.511H2162.64V126H2167.89V88.9H2154.27ZM2191.16 126.424C2199.8 126.424 2206.27 119.534 2206.27 107.45C2206.27 95.366 2199.8 88.476 2191.16 88.476C2182.47 88.476 2176 95.366 2176 107.45C2176 119.534 2182.47 126.424 2191.16 126.424ZM2191.16 121.707C2185.33 121.707 2181.3 116.937 2181.3 107.45C2181.3 97.963 2185.33 93.193 2191.16 93.193C2196.94 93.193 2200.97 97.963 2200.97 107.45C2200.97 116.937 2196.94 121.707 2191.16 121.707ZM2209.08 88.9V93.511H2217.45V126H2222.7V88.9H2209.08ZM2245.97 126.424C2254.61 126.424 2261.08 119.534 2261.08 107.45C2261.08 95.366 2254.61 88.476 2245.97 88.476C2237.28 88.476 2230.81 95.366 2230.81 107.45C2230.81 119.534 2237.28 126.424 2245.97 126.424ZM2245.97 121.707C2240.14 121.707 2236.11 116.937 2236.11 107.45C2236.11 97.963 2240.14 93.193 2245.97 93.193C2251.75 93.193 2255.78 97.963 2255.78 107.45C2255.78 116.937 2251.75 121.707 2245.97 121.707ZM2263.89 88.9V93.511H2272.26V126H2277.51V88.9H2263.89ZM2283.51 88.9V93.511H2291.88V126H2297.13V88.9H2283.51ZM2320.4 126.424C2329.04 126.424 2335.51 119.534 2335.51 107.45C2335.51 95.366 2329.04 88.476 2320.4 88.476C2311.71 88.476 2305.24 95.366 2305.24 107.45C2305.24 119.534 2311.71 126.424 2320.4 126.424ZM2320.4 121.707C2314.57 121.707 2310.54 116.937 2310.54 107.45C2310.54 97.963 2314.57 93.193 2320.4 93.193C2326.18 93.193 2330.21 97.963 2330.21 107.45C2330.21 116.937 2326.18 121.707 2320.4 121.707ZM2338.32 88.9V93.511H2346.69V126H2351.94V88.9H2338.32ZM2375.21 126.424C2383.85 126.424 2390.32 119.534 2390.32 107.45C2390.32 95.366 2383.85 88.476 2375.21 88.476C2366.52 88.476 2360.05 95.366 2360.05 107.45C2360.05 119.534 2366.52 126.424 2375.21 126.424ZM2375.21 121.707C2369.38 121.707 2365.35 116.937 2365.35 107.45C2365.35 97.963 2369.38 93.193 2375.21 93.193C2380.99 93.193 2385.02 97.963 2385.02 107.45C2385.02 116.937 2380.99 121.707 2375.21 121.707ZM2393.13 88.9V93.511H2401.5V126H2406.75V88.9H2393.13ZM2430.02 126.424C2438.66 126.424 2445.13 119.534 2445.13 107.45C2445.13 95.366 2438.66 88.476 2430.02 88.476C2421.33 88.476 2414.87 95.366 2414.87 107.45C2414.87 119.534 2421.33 126.424 2430.02 126.424ZM2430.02 121.707C2424.19 121.707 2420.17 116.937 2420.17 107.45C2420.17 97.963 2424.19 93.193 2430.02 93.193C2435.8 93.193 2439.83 97.963 2439.83 107.45C2439.83 116.937 2435.8 121.707 2430.02 121.707ZM2447.94 88.9V93.511H2456.31V126H2461.56V88.9H2447.94ZM2484.84 126.424C2493.47 126.424 2499.94 119.534 2499.94 107.45C2499.94 95.366 2493.47 88.476 2484.84 88.476C2476.14 88.476 2469.68 95.366 2469.68 107.45C2469.68 119.534 2476.14 126.424 2484.84 126.424ZM2484.84 121.707C2479.01 121.707 2474.98 116.937 2474.98 107.45C2474.98 97.963 2479.01 93.193 2484.84 93.193C2490.61 93.193 2494.64 97.963 2494.64 107.45C2494.64 116.937 2490.61 121.707 2484.84 121.707ZM2502.75 88.9V93.511H2511.13V126H2516.37V88.9H2502.75ZM2539.65 126.424C2548.29 126.424 2554.75 119.534 2554.75 107.45C2554.75 95.366 2548.29 88.476 2539.65 88.476C2530.95 88.476 2524.49 95.366 2524.49 107.45C2524.49 119.534 2530.95 126.424 2539.65 126.424ZM2539.65 121.707C2533.82 121.707 2529.79 116.937 2529.79 107.45C2529.79 97.963 2533.82 93.193 2539.65 93.193C2545.42 93.193 2549.45 97.963 2549.45 107.45C2549.45 116.937 2545.42 121.707 2539.65 121.707ZM2557.56 88.9V93.511H2565.94V126H2571.19V88.9H2557.56ZM2594.46 126.424C2603.1 126.424 2609.56 119.534 2609.56 107.45C2609.56 95.366 2603.1 88.476 2594.46 88.476C2585.77 88.476 2579.3 95.366 2579.3 107.45C2579.3 119.534 2585.77 126.424 2594.46 126.424ZM2594.46 121.707C2588.63 121.707 2584.6 116.937 2584.6 107.45C2584.6 97.963 2588.63 93.193 2594.46 93.193C2600.24 93.193 2604.26 97.963 2604.26 107.45C2604.26 116.937 2600.24 121.707 2594.46 121.707ZM2612.38 88.9V93.511H2620.75V126H2626V88.9H2612.38ZM2649.27 126.424C2657.91 126.424 2664.37 119.534 2664.37 107.45C2664.37 95.366 2657.91 88.476 2649.27 88.476C2640.58 88.476 2634.11 95.366 2634.11 107.45C2634.11 119.534 2640.58 126.424 2649.27 126.424ZM2649.27 121.707C2643.44 121.707 2639.41 116.937 2639.41 107.45C2639.41 97.963 2643.44 93.193 2649.27 93.193C2655.05 93.193 2659.07 97.963 2659.07 107.45C2659.07 116.937 2655.05 121.707 2649.27 121.707ZM2667.19 88.9V93.511H2675.56V126H2680.81V88.9H2667.19ZM2704.08 126.424C2712.72 126.424 2719.19 119.534 2719.19 107.45C2719.19 95.366 2712.72 88.476 2704.08 88.476C2695.39 88.476 2688.92 95.366 2688.92 107.45C2688.92 119.534 2695.39 126.424 2704.08 126.424ZM2704.08 121.707C2698.25 121.707 2694.22 116.937 2694.22 107.45C2694.22 97.963 2698.25 93.193 2704.08 93.193C2709.86 93.193 2713.89 97.963 2713.89 107.45C2713.89 116.937 2709.86 121.707 2704.08 121.707ZM2722 88.9V93.511H2730.37V126H2735.62V88.9H2722ZM2758.89 126.424C2767.53 126.424 2774 119.534 2774 107.45C2774 95.366 2767.53 88.476 2758.89 88.476C2750.2 88.476 2743.73 95.366 2743.73 107.45C2743.73 119.534 2750.2 126.424 2758.89 126.424ZM2758.89 121.707C2753.06 121.707 2749.03 116.937 2749.03 107.45C2749.03 97.963 2753.06 93.193 2758.89 93.193C2764.67 93.193 2768.7 97.963 2768.7 107.45C2768.7 116.937 2764.67 121.707 2758.89 121.707ZM2776.81 88.9V93.511H2785.18V126H2790.43V88.9H2776.81ZM2813.7 126.424C2822.34 126.424 2828.81 119.534 2828.81 107.45C2828.81 95.366 2822.34 88.476 2813.7 88.476C2805.01 88.476 2798.55 95.366 2798.55 107.45C2798.55 119.534 2805.01 126.424 2813.7 126.424ZM2813.7 121.707C2807.87 121.707 2803.85 116.937 2803.85 107.45C2803.85 97.963 2807.87 93.193 2813.7 93.193C2819.48 93.193 2823.51 97.963 2823.51 107.45C2823.51 116.937 2819.48 121.707 2813.7 121.707ZM2831.62 88.9V93.511H2840V126H2845.24V88.9H2831.62ZM2868.52 126.424C2877.15 126.424 2883.62 119.534 2883.62 107.45C2883.62 95.366 2877.15 88.476 2868.52 88.476C2859.82 88.476 2853.36 95.366 2853.36 107.45C2853.36 119.534 2859.82 126.424 2868.52 126.424ZM2868.52 121.707C2862.69 121.707 2858.66 116.937 2858.66 107.45C2858.66 97.963 2862.69 93.193 2868.52 93.193C2874.29 93.193 2878.32 97.963 2878.32 107.45C2878.32 116.937 2874.29 121.707 2868.52 121.707ZM2886.43 88.9V93.511H2894.81V126H2900.05V88.9H2886.43ZM2923.33 126.424C2931.97 126.424 2938.43 119.534 2938.43 107.45C2938.43 95.366 2931.97 88.476 2923.33 88.476C2914.64 88.476 2908.17 95.366 2908.17 107.45C2908.17 119.534 2914.64 126.424 2923.33 126.424ZM2923.33 121.707C2917.5 121.707 2913.47 116.937 2913.47 107.45C2913.47 97.963 2917.5 93.193 2923.33 93.193C2929.1 93.193 2933.13 97.963 2933.13 107.45C2933.13 116.937 2929.1 121.707 2923.33 121.707ZM2941.24 88.9V93.511H2949.62V126H2954.87V88.9H2941.24ZM2978.14 126.424C2986.78 126.424 2993.24 119.534 2993.24 107.45C2993.24 95.366 2986.78 88.476 2978.14 88.476C2969.45 88.476 2962.98 95.366 2962.98 107.45C2962.98 119.534 2969.45 126.424 2978.14 126.424ZM2978.14 121.707C2972.31 121.707 2968.28 116.937 2968.28 107.45C2968.28 97.963 2972.31 93.193 2978.14 93.193C2983.92 93.193 2987.94 97.963 2987.94 107.45C2987.94 116.937 2983.92 121.707 2978.14 121.707ZM2996.06 88.9V93.511H3004.43V126H3009.68V88.9H2996.06ZM3032.95 126.424C3041.59 126.424 3048.06 119.534 3048.06 107.45C3048.06 95.366 3041.59 88.476 3032.95 88.476C3024.26 88.476 3017.79 95.366 3017.79 107.45C3017.79 119.534 3024.26 126.424 3032.95 126.424ZM3032.95 121.707C3027.12 121.707 3023.09 116.937 3023.09 107.45C3023.09 97.963 3027.12 93.193 3032.95 93.193C3038.73 93.193 3042.76 97.963 3042.76 107.45C3042.76 116.937 3038.73 121.707 3032.95 121.707ZM3050.87 88.9V93.511H3059.24V126H3064.49V88.9H3050.87ZM3087.76 126.424C3096.4 126.424 3102.87 119.534 3102.87 107.45C3102.87 95.366 3096.4 88.476 3087.76 88.476C3079.07 88.476 3072.6 95.366 3072.6 107.45C3072.6 119.534 3079.07 126.424 3087.76 126.424ZM3087.76 121.707C3081.93 121.707 3077.9 116.937 3077.9 107.45C3077.9 97.963 3081.93 93.193 3087.76 93.193C3093.54 93.193 3097.57 97.963 3097.57 107.45C3097.57 116.937 3093.54 121.707 3087.76 121.707ZM3105.68 88.9V93.511H3114.05V126H3119.3V88.9H3105.68ZM3142.57 126.424C3151.21 126.424 3157.68 119.534 3157.68 107.45C3157.68 95.366 3151.21 88.476 3142.57 88.476C3133.88 88.476 3127.42 95.366 3127.42 107.45C3127.42 119.534 3133.88 126.424 3142.57 126.424ZM3142.57 121.707C3136.74 121.707 3132.72 116.937 3132.72 107.45C3132.72 97.963 3136.74 93.193 3142.57 93.193C3148.35 93.193 3152.38 97.963 3152.38 107.45C3152.38 116.937 3148.35 121.707 3142.57 121.707ZM3160.49 88.9V93.511H3168.86V126H3174.11V88.9H3160.49ZM3197.38 126.424C3206.02 126.424 3212.49 119.534 3212.49 107.45C3212.49 95.366 3206.02 88.476 3197.38 88.476C3188.69 88.476 3182.23 95.366 3182.23 107.45C3182.23 119.534 3188.69 126.424 3197.38 126.424ZM3197.38 121.707C3191.55 121.707 3187.53 116.937 3187.53 107.45C3187.53 97.963 3191.55 93.193 3197.38 93.193C3203.16 93.193 3207.19 97.963 3207.19 107.45C3207.19 116.937 3203.16 121.707 3197.38 121.707ZM3215.3 88.9V93.511H3223.68V126H3228.92V88.9H3215.3ZM3252.2 126.424C3260.84 126.424 3267.3 119.534 3267.3 107.45C3267.3 95.366 3260.84 88.476 3252.2 88.476C3243.5 88.476 3237.04 95.366 3237.04 107.45C3237.04 119.534 3243.5 126.424 3252.2 126.424ZM3252.2 121.707C3246.37 121.707 3242.34 116.937 3242.34 107.45C3242.34 97.963 3246.37 93.193 3252.2 93.193C3257.97 93.193 3262 97.963 3262 107.45C3262 116.937 3257.97 121.707 3252.2 121.707ZM3270.11 88.9V93.511H3278.49V126H3283.73V88.9H3270.11ZM3307.01 126.424C3315.65 126.424 3322.11 119.534 3322.11 107.45C3322.11 95.366 3315.65 88.476 3307.01 88.476C3298.32 88.476 3291.85 95.366 3291.85 107.45C3291.85 119.534 3298.32 126.424 3307.01 126.424ZM3307.01 121.707C3301.18 121.707 3297.15 116.937 3297.15 107.45C3297.15 97.963 3301.18 93.193 3307.01 93.193C3312.79 93.193 3316.81 97.963 3316.81 107.45C3316.81 116.937 3312.79 121.707 3307.01 121.707ZM3324.93 88.9V93.511H3333.3V126H3338.55V88.9H3324.93ZM3361.82 126.424C3370.46 126.424 3376.92 119.534 3376.92 107.45C3376.92 95.366 3370.46 88.476 3361.82 88.476C3353.13 88.476 3346.66 95.366 3346.66 107.45C3346.66 119.534 3353.13 126.424 3361.82 126.424ZM3361.82 121.707C3355.99 121.707 3351.96 116.937 3351.96 107.45C3351.96 97.963 3355.99 93.193 3361.82 93.193C3367.6 93.193 3371.62 97.963 3371.62 107.45C3371.62 116.937 3367.6 121.707 3361.82 121.707ZM3379.74 88.9V93.511H3388.11V126H3393.36V88.9H3379.74ZM3416.63 126.424C3425.27 126.424 3431.74 119.534 3431.74 107.45C3431.74 95.366 3425.27 88.476 3416.63 88.476C3407.94 88.476 3401.47 95.366 3401.47 107.45C3401.47 119.534 3407.94 126.424 3416.63 126.424ZM3416.63 121.707C3410.8 121.707 3406.77 116.937 3406.77 107.45C3406.77 97.963 3410.8 93.193 3416.63 93.193C3422.41 93.193 3426.44 97.963 3426.44 107.45C3426.44 116.937 3422.41 121.707 3416.63 121.707Z" fill="white"/>
<path d="M-50.4126 0H1383.32V183H-50.4126V0Z" fill="url(#paint0_linear_1305_23)"/>
<path d="M1383.32 0H-50.4126V183H1383.32V0Z" fill="url(#paint1_linear_1305_23)"/>
<path d="M-50.4126 0H1383.32V183H-50.4126V0Z" fill="url(#paint2_linear_1305_23)"/>
</g>
<defs>
<linearGradient id="paint0_linear_1305_23" x1="666.454" y1="0" x2="666.454" y2="183" gradientUnits="userSpaceOnUse">
<stop stop-opacity="0.545"/>
<stop offset="1"/>
</linearGradient>
<linearGradient id="paint1_linear_1305_23" x1="682.225" y1="56.547" x2="703.969" y2="522.689" gradientUnits="userSpaceOnUse">
<stop stop-opacity="0.545"/>
<stop offset="1"/>
</linearGradient>
<linearGradient id="paint2_linear_1305_23" x1="666.454" y1="0" x2="666.454" y2="183" gradientUnits="userSpaceOnUse">
<stop stop-opacity="0.545"/>
<stop offset="1"/>
</linearGradient>
<clipPath id="clip0_1305_23">
<rect width="1222" height="223" fill="white"/>
</clipPath>
</defs>
</svg>
