<svg width="457" height="458" viewBox="0 0 457 458" fill="none" xmlns="http://www.w3.org/2000/svg">
<g clip-path="url(#clip0_1354_47)">
<path d="M418.575 227.475C418.575 122.388 333.953 37.1985 229.568 37.1985C125.182 37.1985 40.5605 122.388 40.5605 227.475C40.5605 332.563 125.182 417.752 229.568 417.752C333.953 417.752 418.575 332.563 418.575 227.475Z" fill="url(#paint0_linear_1354_47)"/>
<path d="M388.575 227.475C388.575 138.957 317.385 67.1985 229.568 67.1985C141.75 67.1985 70.5605 138.957 70.5605 227.475C70.5605 315.994 141.75 387.752 229.568 387.752C317.385 387.752 388.575 315.994 388.575 227.475Z" stroke="#1D1D1D" stroke-width="60" stroke-dasharray="10 10"/>
<path d="M194.289 423.368L208.181 344.583L194.289 423.368ZM194.289 423.368L208.01 344.553L194.289 423.368ZM194.004 423.317C87.0406 404.297 15.5632 301.751 34.3547 194.275C34.3639 194.222 34.3723 194.174 34.3815 194.122C34.3848 194.103 34.3868 194.092 34.39 194.074C34.3969 194.034 34.4014 194.009 34.4083 193.97C34.4116 193.951 34.4158 193.927 34.4191 193.909C34.4237 193.883 34.4308 193.843 34.4355 193.816C34.4387 193.798 34.4432 193.772 34.4465 193.754C34.4511 193.728 34.4577 193.691 34.4624 193.664C34.4668 193.64 34.47 193.622 34.4744 193.597C34.4802 193.564 34.4839 193.544 34.4897 193.511C34.4941 193.487 34.4972 193.469 34.5016 193.445C34.5075 193.412 34.5112 193.392 34.5171 193.359C34.5204 193.34 34.5261 193.309 34.5294 193.29C34.5341 193.264 34.5399 193.232 34.5446 193.206C34.5491 193.181 34.5524 193.162 34.5569 193.138C34.5616 193.112 34.5672 193.081 34.5719 193.055C34.5764 193.03 34.5804 193.008 34.5849 192.983C34.5896 192.957 34.595 192.927 34.5998 192.901C34.6043 192.877 34.6079 192.857 34.6124 192.832C34.6183 192.799 34.6217 192.781 34.6276 192.748C34.6321 192.724 34.6359 192.703 34.6404 192.679C34.6464 192.646 34.65 192.626 34.656 192.594C34.6605 192.569 34.6635 192.553 34.668 192.528C34.674 192.496 34.6783 192.472 34.6843 192.44C34.6877 192.421 34.693 192.393 34.6964 192.374C34.7012 192.348 34.7081 192.311 34.713 192.285C34.7164 192.266 34.7209 192.242 34.7243 192.223C34.7291 192.197 34.7372 192.154 34.7421 192.128C34.7466 192.103 34.7482 192.095 34.7528 192.07C34.7601 192.031 34.7668 191.995 34.7741 191.956C34.7764 191.944 34.7787 191.931 34.781 191.919C34.7907 191.867 34.7995 191.82 34.8093 191.768C34.8128 191.749 34.8149 191.738 34.8184 191.72C34.8257 191.681 34.8308 191.654 34.8382 191.614C34.8428 191.59 34.8447 191.58 34.8493 191.556C34.8543 191.53 34.8616 191.491 34.8665 191.464C34.87 191.446 34.876 191.414 34.8795 191.396C34.8845 191.37 34.8907 191.337 34.8956 191.311C34.9003 191.287 34.9042 191.266 34.9089 191.242C34.9138 191.216 34.9192 191.188 34.9242 191.162C34.9289 191.137 34.9339 191.111 34.9386 191.086C34.9436 191.06 34.9482 191.036 34.9532 191.01C34.9579 190.985 34.9631 190.959 34.9678 190.934C34.9715 190.915 34.9786 190.878 34.9824 190.858C34.9871 190.834 34.9919 190.809 34.9966 190.784C35.0016 190.758 35.0069 190.731 35.012 190.705C35.0167 190.68 35.0213 190.656 35.0261 190.632C35.0311 190.606 35.0359 190.581 35.0409 190.555C35.0457 190.531 35.0509 190.504 35.0557 190.479C35.0607 190.453 35.0654 190.429 35.0705 190.403C35.0753 190.379 35.0804 190.352 35.0852 190.328C35.089 190.308 35.0962 190.272 35.1 190.252C35.1048 190.228 35.11 190.202 35.1148 190.177C35.1198 190.151 35.1248 190.126 35.1299 190.1C35.1347 190.076 35.1398 190.05 35.1446 190.025C35.1497 189.999 35.1545 189.975 35.1597 189.949C35.1645 189.924 35.1695 189.899 35.1743 189.875C35.1794 189.849 35.1853 189.819 35.1905 189.793C35.1941 189.775 35.2006 189.742 35.2042 189.724C35.2094 189.698 35.2169 189.66 35.222 189.634C35.2269 189.61 35.2293 189.598 35.2341 189.573C35.2419 189.534 35.2468 189.51 35.2546 189.471C35.2607 189.44 35.2644 189.422 35.2705 189.391C35.2783 189.353 35.2863 189.312 35.2942 189.273C35.299 189.249 35.3042 189.224 35.3091 189.199C35.313 189.18 35.3205 189.142 35.3245 189.123C35.3294 189.098 35.3337 189.077 35.3386 189.053C35.3438 189.027 35.3502 188.996 35.3554 188.97C35.3591 188.952 35.3654 188.92 35.3691 188.902C35.3744 188.876 35.3806 188.846 35.3859 188.82C35.3908 188.795 35.3956 188.772 35.4005 188.748C35.4058 188.722 35.4112 188.695 35.4165 188.669C35.4214 188.645 35.4268 188.619 35.4317 188.595C35.437 188.569 35.4421 188.544 35.4474 188.518C35.4524 188.494 35.4574 188.47 35.4623 188.445C35.4677 188.419 35.473 188.393 35.4784 188.367C35.4834 188.343 35.4888 188.317 35.4938 188.292C35.4991 188.267 35.5038 188.244 35.5091 188.218C35.5142 188.194 35.5201 188.165 35.5251 188.141C35.5304 188.115 35.5346 188.095 35.54 188.069C35.545 188.045 35.5516 188.013 35.5566 187.989C35.562 187.963 35.566 187.944 35.5714 187.918C35.5777 187.887 35.581 187.871 35.5873 187.841C35.5927 187.815 35.5981 187.79 35.6035 187.764C35.6086 187.739 35.6137 187.715 35.6188 187.691C35.6242 187.665 35.6297 187.638 35.6352 187.612C35.6403 187.588 35.6452 187.565 35.6502 187.54C35.6557 187.515 35.661 187.489 35.6665 187.463C35.6716 187.439 35.6771 187.413 35.6822 187.388C35.6877 187.363 35.693 187.337 35.6985 187.312C35.7036 187.287 35.7085 187.264 35.7137 187.24C35.7205 187.207 35.7246 187.188 35.7314 187.156C35.7366 187.132 35.7406 187.112 35.7458 187.088C35.7526 187.056 35.7563 187.039 35.7632 187.006C35.7748 186.952 35.783 186.913 35.7947 186.859C35.8002 186.833 35.8033 186.819 35.8088 186.793C35.814 186.769 35.82 186.74 35.8252 186.716C35.8294 186.697 35.8372 186.66 35.8413 186.641C35.8465 186.617 35.8514 186.594 35.8566 186.57C35.8622 186.544 35.868 186.517 35.8736 186.491C35.8788 186.467 35.8843 186.442 35.8895 186.417C35.8951 186.392 35.9004 186.367 35.906 186.341C35.9113 186.317 35.9168 186.291 35.9221 186.267C35.9277 186.241 35.9329 186.217 35.9385 186.191C35.9437 186.167 35.9492 186.142 35.9545 186.118C35.9615 186.085 35.9646 186.072 35.9716 186.039C35.9769 186.015 35.9818 185.993 35.9871 185.968C35.9927 185.943 35.9984 185.916 36.0041 185.891C36.0093 185.866 36.0149 185.841 36.0202 185.817C36.0258 185.791 36.0313 185.766 36.037 185.74C36.0423 185.716 36.0478 185.691 36.0531 185.667C36.0588 185.641 36.0641 185.617 36.0697 185.592C36.0751 185.567 36.081 185.54 36.0864 185.516C36.092 185.491 36.0973 185.467 36.1029 185.441C36.1083 185.417 36.1142 185.391 36.1195 185.366C36.1252 185.341 36.1301 185.319 36.1358 185.293C36.1411 185.269 36.1475 185.24 36.1528 185.216C36.1586 185.191 36.1636 185.168 36.1693 185.142C36.1748 185.118 36.1806 185.091 36.186 185.067C36.1918 185.042 36.1975 185.016 36.2032 184.991C36.2086 184.966 36.214 184.942 36.2194 184.918C36.2252 184.892 36.2317 184.863 36.2375 184.837C36.2429 184.813 36.2476 184.792 36.253 184.768C36.2603 184.736 36.2635 184.722 36.2707 184.69C36.2938 184.587 36.3158 184.49 36.3391 184.387C36.3435 184.368 36.3489 184.344 36.3532 184.325C36.3601 184.295 36.3651 184.273 36.372 184.243C36.3764 184.223 36.383 184.194 36.3874 184.175C36.3929 184.151 36.3994 184.122 36.4049 184.098C36.4108 184.073 36.4157 184.051 36.4216 184.025C36.4271 184.001 36.4334 183.974 36.4389 183.95C36.4448 183.924 36.45 183.901 36.4559 183.876C36.4614 183.852 36.4677 183.824 36.4732 183.8C36.4791 183.775 36.4841 183.753 36.49 183.727C36.4969 183.697 36.5009 183.68 36.5078 183.65C36.5123 183.631 36.5202 183.597 36.5246 183.577C36.5302 183.553 36.5366 183.526 36.5421 183.502C36.5481 183.476 36.5529 183.455 36.5589 183.43C36.5645 183.406 36.5714 183.376 36.577 183.351C36.583 183.326 36.5876 183.306 36.5936 183.28C36.5992 183.256 36.6058 183.228 36.6115 183.204C36.6174 183.178 36.6222 183.158 36.6282 183.132C36.6352 183.102 36.6395 183.083 36.6466 183.053C36.6511 183.034 36.6585 183.002 36.663 182.983C36.6686 182.959 36.6756 182.929 36.6812 182.905C36.6872 182.88 36.6919 182.86 36.6979 182.835C36.7035 182.811 36.7107 182.78 36.7164 182.756C36.7224 182.73 36.727 182.711 36.733 182.686C36.7387 182.661 36.7456 182.632 36.7513 182.608C36.7558 182.589 36.763 182.559 36.7676 182.539C36.7747 182.509 36.7799 182.487 36.787 182.457C36.7915 182.438 36.7963 182.418 36.8009 182.399C36.808 182.369 36.8149 182.34 36.8221 182.31C36.8266 182.291 36.8283 182.284 36.8328 182.265C36.8514 182.187 36.8664 182.124 36.8851 182.046C36.8882 182.033 36.8885 182.032 36.8915 182.019C36.9002 181.983 36.9064 181.957 36.9151 181.921C36.9181 181.908 36.9238 181.885 36.9269 181.872C36.9341 181.842 36.9404 181.816 36.9476 181.786C36.9522 181.767 36.9586 181.74 36.9632 181.721C36.9689 181.697 36.9768 181.665 36.9826 181.641C36.9888 181.615 36.9925 181.6 36.9987 181.574C37.0045 181.55 37.0126 181.517 37.0185 181.493C37.0246 181.467 37.0287 181.451 37.0349 181.425C37.0421 181.395 37.0475 181.373 37.0547 181.343C37.0594 181.324 37.0657 181.299 37.0703 181.279C37.0776 181.25 37.0837 181.225 37.091 181.195C37.0957 181.176 37.1021 181.149 37.1067 181.13C37.1126 181.106 37.121 181.072 37.1269 181.048C37.1331 181.023 37.1366 181.008 37.1429 180.983C37.1487 180.959 37.1571 180.925 37.163 180.901C37.1692 180.875 37.1733 180.859 37.1796 180.833C37.1869 180.804 37.1921 180.783 37.1995 180.753C37.2042 180.734 37.2109 180.706 37.2156 180.687C37.223 180.657 37.2285 180.635 37.2359 180.605C37.2406 180.586 37.2478 180.557 37.2525 180.538C37.2585 180.514 37.2665 180.482 37.2724 180.458C37.2787 180.432 37.2832 180.414 37.2895 180.389C37.2955 180.365 37.3029 180.335 37.3088 180.311C37.3151 180.286 37.3209 180.263 37.3272 180.238C37.3332 180.214 37.3398 180.187 37.3458 180.163C37.3505 180.144 37.3586 180.112 37.3634 180.093C37.3709 180.063 37.3754 180.045 37.3829 180.015C37.3877 179.996 37.3938 179.971 37.3986 179.952C37.4285 179.833 37.4562 179.723 37.4863 179.604C37.4879 179.598 37.491 179.586 37.4926 179.579C37.5016 179.544 37.51 179.51 37.5191 179.475C37.5223 179.462 37.5266 179.445 37.5298 179.432C37.5389 179.397 37.5448 179.373 37.5539 179.338C37.5588 179.319 37.5626 179.303 37.5675 179.284C37.5736 179.26 37.5832 179.223 37.5893 179.199C37.5958 179.173 37.599 179.161 37.6055 179.135C37.6131 179.105 37.619 179.082 37.6266 179.053C37.6315 179.034 37.6381 179.008 37.643 178.989C37.6506 178.959 37.6564 178.936 37.664 178.907C37.6689 178.888 37.6761 178.86 37.6809 178.841C37.6886 178.811 37.6945 178.788 37.7022 178.758C37.7071 178.739 37.7136 178.714 37.7185 178.695C37.7246 178.671 37.7338 178.636 37.7399 178.612C37.7464 178.587 37.7499 178.573 37.7565 178.548C37.7642 178.518 37.7707 178.493 37.7784 178.463C37.7834 178.444 37.7891 178.422 37.7941 178.403C37.8018 178.373 37.8086 178.347 37.8163 178.317C37.8213 178.298 37.8272 178.275 37.8322 178.256C37.8399 178.226 37.847 178.199 37.8548 178.169C37.8597 178.15 37.8654 178.129 37.8704 178.11C37.8781 178.08 37.8849 178.054 37.8926 178.024C37.8993 177.999 37.9023 177.988 37.9089 177.962C37.9151 177.939 37.9253 177.9 37.9315 177.876C37.9365 177.857 37.9411 177.84 37.9461 177.821C37.9539 177.791 37.9621 177.76 37.9699 177.73C37.9733 177.717 37.9793 177.694 37.9826 177.682C37.992 177.646 37.9996 177.617 38.009 177.582L38.0094 177.58C38.0455 177.444 38.0828 177.303 38.1191 177.167L38.1226 177.154C38.1321 177.118 38.1436 177.075 38.1531 177.039C38.1564 177.027 38.1581 177.021 38.1614 177.008C38.1709 176.972 38.1785 176.944 38.1881 176.908C38.1931 176.89 38.1961 176.878 38.2012 176.859C38.2091 176.83 38.2184 176.795 38.2263 176.766C38.2297 176.753 38.2368 176.727 38.2402 176.714C38.2482 176.685 38.2569 176.652 38.2649 176.622C38.27 176.603 38.2747 176.586 38.2798 176.567C38.2878 176.538 38.296 176.507 38.3039 176.478C38.3091 176.459 38.3141 176.44 38.3192 176.421C38.3272 176.392 38.3348 176.363 38.3429 176.334C38.348 176.315 38.354 176.293 38.3592 176.274C38.3656 176.25 38.3763 176.211 38.3827 176.187C38.3878 176.168 38.3932 176.149 38.3983 176.13C38.4064 176.1 38.4142 176.071 38.4222 176.042C38.4274 176.023 38.4333 176.001 38.4384 175.982C38.4465 175.953 38.4538 175.926 38.4619 175.897C38.4671 175.878 38.4728 175.857 38.478 175.838C38.4861 175.808 38.4939 175.78 38.502 175.75C38.5071 175.731 38.5124 175.712 38.5176 175.693C38.5257 175.664 38.5342 175.633 38.5423 175.603C38.5475 175.584 38.5507 175.573 38.5559 175.554C38.5657 175.518 38.5727 175.493 38.5825 175.457C38.586 175.445 38.5915 175.425 38.595 175.412C38.6048 175.377 38.6129 175.347 38.6227 175.312C38.6244 175.306 38.6297 175.287 38.6315 175.28C38.6789 175.109 38.7288 174.93 38.7767 174.759C38.7784 174.753 38.7798 174.747 38.7816 174.741C38.7915 174.706 38.8027 174.666 38.8126 174.631C38.8161 174.618 38.8188 174.608 38.8224 174.596C38.8323 174.56 38.8414 174.528 38.8514 174.492C38.8567 174.474 38.858 174.469 38.8633 174.45C38.8716 174.421 38.8829 174.381 38.8912 174.351C38.8947 174.339 38.9006 174.318 38.9041 174.305C38.9124 174.276 38.9231 174.238 38.9314 174.209C38.9367 174.19 38.94 174.178 38.9453 174.16C38.9537 174.13 38.9636 174.095 38.9719 174.066C38.9772 174.047 38.981 174.034 38.9863 174.015C38.9963 173.98 39.0032 173.956 39.0132 173.92C39.0168 173.908 39.0238 173.883 39.0274 173.871C39.0375 173.835 39.0441 173.812 39.0542 173.777C39.0596 173.758 39.0631 173.745 39.0685 173.726C39.0769 173.697 39.0872 173.661 39.0956 173.632C39.101 173.613 39.1046 173.6 39.11 173.582C39.1184 173.552 39.1282 173.518 39.1366 173.488C39.1402 173.476 39.1476 173.45 39.1512 173.438C39.1597 173.408 39.1703 173.371 39.1788 173.342C39.1824 173.329 39.1877 173.311 39.1913 173.299C39.2014 173.263 39.2102 173.233 39.2203 173.198C39.224 173.185 39.228 173.171 39.2316 173.159C39.2418 173.124 39.2524 173.087 39.2626 173.052C39.2644 173.045 39.2669 173.037 39.2687 173.031C39.2806 172.989 39.2922 172.949 39.3041 172.908L39.3042 172.908C39.357 172.726 39.4091 172.548 39.4624 172.366C39.4642 172.36 39.4675 172.349 39.4693 172.342C39.4814 172.301 39.491 172.269 39.5031 172.228C39.5067 172.215 39.5075 172.212 39.5112 172.2C39.5215 172.165 39.5325 172.127 39.5429 172.092C39.5466 172.08 39.5504 172.067 39.5541 172.054C39.5627 172.025 39.5756 171.982 39.5843 171.952C39.5879 171.94 39.5928 171.923 39.5965 171.911C39.6052 171.882 39.6169 171.842 39.6256 171.813C39.6311 171.794 39.6344 171.783 39.6399 171.764C39.6486 171.735 39.6594 171.699 39.6682 171.669C39.6718 171.657 39.6784 171.635 39.6821 171.623C39.6925 171.587 39.7005 171.561 39.711 171.526C39.7147 171.513 39.7214 171.49 39.7251 171.478C39.7356 171.443 39.7431 171.418 39.7536 171.383C39.7591 171.364 39.7624 171.353 39.768 171.335C39.7767 171.305 39.7876 171.269 39.7963 171.24C39.8019 171.222 39.8057 171.209 39.8113 171.19C39.82 171.161 39.8312 171.124 39.84 171.095C39.8437 171.082 39.8485 171.066 39.8523 171.054C39.8628 171.019 39.8731 170.985 39.8837 170.949C39.8856 170.943 39.8918 170.923 39.8937 170.917C39.906 170.876 39.9148 170.847 39.9271 170.806C39.929 170.8 39.9319 170.79 39.9338 170.784C40.015 170.515 40.0989 170.24 40.1811 169.972C40.183 169.966 40.1826 169.967 40.1846 169.961C40.1971 169.92 40.2086 169.883 40.2212 169.842C40.2231 169.836 40.2267 169.824 40.2286 169.818C40.2412 169.777 40.2509 169.745 40.2635 169.705C40.2673 169.692 40.2689 169.687 40.2727 169.675C40.2853 169.634 40.2928 169.61 40.3055 169.569C40.3093 169.556 40.3136 169.542 40.3175 169.53C40.3283 169.495 40.3387 169.461 40.3495 169.426C40.3553 169.408 40.3555 169.407 40.3613 169.389C40.3721 169.354 40.3825 169.32 40.3934 169.285C40.3972 169.273 40.4019 169.258 40.4058 169.246C40.4166 169.211 40.4265 169.179 40.4374 169.144C40.4413 169.132 40.4467 169.114 40.4506 169.102C40.4615 169.067 40.4703 169.039 40.4812 169.004C40.4869 168.985 40.4896 168.977 40.4954 168.958C40.5045 168.929 40.5174 168.888 40.5265 168.859C40.5304 168.847 40.5346 168.833 40.5385 168.821C40.5513 168.78 40.5588 168.756 40.5716 168.716C40.5755 168.703 40.5776 168.696 40.5815 168.684C40.5943 168.643 40.604 168.613 40.6168 168.572C40.6187 168.566 40.6219 168.556 40.6238 168.55C40.6366 168.509 40.6487 168.471 40.6615 168.43C40.6634 168.424 40.6636 168.424 40.6656 168.417C40.7499 168.151 40.8368 167.878 40.9222 167.612C40.9261 167.599 40.9251 167.603 40.929 167.59C40.942 167.55 40.954 167.512 40.9671 167.472C40.969 167.466 40.972 167.457 40.974 167.45C40.987 167.41 40.9969 167.379 41.0099 167.339C41.0139 167.327 41.0165 167.318 41.0205 167.306C41.0317 167.271 41.043 167.236 41.0542 167.202C41.0582 167.189 41.0626 167.176 41.0665 167.164C41.0778 167.129 41.0879 167.098 41.0991 167.063C41.1031 167.051 41.1088 167.033 41.1128 167.021C41.124 166.986 41.134 166.955 41.1453 166.921C41.1493 166.908 41.1543 166.893 41.1583 166.88C41.1696 166.846 41.1796 166.815 41.1909 166.78C41.1949 166.768 41.2009 166.75 41.2049 166.737C41.2162 166.703 41.2262 166.672 41.2374 166.638C41.2415 166.625 41.2457 166.612 41.2498 166.6C41.2611 166.565 41.2728 166.529 41.2841 166.495C41.2881 166.483 41.2909 166.474 41.2949 166.462C41.3081 166.422 41.3176 166.393 41.3309 166.352C41.3329 166.346 41.3367 166.335 41.3387 166.328C41.3519 166.288 41.3643 166.25 41.3776 166.21C41.3796 166.204 41.3796 166.204 41.3817 166.198C41.486 165.881 41.5918 165.562 41.6976 165.246L41.6999 165.239C41.7133 165.199 41.7279 165.156 41.7414 165.115C41.7434 165.109 41.7452 165.104 41.7472 165.098C41.7607 165.058 41.7737 165.019 41.7873 164.979C41.7914 164.967 41.7903 164.97 41.7945 164.957C41.808 164.917 41.8188 164.885 41.8324 164.845C41.8344 164.839 41.8405 164.821 41.8425 164.815C41.8542 164.78 41.867 164.742 41.8786 164.708C41.8827 164.696 41.8865 164.684 41.8907 164.672C41.9023 164.638 41.9137 164.604 41.9254 164.57C41.9295 164.557 41.9342 164.544 41.9383 164.531C41.95 164.497 41.9622 164.461 41.9739 164.426C41.976 164.42 41.9827 164.401 41.9848 164.395C41.9965 164.36 42.0098 164.321 42.0215 164.287C42.0256 164.274 42.0279 164.268 42.0321 164.256C42.0458 164.215 42.056 164.185 42.0697 164.145C42.0718 164.139 42.0762 164.126 42.0783 164.12C42.092 164.08 42.1041 164.044 42.1179 164.004C42.12 163.998 42.1214 163.994 42.1235 163.988C42.2451 163.633 42.3714 163.267 42.4949 162.913C42.4971 162.907 42.4978 162.905 42.4999 162.898C42.5138 162.858 42.5284 162.817 42.5424 162.777C42.5445 162.771 42.5461 162.766 42.5482 162.76C42.5622 162.72 42.5753 162.683 42.5893 162.643C42.5936 162.631 42.5933 162.631 42.5976 162.619C42.6096 162.585 42.6247 162.542 42.6367 162.508C42.6388 162.502 42.6449 162.484 42.647 162.478C42.659 162.444 42.6723 162.406 42.6844 162.372C42.6887 162.36 42.6927 162.348 42.697 162.336C42.709 162.302 42.7217 162.266 42.7337 162.232C42.738 162.22 42.741 162.211 42.7453 162.199C42.7573 162.165 42.7709 162.126 42.783 162.092C42.7873 162.08 42.79 162.072 42.7943 162.06C42.8065 162.026 42.8205 161.986 42.8326 161.952C42.8369 161.94 42.8382 161.936 42.8425 161.924C42.8567 161.884 42.868 161.852 42.8822 161.813C42.8843 161.806 42.8883 161.795 42.8905 161.789C42.9047 161.749 42.9183 161.711 42.9325 161.671L42.935 161.664C43.0485 161.345 43.1603 161.034 43.2754 160.716L43.2762 160.714C43.2926 160.669 43.3065 160.63 43.3229 160.585C43.3252 160.579 43.3241 160.582 43.3262 160.576C43.3407 160.536 43.3569 160.492 43.3713 160.452C43.3735 160.446 43.3744 160.443 43.3766 160.437C43.391 160.398 43.4054 160.358 43.4199 160.318C43.4221 160.312 43.4253 160.304 43.4275 160.298C43.4419 160.258 43.4536 160.226 43.4681 160.186C43.4703 160.18 43.4769 160.162 43.4791 160.156C43.4915 160.122 43.5064 160.081 43.5189 160.047C43.5233 160.035 43.5247 160.031 43.5291 160.019C43.5416 159.985 43.5569 159.944 43.5694 159.91C43.5716 159.904 43.5773 159.888 43.5796 159.882C43.5941 159.842 43.6063 159.809 43.6209 159.769C43.6231 159.763 43.6266 159.754 43.6289 159.748C43.6434 159.708 43.6568 159.672 43.6714 159.632C43.6736 159.626 43.6771 159.617 43.6793 159.611C43.6939 159.571 43.7084 159.532 43.723 159.492L43.7268 159.482C43.8606 159.12 43.9916 158.769 44.1275 158.408L44.1286 158.404C44.1435 158.365 44.1594 158.323 44.1743 158.283C44.1765 158.277 44.1791 158.27 44.1814 158.264C44.1963 158.225 44.2103 158.188 44.2252 158.148C44.2297 158.136 44.2286 158.139 44.2331 158.127C44.248 158.088 44.2605 158.055 44.2755 158.015C44.2777 158.009 44.2837 157.994 44.286 157.988C44.2988 157.954 44.3148 157.911 44.3277 157.878C44.3322 157.866 44.3328 157.864 44.3373 157.852C44.3502 157.818 44.3671 157.774 44.38 157.74C44.3823 157.734 44.3868 157.722 44.3891 157.716C44.402 157.682 44.4196 157.636 44.4325 157.602C44.4347 157.596 44.4381 157.587 44.4404 157.581C44.4554 157.542 44.4699 157.504 44.4849 157.465C44.4872 157.459 44.4894 157.453 44.4917 157.447C44.5068 157.408 44.523 157.365 44.5381 157.326C44.5404 157.32 44.5386 157.324 44.5409 157.318C44.7132 156.868 44.8836 156.428 45.0589 155.98C45.0613 155.974 45.0586 155.981 45.0609 155.975C45.0784 155.93 45.0926 155.894 45.1102 155.849L45.1145 155.838C45.1321 155.793 45.1462 155.758 45.1638 155.713C45.1661 155.707 45.1648 155.71 45.1672 155.704C45.1848 155.659 45.1986 155.624 45.2162 155.579L45.2208 155.568C45.2385 155.523 45.2522 155.488 45.2698 155.443C45.2722 155.438 45.2713 155.44 45.2736 155.434C45.2913 155.389 45.3052 155.354 45.3229 155.309L45.3272 155.298C45.3449 155.254 45.3596 155.216 45.3773 155.172L45.3784 155.169C45.5733 154.677 45.7668 154.195 45.9655 153.705L45.9693 153.696C45.9874 153.651 46.0019 153.615 46.02 153.571L46.0236 153.562C46.0417 153.518 46.0562 153.482 46.0743 153.438C46.0767 153.432 46.0761 153.433 46.0785 153.427C46.0966 153.383 46.1111 153.347 46.1292 153.303L46.1328 153.294C46.1509 153.25 46.1657 153.214 46.1839 153.169C46.1863 153.163 46.1852 153.166 46.1876 153.16C46.2058 153.116 46.2213 153.078 46.2396 153.033L46.2409 153.03C46.5141 152.364 46.7895 151.703 47.0695 151.04L47.0703 151.039C47.3316 150.421 47.595 149.807 47.8623 149.192L47.8632 149.19C47.8823 149.146 47.901 149.104 47.9201 149.06L47.9202 149.059C47.9394 149.015 47.9579 148.973 47.9771 148.929L47.9781 148.927C47.9972 148.883 48.0156 148.841 48.0348 148.797C48.0373 148.791 48.0329 148.801 48.0355 148.795C48.0547 148.752 48.0733 148.709 48.0926 148.665L48.0928 148.664C81.1758 73.2237 158.811 25.1958 242.543 31.6293L236.415 111.394C176.586 106.797 123.598 148.352 113.159 208.053C101.973 272.03 144.523 333.264 208.01 344.553L194.004 423.317Z" fill="#1D1D1D"/>
<circle cx="225.5" cy="228.5" r="197.5" fill="#1D1D1D"/>
<path d="M228.835 384.361C313.927 384.361 382.908 315.38 382.908 230.288C382.908 145.196 313.927 76.2151 228.835 76.2151C143.743 76.2151 74.7617 145.196 74.7617 230.288C74.7617 315.38 143.743 384.361 228.835 384.361Z" fill="url(#paint1_radial_1354_47)"/>
<path d="M228.835 383.861C313.651 383.861 382.408 315.104 382.408 230.288C382.408 145.472 313.651 76.7151 228.835 76.7151C144.019 76.7151 75.2617 145.472 75.2617 230.288C75.2617 315.104 144.019 383.861 228.835 383.861Z" stroke="#707070"/>
</g>
<defs>
<linearGradient id="paint0_linear_1354_47" x1="40.5605" y1="227.475" x2="418.575" y2="227.475" gradientUnits="userSpaceOnUse">
<stop stop-color="#C22F6F"/>
<stop offset="0.97" stop-color="#FF8900"/>
<stop offset="1" stop-color="#E47A68"/>
</linearGradient>
<radialGradient id="paint1_radial_1354_47" cx="0" cy="0" r="1" gradientUnits="userSpaceOnUse" gradientTransform="translate(228.835 230.288) scale(154.073)">
<stop stop-color="#393939"/>
<stop offset="1" stop-color="#1D1D1D"/>
</radialGradient>
<clipPath id="clip0_1354_47">
<rect width="456.058" height="457.426" fill="white"/>
</clipPath>
</defs>
</svg>
