<svg width="175" height="507" viewBox="0 0 175 507" fill="none" xmlns="http://www.w3.org/2000/svg">
<g clip-path="url(#clip0_1442_84)">
<g opacity="0.43">
<path opacity="0.43" d="M114.002 489.545C112.156 489.186 110.416 488.693 108.831 488.08C106.698 487.256 104.914 486.235 103.53 485.048C98.626 480.841 96.8184 472.923 96.8007 472.844L96.7885 472.789L96.7702 472.736L8.12913 215.078C8.00424 214.551 6.64348 208.552 7.94468 202.875C9.26048 197.135 13.3438 191.489 13.6641 191.052L191.222 -13.2193C191.553 -13.5639 197.776 -19.9723 203.805 -22.0403C207.437 -23.2861 211.075 -22.9883 213.488 -22.519C215.043 -22.2165 216.033 -21.8493 216.043 -21.8456L216.121 -21.8164L216.204 -21.8001L480.569 29.6191C481.193 29.81 488.547 32.1208 493.583 36.4553C498.634 40.8021 501.546 47.3577 501.756 47.8403L590.336 305.319C590.431 305.643 592.119 311.549 590.814 317.073C589.49 322.679 585.037 328.148 584.857 328.368L407.906 531.941L407.874 531.978L407.845 532.019C407.833 532.036 406.564 533.81 404.444 535.837C402.516 537.682 399.464 540.124 395.879 541.281C393.657 541.999 390.979 542.315 387.92 542.221C385.302 542.141 382.951 541.774 381.441 541.48C380.334 541.264 379.657 541.084 379.65 541.082L379.617 541.073L379.582 541.066L116.869 489.968L116.813 489.958L116.756 489.953C116.745 489.952 115.632 489.862 114.002 489.545Z" fill="url(#paint0_linear_1442_84)"/>
<path opacity="0.43" d="M213.297 -21.5368C211.004 -21.9828 207.552 -22.268 204.13 -21.094C198.402 -19.1293 192.413 -13.0118 191.961 -12.5444L14.4462 191.678C14.0141 192.272 10.1654 197.666 8.91993 203.099C7.69781 208.431 8.92966 214.1 9.09147 214.8L97.7529 472.517L97.7773 472.627C97.7943 472.703 99.5274 480.296 104.181 484.289C107.233 486.907 111.764 488.09 114.193 488.563C115.758 488.867 116.826 488.955 116.834 488.956L116.948 488.965L379.842 540.098L379.909 540.116C379.916 540.118 380.566 540.291 381.632 540.498C383.106 540.785 385.4 541.143 387.951 541.221C390.895 541.312 393.459 541.012 395.572 540.33C402.147 538.207 406.983 531.506 407.029 531.44L407.086 531.36L407.151 531.285L584.094 327.72C584.356 327.4 588.586 322.156 589.841 316.843C591.067 311.653 589.508 306.058 589.383 305.624L500.822 48.2012C500.537 47.5496 497.74 41.3529 492.931 37.2137C488.149 33.098 481.157 30.8487 480.326 30.5911L215.852 -20.8476L215.693 -20.9084C215.654 -20.9227 214.733 -21.2576 213.297 -21.5368ZM213.679 -23.5008C215.351 -23.1757 216.395 -22.7819 216.395 -22.7819L480.81 28.647C480.81 28.647 488.766 30.9892 494.236 35.6972C499.706 40.4053 502.69 47.4791 502.69 47.4791L591.289 305.014C591.289 305.014 593.205 311.303 591.788 317.303C590.371 323.303 585.621 329.014 585.621 329.014L408.661 532.597C408.661 532.597 403.504 539.871 396.187 542.234C388.869 544.596 379.391 542.049 379.391 542.049L116.678 490.951C116.678 490.951 108.092 490.28 102.879 485.807C97.6652 481.335 95.8243 473.061 95.8243 473.061L7.16794 215.359C7.16794 215.359 5.541 208.885 6.96962 202.652C8.39845 196.419 12.8827 190.427 12.8827 190.427L190.483 -13.8938C190.483 -13.8938 197.002 -20.7644 203.48 -22.9865C207.349 -24.3133 211.202 -23.9826 213.679 -23.5008Z" fill="#FD8605"/>
</g>
</g>
<defs>
<linearGradient id="paint0_linear_1442_84" x1="390.242" y1="536.365" x2="275.272" y2="-24.5796" gradientUnits="userSpaceOnUse">
<stop stop-color="#A8743A"/>
<stop offset="1"/>
</linearGradient>
<clipPath id="clip0_1442_84">
<rect width="175" height="507" fill="white"/>
</clipPath>
</defs>
</svg>
