<svg xmlns="http://www.w3.org/2000/svg" xmlns:xlink="http://www.w3.org/1999/xlink" width="176" height="176" viewBox="0 0 176 176">
  <defs>
    <linearGradient id="linear-gradient" x1="0.5" x2="0.5" y2="1.436" gradientUnits="objectBoundingBox">
      <stop offset="0" stop-color="#ff9e00"/>
      <stop offset="1" stop-color="#ff9d00"/>
    </linearGradient>
    <filter id="Ellipse_2132" x="0" y="0" width="176" height="176" filterUnits="userSpaceOnUse">
      <feOffset dy="3" input="SourceAlpha"/>
      <feGaussianBlur stdDeviation="3" result="blur"/>
      <feFlood flood-opacity="0.161"/>
      <feComposite operator="in" in2="blur"/>
      <feComposite in="SourceGraphic"/>
    </filter>
  </defs>
  <g id="Group_4493" data-name="Group 4493" transform="translate(-269 -2376)">
    <g transform="matrix(1, 0, 0, 1, 269, 2376)" filter="url(#Ellipse_2132)">
      <g id="Ellipse_2132-2" data-name="Ellipse 2132" transform="translate(9 6)" stroke="#fe9d00" stroke-width="1" fill="url(#linear-gradient)">
        <circle cx="79" cy="79" r="79" stroke="none"/>
        <circle cx="79" cy="79" r="78.5" fill="none"/>
      </g>
    </g>
    <path id="Path_1766" data-name="Path 1766" d="M53.618,48.828a19.986,19.986,0,1,0-17.952,0,44.416,44.416,0,0,0-25.44,15.328,7.766,7.766,0,0,0,.228,10.092,46.111,46.111,0,0,0,68.376,0,7.766,7.766,0,0,0,.228-10.092,44.416,44.416,0,0,0-25.44-15.328Z" transform="translate(312.524 2411.016)" fill="#fff"/>
  </g>
</svg>
