<svg xmlns="http://www.w3.org/2000/svg" xmlns:xlink="http://www.w3.org/1999/xlink" width="126" height="128" viewBox="0 0 126 128">
  <defs>
    <radialGradient id="radial-gradient" cx="0.5" cy="0.5" r="0.5" gradientUnits="objectBoundingBox">
      <stop offset="0" stop-color="#f57d2b"/>
      <stop offset="1"/>
    </radialGradient>
  </defs>
  <g id="Group_4493" data-name="Group 4493" transform="translate(-586 -1386)">
    <rect id="Rectangle_7952" data-name="Rectangle 7952" width="126" height="128" transform="translate(586 1386)" fill="url(#radial-gradient)"/>
    <g id="Ellipse_2124" data-name="Ellipse 2124" transform="translate(609.902 1410.417)" stroke="#fff" stroke-width="2">
      <circle cx="39.333" cy="39.333" r="39.333" stroke="none"/>
      <circle cx="39.333" cy="39.333" r="38.333" fill="none"/>
    </g>
    <path id="Icon_material-lock-open" data-name="Icon material-lock-open" d="M21.8,33.1a3.95,3.95,0,1,0-3.95-3.95A3.961,3.961,0,0,0,21.8,33.1ZM33.648,15.324H31.673v-3.95a9.874,9.874,0,1,0-19.748,0h3.752a6.122,6.122,0,0,1,12.244,0v3.95H9.95A3.961,3.961,0,0,0,6,19.273V39.022a3.961,3.961,0,0,0,3.95,3.95h23.7a3.961,3.961,0,0,0,3.95-3.95V19.273A3.961,3.961,0,0,0,33.648,15.324Zm0,23.7H9.95V19.273h23.7Z" transform="translate(627.436 1422.954)" fill="#fff"/>
  </g>
</svg>
