<svg width="97" height="691" viewBox="0 0 97 691" fill="none" xmlns="http://www.w3.org/2000/svg">
<g clip-path="url(#clip0_1453_257)">
<g opacity="0.28">
<path d="M240.947 487.261L21.4531 360.61C21.4531 360.61 13.3391 357.301 8.6001 350.48C3.8611 343.659 2.5 333.328 2.5 333.328L2.62012 77.208C2.62012 77.208 4.33191 68.129 8.75391 61.896C11.831 57.8601 15.7802 54.5713 20.3062 52.275L240.044 -73.832" fill="url(#paint0_linear_1453_257)"/>
<path d="M240.947 487.261L21.4531 360.61C21.4531 360.61 13.3391 357.301 8.6001 350.48C3.8611 343.659 2.5 333.328 2.5 333.328L2.62012 77.208C2.62012 77.208 4.33191 68.129 8.75391 61.896C11.831 57.8601 15.7802 54.5713 20.3062 52.275L240.044 -73.832" stroke="#FD8604" stroke-width="5"/>
</g>
<path opacity="0.88" d="M284.697 790.807L65.2031 664.156C65.2031 664.156 57.0891 660.847 52.3501 654.026C47.6111 647.205 46.25 636.874 46.25 636.874L46.3701 380.754C46.3701 380.754 48.0819 371.675 52.5039 365.442C55.581 361.406 59.5302 358.117 64.0562 355.821L283.794 229.714" stroke="#FD8604" stroke-width="5"/>
<path d="M47.251 388.83C54.7068 388.83 60.751 382.786 60.751 375.33C60.751 367.874 54.7068 361.83 47.251 361.83C39.7951 361.83 33.751 367.874 33.751 375.33C33.751 382.786 39.7951 388.83 47.251 388.83Z" fill="#CB7D00"/>
</g>
<defs>
<linearGradient id="paint0_linear_1453_257" x1="224.017" y1="438.446" x2="-78.2842" y2="328.152" gradientUnits="userSpaceOnUse">
<stop stop-color="#FF9300"/>
<stop offset="1"/>
</linearGradient>
<clipPath id="clip0_1453_257">
<rect width="97" height="691" fill="white"/>
</clipPath>
</defs>
</svg>
