<svg width="448" height="193" viewBox="0 0 448 193" fill="none" xmlns="http://www.w3.org/2000/svg">
<g clip-path="url(#clip0_1450_253)">
<g opacity="0.59">
<path opacity="0.59" d="M10.1191 159.313C10.2827 157.441 10.5902 155.66 11.0331 154.021C11.6294 151.814 12.4566 149.934 13.4917 148.434C17.1593 143.12 24.8394 140.494 24.9166 140.468L24.97 140.45L25.0209 140.427L271.822 25.3461C272.332 25.1668 278.152 23.1861 283.93 23.8849C289.774 24.5915 295.813 28.0586 296.28 28.3313L517.897 183.413C518.274 183.706 525.295 189.22 527.982 194.995C529.6 198.475 529.685 202.122 529.472 204.569C529.334 206.147 529.072 207.169 529.07 207.179L529.049 207.26L529.041 207.344L505.62 475.478C505.496 476.118 503.969 483.669 500.189 489.129C496.397 494.603 490.187 498.184 489.729 498.444L243.099 613.445C242.787 613.573 237.094 615.869 231.467 615.151C225.757 614.422 219.855 610.569 219.618 610.413L-1.24107 455.861L-1.28153 455.833L-1.32466 455.809C-1.34299 455.798 -3.23923 454.723 -5.47606 452.828C-7.51144 451.105 -10.258 448.328 -11.7838 444.886C-12.7297 442.752 -13.3244 440.124 -13.5513 437.074C-13.7455 434.463 -13.6268 432.089 -13.4929 430.556C-13.3948 429.434 -13.2864 428.742 -13.2853 428.735L-13.2798 428.701L-13.2767 428.666L9.99824 162.207L10.0032 162.15L10.0016 162.093C10.0014 162.083 9.97465 160.967 10.1191 159.313Z" fill="url(#paint0_linear_1450_253)"/>
<path opacity="0.59" d="M528.476 204.482C528.679 202.157 528.601 198.696 527.075 195.417C524.523 189.93 517.816 184.618 517.304 184.218L295.74 29.174C295.105 28.8066 289.341 25.5463 283.81 24.8774C278.383 24.2211 272.878 26.0391 272.199 26.2732L25.3415 141.38L25.2348 141.416C25.1608 141.441 17.7953 143.959 14.3146 149.002C12.0321 152.31 11.3303 156.937 11.1151 159.4C10.9764 160.988 11.0009 162.058 11.0011 162.066L11.0042 162.181L-12.287 428.823L-12.2977 428.891C-12.2987 428.898 -12.4025 429.562 -12.4969 430.643C-12.6276 432.139 -12.7435 434.456 -12.5543 436.999C-12.3359 439.935 -11.7692 442.452 -10.8698 444.481C-8.07124 450.793 -0.904864 454.897 -0.835047 454.937L-0.748866 454.985L-0.667814 455.042L220.182 609.587C220.527 609.813 226.183 613.469 231.594 614.159C236.881 614.834 242.279 612.699 242.697 612.529L489.273 497.553C489.89 497.201 495.756 493.773 499.367 488.559C502.956 483.376 504.46 476.191 504.629 475.338L528.058 207.094L528.102 206.929C528.112 206.889 528.348 205.938 528.476 204.482ZM530.468 204.656C530.319 206.352 530.037 207.431 530.037 207.431L506.612 475.615C506.612 475.615 505.117 483.768 501.011 489.698C496.904 495.627 490.186 499.334 490.186 499.334L243.502 614.36C243.502 614.36 237.452 616.923 231.341 616.143C225.229 615.363 219.056 611.24 219.056 611.24L-1.81427 456.68C-1.81427 456.68 -9.5832 452.316 -12.6978 445.291C-15.8124 438.266 -14.2727 428.579 -14.2727 428.579L9.00223 162.12C9.00223 162.12 8.7699 153.516 12.6689 147.867C16.568 142.217 24.5984 139.521 24.5984 139.521L271.442 24.42C271.442 24.42 277.706 22.125 284.05 22.8922C290.395 23.6596 296.82 27.489 296.82 27.489L518.49 182.608C518.49 182.608 526.001 188.368 528.888 194.574C530.612 198.279 530.687 202.144 530.468 204.656Z" fill="#FD8605"/>
</g>
</g>
<defs>
<linearGradient id="paint0_linear_1450_253" x1="-7.48821" y1="438.769" x2="537.989" y2="265.76" gradientUnits="userSpaceOnUse">
<stop stop-color="#A8743A"/>
<stop offset="1"/>
</linearGradient>
<clipPath id="clip0_1450_253">
<rect width="448" height="193" fill="white"/>
</clipPath>
</defs>
</svg>
