<svg xmlns="http://www.w3.org/2000/svg" xmlns:xlink="http://www.w3.org/1999/xlink" width="180.092" height="158.233" viewBox="0 0 180.092 158.233">
  <defs>
    <linearGradient id="linear-gradient" x1="0.739" y1="0.987" x2="0.279" y2="0.016" gradientUnits="objectBoundingBox">
      <stop offset="0" stop-color="#007fff"/>
      <stop offset="1"/>
    </linearGradient>
  </defs>
  <g id="Path_2261" data-name="Path 2261" opacity="0.7" fill="url(#linear-gradient)">
    <path d="M 48.30332565307617 157.2332305908203 C 47.59461975097656 157.2332611083984 46.25975799560547 157.1503295898438 45.28241348266602 156.5946807861328 C 43.7976188659668 155.7506256103516 42.88530349731445 153.7094421386719 42.87625503540039 153.6889190673828 L 42.85439300537109 153.6392517089844 L 42.82643890380859 153.5904083251953 L 1.686619877815247 82.30891418457031 C 1.583016633987427 82.07292938232422 0.9521240592002869 80.56791687011719 1.00289261341095 79.04066467285156 C 1.055156707763672 77.46785736083984 1.826381206512451 75.74717712402344 1.939169406890869 75.50348663330078 L 42.79743957519531 4.709945678710938 C 42.92606353759766 4.513001918792725 44.28767776489258 2.463536262512207 45.77396011352539 1.6075519323349 C 46.64582443237305 1.10541558265686 47.61275482177734 1.000006437301636 48.27041625976562 1.000006437301636 C 48.68186950683594 1.000006437301636 48.95130157470703 1.042665600776672 48.95398330688477 1.043097376823425 L 49.03721237182617 1.057256460189819 L 49.11746215820312 1.056551933288574 L 130.4624328613281 1.056551933288574 C 130.7790832519531 1.092381477355957 132.8564300537109 1.355665326118469 134.4091491699219 2.24173378944397 C 135.9605102539062 3.127034664154053 137.0969543457031 4.702167510986328 137.2461395263672 4.915038585662842 L 178.3526000976562 76.13861846923828 C 178.4235382080078 76.2786865234375 179.1475524902344 77.74867248535156 179.0883483886719 79.23566436767578 C 179.02685546875 80.77920532226562 178.1282653808594 82.49059295654297 178.0604705810547 82.61757659912109 L 137.3231811523438 153.2015228271484 L 137.2984619140625 153.2443237304688 L 137.2780914306641 153.2893676757812 C 137.2691040039062 153.30908203125 136.2702178955078 155.460693359375 134.5616607666016 156.4039154052734 C 133.2456665039062 157.1304321289062 131.3719635009766 157.2088775634766 130.6274566650391 157.2088775634766 C 130.3157958984375 157.2088775634766 130.1234436035156 157.1960296630859 130.1215362548828 157.1958923339844 L 130.0876617431641 157.193603515625 L 130.0523681640625 157.1935119628906 L 49.17814254760742 157.1935119628906 L 49.12105178833008 157.1935119628906 L 49.06432342529297 157.2000122070312 C 49.0631217956543 157.2001495361328 48.7591438293457 157.2332305908203 48.30332565307617 157.2332305908203 Z" stroke="none"/>
    <path d="M 48.27037048339844 2 C 47.83186340332031 2 46.98927307128906 2.061599731445312 46.27302551269531 2.474105834960938 C 45.19027709960938 3.097686767578125 44.01089477539062 4.68017578125 43.65142822265625 5.230819702148438 L 2.826385498046875 75.96681976318359 C 2.585494995117188 76.49102783203125 2.041229248046875 77.90274810791016 2.002334594726562 79.07389068603516 C 1.961273193359375 80.30934906005859 2.456863403320312 81.56426239013672 2.581695556640625 81.85923767089844 L 43.74641418457031 153.1799774169922 L 43.79263305664062 153.2884368896484 C 43.99940490722656 153.7496337890625 44.79873657226562 155.16943359375 45.77659606933594 155.725341796875 C 46.34434509277344 156.048095703125 47.26527404785156 156.2332153320312 48.30325317382812 156.2332153320312 C 48.66966247558594 156.2332153320312 48.92106628417969 156.2093353271484 48.9542236328125 156.2060241699219 L 49.05628967285156 156.1934814453125 L 130.1175231933594 156.1927032470703 L 130.1898345947266 156.1981964111328 C 130.2091522216797 156.1993865966797 130.3718566894531 156.2088470458984 130.6275024414062 156.2088470458984 C 132.0166015625 156.2088470458984 133.3066558837891 155.9544830322266 134.0783386230469 155.5284576416016 C 135.2431030273438 154.8854370117188 136.1228332519531 153.4012145996094 136.3678588867188 152.8751983642578 L 136.4031982421875 152.7949829101562 L 136.4570617675781 152.7016448974609 L 177.1875 82.12957763671875 C 177.4326477050781 81.67073822021484 178.0449523925781 80.30438995361328 178.0891265869141 79.19583892822266 C 178.1302642822266 78.16248321533203 177.6718902587891 77.01169586181641 177.4734802246094 76.61597442626953 L 136.3981781005859 5.446395874023438 C 136.0858459472656 5.000106811523438 135.0813903808594 3.7767333984375 133.9134826660156 3.110244750976562 C 132.5940551757812 2.357284545898438 130.7961273193359 2.104293823242188 130.4045715332031 2.056549072265625 L 49.11746215820312 2.056549072265625 L 48.96611022949219 2.06298828125 L 48.79104614257812 2.029922485351562 C 48.74867248535156 2.024185180664062 48.55337524414062 2 48.27037048339844 2 M 48.27037048339844 0 C 48.78489685058594 0 49.11746215820312 0.056549072265625 49.11746215820312 0.056549072265625 L 130.5154571533203 0.056549072265625 C 130.5154571533203 0.056549072265625 133.0106201171875 0.292266845703125 134.9047698974609 1.373199462890625 C 136.7989349365234 2.4541015625 138.0920562744141 4.380218505859375 138.0920562744141 4.380218505859375 L 179.2304077148438 75.6590576171875 C 179.2304077148438 75.6590576171875 180.1616821289062 77.41400909423828 180.0875396728516 79.27543640136719 C 180.0133819580078 81.13686370849609 178.9338684082031 83.10478973388672 178.9338684082031 83.10478973388672 L 138.1892700195312 153.7013854980469 C 138.1892700195312 153.7013854980469 137.0791778564453 156.1563415527344 135.0449523925781 157.2793579101562 C 133.0107421875 158.4023895263672 130.0523529052734 158.1934814453125 130.0523681640625 158.1934814453125 L 49.17813110351562 158.1934814453125 C 49.17814636230469 158.1934814453125 46.59263610839844 158.4898529052734 44.78817749023438 157.4640350341797 C 42.98371887207031 156.4382171630859 41.96037292480469 154.0902709960938 41.96037292480469 154.0902709960938 L 0.7953643798828125 82.76519775390625 C 0.7953643798828125 82.76519775390625 -0.060760498046875 80.938720703125 0.0034332275390625 79.00746154785156 C 0.067596435546875 77.07614898681641 1.05206298828125 75.04005432128906 1.05206298828125 75.04005432128906 L 41.94412231445312 4.187911987304688 C 41.94412231445312 4.187911987304688 43.48155212402344 1.773818969726562 45.27488708496094 0.7409820556640625 C 46.345703125 0.1242523193359375 47.50782775878906 0 48.27037048339844 0 Z" stroke="none" fill="#007fff"/>
  </g>
</svg>
