<svg width="445" height="438" viewBox="0 0 445 438" fill="none" xmlns="http://www.w3.org/2000/svg">
<g clip-path="url(#clip0_1473_314)">
<g opacity="0.43">
<path opacity="0.43" d="M79.0949 508.317C77.297 507.768 75.619 507.096 74.1072 506.322C72.0725 505.279 70.4059 504.079 69.1538 502.754C64.7177 498.06 63.7471 490 63.7378 489.919L63.7314 489.863L63.7187 489.809L2.48959 224.411C2.42042 223.874 1.69379 217.768 3.57983 212.261C5.48705 206.691 10.1357 201.504 10.4997 201.104L208.336 16.5622C208.701 16.2542 215.556 10.5329 221.766 9.10621C225.506 8.24682 229.093 8.92265 231.442 9.64101C232.957 10.104 233.903 10.5724 233.912 10.5772L233.986 10.6142L234.067 10.6391L491.514 89.3487C492.115 89.6036 499.185 92.6684 503.739 97.5031C508.306 102.352 510.517 109.173 510.676 109.674L571.862 374.888C571.923 375.22 572.985 381.267 571.111 386.623C569.21 392.058 564.212 397.03 564.01 397.229L366.85 581.14L366.814 581.174L366.782 581.211C366.768 581.227 365.321 582.858 363.002 584.652C360.892 586.285 357.604 588.394 353.919 589.17C351.635 589.652 348.94 589.687 345.908 589.274C343.314 588.921 341.016 588.31 339.545 587.861C338.467 587.531 337.813 587.281 337.806 587.279L337.774 587.266L337.74 587.256L81.9011 509.038L81.8464 509.021L81.7903 509.011C81.7799 509.009 80.6826 508.803 79.0949 508.317Z" fill="url(#paint0_linear_1473_314)"/>
<path opacity="0.43" d="M231.15 10.5972C228.917 9.91453 225.515 9.27074 221.99 10.0807C216.091 11.436 209.498 16.8925 209 17.31L11.2118 201.807C10.7203 202.352 6.33121 207.313 4.52592 212.584C2.75448 217.757 3.3874 223.522 3.47525 224.234L64.7184 489.693L64.7312 489.805C64.7402 489.883 65.6706 497.612 69.8805 502.067C72.6415 504.989 77.0219 506.638 79.3873 507.361C80.9116 507.827 81.9637 508.026 81.972 508.027L82.0843 508.048L338.1 586.32L338.164 586.345C338.17 586.347 338.799 586.587 339.837 586.904C341.273 587.343 343.515 587.939 346.043 588.283C348.961 588.68 351.541 588.65 353.713 588.192C360.471 586.767 365.977 580.611 366.031 580.55L366.096 580.476L366.168 580.409L563.319 396.506C563.613 396.215 568.366 391.443 570.168 386.293C571.928 381.261 570.962 375.535 570.883 375.091L509.709 109.935C509.494 109.258 507.36 102.806 503.011 98.1887C498.687 93.598 491.97 90.6322 491.171 90.2894L233.617 11.5491L233.466 11.472C233.429 11.4537 232.548 11.0246 231.15 10.5972ZM231.734 8.68462C233.362 9.18225 234.359 9.68278 234.359 9.68278L491.855 88.4071C491.855 88.4071 499.52 91.566 504.467 96.8173C509.414 102.069 511.641 109.412 511.641 109.412L572.842 374.684C572.842 374.684 574.09 381.136 572.055 386.953C570.021 392.77 564.702 397.951 564.702 397.951L367.532 581.871C367.532 581.871 361.647 588.564 354.125 590.149C346.604 591.734 337.448 588.212 337.448 588.212L81.6088 509.994C81.6088 509.994 73.143 508.431 68.427 503.441C63.7109 498.451 62.7443 490.033 62.7443 490.033L1.50462 224.59C1.50462 224.59 0.562916 217.984 2.63371 211.936C4.70471 205.889 9.78809 200.4 9.78809 200.4L207.672 15.8143C207.672 15.8143 214.87 9.66445 221.542 8.13147C225.526 7.2162 229.322 7.94712 231.734 8.68462Z" fill="#007FFF"/>
</g>
</g>
<defs>
<linearGradient id="paint0_linear_1473_314" x1="348.828" y1="583.695" x2="293.079" y2="14.0409" gradientUnits="userSpaceOnUse">
<stop stop-color="#007FFF"/>
<stop offset="1"/>
</linearGradient>
<clipPath id="clip0_1473_314">
<rect width="445" height="438" fill="white"/>
</clipPath>
</defs>
</svg>
