<svg xmlns="http://www.w3.org/2000/svg" width="13.71" height="14.623" viewBox="0 0 13.71 14.623">
  <path id="Icon_awesome-shield-alt" data-name="Icon awesome-shield-alt" d="M13.992,2.392,8.508.107a1.375,1.375,0,0,0-1.054,0L1.97,2.392a1.37,1.37,0,0,0-.845,1.265c0,5.67,3.27,9.588,6.327,10.862a1.375,1.375,0,0,0,1.054,0c2.448-1.02,6.329-4.541,6.329-10.862A1.371,1.371,0,0,0,13.992,2.392ZM7.983,12.748l0-10.882L13,3.96c-.094,4.324-2.345,7.458-5.021,8.789Z" transform="translate(-1.125 -0.002)" fill="#fff"/>
</svg>
