<svg width="17" height="16" viewBox="0 0 17 16" fill="none" xmlns="http://www.w3.org/2000/svg">
<g clip-path="url(#clip0_1551_136)">
<path d="M14.168 3.82031H2.388C1.75483 3.82084 1.14774 4.0726 0.700014 4.52033C0.252292 4.96805 0.000529632 5.57514 0 6.20831V12.8943C0.000529632 13.5275 0.252292 14.1346 0.700014 14.5823C1.14774 15.03 1.75483 15.2818 2.388 15.2823H14.168C14.8012 15.2818 15.4083 15.03 15.856 14.5823C16.3037 14.1346 16.5555 13.5275 16.556 12.8943V6.20831C16.5555 5.57514 16.3037 4.96805 15.856 4.52033C15.4083 4.0726 14.8012 3.82084 14.168 3.82031V3.82031Z" fill="#F57D2B"/>
<path d="M11.7367 0.0396312L2.38772 1.86663C1.67172 2.02563 0.636719 2.74663 0.636719 3.62163C0.888207 3.36272 1.19262 3.16114 1.52916 3.03067C1.86569 2.9002 2.22643 2.8439 2.58672 2.86563H14.0087V2.04963C14.011 1.49935 13.8147 0.966732 13.4557 0.549631V0.549631C13.2342 0.328342 12.961 0.16581 12.6609 0.0767563C12.3607 -0.0122973 12.0431 -0.0250577 11.7367 0.0396312V0.0396312Z" fill="#F57D2B"/>
</g>
<defs>
<clipPath id="clip0_1551_136">
<rect width="16.556" height="15.282" fill="white"/>
</clipPath>
</defs>
</svg>
