<svg width="15" height="15" viewBox="0 0 15 15" fill="none" xmlns="http://www.w3.org/2000/svg">
<g clip-path="url(#clip0_1551_106)">
<path d="M12.8724 4.16895H5.32441C4.97963 4.16895 4.64897 4.30591 4.40518 4.54971C4.16138 4.7935 4.02441 5.12416 4.02441 5.46895V10.7249C4.026 11.0687 4.16366 11.3978 4.40729 11.6403C4.65092 11.8828 4.98067 12.0189 5.32441 12.0189H9.64041C9.73768 12.02 9.83065 12.0591 9.89941 12.1279L12.0454 14.1069C12.1644 14.2229 12.3624 14.1749 12.3624 14.0069V12.2829C12.3624 12.0829 12.4914 12.0139 12.6964 12.0139H12.7304C13.0887 12.0194 13.4358 11.8889 13.7018 11.6489C13.9678 11.4088 14.1331 11.0769 14.1644 10.7199V5.46695C14.1652 5.29677 14.1324 5.12812 14.0678 4.97068C14.0032 4.81323 13.9082 4.67009 13.7881 4.54948C13.6681 4.42887 13.5254 4.33317 13.3682 4.26786C13.2111 4.20256 13.0426 4.16894 12.8724 4.16895Z" fill="#00AB00"/>
<path d="M4.305 3.335H10.347V1.11C10.3467 0.815691 10.2297 0.533512 10.0216 0.325404C9.81349 0.117296 9.53131 0.000264786 9.237 0H1.11C0.815691 0.000264786 0.533512 0.117296 0.325404 0.325404C0.117296 0.533512 0.000264786 0.815691 0 1.11V6.737C0.000264786 7.03131 0.117296 7.31349 0.325404 7.5216C0.533512 7.7297 0.815691 7.84674 1.11 7.847H3.192V4.445C3.19358 4.15058 3.31145 3.86871 3.51992 3.6608C3.72839 3.45289 4.01057 3.33579 4.305 3.335V3.335Z" fill="#00AB00"/>
</g>
<defs>
<clipPath id="clip0_1551_106">
<rect width="14.166" height="14.168" fill="white"/>
</clipPath>
</defs>
</svg>
