<svg width="15" height="15" viewBox="0 0 15 15" fill="none" xmlns="http://www.w3.org/2000/svg">
<g clip-path="url(#clip0_1551_124)">
<path d="M13.761 1.966V1.638C13.761 1.20358 13.5884 0.786944 13.2812 0.479759C12.9741 0.172575 12.5574 0 12.123 0C11.6886 0 11.2719 0.172575 10.9648 0.479759C10.6576 0.786944 10.485 1.20358 10.485 1.638V1.966C10.3114 1.96653 10.1451 2.03571 10.0224 2.15843C9.89971 2.28115 9.83053 2.44745 9.83 2.621V5.242C9.83053 5.41555 9.89971 5.58185 10.0224 5.70457C10.1451 5.82729 10.3114 5.89647 10.485 5.897H13.761C13.9346 5.89647 14.1008 5.82729 14.2236 5.70457C14.3463 5.58185 14.4155 5.41555 14.416 5.242V2.621C14.4155 2.44745 14.3463 2.28115 14.2236 2.15843C14.1008 2.03571 13.9346 1.96653 13.761 1.966V1.966ZM13.237 1.966H11.008V1.638C11.008 1.34255 11.1254 1.0592 11.3343 0.850283C11.5432 0.641368 11.8265 0.524 12.122 0.524C12.4175 0.524 12.7008 0.641368 12.9097 0.850283C13.1186 1.0592 13.236 1.34255 13.236 1.638L13.237 1.966ZM11.742 7.208C11.7726 7.42508 11.79 7.64381 11.794 7.863C11.7962 9.17286 11.3053 10.4356 10.419 11.4C10.3359 11.1351 10.1703 10.9038 9.94624 10.7399C9.72221 10.5759 9.45159 10.488 9.174 10.489H8.519V8.518C8.51847 8.34445 8.44929 8.17815 8.32657 8.05543C8.20385 7.93271 8.03755 7.86353 7.864 7.863H3.932V6.553H5.242C5.41573 6.55327 5.58249 6.48471 5.70581 6.36234C5.82912 6.23996 5.89894 6.07373 5.9 5.9V4.587H7.208C7.55546 4.58621 7.88845 4.44783 8.13414 4.20214C8.37983 3.95645 8.51821 3.62346 8.519 3.276V1.612C7.20141 1.19761 5.78657 1.21015 4.47653 1.64782C3.16649 2.08549 2.02824 2.92592 1.22432 4.04908C0.420411 5.17224 -0.00805408 6.52069 0.000114669 7.90189C0.00828342 9.28308 0.452669 10.6264 1.26981 11.74C2.08695 12.8535 3.23506 13.6804 4.55019 14.1026C5.86532 14.5247 7.2802 14.5205 8.5928 14.0906C9.9054 13.6606 11.0486 12.8269 11.8591 11.7085C12.6696 10.5901 13.106 9.24422 13.106 7.863C13.106 7.64 13.093 7.424 13.073 7.208H11.742ZM5.9 13.059C4.63273 12.9009 3.46696 12.285 2.62213 11.3273C1.77731 10.3696 1.31172 9.13609 1.313 7.859C1.31462 7.46554 1.3599 7.07347 1.448 6.69L4.587 9.829V10.484C4.58779 10.8318 4.72645 11.1651 4.97257 11.4108C5.21869 11.6566 5.5522 11.7947 5.9 11.795V13.059Z" fill="white"/>
</g>
<defs>
<clipPath id="clip0_1551_124">
<rect width="14.416" height="14.416" fill="white"/>
</clipPath>
</defs>
</svg>
