<svg width="580" height="389" viewBox="0 0 580 389" fill="none" xmlns="http://www.w3.org/2000/svg">
<g clip-path="url(#clip0_332_1629)">
<path opacity="0.248" d="M284.266 67.366L281.513 63.613H277.133" stroke="black" stroke-width="2.2" stroke-linecap="round"/>
<path opacity="0.248" d="M289.137 74.8469L294.457 83.3583" stroke="black" stroke-width="2.2" stroke-linecap="round"/>
<path opacity="0.248" d="M298.12 97.8422L300.214 93.6846L298.225 89.782" stroke="black" stroke-width="2.2" stroke-linecap="round"/>
<path opacity="0.248" d="M294.457 105.859L289.137 114.37" stroke="black" stroke-width="2.2" stroke-linecap="round"/>
<path opacity="0.248" d="M284.266 122.377L281.513 126.13H277.133" stroke="black" stroke-width="2.2" stroke-linecap="round"/>
<path opacity="0.248" d="M289.137 12.334L294.457 20.8454" stroke="black" stroke-width="2.2" stroke-linecap="round"/>
<path opacity="0.248" d="M298.12 35.3293L300.214 31.1717L298.225 27.269" stroke="black" stroke-width="2.2" stroke-linecap="round"/>
<path opacity="0.248" d="M294.457 43.3459L289.137 51.8573" stroke="black" stroke-width="2.2" stroke-linecap="round"/>
<path opacity="0.248" d="M284.266 59.865L281.513 63.618" stroke="black" stroke-width="2.2" stroke-linecap="round"/>
<path opacity="0.248" d="M299.343 98.378L302.097 94.625H306.477" stroke="black" stroke-width="2.2" stroke-linecap="round"/>
<path opacity="0.248" d="M299.343 153.39L302.097 157.143H306.477" stroke="black" stroke-width="2.2" stroke-linecap="round"/>
<path opacity="0.248" d="M294.936 105.858L289.616 114.369" stroke="black" stroke-width="2.2" stroke-linecap="round"/>
<path opacity="0.248" d="M285.953 128.854L283.859 124.697L285.847 120.794" stroke="black" stroke-width="2.2" stroke-linecap="round"/>
<path opacity="0.248" d="M289.615 136.871L294.935 145.382" stroke="black" stroke-width="2.2" stroke-linecap="round"/>
<path opacity="0.248" d="M299.343 35.8649L302.097 32.1119H306.477" stroke="black" stroke-width="2.2" stroke-linecap="round"/>
<path opacity="0.248" d="M299.343 90.877L302.097 94.6299" stroke="black" stroke-width="2.2" stroke-linecap="round"/>
<path opacity="0.248" d="M294.936 43.345L289.616 51.8563" stroke="black" stroke-width="2.2" stroke-linecap="round"/>
<path opacity="0.248" d="M285.953 66.3424L283.859 62.1847L285.847 58.2821" stroke="black" stroke-width="2.2" stroke-linecap="round"/>
<path opacity="0.248" d="M289.615 74.3579L294.935 82.8693" stroke="black" stroke-width="2.2" stroke-linecap="round"/>
<path opacity="0.248" d="M284.266 193.046L281.513 189.293H277.133" stroke="black" stroke-width="2.2" stroke-linecap="round"/>
<path opacity="0.248" d="M284.266 130.534L281.513 126.781H277.133" stroke="black" stroke-width="2.2" stroke-linecap="round"/>
<path opacity="0.248" d="M289.137 138.015L294.457 146.526" stroke="black" stroke-width="2.2" stroke-linecap="round"/>
<path opacity="0.248" d="M298.12 161.01L300.214 156.853L298.225 152.95" stroke="black" stroke-width="2.2" stroke-linecap="round"/>
<path opacity="0.248" d="M284.266 185.545L281.513 189.298" stroke="black" stroke-width="2.2" stroke-linecap="round"/>
<path opacity="0.248" d="M299.343 161.546L302.097 157.793H306.477" stroke="black" stroke-width="2.2" stroke-linecap="round"/>
<path d="M11.686 153.389L8.93311 157.142H4.55273" stroke="black" stroke-width="2.2" stroke-linecap="round"/>
<path d="M95.8169 94.6289H105.855" stroke="black" stroke-width="2.2" stroke-linecap="round"/>
<path opacity="0.248" d="M121.045 98.377L118.292 94.624H113.912" stroke="black" stroke-width="2.2" stroke-linecap="round"/>
<path opacity="0.248" d="M125.915 105.859L131.235 114.37" stroke="black" stroke-width="2.2" stroke-linecap="round"/>
<path opacity="0.248" d="M134.899 128.853L136.992 124.696L135.004 120.793" stroke="black" stroke-width="2.2" stroke-linecap="round"/>
<path opacity="0.248" d="M131.236 136.871L125.917 145.382" stroke="black" stroke-width="2.2" stroke-linecap="round"/>
<path d="M80.627 153.389L83.3813 157.142H87.7612" stroke="black" stroke-width="2.2" stroke-linecap="round"/>
<path d="M95.8169 157.143H105.855" stroke="black" stroke-width="2.2" stroke-linecap="round"/>
<path opacity="0.248" d="M121.045 153.389L118.292 157.142H113.912" stroke="black" stroke-width="2.2" stroke-linecap="round"/>
<path d="M95.8169 32.1169H105.855" stroke="black" stroke-width="2.2" stroke-linecap="round"/>
<path opacity="0.248" d="M121.045 35.8649L118.292 32.1119H113.912" stroke="black" stroke-width="2.2" stroke-linecap="round"/>
<path opacity="0.248" d="M125.915 43.3459L131.235 51.8573" stroke="black" stroke-width="2.2" stroke-linecap="round"/>
<path opacity="0.248" d="M134.899 66.3413L136.992 62.1836L135.004 58.281" stroke="black" stroke-width="2.2" stroke-linecap="round"/>
<path opacity="0.248" d="M131.236 74.3579L125.917 82.8693" stroke="black" stroke-width="2.2" stroke-linecap="round"/>
<path opacity="0.248" d="M121.045 90.876L118.292 94.629" stroke="black" stroke-width="2.2" stroke-linecap="round"/>
<path opacity="0.248" d="M134.489 67.366L137.243 63.613H141.623" stroke="black" stroke-width="2.2" stroke-linecap="round"/>
<path opacity="0.248" d="M149.681 63.6179H159.719" stroke="black" stroke-width="2.2" stroke-linecap="round"/>
<path opacity="0.248" d="M174.908 67.366L172.155 63.613H167.775" stroke="black" stroke-width="2.2" stroke-linecap="round"/>
<path opacity="0.248" d="M179.778 74.8469L185.098 83.3583" stroke="black" stroke-width="2.2" stroke-linecap="round"/>
<path opacity="0.248" d="M188.761 97.8422L190.855 93.6846L188.866 89.782" stroke="black" stroke-width="2.2" stroke-linecap="round"/>
<path opacity="0.248" d="M185.098 105.859L179.779 114.37" stroke="black" stroke-width="2.2" stroke-linecap="round"/>
<path opacity="0.248" d="M134.489 122.377L137.243 126.13H141.623" stroke="black" stroke-width="2.2" stroke-linecap="round"/>
<path opacity="0.248" d="M149.681 126.13H159.719" stroke="black" stroke-width="2.2" stroke-linecap="round"/>
<path opacity="0.248" d="M174.908 122.377L172.155 126.13H167.775" stroke="black" stroke-width="2.2" stroke-linecap="round"/>
<path opacity="0.248" d="M121.098 97.8433L119.004 93.6857L120.993 89.7831" stroke="black" stroke-width="2.2" stroke-linecap="round"/>
<path d="M134.489 4.85297L137.243 1.09998H141.623" stroke="black" stroke-width="2.2" stroke-linecap="round"/>
<path d="M174.908 4.85297L172.155 1.09998H167.775" stroke="black" stroke-width="2.2" stroke-linecap="round"/>
<path opacity="0.248" d="M179.778 12.334L185.098 20.8454" stroke="black" stroke-width="2.2" stroke-linecap="round"/>
<path opacity="0.248" d="M188.761 35.3293L190.855 31.1717L188.866 27.269" stroke="black" stroke-width="2.2" stroke-linecap="round"/>
<path opacity="0.248" d="M185.098 43.345L179.779 51.8563" stroke="black" stroke-width="2.2" stroke-linecap="round"/>
<path opacity="0.248" d="M134.489 59.865L137.243 63.618" stroke="black" stroke-width="2.2" stroke-linecap="round"/>
<path opacity="0.248" d="M174.907 59.865L172.154 63.618" stroke="black" stroke-width="2.2" stroke-linecap="round"/>
<path opacity="0.248" d="M130.082 12.332L124.762 20.8434" stroke="black" stroke-width="2.2" stroke-linecap="round"/>
<path opacity="0.248" d="M121.098 35.3294L119.004 31.1717L120.993 27.2692" stroke="black" stroke-width="2.2" stroke-linecap="round"/>
<path opacity="0.248" d="M189.985 98.377L192.739 94.624H197.119" stroke="black" stroke-width="2.2" stroke-linecap="round"/>
<path opacity="0.248" d="M205.176 94.6289H215.214" stroke="black" stroke-width="2.2" stroke-linecap="round"/>
<path opacity="0.248" d="M230.403 98.377L227.65 94.624H223.27" stroke="black" stroke-width="2.2" stroke-linecap="round"/>
<path opacity="0.248" d="M235.273 105.859L240.593 114.37" stroke="black" stroke-width="2.2" stroke-linecap="round"/>
<path opacity="0.248" d="M244.257 128.853L246.351 124.696L244.362 120.793" stroke="black" stroke-width="2.2" stroke-linecap="round"/>
<path opacity="0.248" d="M240.595 136.871L235.276 145.382" stroke="black" stroke-width="2.2" stroke-linecap="round"/>
<path opacity="0.248" d="M189.985 153.389L192.739 157.142H197.119" stroke="black" stroke-width="2.2" stroke-linecap="round"/>
<path opacity="0.248" d="M205.176 157.143H215.214" stroke="black" stroke-width="2.2" stroke-linecap="round"/>
<path opacity="0.248" d="M230.403 153.389L227.65 157.142H223.27" stroke="black" stroke-width="2.2" stroke-linecap="round"/>
<path opacity="0.248" d="M185.578 105.859L180.259 114.37" stroke="black" stroke-width="2.2" stroke-linecap="round"/>
<path opacity="0.248" d="M176.593 128.854L174.5 124.697L176.488 120.794" stroke="black" stroke-width="2.2" stroke-linecap="round"/>
<path opacity="0.248" d="M180.257 136.871L185.577 145.382" stroke="black" stroke-width="2.2" stroke-linecap="round"/>
<path opacity="0.248" d="M189.985 35.8649L192.739 32.1119H197.119" stroke="black" stroke-width="2.2" stroke-linecap="round"/>
<path opacity="0.248" d="M205.176 32.1169H215.214" stroke="black" stroke-width="2.2" stroke-linecap="round"/>
<path opacity="0.248" d="M230.403 35.8649L227.65 32.1119H223.27" stroke="black" stroke-width="2.2" stroke-linecap="round"/>
<path opacity="0.248" d="M235.273 43.3459L240.593 51.8573" stroke="black" stroke-width="2.2" stroke-linecap="round"/>
<path opacity="0.248" d="M244.257 66.3413L246.351 62.1836L244.362 58.281" stroke="black" stroke-width="2.2" stroke-linecap="round"/>
<path opacity="0.248" d="M240.595 74.3579L235.276 82.8693" stroke="black" stroke-width="2.2" stroke-linecap="round"/>
<path opacity="0.248" d="M189.985 90.876L192.739 94.629" stroke="black" stroke-width="2.2" stroke-linecap="round"/>
<path opacity="0.248" d="M230.402 90.876L227.649 94.629" stroke="black" stroke-width="2.2" stroke-linecap="round"/>
<path opacity="0.248" d="M185.578 43.345L180.259 51.8563" stroke="black" stroke-width="2.2" stroke-linecap="round"/>
<path opacity="0.248" d="M176.593 66.3424L174.5 62.1847L176.488 58.2821" stroke="black" stroke-width="2.2" stroke-linecap="round"/>
<path opacity="0.248" d="M180.257 74.3579L185.577 82.8693" stroke="black" stroke-width="2.2" stroke-linecap="round"/>
<path opacity="0.248" d="M243.848 67.366L246.603 63.613H250.982" stroke="black" stroke-width="2.2" stroke-linecap="round"/>
<path opacity="0.248" d="M259.039 63.6179H269.077" stroke="black" stroke-width="2.2" stroke-linecap="round"/>
<path opacity="0.248" d="M243.848 122.377L246.603 126.13H250.982" stroke="black" stroke-width="2.2" stroke-linecap="round"/>
<path opacity="0.248" d="M259.039 126.13H269.077" stroke="black" stroke-width="2.2" stroke-linecap="round"/>
<path opacity="0.248" d="M230.456 97.8433L228.363 93.6857L230.351 89.7831" stroke="black" stroke-width="2.2" stroke-linecap="round"/>
<path d="M243.848 4.85297L246.603 1.09998H250.982" stroke="black" stroke-width="2.2" stroke-linecap="round"/>
<path opacity="0.248" d="M243.848 59.865L246.603 63.618" stroke="black" stroke-width="2.2" stroke-linecap="round"/>
<path opacity="0.248" d="M239.44 12.332L234.12 20.8434" stroke="black" stroke-width="2.2" stroke-linecap="round"/>
<path opacity="0.248" d="M230.456 35.3294L228.363 31.1717L230.351 27.2692" stroke="black" stroke-width="2.2" stroke-linecap="round"/>
<path opacity="0.248" d="M314.534 94.6289H324.572" stroke="black" stroke-width="2.2" stroke-linecap="round"/>
<path d="M339.761 98.377L337.008 94.624H332.628" stroke="black" stroke-width="2.2" stroke-linecap="round"/>
<path d="M344.632 105.859L349.952 114.37" stroke="black" stroke-width="2.2" stroke-linecap="round"/>
<path d="M353.616 128.853L355.71 124.696L353.721 120.793" stroke="black" stroke-width="2.2" stroke-linecap="round"/>
<path d="M349.953 136.871L344.634 145.382" stroke="black" stroke-width="2.2" stroke-linecap="round"/>
<path opacity="0.248" d="M314.534 157.143H324.572" stroke="black" stroke-width="2.2" stroke-linecap="round"/>
<path d="M339.761 153.389L337.008 157.142H332.628" stroke="black" stroke-width="2.2" stroke-linecap="round"/>
<path opacity="0.248" d="M314.534 32.1169H324.572" stroke="black" stroke-width="2.2" stroke-linecap="round"/>
<path d="M339.761 35.8649L337.008 32.1119H332.628" stroke="black" stroke-width="2.2" stroke-linecap="round"/>
<path d="M344.632 43.3459L349.952 51.8573" stroke="black" stroke-width="2.2" stroke-linecap="round"/>
<path d="M353.616 66.3413L355.71 62.1836L353.721 58.281" stroke="black" stroke-width="2.2" stroke-linecap="round"/>
<path d="M349.953 74.3579L344.634 82.8693" stroke="black" stroke-width="2.2" stroke-linecap="round"/>
<path d="M339.762 90.876L337.009 94.629" stroke="black" stroke-width="2.2" stroke-linecap="round"/>
<path d="M368.397 63.6179H378.435" stroke="black" stroke-width="2.2" stroke-linecap="round"/>
<path d="M393.625 67.366L390.872 63.613H386.492" stroke="black" stroke-width="2.2" stroke-linecap="round"/>
<path d="M398.495 74.8469L403.815 83.3583" stroke="black" stroke-width="2.2" stroke-linecap="round"/>
<path d="M407.479 97.8422L409.572 93.6846L407.584 89.782" stroke="black" stroke-width="2.2" stroke-linecap="round"/>
<path d="M403.816 105.859L398.497 114.37" stroke="black" stroke-width="2.2" stroke-linecap="round"/>
<path d="M353.207 122.377L355.961 126.13H360.341" stroke="black" stroke-width="2.2" stroke-linecap="round"/>
<path d="M368.397 126.13H378.435" stroke="black" stroke-width="2.2" stroke-linecap="round"/>
<path d="M393.625 122.377L390.872 126.13H386.492" stroke="black" stroke-width="2.2" stroke-linecap="round"/>
<path d="M339.815 97.8433L337.722 93.6857L339.71 89.7831" stroke="black" stroke-width="2.2" stroke-linecap="round"/>
<path d="M353.207 4.85297L355.961 1.09998H360.341" stroke="black" stroke-width="2.2" stroke-linecap="round"/>
<path d="M393.625 4.85297L390.872 1.09998H386.492" stroke="black" stroke-width="2.2" stroke-linecap="round"/>
<path d="M398.495 12.334L403.815 20.8454" stroke="black" stroke-width="2.2" stroke-linecap="round"/>
<path d="M407.479 35.3293L409.572 31.1717L407.584 27.269" stroke="black" stroke-width="2.2" stroke-linecap="round"/>
<path d="M403.816 43.345L398.497 51.8563" stroke="black" stroke-width="2.2" stroke-linecap="round"/>
<path d="M353.207 59.865L355.961 63.618" stroke="black" stroke-width="2.2" stroke-linecap="round"/>
<path d="M393.625 59.865L390.872 63.618" stroke="black" stroke-width="2.2" stroke-linecap="round"/>
<path d="M348.8 12.332L343.481 20.8434" stroke="black" stroke-width="2.2" stroke-linecap="round"/>
<path d="M339.815 35.3294L337.722 31.1717L339.71 27.2692" stroke="black" stroke-width="2.2" stroke-linecap="round"/>
<path d="M408.702 98.377L411.457 94.624H415.836" stroke="black" stroke-width="2.2" stroke-linecap="round"/>
<path d="M423.893 94.6289H433.931" stroke="black" stroke-width="2.2" stroke-linecap="round"/>
<path d="M449.121 98.377L446.368 94.624H441.988" stroke="black" stroke-width="2.2" stroke-linecap="round"/>
<path d="M453.991 105.859L459.311 114.37" stroke="black" stroke-width="2.2" stroke-linecap="round"/>
<path d="M462.974 128.853L465.068 124.696L463.079 120.793" stroke="black" stroke-width="2.2" stroke-linecap="round"/>
<path d="M459.311 136.871L453.991 145.382" stroke="black" stroke-width="2.2" stroke-linecap="round"/>
<path d="M408.702 153.389L411.457 157.142H415.836" stroke="black" stroke-width="2.2" stroke-linecap="round"/>
<path d="M423.893 157.143H433.931" stroke="black" stroke-width="2.2" stroke-linecap="round"/>
<path d="M449.121 153.389L446.368 157.142H441.988" stroke="black" stroke-width="2.2" stroke-linecap="round"/>
<path d="M404.295 105.859L398.975 114.37" stroke="black" stroke-width="2.2" stroke-linecap="round"/>
<path d="M395.311 128.854L393.218 124.697L395.206 120.794" stroke="black" stroke-width="2.2" stroke-linecap="round"/>
<path d="M398.973 136.871L404.293 145.382" stroke="black" stroke-width="2.2" stroke-linecap="round"/>
<path d="M408.702 35.8649L411.457 32.1119H415.836" stroke="black" stroke-width="2.2" stroke-linecap="round"/>
<path d="M423.893 32.1169H433.931" stroke="black" stroke-width="2.2" stroke-linecap="round"/>
<path d="M449.121 35.8649L446.368 32.1119H441.988" stroke="black" stroke-width="2.2" stroke-linecap="round"/>
<path d="M453.991 43.3459L459.311 51.8573" stroke="black" stroke-width="2.2" stroke-linecap="round"/>
<path d="M462.974 66.3413L465.068 62.1836L463.079 58.281" stroke="black" stroke-width="2.2" stroke-linecap="round"/>
<path d="M459.311 74.3579L453.991 82.8693" stroke="black" stroke-width="2.2" stroke-linecap="round"/>
<path d="M408.702 90.876L411.457 94.629" stroke="black" stroke-width="2.2" stroke-linecap="round"/>
<path d="M449.12 90.876L446.367 94.629" stroke="black" stroke-width="2.2" stroke-linecap="round"/>
<path d="M404.295 43.345L398.975 51.8563" stroke="black" stroke-width="2.2" stroke-linecap="round"/>
<path d="M395.311 66.3424L393.218 62.1847L395.206 58.2821" stroke="black" stroke-width="2.2" stroke-linecap="round"/>
<path d="M398.973 74.3579L404.293 82.8693" stroke="black" stroke-width="2.2" stroke-linecap="round"/>
<path d="M462.565 67.366L465.319 63.613H469.699" stroke="black" stroke-width="2.2" stroke-linecap="round"/>
<path opacity="0.3" d="M477.757 63.6179H487.795" stroke="black" stroke-width="2.2" stroke-linecap="round"/>
<path opacity="0.3" d="M502.984 67.366L500.231 63.613H495.851" stroke="black" stroke-width="2.2" stroke-linecap="round"/>
<path opacity="0.3" d="M507.853 74.8469L513.173 83.3583" stroke="black" stroke-width="2.2" stroke-linecap="round"/>
<path opacity="0.3" d="M516.837 97.8422L518.931 93.6846L516.942 89.782" stroke="black" stroke-width="2.2" stroke-linecap="round"/>
<path opacity="0.3" d="M513.175 105.859L507.856 114.37" stroke="black" stroke-width="2.2" stroke-linecap="round"/>
<path d="M462.565 122.377L465.319 126.13H469.699" stroke="black" stroke-width="2.2" stroke-linecap="round"/>
<path opacity="0.3" d="M477.757 126.13H487.795" stroke="black" stroke-width="2.2" stroke-linecap="round"/>
<path opacity="0.3" d="M502.984 122.377L500.231 126.13H495.851" stroke="black" stroke-width="2.2" stroke-linecap="round"/>
<path d="M449.173 97.8433L447.08 93.6857L449.068 89.7831" stroke="black" stroke-width="2.2" stroke-linecap="round"/>
<path d="M462.565 4.85297L465.319 1.09998H469.699" stroke="black" stroke-width="2.2" stroke-linecap="round"/>
<path d="M502.984 4.85297L500.231 1.09998H495.851" stroke="black" stroke-width="2.2" stroke-linecap="round"/>
<path opacity="0.3" d="M507.853 12.334L513.173 20.8454" stroke="black" stroke-width="2.2" stroke-linecap="round"/>
<path opacity="0.3" d="M516.837 35.3293L518.931 31.1717L516.942 27.269" stroke="black" stroke-width="2.2" stroke-linecap="round"/>
<path opacity="0.3" d="M513.175 43.345L507.856 51.8563" stroke="black" stroke-width="2.2" stroke-linecap="round"/>
<path d="M462.565 59.865L465.319 63.618" stroke="black" stroke-width="2.2" stroke-linecap="round"/>
<path opacity="0.3" d="M502.982 59.865L500.229 63.618" stroke="black" stroke-width="2.2" stroke-linecap="round"/>
<path d="M458.158 12.332L452.839 20.8434" stroke="black" stroke-width="2.2" stroke-linecap="round"/>
<path d="M449.173 35.3294L447.08 31.1717L449.068 27.2692" stroke="black" stroke-width="2.2" stroke-linecap="round"/>
<path opacity="0.3" d="M518.061 98.377L520.815 94.624H525.195" stroke="black" stroke-width="2.2" stroke-linecap="round"/>
<path opacity="0.3" d="M533.251 94.6289H543.289" stroke="black" stroke-width="2.2" stroke-linecap="round"/>
<path opacity="0.3" d="M558.478 98.377L555.725 94.624H551.345" stroke="black" stroke-width="2.2" stroke-linecap="round"/>
<path opacity="0.3" d="M563.349 105.859L568.669 114.37" stroke="black" stroke-width="2.2" stroke-linecap="round"/>
<path opacity="0.3" d="M572.332 128.853L574.425 124.696L572.437 120.793" stroke="black" stroke-width="2.2" stroke-linecap="round"/>
<path opacity="0.3" d="M568.67 136.871L563.35 145.382" stroke="black" stroke-width="2.2" stroke-linecap="round"/>
<path opacity="0.3" d="M518.061 153.389L520.815 157.142H525.195" stroke="black" stroke-width="2.2" stroke-linecap="round"/>
<path opacity="0.3" d="M533.251 157.143H543.289" stroke="black" stroke-width="2.2" stroke-linecap="round"/>
<path opacity="0.3" d="M558.478 153.389L555.725 157.142H551.345" stroke="black" stroke-width="2.2" stroke-linecap="round"/>
<path opacity="0.3" d="M513.653 105.859L508.334 114.37" stroke="black" stroke-width="2.2" stroke-linecap="round"/>
<path opacity="0.3" d="M504.669 128.854L502.576 124.697L504.564 120.794" stroke="black" stroke-width="2.2" stroke-linecap="round"/>
<path opacity="0.3" d="M508.332 136.871L513.652 145.382" stroke="black" stroke-width="2.2" stroke-linecap="round"/>
<path opacity="0.3" d="M518.061 35.8649L520.815 32.1119H525.195" stroke="black" stroke-width="2.2" stroke-linecap="round"/>
<path opacity="0.3" d="M533.251 32.1169H543.289" stroke="black" stroke-width="2.2" stroke-linecap="round"/>
<path opacity="0.3" d="M558.478 35.8649L555.725 32.1119H551.345" stroke="black" stroke-width="2.2" stroke-linecap="round"/>
<path opacity="0.3" d="M563.349 43.3459L568.669 51.8573" stroke="black" stroke-width="2.2" stroke-linecap="round"/>
<path opacity="0.3" d="M572.332 66.3413L574.425 62.1836L572.437 58.281" stroke="black" stroke-width="2.2" stroke-linecap="round"/>
<path opacity="0.3" d="M568.67 74.3579L563.35 82.8693" stroke="black" stroke-width="2.2" stroke-linecap="round"/>
<path opacity="0.3" d="M518.061 90.876L520.815 94.629" stroke="black" stroke-width="2.2" stroke-linecap="round"/>
<path opacity="0.3" d="M558.479 90.876L555.726 94.629" stroke="black" stroke-width="2.2" stroke-linecap="round"/>
<path opacity="0.3" d="M513.653 43.345L508.334 51.8563" stroke="black" stroke-width="2.2" stroke-linecap="round"/>
<path opacity="0.3" d="M504.669 66.3424L502.576 62.1847L504.564 58.2821" stroke="black" stroke-width="2.2" stroke-linecap="round"/>
<path opacity="0.3" d="M508.332 74.3579L513.652 82.8693" stroke="black" stroke-width="2.2" stroke-linecap="round"/>
<path opacity="0.3" d="M571.924 67.366L574.678 63.613H579.058" stroke="black" stroke-width="2.2" stroke-linecap="round"/>
<path opacity="0.3" d="M571.924 122.377L574.678 126.13H579.058" stroke="black" stroke-width="2.2" stroke-linecap="round"/>
<path opacity="0.3" d="M558.532 97.8433L556.439 93.6857L558.427 89.7831" stroke="black" stroke-width="2.2" stroke-linecap="round"/>
<path d="M571.924 4.85297L574.678 1.09998H579.058" stroke="black" stroke-width="2.2" stroke-linecap="round"/>
<path opacity="0.3" d="M571.924 59.865L574.678 63.618" stroke="black" stroke-width="2.2" stroke-linecap="round"/>
<path opacity="0.3" d="M567.516 12.332L562.197 20.8434" stroke="black" stroke-width="2.2" stroke-linecap="round"/>
<path opacity="0.3" d="M558.532 35.3294L556.439 31.1717L558.427 27.2692" stroke="black" stroke-width="2.2" stroke-linecap="round"/>
<path d="M11.686 224.059L8.93311 220.306H4.55273" stroke="black" stroke-width="2.2" stroke-linecap="round"/>
<path opacity="0.202" d="M16.5562 231.539L21.8758 240.05" stroke="black" stroke-width="2.2" stroke-linecap="round"/>
<path opacity="0.202" d="M25.5389 254.534L27.6325 250.377L25.644 246.474" stroke="black" stroke-width="2.2" stroke-linecap="round"/>
<path opacity="0.202" d="M21.877 262.552L16.5573 271.063" stroke="black" stroke-width="2.2" stroke-linecap="round"/>
<path opacity="0.202" d="M11.686 279.071L8.93311 282.824H4.55273" stroke="black" stroke-width="2.2" stroke-linecap="round"/>
<path d="M11.686 161.545L8.93311 157.792H4.55273" stroke="black" stroke-width="2.2" stroke-linecap="round"/>
<path d="M16.5562 169.027L21.8758 177.538" stroke="black" stroke-width="2.2" stroke-linecap="round"/>
<path d="M25.5389 192.021L27.6325 187.864L25.644 183.961" stroke="black" stroke-width="2.2" stroke-linecap="round"/>
<path d="M21.877 200.038L16.5573 208.549" stroke="black" stroke-width="2.2" stroke-linecap="round"/>
<path d="M11.686 216.557L8.93311 220.31" stroke="black" stroke-width="2.2" stroke-linecap="round"/>
<path d="M25.1309 193.046L27.8853 189.293H32.2651" stroke="black" stroke-width="2.2" stroke-linecap="round"/>
<path d="M40.3213 189.298H50.3594" stroke="black" stroke-width="2.2" stroke-linecap="round"/>
<path d="M65.5493 193.046L62.7964 189.293H58.416" stroke="black" stroke-width="2.2" stroke-linecap="round"/>
<path d="M70.4199 200.528L75.7395 209.039" stroke="black" stroke-width="2.2" stroke-linecap="round"/>
<path d="M79.4031 223.522L81.4968 219.365L79.5083 215.462" stroke="black" stroke-width="2.2" stroke-linecap="round"/>
<path opacity="0.202" d="M75.7402 231.539L70.4206 240.05" stroke="black" stroke-width="2.2" stroke-linecap="round"/>
<path opacity="0.202" d="M25.1309 248.058L27.8853 251.811H32.2651" stroke="black" stroke-width="2.2" stroke-linecap="round"/>
<path opacity="0.202" d="M40.3213 251.811H50.3594" stroke="black" stroke-width="2.2" stroke-linecap="round"/>
<path opacity="0.202" d="M65.5493 248.058L62.7964 251.811H58.416" stroke="black" stroke-width="2.2" stroke-linecap="round"/>
<path d="M11.7392 223.523L9.64558 219.366L11.6341 215.463" stroke="black" stroke-width="2.2" stroke-linecap="round"/>
<path d="M79.4031 161.01L81.4968 156.853L79.5083 152.95" stroke="black" stroke-width="2.2" stroke-linecap="round"/>
<path d="M75.7402 169.026L70.4206 177.537" stroke="black" stroke-width="2.2" stroke-linecap="round"/>
<path d="M25.1309 185.545L27.8853 189.298" stroke="black" stroke-width="2.2" stroke-linecap="round"/>
<path d="M65.5488 185.545L62.7959 189.298" stroke="black" stroke-width="2.2" stroke-linecap="round"/>
<path d="M11.7392 161.011L9.64558 156.854L11.6341 152.951" stroke="black" stroke-width="2.2" stroke-linecap="round"/>
<path d="M80.627 224.059L83.3813 220.306H87.7612" stroke="black" stroke-width="2.2" stroke-linecap="round"/>
<path d="M95.8169 220.311H105.855" stroke="black" stroke-width="2.2" stroke-linecap="round"/>
<path opacity="0.248" d="M121.045 224.059L118.292 220.306H113.912" stroke="black" stroke-width="2.2" stroke-linecap="round"/>
<path opacity="0.248" d="M125.915 231.539L131.235 240.05" stroke="black" stroke-width="2.2" stroke-linecap="round"/>
<path opacity="0.248" d="M134.899 254.534L136.992 250.377L135.004 246.474" stroke="black" stroke-width="2.2" stroke-linecap="round"/>
<path opacity="0.248" d="M131.236 262.552L125.917 271.063" stroke="black" stroke-width="2.2" stroke-linecap="round"/>
<path opacity="0.202" d="M80.627 279.071L83.3813 282.824H87.7612" stroke="black" stroke-width="2.2" stroke-linecap="round"/>
<path d="M95.8169 282.824H105.855" stroke="black" stroke-width="2.2" stroke-linecap="round"/>
<path opacity="0.248" d="M121.045 279.071L118.292 282.824H113.912" stroke="black" stroke-width="2.2" stroke-linecap="round"/>
<path opacity="0.202" d="M76.2192 231.539L70.8996 240.05" stroke="black" stroke-width="2.2" stroke-linecap="round"/>
<path opacity="0.202" d="M67.2343 254.535L65.1407 250.378L67.1292 246.475" stroke="black" stroke-width="2.2" stroke-linecap="round"/>
<path opacity="0.202" d="M70.8979 262.552L76.2176 271.063" stroke="black" stroke-width="2.2" stroke-linecap="round"/>
<path d="M80.627 161.545L83.3813 157.792H87.7612" stroke="black" stroke-width="2.2" stroke-linecap="round"/>
<path d="M95.8169 157.797H105.855" stroke="black" stroke-width="2.2" stroke-linecap="round"/>
<path opacity="0.248" d="M121.045 161.545L118.292 157.792H113.912" stroke="black" stroke-width="2.2" stroke-linecap="round"/>
<path opacity="0.248" d="M125.915 169.027L131.235 177.538" stroke="black" stroke-width="2.2" stroke-linecap="round"/>
<path opacity="0.248" d="M134.899 192.021L136.992 187.864L135.004 183.961" stroke="black" stroke-width="2.2" stroke-linecap="round"/>
<path opacity="0.248" d="M131.236 200.038L125.917 208.549" stroke="black" stroke-width="2.2" stroke-linecap="round"/>
<path d="M80.627 216.557L83.3813 220.31" stroke="black" stroke-width="2.2" stroke-linecap="round"/>
<path opacity="0.248" d="M121.045 216.557L118.292 220.31" stroke="black" stroke-width="2.2" stroke-linecap="round"/>
<path d="M76.2192 169.026L70.8996 177.537" stroke="black" stroke-width="2.2" stroke-linecap="round"/>
<path d="M67.2343 192.022L65.1407 187.865L67.1292 183.962" stroke="black" stroke-width="2.2" stroke-linecap="round"/>
<path d="M70.8979 200.038L76.2176 208.549" stroke="black" stroke-width="2.2" stroke-linecap="round"/>
<path opacity="0.248" d="M134.489 193.046L137.243 189.293H141.623" stroke="black" stroke-width="2.2" stroke-linecap="round"/>
<path opacity="0.248" d="M149.681 189.298H159.719" stroke="black" stroke-width="2.2" stroke-linecap="round"/>
<path opacity="0.248" d="M174.908 193.046L172.155 189.293H167.775" stroke="black" stroke-width="2.2" stroke-linecap="round"/>
<path opacity="0.248" d="M179.778 200.528L185.098 209.039" stroke="black" stroke-width="2.2" stroke-linecap="round"/>
<path opacity="0.248" d="M188.761 223.522L190.855 219.365L188.866 215.462" stroke="black" stroke-width="2.2" stroke-linecap="round"/>
<path opacity="0.248" d="M185.098 231.539L179.779 240.05" stroke="black" stroke-width="2.2" stroke-linecap="round"/>
<path opacity="0.248" d="M134.489 248.058L137.243 251.811H141.623" stroke="black" stroke-width="2.2" stroke-linecap="round"/>
<path opacity="0.248" d="M149.681 251.811H159.719" stroke="black" stroke-width="2.2" stroke-linecap="round"/>
<path opacity="0.248" d="M174.908 248.058L172.155 251.811H167.775" stroke="black" stroke-width="2.2" stroke-linecap="round"/>
<path opacity="0.248" d="M121.098 223.523L119.004 219.366L120.993 215.463" stroke="black" stroke-width="2.2" stroke-linecap="round"/>
<path opacity="0.248" d="M134.489 130.534L137.243 126.781H141.623" stroke="black" stroke-width="2.2" stroke-linecap="round"/>
<path opacity="0.248" d="M149.681 126.786H159.719" stroke="black" stroke-width="2.2" stroke-linecap="round"/>
<path opacity="0.248" d="M174.908 130.534L172.155 126.781H167.775" stroke="black" stroke-width="2.2" stroke-linecap="round"/>
<path opacity="0.248" d="M179.778 138.015L185.098 146.526" stroke="black" stroke-width="2.2" stroke-linecap="round"/>
<path opacity="0.248" d="M188.761 161.01L190.855 156.853L188.866 152.95" stroke="black" stroke-width="2.2" stroke-linecap="round"/>
<path opacity="0.248" d="M185.098 169.026L179.779 177.537" stroke="black" stroke-width="2.2" stroke-linecap="round"/>
<path opacity="0.248" d="M134.489 185.545L137.243 189.298" stroke="black" stroke-width="2.2" stroke-linecap="round"/>
<path opacity="0.248" d="M174.907 185.545L172.154 189.298" stroke="black" stroke-width="2.2" stroke-linecap="round"/>
<path opacity="0.248" d="M130.082 138.013L124.762 146.524" stroke="black" stroke-width="2.2" stroke-linecap="round"/>
<path opacity="0.248" d="M121.098 161.011L119.004 156.854L120.993 152.951" stroke="black" stroke-width="2.2" stroke-linecap="round"/>
<path opacity="0.248" d="M189.985 224.059L192.739 220.306H197.119" stroke="black" stroke-width="2.2" stroke-linecap="round"/>
<path opacity="0.248" d="M205.176 220.311H215.214" stroke="black" stroke-width="2.2" stroke-linecap="round"/>
<path opacity="0.248" d="M230.403 224.059L227.65 220.306H223.27" stroke="black" stroke-width="2.2" stroke-linecap="round"/>
<path opacity="0.248" d="M235.273 231.539L240.593 240.05" stroke="black" stroke-width="2.2" stroke-linecap="round"/>
<path opacity="0.248" d="M240.595 262.552L235.276 271.063" stroke="black" stroke-width="2.2" stroke-linecap="round"/>
<path opacity="0.248" d="M189.985 279.071L192.739 282.824H197.119" stroke="black" stroke-width="2.2" stroke-linecap="round"/>
<path opacity="0.248" d="M205.176 282.824H215.214" stroke="black" stroke-width="2.2" stroke-linecap="round"/>
<path opacity="0.248" d="M230.403 279.071L227.65 282.824H223.27" stroke="black" stroke-width="2.2" stroke-linecap="round"/>
<path opacity="0.248" d="M185.578 231.539L180.259 240.05" stroke="black" stroke-width="2.2" stroke-linecap="round"/>
<path opacity="0.248" d="M176.593 254.535L174.5 250.378L176.488 246.475" stroke="black" stroke-width="2.2" stroke-linecap="round"/>
<path opacity="0.248" d="M180.257 262.552L185.577 271.063" stroke="black" stroke-width="2.2" stroke-linecap="round"/>
<path opacity="0.248" d="M189.985 161.545L192.739 157.792H197.119" stroke="black" stroke-width="2.2" stroke-linecap="round"/>
<path opacity="0.248" d="M205.176 157.797H215.214" stroke="black" stroke-width="2.2" stroke-linecap="round"/>
<path opacity="0.248" d="M230.403 161.545L227.65 157.792H223.27" stroke="black" stroke-width="2.2" stroke-linecap="round"/>
<path opacity="0.248" d="M235.273 169.027L240.593 177.538" stroke="black" stroke-width="2.2" stroke-linecap="round"/>
<path opacity="0.248" d="M244.257 192.021L246.351 187.864L244.362 183.961" stroke="black" stroke-width="2.2" stroke-linecap="round"/>
<path opacity="0.248" d="M240.595 200.038L235.276 208.549" stroke="black" stroke-width="2.2" stroke-linecap="round"/>
<path opacity="0.248" d="M189.985 216.557L192.739 220.31" stroke="black" stroke-width="2.2" stroke-linecap="round"/>
<path opacity="0.248" d="M230.402 216.557L227.649 220.31" stroke="black" stroke-width="2.2" stroke-linecap="round"/>
<path opacity="0.248" d="M185.578 169.026L180.259 177.537" stroke="black" stroke-width="2.2" stroke-linecap="round"/>
<path opacity="0.248" d="M176.593 192.022L174.5 187.865L176.488 183.962" stroke="black" stroke-width="2.2" stroke-linecap="round"/>
<path opacity="0.248" d="M180.257 200.038L185.577 208.549" stroke="black" stroke-width="2.2" stroke-linecap="round"/>
<path opacity="0.248" d="M243.848 193.046L246.603 189.293H250.982" stroke="black" stroke-width="2.2" stroke-linecap="round"/>
<path opacity="0.248" d="M259.039 189.298H269.077" stroke="black" stroke-width="2.2" stroke-linecap="round"/>
<path opacity="0.248" d="M230.456 223.523L228.363 219.366L230.351 215.463" stroke="black" stroke-width="2.2" stroke-linecap="round"/>
<path opacity="0.248" d="M243.848 130.534L246.603 126.781H250.982" stroke="black" stroke-width="2.2" stroke-linecap="round"/>
<path opacity="0.248" d="M259.039 126.786H269.077" stroke="black" stroke-width="2.2" stroke-linecap="round"/>
<path opacity="0.248" d="M243.848 185.545L246.603 189.298" stroke="black" stroke-width="2.2" stroke-linecap="round"/>
<path opacity="0.248" d="M239.44 138.013L234.12 146.524" stroke="black" stroke-width="2.2" stroke-linecap="round"/>
<path opacity="0.248" d="M230.456 161.011L228.363 156.854L230.351 152.951" stroke="black" stroke-width="2.2" stroke-linecap="round"/>
<path opacity="0.248" d="M314.534 157.797H324.572" stroke="black" stroke-width="2.2" stroke-linecap="round"/>
<path d="M339.761 161.545L337.008 157.792H332.628" stroke="black" stroke-width="2.2" stroke-linecap="round"/>
<path d="M353.207 130.534L355.961 126.781H360.341" stroke="black" stroke-width="2.2" stroke-linecap="round"/>
<path d="M368.397 126.786H378.435" stroke="black" stroke-width="2.2" stroke-linecap="round"/>
<path d="M393.625 130.534L390.872 126.781H386.492" stroke="black" stroke-width="2.2" stroke-linecap="round"/>
<path d="M398.495 138.015L403.815 146.526" stroke="black" stroke-width="2.2" stroke-linecap="round"/>
<path d="M407.479 161.01L409.572 156.853L407.584 152.95" stroke="black" stroke-width="2.2" stroke-linecap="round"/>
<path d="M348.8 138.013L343.481 146.524" stroke="black" stroke-width="2.2" stroke-linecap="round"/>
<path d="M339.815 161.011L337.722 156.854L339.71 152.951" stroke="black" stroke-width="2.2" stroke-linecap="round"/>
<path d="M408.702 161.545L411.457 157.792H415.836" stroke="black" stroke-width="2.2" stroke-linecap="round"/>
<path d="M423.893 157.797H433.931" stroke="black" stroke-width="2.2" stroke-linecap="round"/>
<path d="M449.121 161.545L446.368 157.792H441.988" stroke="black" stroke-width="2.2" stroke-linecap="round"/>
<path d="M462.565 130.534L465.319 126.781H469.699" stroke="black" stroke-width="2.2" stroke-linecap="round"/>
<path opacity="0.3" d="M477.757 126.786H487.795" stroke="black" stroke-width="2.2" stroke-linecap="round"/>
<path opacity="0.3" d="M502.984 130.534L500.231 126.781H495.851" stroke="black" stroke-width="2.2" stroke-linecap="round"/>
<path opacity="0.3" d="M507.853 138.015L513.173 146.526" stroke="black" stroke-width="2.2" stroke-linecap="round"/>
<path opacity="0.3" d="M516.837 161.01L518.931 156.853L516.942 152.95" stroke="black" stroke-width="2.2" stroke-linecap="round"/>
<path d="M458.158 138.013L452.839 146.524" stroke="black" stroke-width="2.2" stroke-linecap="round"/>
<path d="M449.173 161.011L447.08 156.854L449.068 152.951" stroke="black" stroke-width="2.2" stroke-linecap="round"/>
<path opacity="0.3" d="M518.061 161.545L520.815 157.792H525.195" stroke="black" stroke-width="2.2" stroke-linecap="round"/>
<path opacity="0.3" d="M533.251 157.797H543.289" stroke="black" stroke-width="2.2" stroke-linecap="round"/>
<path opacity="0.3" d="M558.478 161.545L555.725 157.792H551.345" stroke="black" stroke-width="2.2" stroke-linecap="round"/>
<path opacity="0.3" d="M571.924 130.534L574.678 126.781H579.058" stroke="black" stroke-width="2.2" stroke-linecap="round"/>
<path opacity="0.3" d="M567.516 138.013L562.197 146.524" stroke="black" stroke-width="2.2" stroke-linecap="round"/>
<path opacity="0.3" d="M558.532 161.011L556.439 156.854L558.427 152.951" stroke="black" stroke-width="2.2" stroke-linecap="round"/>
<path opacity="0.202" d="M11.686 287.227L8.93311 283.474H4.55273" stroke="black" stroke-width="2.2" stroke-linecap="round"/>
<path opacity="0.202" d="M25.1309 256.214L27.8853 252.461H32.2651" stroke="black" stroke-width="2.2" stroke-linecap="round"/>
<path opacity="0.202" d="M40.3213 252.466H50.3594" stroke="black" stroke-width="2.2" stroke-linecap="round"/>
<path opacity="0.202" d="M65.5493 256.214L62.7964 252.461H58.416" stroke="black" stroke-width="2.2" stroke-linecap="round"/>
<path opacity="0.202" d="M70.4199 263.696L75.7395 272.207" stroke="black" stroke-width="2.2" stroke-linecap="round"/>
<path opacity="0.202" d="M79.4031 286.69L81.4968 282.533L79.5083 278.63" stroke="black" stroke-width="2.2" stroke-linecap="round"/>
<path opacity="0.202" d="M20.7231 263.695L15.4035 272.206" stroke="black" stroke-width="2.2" stroke-linecap="round"/>
<path opacity="0.202" d="M11.7392 286.691L9.64558 282.534L11.6341 278.631" stroke="black" stroke-width="2.2" stroke-linecap="round"/>
<path opacity="0.202" d="M80.627 287.227L83.3813 283.474H87.7612" stroke="black" stroke-width="2.2" stroke-linecap="round"/>
<path d="M95.8169 283.479H105.855" stroke="black" stroke-width="2.2" stroke-linecap="round"/>
<path opacity="0.248" d="M121.045 287.227L118.292 283.474H113.912" stroke="black" stroke-width="2.2" stroke-linecap="round"/>
<path opacity="0.248" d="M134.489 256.214L137.243 252.461H141.623" stroke="black" stroke-width="2.2" stroke-linecap="round"/>
<path opacity="0.248" d="M149.681 252.466H159.719" stroke="black" stroke-width="2.2" stroke-linecap="round"/>
<path opacity="0.248" d="M174.908 256.214L172.155 252.461H167.775" stroke="black" stroke-width="2.2" stroke-linecap="round"/>
<path opacity="0.248" d="M179.778 263.696L185.098 272.207" stroke="black" stroke-width="2.2" stroke-linecap="round"/>
<path opacity="0.248" d="M188.761 286.69L190.855 282.533L188.866 278.63" stroke="black" stroke-width="2.2" stroke-linecap="round"/>
<path opacity="0.248" d="M130.082 263.695L124.762 272.206" stroke="black" stroke-width="2.2" stroke-linecap="round"/>
<path opacity="0.248" d="M121.098 286.691L119.004 282.534L120.993 278.631" stroke="black" stroke-width="2.2" stroke-linecap="round"/>
<path opacity="0.248" d="M189.985 287.227L192.739 283.474H197.119" stroke="black" stroke-width="2.2" stroke-linecap="round"/>
<path opacity="0.248" d="M205.176 283.479H215.214" stroke="black" stroke-width="2.2" stroke-linecap="round"/>
<path opacity="0.248" d="M230.403 287.227L227.65 283.474H223.27" stroke="black" stroke-width="2.2" stroke-linecap="round"/>
<path opacity="0.248" d="M239.44 263.695L234.12 272.206" stroke="black" stroke-width="2.2" stroke-linecap="round"/>
<path opacity="0.248" d="M230.456 286.691L228.363 282.534L230.351 278.631" stroke="black" stroke-width="2.2" stroke-linecap="round"/>
<path d="M353.207 59.865L355.961 63.618" stroke="black" stroke-width="2.2" stroke-linecap="round"/>
<path d="M408.702 35.8649L411.457 32.1119H415.836" stroke="black" stroke-width="2.2" stroke-linecap="round"/>
<path d="M11.686 349.74L8.93311 345.987H4.55273" stroke="black" stroke-width="2.2" stroke-linecap="round"/>
<path d="M16.5562 357.22L21.8758 365.731" stroke="black" stroke-width="2.2" stroke-linecap="round"/>
<path opacity="0.202" d="M16.5562 294.707L21.8758 303.218" stroke="black" stroke-width="2.2" stroke-linecap="round"/>
<path d="M25.5389 317.702L27.6325 313.545L25.644 309.642" stroke="black" stroke-width="2.2" stroke-linecap="round"/>
<path d="M21.877 325.72L16.5573 334.231" stroke="black" stroke-width="2.2" stroke-linecap="round"/>
<path d="M11.686 342.239L8.93311 345.992" stroke="black" stroke-width="2.2" stroke-linecap="round"/>
<path d="M25.1309 318.727L27.8853 314.974H32.2651" stroke="black" stroke-width="2.2" stroke-linecap="round"/>
<path d="M40.3213 314.979H50.3594" stroke="black" stroke-width="2.2" stroke-linecap="round"/>
<path d="M65.5493 318.727L62.7964 314.974H58.416" stroke="black" stroke-width="2.2" stroke-linecap="round"/>
<path d="M70.4199 326.208L75.7395 334.719" stroke="black" stroke-width="2.2" stroke-linecap="round"/>
<path d="M79.4031 349.203L81.4968 345.046L79.5083 341.143" stroke="black" stroke-width="2.2" stroke-linecap="round"/>
<path d="M75.7402 357.22L70.4206 365.731" stroke="black" stroke-width="2.2" stroke-linecap="round"/>
<path d="M25.1309 373.739L27.8853 377.492H32.2651" stroke="black" stroke-width="2.2" stroke-linecap="round"/>
<path d="M40.3213 377.492H50.3594" stroke="black" stroke-width="2.2" stroke-linecap="round"/>
<path d="M65.5493 373.739L62.7964 377.492H58.416" stroke="black" stroke-width="2.2" stroke-linecap="round"/>
<path d="M11.7392 349.204L9.64558 345.047L11.6341 341.144" stroke="black" stroke-width="2.2" stroke-linecap="round"/>
<path opacity="0.202" d="M75.7402 294.707L70.4206 303.218" stroke="black" stroke-width="2.2" stroke-linecap="round"/>
<path d="M25.1309 311.226L27.8853 314.979" stroke="black" stroke-width="2.2" stroke-linecap="round"/>
<path d="M65.5488 311.226L62.7959 314.979" stroke="black" stroke-width="2.2" stroke-linecap="round"/>
<path d="M80.627 349.74L83.3813 345.987H87.7612" stroke="black" stroke-width="2.2" stroke-linecap="round"/>
<path d="M95.8169 345.992H105.855" stroke="black" stroke-width="2.2" stroke-linecap="round"/>
<path opacity="0.248" d="M121.045 349.74L118.292 345.987H113.912" stroke="black" stroke-width="2.2" stroke-linecap="round"/>
<path opacity="0.248" d="M125.915 357.22L131.235 365.731" stroke="black" stroke-width="2.2" stroke-linecap="round"/>
<path d="M76.2192 357.22L70.8996 365.731" stroke="black" stroke-width="2.2" stroke-linecap="round"/>
<path opacity="0.248" d="M125.915 294.707L131.235 303.218" stroke="black" stroke-width="2.2" stroke-linecap="round"/>
<path opacity="0.248" d="M134.899 317.702L136.992 313.545L135.004 309.642" stroke="black" stroke-width="2.2" stroke-linecap="round"/>
<path opacity="0.248" d="M131.236 325.72L125.917 334.231" stroke="black" stroke-width="2.2" stroke-linecap="round"/>
<path d="M80.627 342.239L83.3813 345.992" stroke="black" stroke-width="2.2" stroke-linecap="round"/>
<path opacity="0.248" d="M121.045 342.239L118.292 345.992" stroke="black" stroke-width="2.2" stroke-linecap="round"/>
<path opacity="0.202" d="M76.2192 294.707L70.8996 303.218" stroke="black" stroke-width="2.2" stroke-linecap="round"/>
<path d="M67.2343 317.703L65.1407 313.546L67.1292 309.643" stroke="black" stroke-width="2.2" stroke-linecap="round"/>
<path d="M70.8979 325.719L76.2176 334.23" stroke="black" stroke-width="2.2" stroke-linecap="round"/>
<path opacity="0.248" d="M134.489 318.727L137.243 314.974H141.623" stroke="black" stroke-width="2.2" stroke-linecap="round"/>
<path opacity="0.248" d="M149.681 314.979H159.719" stroke="black" stroke-width="2.2" stroke-linecap="round"/>
<path opacity="0.248" d="M174.908 318.727L172.155 314.974H167.775" stroke="black" stroke-width="2.2" stroke-linecap="round"/>
<path opacity="0.248" d="M121.098 349.204L119.004 345.047L120.993 341.144" stroke="black" stroke-width="2.2" stroke-linecap="round"/>
<path opacity="0.248" d="M185.098 294.707L179.779 303.218" stroke="black" stroke-width="2.2" stroke-linecap="round"/>
<path opacity="0.248" d="M134.489 311.226L137.243 314.979" stroke="black" stroke-width="2.2" stroke-linecap="round"/>
<path opacity="0.248" d="M174.907 311.226L172.154 314.979" stroke="black" stroke-width="2.2" stroke-linecap="round"/>
<path opacity="0.248" d="M235.273 294.707L240.593 303.218" stroke="black" stroke-width="2.2" stroke-linecap="round"/>
<path opacity="0.248" d="M185.578 294.707L180.259 303.218" stroke="black" stroke-width="2.2" stroke-linecap="round"/>
<path opacity="0.248" d="M176.593 317.703L174.5 313.546L176.488 309.643" stroke="black" stroke-width="2.2" stroke-linecap="round"/>
</g>
<defs>
<clipPath id="clip0_332_1629">
<rect width="580" height="389" fill="white"/>
</clipPath>
</defs>
</svg>
