<svg width="544" height="398" viewBox="0 0 544 398" fill="none" xmlns="http://www.w3.org/2000/svg">
<g clip-path="url(#clip0_332_1136)">
<path d="M432.889 153.39L430.135 157.143H425.755" stroke="black" stroke-width="2.2" stroke-linecap="round"/>
<path d="M417.7 157.142H407.662" stroke="black" stroke-width="2.2" stroke-linecap="round"/>
<path d="M392.472 153.39L395.225 157.143H399.605" stroke="black" stroke-width="2.2" stroke-linecap="round"/>
<path d="M308.341 94.63H298.303" stroke="black" stroke-width="2.2" stroke-linecap="round"/>
<path opacity="0.248" d="M283.114 98.378L285.867 94.625H290.247" stroke="black" stroke-width="2.2" stroke-linecap="round"/>
<path opacity="0.248" d="M278.242 105.859L272.922 114.37" stroke="black" stroke-width="2.2" stroke-linecap="round"/>
<path opacity="0.248" d="M269.259 128.854L267.166 124.697L269.154 120.794" stroke="black" stroke-width="2.2" stroke-linecap="round"/>
<path opacity="0.248" d="M272.922 136.871L278.241 145.382" stroke="black" stroke-width="2.2" stroke-linecap="round"/>
<path d="M323.531 153.39L320.777 157.143H316.396" stroke="black" stroke-width="2.2" stroke-linecap="round"/>
<path d="M308.341 157.142H298.303" stroke="black" stroke-width="2.2" stroke-linecap="round"/>
<path opacity="0.248" d="M283.114 153.39L285.867 157.143H290.247" stroke="black" stroke-width="2.2" stroke-linecap="round"/>
<path d="M308.341 32.1169H298.303" stroke="black" stroke-width="2.2" stroke-linecap="round"/>
<path opacity="0.248" d="M283.114 35.8649L285.867 32.1119H290.247" stroke="black" stroke-width="2.2" stroke-linecap="round"/>
<path opacity="0.248" d="M278.242 43.3459L272.922 51.8573" stroke="black" stroke-width="2.2" stroke-linecap="round"/>
<path opacity="0.248" d="M269.259 66.3414L267.166 62.1837L269.154 58.2811" stroke="black" stroke-width="2.2" stroke-linecap="round"/>
<path opacity="0.248" d="M272.922 74.358L278.241 82.8694" stroke="black" stroke-width="2.2" stroke-linecap="round"/>
<path opacity="0.248" d="M283.113 90.877L285.866 94.6299" stroke="black" stroke-width="2.2" stroke-linecap="round"/>
<path opacity="0.248" d="M269.669 67.366L266.915 63.613H262.535" stroke="black" stroke-width="2.2" stroke-linecap="round"/>
<path opacity="0.248" d="M254.477 63.6179H244.439" stroke="black" stroke-width="2.2" stroke-linecap="round"/>
<path opacity="0.248" d="M229.25 67.366L232.004 63.613H236.384" stroke="black" stroke-width="2.2" stroke-linecap="round"/>
<path opacity="0.248" d="M224.381 74.8469L219.061 83.3583" stroke="black" stroke-width="2.2" stroke-linecap="round"/>
<path opacity="0.248" d="M215.396 97.8424L213.302 93.6847L215.291 89.7821" stroke="black" stroke-width="2.2" stroke-linecap="round"/>
<path opacity="0.248" d="M219.059 105.859L224.378 114.37" stroke="black" stroke-width="2.2" stroke-linecap="round"/>
<path opacity="0.248" d="M269.669 122.377L266.915 126.13H262.535" stroke="black" stroke-width="2.2" stroke-linecap="round"/>
<path opacity="0.248" d="M254.477 126.13H244.439" stroke="black" stroke-width="2.2" stroke-linecap="round"/>
<path opacity="0.248" d="M229.25 122.377L232.004 126.13H236.384" stroke="black" stroke-width="2.2" stroke-linecap="round"/>
<path opacity="0.248" d="M283.061 97.8422L285.155 93.6846L283.166 89.782" stroke="black" stroke-width="2.2" stroke-linecap="round"/>
<path d="M269.669 4.85297L266.915 1.09998H262.535" stroke="black" stroke-width="2.2" stroke-linecap="round"/>
<path d="M229.25 4.85297L232.004 1.09998H236.384" stroke="black" stroke-width="2.2" stroke-linecap="round"/>
<path opacity="0.248" d="M224.381 12.334L219.061 20.8454" stroke="black" stroke-width="2.2" stroke-linecap="round"/>
<path opacity="0.248" d="M215.396 35.3294L213.302 31.1717L215.291 27.2692" stroke="black" stroke-width="2.2" stroke-linecap="round"/>
<path opacity="0.248" d="M219.059 43.345L224.378 51.8563" stroke="black" stroke-width="2.2" stroke-linecap="round"/>
<path opacity="0.248" d="M269.669 59.865L266.915 63.618" stroke="black" stroke-width="2.2" stroke-linecap="round"/>
<path opacity="0.248" d="M229.25 59.865L232.003 63.618" stroke="black" stroke-width="2.2" stroke-linecap="round"/>
<path opacity="0.248" d="M274.076 12.333L279.395 20.8444" stroke="black" stroke-width="2.2" stroke-linecap="round"/>
<path opacity="0.248" d="M283.061 35.3303L285.155 31.1726L283.166 27.27" stroke="black" stroke-width="2.2" stroke-linecap="round"/>
<path opacity="0.248" d="M214.173 98.378L211.419 94.625H207.039" stroke="black" stroke-width="2.2" stroke-linecap="round"/>
<path opacity="0.248" d="M198.982 94.63H188.944" stroke="black" stroke-width="2.2" stroke-linecap="round"/>
<path opacity="0.248" d="M173.755 98.378L176.509 94.625H180.889" stroke="black" stroke-width="2.2" stroke-linecap="round"/>
<path opacity="0.248" d="M168.885 105.859L163.565 114.37" stroke="black" stroke-width="2.2" stroke-linecap="round"/>
<path opacity="0.248" d="M159.902 128.854L157.808 124.697L159.797 120.794" stroke="black" stroke-width="2.2" stroke-linecap="round"/>
<path opacity="0.248" d="M163.565 136.871L168.885 145.382" stroke="black" stroke-width="2.2" stroke-linecap="round"/>
<path opacity="0.248" d="M214.173 153.39L211.419 157.143H207.039" stroke="black" stroke-width="2.2" stroke-linecap="round"/>
<path opacity="0.248" d="M198.982 157.142H188.944" stroke="black" stroke-width="2.2" stroke-linecap="round"/>
<path opacity="0.248" d="M173.755 153.39L176.509 157.143H180.889" stroke="black" stroke-width="2.2" stroke-linecap="round"/>
<path opacity="0.248" d="M218.58 105.858L223.9 114.369" stroke="black" stroke-width="2.2" stroke-linecap="round"/>
<path opacity="0.248" d="M227.565 128.854L229.658 124.697L227.67 120.794" stroke="black" stroke-width="2.2" stroke-linecap="round"/>
<path opacity="0.248" d="M223.902 136.872L218.582 145.383" stroke="black" stroke-width="2.2" stroke-linecap="round"/>
<path opacity="0.248" d="M214.173 35.8649L211.419 32.1119H207.039" stroke="black" stroke-width="2.2" stroke-linecap="round"/>
<path opacity="0.248" d="M198.982 32.1169H188.944" stroke="black" stroke-width="2.2" stroke-linecap="round"/>
<path opacity="0.248" d="M173.755 35.8649L176.509 32.1119H180.889" stroke="black" stroke-width="2.2" stroke-linecap="round"/>
<path opacity="0.248" d="M168.885 43.3459L163.565 51.8573" stroke="black" stroke-width="2.2" stroke-linecap="round"/>
<path opacity="0.248" d="M159.902 66.3414L157.808 62.1837L159.797 58.2811" stroke="black" stroke-width="2.2" stroke-linecap="round"/>
<path opacity="0.248" d="M163.565 74.358L168.885 82.8694" stroke="black" stroke-width="2.2" stroke-linecap="round"/>
<path opacity="0.248" d="M214.173 90.877L211.418 94.6299" stroke="black" stroke-width="2.2" stroke-linecap="round"/>
<path opacity="0.248" d="M173.756 90.877L176.509 94.6299" stroke="black" stroke-width="2.2" stroke-linecap="round"/>
<path opacity="0.248" d="M218.58 43.345L223.9 51.8563" stroke="black" stroke-width="2.2" stroke-linecap="round"/>
<path opacity="0.248" d="M227.565 66.3422L229.658 62.1846L227.67 58.282" stroke="black" stroke-width="2.2" stroke-linecap="round"/>
<path opacity="0.248" d="M223.902 74.358L218.582 82.8694" stroke="black" stroke-width="2.2" stroke-linecap="round"/>
<path opacity="0.248" d="M160.309 67.366L157.555 63.613H153.175" stroke="black" stroke-width="2.2" stroke-linecap="round"/>
<path opacity="0.248" d="M145.119 63.6179H135.081" stroke="black" stroke-width="2.2" stroke-linecap="round"/>
<path opacity="0.248" d="M119.892 67.366L122.645 63.613H127.025" stroke="black" stroke-width="2.2" stroke-linecap="round"/>
<path opacity="0.248" d="M115.021 74.8469L109.701 83.3583" stroke="black" stroke-width="2.2" stroke-linecap="round"/>
<path opacity="0.248" d="M106.039 97.8424L103.945 93.6847L105.934 89.7821" stroke="black" stroke-width="2.2" stroke-linecap="round"/>
<path opacity="0.248" d="M109.701 105.859L115.02 114.37" stroke="black" stroke-width="2.2" stroke-linecap="round"/>
<path opacity="0.248" d="M160.309 122.377L157.555 126.13H153.175" stroke="black" stroke-width="2.2" stroke-linecap="round"/>
<path opacity="0.248" d="M145.119 126.13H135.081" stroke="black" stroke-width="2.2" stroke-linecap="round"/>
<path opacity="0.248" d="M119.892 122.377L122.645 126.13H127.025" stroke="black" stroke-width="2.2" stroke-linecap="round"/>
<path opacity="0.248" d="M173.702 97.8422L175.795 93.6846L173.807 89.782" stroke="black" stroke-width="2.2" stroke-linecap="round"/>
<path d="M160.309 4.85297L157.555 1.09998H153.175" stroke="black" stroke-width="2.2" stroke-linecap="round"/>
<path d="M119.892 4.85297L122.645 1.09998H127.025" stroke="black" stroke-width="2.2" stroke-linecap="round"/>
<path opacity="0.248" d="M115.021 12.334L109.701 20.8454" stroke="black" stroke-width="2.2" stroke-linecap="round"/>
<path opacity="0.248" d="M106.039 35.3294L103.945 31.1717L105.934 27.2692" stroke="black" stroke-width="2.2" stroke-linecap="round"/>
<path opacity="0.248" d="M109.701 43.345L115.02 51.8563" stroke="black" stroke-width="2.2" stroke-linecap="round"/>
<path opacity="0.248" d="M160.309 59.865L157.555 63.618" stroke="black" stroke-width="2.2" stroke-linecap="round"/>
<path opacity="0.248" d="M119.893 59.865L122.646 63.618" stroke="black" stroke-width="2.2" stroke-linecap="round"/>
<path opacity="0.248" d="M164.717 12.333L170.036 20.8444" stroke="black" stroke-width="2.2" stroke-linecap="round"/>
<path opacity="0.248" d="M173.702 35.3303L175.795 31.1726L173.807 27.27" stroke="black" stroke-width="2.2" stroke-linecap="round"/>
<path opacity="0.248" d="M104.814 98.378L102.06 94.625H97.6797" stroke="black" stroke-width="2.2" stroke-linecap="round"/>
<path opacity="0.248" d="M89.624 94.63H79.5859" stroke="black" stroke-width="2.2" stroke-linecap="round"/>
<path d="M64.3965 98.378L67.1499 94.625H71.5298" stroke="black" stroke-width="2.2" stroke-linecap="round"/>
<path d="M59.5249 105.859L54.2053 114.37" stroke="black" stroke-width="2.2" stroke-linecap="round"/>
<path d="M50.5429 128.854L48.4493 124.697L50.4378 120.794" stroke="black" stroke-width="2.2" stroke-linecap="round"/>
<path d="M54.2046 136.871L59.5242 145.382" stroke="black" stroke-width="2.2" stroke-linecap="round"/>
<path opacity="0.248" d="M104.814 153.39L102.06 157.143H97.6797" stroke="black" stroke-width="2.2" stroke-linecap="round"/>
<path opacity="0.248" d="M89.624 157.142H79.5859" stroke="black" stroke-width="2.2" stroke-linecap="round"/>
<path d="M64.3965 153.39L67.1499 157.143H71.5298" stroke="black" stroke-width="2.2" stroke-linecap="round"/>
<path opacity="0.248" d="M109.223 105.858L114.542 114.369" stroke="black" stroke-width="2.2" stroke-linecap="round"/>
<path opacity="0.248" d="M118.206 128.854L120.3 124.697L118.311 120.794" stroke="black" stroke-width="2.2" stroke-linecap="round"/>
<path opacity="0.248" d="M114.543 136.872L109.223 145.383" stroke="black" stroke-width="2.2" stroke-linecap="round"/>
<path opacity="0.248" d="M104.814 35.8649L102.06 32.1119H97.6797" stroke="black" stroke-width="2.2" stroke-linecap="round"/>
<path opacity="0.248" d="M89.624 32.1169H79.5859" stroke="black" stroke-width="2.2" stroke-linecap="round"/>
<path d="M64.3965 35.8649L67.1499 32.1119H71.5298" stroke="black" stroke-width="2.2" stroke-linecap="round"/>
<path d="M59.5249 43.3459L54.2053 51.8573" stroke="black" stroke-width="2.2" stroke-linecap="round"/>
<path d="M50.5429 66.3414L48.4493 62.1837L50.4378 58.2811" stroke="black" stroke-width="2.2" stroke-linecap="round"/>
<path d="M54.2046 74.358L59.5242 82.8694" stroke="black" stroke-width="2.2" stroke-linecap="round"/>
<path opacity="0.248" d="M104.814 90.877L102.06 94.6299" stroke="black" stroke-width="2.2" stroke-linecap="round"/>
<path d="M64.3965 90.877L67.1494 94.6299" stroke="black" stroke-width="2.2" stroke-linecap="round"/>
<path opacity="0.248" d="M109.223 43.345L114.542 51.8563" stroke="black" stroke-width="2.2" stroke-linecap="round"/>
<path opacity="0.248" d="M118.206 66.3422L120.3 62.1846L118.311 58.282" stroke="black" stroke-width="2.2" stroke-linecap="round"/>
<path opacity="0.248" d="M114.543 74.358L109.223 82.8694" stroke="black" stroke-width="2.2" stroke-linecap="round"/>
<path d="M35.7607 63.6179H25.7227" stroke="black" stroke-width="2.2" stroke-linecap="round"/>
<path d="M10.5337 67.366L13.2871 63.613H17.667" stroke="black" stroke-width="2.2" stroke-linecap="round"/>
<path d="M5.66162 74.8469L0.342012 83.3583" stroke="black" stroke-width="2.2" stroke-linecap="round"/>
<path d="M-3.31989 97.8424L-5.4135 93.6847L-3.42498 89.7821" stroke="black" stroke-width="2.2" stroke-linecap="round"/>
<path d="M0.341797 105.859L5.66141 114.37" stroke="black" stroke-width="2.2" stroke-linecap="round"/>
<path d="M50.9507 122.377L48.1968 126.13H43.8164" stroke="black" stroke-width="2.2" stroke-linecap="round"/>
<path d="M35.7607 126.13H25.7227" stroke="black" stroke-width="2.2" stroke-linecap="round"/>
<path d="M10.5337 122.377L13.2871 126.13H17.667" stroke="black" stroke-width="2.2" stroke-linecap="round"/>
<path d="M64.3427 97.8422L66.4363 93.6846L64.4478 89.782" stroke="black" stroke-width="2.2" stroke-linecap="round"/>
<path d="M50.9507 4.85297L48.1968 1.09998H43.8164" stroke="black" stroke-width="2.2" stroke-linecap="round"/>
<path d="M10.5337 4.85297L13.2871 1.09998H17.667" stroke="black" stroke-width="2.2" stroke-linecap="round"/>
<path d="M5.66162 12.334L0.342012 20.8454" stroke="black" stroke-width="2.2" stroke-linecap="round"/>
<path d="M-3.31989 35.3294L-5.4135 31.1717L-3.42498 27.2692" stroke="black" stroke-width="2.2" stroke-linecap="round"/>
<path d="M0.341797 43.345L5.66141 51.8563" stroke="black" stroke-width="2.2" stroke-linecap="round"/>
<path d="M50.9512 59.865L48.1968 63.618" stroke="black" stroke-width="2.2" stroke-linecap="round"/>
<path d="M10.5327 59.865L13.2856 63.618" stroke="black" stroke-width="2.2" stroke-linecap="round"/>
<path d="M55.3599 12.333L60.6795 20.8444" stroke="black" stroke-width="2.2" stroke-linecap="round"/>
<path d="M64.3427 35.3303L66.4363 31.1726L64.4478 27.27" stroke="black" stroke-width="2.2" stroke-linecap="round"/>
<path d="M-0.137207 105.858L5.1824 114.369" stroke="black" stroke-width="2.2" stroke-linecap="round"/>
<path d="M8.84853 128.854L10.9421 124.697L8.95361 120.794" stroke="black" stroke-width="2.2" stroke-linecap="round"/>
<path d="M5.18604 136.872L-0.133574 145.383" stroke="black" stroke-width="2.2" stroke-linecap="round"/>
<path d="M-0.137207 43.345L5.1824 51.8563" stroke="black" stroke-width="2.2" stroke-linecap="round"/>
<path d="M8.84853 66.3422L10.9421 62.1846L8.95361 58.282" stroke="black" stroke-width="2.2" stroke-linecap="round"/>
<path d="M5.18604 74.358L-0.133574 82.8694" stroke="black" stroke-width="2.2" stroke-linecap="round"/>
<path d="M148.942 1.10498H142.793" stroke="black" stroke-width="2.2" stroke-linecap="round"/>
<path opacity="0.202" d="M496.96 231.54L491.64 240.051" stroke="black" stroke-width="2.2" stroke-linecap="round"/>
<path opacity="0.202" d="M487.976 254.534L485.882 250.377L487.871 246.474" stroke="black" stroke-width="2.2" stroke-linecap="round"/>
<path opacity="0.202" d="M491.638 262.552L496.957 271.063" stroke="black" stroke-width="2.2" stroke-linecap="round"/>
<path opacity="0.202" d="M527.057 282.823H517.019" stroke="black" stroke-width="2.2" stroke-linecap="round"/>
<path opacity="0.202" d="M501.83 279.07L504.583 282.823H508.963" stroke="black" stroke-width="2.2" stroke-linecap="round"/>
<path d="M473.194 189.298H463.156" stroke="black" stroke-width="2.2" stroke-linecap="round"/>
<path d="M447.967 193.046L450.72 189.293H455.1" stroke="black" stroke-width="2.2" stroke-linecap="round"/>
<path d="M443.097 200.528L437.777 209.039" stroke="black" stroke-width="2.2" stroke-linecap="round"/>
<path d="M434.113 223.522L432.02 219.365L434.008 215.462" stroke="black" stroke-width="2.2" stroke-linecap="round"/>
<path opacity="0.202" d="M437.775 231.54L443.095 240.051" stroke="black" stroke-width="2.2" stroke-linecap="round"/>
<path opacity="0.202" d="M488.385 248.058L485.631 251.811H481.25" stroke="black" stroke-width="2.2" stroke-linecap="round"/>
<path opacity="0.202" d="M473.194 251.811H463.156" stroke="black" stroke-width="2.2" stroke-linecap="round"/>
<path opacity="0.202" d="M447.967 248.058L450.72 251.811H455.1" stroke="black" stroke-width="2.2" stroke-linecap="round"/>
<path d="M434.113 161.01L432.02 156.853L434.008 152.95" stroke="black" stroke-width="2.2" stroke-linecap="round"/>
<path d="M437.775 169.026L443.095 177.537" stroke="black" stroke-width="2.2" stroke-linecap="round"/>
<path d="M447.967 185.545L450.72 189.298" stroke="black" stroke-width="2.2" stroke-linecap="round"/>
<path d="M432.889 224.058L430.135 220.305H425.755" stroke="black" stroke-width="2.2" stroke-linecap="round"/>
<path d="M417.7 220.31H407.662" stroke="black" stroke-width="2.2" stroke-linecap="round"/>
<path d="M392.472 224.058L395.225 220.305H399.605" stroke="black" stroke-width="2.2" stroke-linecap="round"/>
<path opacity="0.202" d="M387.601 231.54L382.281 240.051" stroke="black" stroke-width="2.2" stroke-linecap="round"/>
<path opacity="0.202" d="M378.619 254.534L376.525 250.377L378.514 246.474" stroke="black" stroke-width="2.2" stroke-linecap="round"/>
<path opacity="0.202" d="M382.281 262.552L387.6 271.063" stroke="black" stroke-width="2.2" stroke-linecap="round"/>
<path opacity="0.202" d="M432.889 279.07L430.135 282.823H425.755" stroke="black" stroke-width="2.2" stroke-linecap="round"/>
<path opacity="0.202" d="M417.7 282.823H407.662" stroke="black" stroke-width="2.2" stroke-linecap="round"/>
<path opacity="0.202" d="M392.472 279.07L395.225 282.823H399.605" stroke="black" stroke-width="2.2" stroke-linecap="round"/>
<path opacity="0.202" d="M437.296 231.539L442.616 240.05" stroke="black" stroke-width="2.2" stroke-linecap="round"/>
<path opacity="0.202" d="M446.282 254.535L448.375 250.378L446.387 246.475" stroke="black" stroke-width="2.2" stroke-linecap="round"/>
<path opacity="0.202" d="M442.619 262.552L437.299 271.063" stroke="black" stroke-width="2.2" stroke-linecap="round"/>
<path d="M432.889 161.546L430.135 157.793H425.755" stroke="black" stroke-width="2.2" stroke-linecap="round"/>
<path d="M417.7 157.798H407.662" stroke="black" stroke-width="2.2" stroke-linecap="round"/>
<path d="M392.472 161.546L395.225 157.793H399.605" stroke="black" stroke-width="2.2" stroke-linecap="round"/>
<path d="M387.601 169.027L382.281 177.538" stroke="black" stroke-width="2.2" stroke-linecap="round"/>
<path d="M378.619 192.022L376.525 187.865L378.514 183.962" stroke="black" stroke-width="2.2" stroke-linecap="round"/>
<path d="M382.281 200.038L387.6 208.549" stroke="black" stroke-width="2.2" stroke-linecap="round"/>
<path d="M432.889 216.557L430.135 220.31" stroke="black" stroke-width="2.2" stroke-linecap="round"/>
<path d="M392.472 216.557L395.225 220.31" stroke="black" stroke-width="2.2" stroke-linecap="round"/>
<path d="M437.296 169.026L442.616 177.537" stroke="black" stroke-width="2.2" stroke-linecap="round"/>
<path d="M446.282 192.022L448.375 187.864L446.387 183.962" stroke="black" stroke-width="2.2" stroke-linecap="round"/>
<path d="M442.619 200.039L437.299 208.55" stroke="black" stroke-width="2.2" stroke-linecap="round"/>
<path d="M379.026 193.046L376.272 189.293H371.892" stroke="black" stroke-width="2.2" stroke-linecap="round"/>
<path d="M363.837 189.298H353.799" stroke="black" stroke-width="2.2" stroke-linecap="round"/>
<path d="M338.609 193.046L341.363 189.293H345.743" stroke="black" stroke-width="2.2" stroke-linecap="round"/>
<path d="M333.738 200.528L328.418 209.039" stroke="black" stroke-width="2.2" stroke-linecap="round"/>
<path d="M324.755 223.522L322.661 219.365L324.65 215.462" stroke="black" stroke-width="2.2" stroke-linecap="round"/>
<path opacity="0.202" d="M328.418 231.54L333.738 240.051" stroke="black" stroke-width="2.2" stroke-linecap="round"/>
<path opacity="0.202" d="M379.026 248.058L376.272 251.811H371.892" stroke="black" stroke-width="2.2" stroke-linecap="round"/>
<path opacity="0.202" d="M363.837 251.811H353.799" stroke="black" stroke-width="2.2" stroke-linecap="round"/>
<path opacity="0.202" d="M338.609 248.058L341.363 251.811H345.743" stroke="black" stroke-width="2.2" stroke-linecap="round"/>
<path d="M392.419 223.523L394.512 219.366L392.524 215.463" stroke="black" stroke-width="2.2" stroke-linecap="round"/>
<path d="M324.755 161.01L322.661 156.853L324.65 152.95" stroke="black" stroke-width="2.2" stroke-linecap="round"/>
<path d="M328.418 169.026L333.738 177.537" stroke="black" stroke-width="2.2" stroke-linecap="round"/>
<path d="M379.026 185.545L376.271 189.298" stroke="black" stroke-width="2.2" stroke-linecap="round"/>
<path d="M338.609 185.545L341.362 189.298" stroke="black" stroke-width="2.2" stroke-linecap="round"/>
<path d="M392.419 161.01L394.512 156.853L392.524 152.95" stroke="black" stroke-width="2.2" stroke-linecap="round"/>
<path d="M323.531 224.058L320.777 220.305H316.396" stroke="black" stroke-width="2.2" stroke-linecap="round"/>
<path d="M308.341 220.31H298.303" stroke="black" stroke-width="2.2" stroke-linecap="round"/>
<path opacity="0.248" d="M283.114 224.058L285.867 220.305H290.247" stroke="black" stroke-width="2.2" stroke-linecap="round"/>
<path opacity="0.248" d="M278.242 231.54L272.922 240.051" stroke="black" stroke-width="2.2" stroke-linecap="round"/>
<path opacity="0.248" d="M269.259 254.534L267.166 250.377L269.154 246.474" stroke="black" stroke-width="2.2" stroke-linecap="round"/>
<path opacity="0.248" d="M272.922 262.552L278.241 271.063" stroke="black" stroke-width="2.2" stroke-linecap="round"/>
<path opacity="0.202" d="M323.531 279.07L320.777 282.823H316.396" stroke="black" stroke-width="2.2" stroke-linecap="round"/>
<path d="M308.341 282.823H298.303" stroke="black" stroke-width="2.2" stroke-linecap="round"/>
<path opacity="0.248" d="M283.114 279.07L285.867 282.823H290.247" stroke="black" stroke-width="2.2" stroke-linecap="round"/>
<path opacity="0.202" d="M327.939 231.539L333.259 240.05" stroke="black" stroke-width="2.2" stroke-linecap="round"/>
<path opacity="0.202" d="M336.922 254.535L339.015 250.378L337.027 246.475" stroke="black" stroke-width="2.2" stroke-linecap="round"/>
<path opacity="0.202" d="M333.26 262.552L327.94 271.063" stroke="black" stroke-width="2.2" stroke-linecap="round"/>
<path d="M323.531 161.546L320.777 157.793H316.396" stroke="black" stroke-width="2.2" stroke-linecap="round"/>
<path d="M308.341 157.798H298.303" stroke="black" stroke-width="2.2" stroke-linecap="round"/>
<path opacity="0.248" d="M283.114 161.546L285.867 157.793H290.247" stroke="black" stroke-width="2.2" stroke-linecap="round"/>
<path opacity="0.248" d="M278.242 169.027L272.922 177.538" stroke="black" stroke-width="2.2" stroke-linecap="round"/>
<path opacity="0.248" d="M269.259 192.022L267.166 187.865L269.154 183.962" stroke="black" stroke-width="2.2" stroke-linecap="round"/>
<path opacity="0.248" d="M272.922 200.038L278.241 208.549" stroke="black" stroke-width="2.2" stroke-linecap="round"/>
<path d="M323.531 216.557L320.776 220.31" stroke="black" stroke-width="2.2" stroke-linecap="round"/>
<path opacity="0.248" d="M283.113 216.557L285.866 220.31" stroke="black" stroke-width="2.2" stroke-linecap="round"/>
<path d="M327.939 169.026L333.259 177.537" stroke="black" stroke-width="2.2" stroke-linecap="round"/>
<path d="M336.922 192.022L339.015 187.864L337.027 183.962" stroke="black" stroke-width="2.2" stroke-linecap="round"/>
<path d="M333.26 200.039L327.94 208.55" stroke="black" stroke-width="2.2" stroke-linecap="round"/>
<path opacity="0.248" d="M269.669 193.046L266.915 189.293H262.535" stroke="black" stroke-width="2.2" stroke-linecap="round"/>
<path opacity="0.248" d="M254.477 189.298H244.439" stroke="black" stroke-width="2.2" stroke-linecap="round"/>
<path opacity="0.248" d="M229.25 193.046L232.004 189.293H236.384" stroke="black" stroke-width="2.2" stroke-linecap="round"/>
<path opacity="0.248" d="M224.381 200.528L219.061 209.039" stroke="black" stroke-width="2.2" stroke-linecap="round"/>
<path opacity="0.248" d="M215.396 223.522L213.302 219.365L215.291 215.462" stroke="black" stroke-width="2.2" stroke-linecap="round"/>
<path opacity="0.248" d="M219.059 231.54L224.378 240.051" stroke="black" stroke-width="2.2" stroke-linecap="round"/>
<path opacity="0.248" d="M269.669 248.058L266.915 251.811H262.535" stroke="black" stroke-width="2.2" stroke-linecap="round"/>
<path opacity="0.248" d="M254.477 251.811H244.439" stroke="black" stroke-width="2.2" stroke-linecap="round"/>
<path opacity="0.248" d="M229.25 248.058L232.004 251.811H236.384" stroke="black" stroke-width="2.2" stroke-linecap="round"/>
<path opacity="0.248" d="M283.061 223.523L285.155 219.366L283.166 215.463" stroke="black" stroke-width="2.2" stroke-linecap="round"/>
<path opacity="0.248" d="M269.669 130.534L266.915 126.781H262.535" stroke="black" stroke-width="2.2" stroke-linecap="round"/>
<path opacity="0.248" d="M254.477 126.786H244.439" stroke="black" stroke-width="2.2" stroke-linecap="round"/>
<path opacity="0.248" d="M229.25 130.534L232.004 126.781H236.384" stroke="black" stroke-width="2.2" stroke-linecap="round"/>
<path opacity="0.248" d="M224.381 138.015L219.061 146.526" stroke="black" stroke-width="2.2" stroke-linecap="round"/>
<path opacity="0.248" d="M215.396 161.01L213.302 156.853L215.291 152.95" stroke="black" stroke-width="2.2" stroke-linecap="round"/>
<path opacity="0.248" d="M219.059 169.026L224.378 177.537" stroke="black" stroke-width="2.2" stroke-linecap="round"/>
<path opacity="0.248" d="M269.669 185.545L266.915 189.298" stroke="black" stroke-width="2.2" stroke-linecap="round"/>
<path opacity="0.248" d="M229.25 185.545L232.003 189.298" stroke="black" stroke-width="2.2" stroke-linecap="round"/>
<path opacity="0.248" d="M274.076 138.013L279.395 146.524" stroke="black" stroke-width="2.2" stroke-linecap="round"/>
<path opacity="0.248" d="M283.061 161.01L285.155 156.853L283.166 152.95" stroke="black" stroke-width="2.2" stroke-linecap="round"/>
<path opacity="0.248" d="M214.173 224.058L211.419 220.305H207.039" stroke="black" stroke-width="2.2" stroke-linecap="round"/>
<path opacity="0.248" d="M198.982 220.31H188.944" stroke="black" stroke-width="2.2" stroke-linecap="round"/>
<path opacity="0.248" d="M173.755 224.058L176.509 220.305H180.889" stroke="black" stroke-width="2.2" stroke-linecap="round"/>
<path opacity="0.248" d="M168.885 231.54L163.565 240.051" stroke="black" stroke-width="2.2" stroke-linecap="round"/>
<path opacity="0.248" d="M163.565 262.552L168.885 271.063" stroke="black" stroke-width="2.2" stroke-linecap="round"/>
<path opacity="0.248" d="M214.173 279.07L211.419 282.823H207.039" stroke="black" stroke-width="2.2" stroke-linecap="round"/>
<path opacity="0.248" d="M198.982 282.823H188.944" stroke="black" stroke-width="2.2" stroke-linecap="round"/>
<path opacity="0.248" d="M173.755 279.07L176.509 282.823H180.889" stroke="black" stroke-width="2.2" stroke-linecap="round"/>
<path opacity="0.248" d="M218.58 231.539L223.9 240.05" stroke="black" stroke-width="2.2" stroke-linecap="round"/>
<path opacity="0.248" d="M227.565 254.535L229.658 250.378L227.67 246.475" stroke="black" stroke-width="2.2" stroke-linecap="round"/>
<path opacity="0.248" d="M223.902 262.552L218.582 271.063" stroke="black" stroke-width="2.2" stroke-linecap="round"/>
<path opacity="0.248" d="M214.173 161.546L211.419 157.793H207.039" stroke="black" stroke-width="2.2" stroke-linecap="round"/>
<path opacity="0.248" d="M198.982 157.798H188.944" stroke="black" stroke-width="2.2" stroke-linecap="round"/>
<path opacity="0.248" d="M173.755 161.546L176.509 157.793H180.889" stroke="black" stroke-width="2.2" stroke-linecap="round"/>
<path opacity="0.248" d="M168.885 169.027L163.565 177.538" stroke="black" stroke-width="2.2" stroke-linecap="round"/>
<path opacity="0.248" d="M159.902 192.022L157.808 187.865L159.797 183.962" stroke="black" stroke-width="2.2" stroke-linecap="round"/>
<path opacity="0.248" d="M163.565 200.038L168.885 208.549" stroke="black" stroke-width="2.2" stroke-linecap="round"/>
<path opacity="0.248" d="M214.173 216.557L211.418 220.31" stroke="black" stroke-width="2.2" stroke-linecap="round"/>
<path opacity="0.248" d="M173.756 216.557L176.509 220.31" stroke="black" stroke-width="2.2" stroke-linecap="round"/>
<path opacity="0.248" d="M218.58 169.026L223.9 177.537" stroke="black" stroke-width="2.2" stroke-linecap="round"/>
<path opacity="0.248" d="M227.565 192.022L229.658 187.864L227.67 183.962" stroke="black" stroke-width="2.2" stroke-linecap="round"/>
<path opacity="0.248" d="M223.902 200.039L218.582 208.55" stroke="black" stroke-width="2.2" stroke-linecap="round"/>
<path opacity="0.248" d="M160.309 193.046L157.555 189.293H153.175" stroke="black" stroke-width="2.2" stroke-linecap="round"/>
<path opacity="0.248" d="M145.119 189.298H135.081" stroke="black" stroke-width="2.2" stroke-linecap="round"/>
<path opacity="0.248" d="M119.892 193.046L122.645 189.293H127.025" stroke="black" stroke-width="2.2" stroke-linecap="round"/>
<path opacity="0.248" d="M173.702 223.523L175.795 219.366L173.807 215.463" stroke="black" stroke-width="2.2" stroke-linecap="round"/>
<path opacity="0.248" d="M160.309 130.534L157.555 126.781H153.175" stroke="black" stroke-width="2.2" stroke-linecap="round"/>
<path opacity="0.248" d="M145.119 126.786H135.081" stroke="black" stroke-width="2.2" stroke-linecap="round"/>
<path opacity="0.248" d="M119.892 130.534L122.645 126.781H127.025" stroke="black" stroke-width="2.2" stroke-linecap="round"/>
<path opacity="0.248" d="M115.021 138.015L109.701 146.526" stroke="black" stroke-width="2.2" stroke-linecap="round"/>
<path opacity="0.248" d="M106.039 161.01L103.945 156.853L105.934 152.95" stroke="black" stroke-width="2.2" stroke-linecap="round"/>
<path opacity="0.248" d="M160.309 185.545L157.555 189.298" stroke="black" stroke-width="2.2" stroke-linecap="round"/>
<path opacity="0.248" d="M119.893 185.545L122.646 189.298" stroke="black" stroke-width="2.2" stroke-linecap="round"/>
<path opacity="0.248" d="M164.717 138.013L170.036 146.524" stroke="black" stroke-width="2.2" stroke-linecap="round"/>
<path opacity="0.248" d="M173.702 161.01L175.795 156.853L173.807 152.95" stroke="black" stroke-width="2.2" stroke-linecap="round"/>
<path opacity="0.248" d="M104.814 161.546L102.06 157.793H97.6797" stroke="black" stroke-width="2.2" stroke-linecap="round"/>
<path opacity="0.248" d="M89.624 157.798H79.5859" stroke="black" stroke-width="2.2" stroke-linecap="round"/>
<path d="M64.3965 161.546L67.1499 157.793H71.5298" stroke="black" stroke-width="2.2" stroke-linecap="round"/>
<path d="M50.9507 130.534L48.1968 126.781H43.8164" stroke="black" stroke-width="2.2" stroke-linecap="round"/>
<path d="M35.7607 126.786H25.7227" stroke="black" stroke-width="2.2" stroke-linecap="round"/>
<path d="M10.5337 130.534L13.2871 126.781H17.667" stroke="black" stroke-width="2.2" stroke-linecap="round"/>
<path d="M5.66162 138.015L0.342012 146.526" stroke="black" stroke-width="2.2" stroke-linecap="round"/>
<path d="M-3.31989 161.01L-5.4135 156.853L-3.42498 152.95" stroke="black" stroke-width="2.2" stroke-linecap="round"/>
<path d="M55.3599 138.013L60.6795 146.524" stroke="black" stroke-width="2.2" stroke-linecap="round"/>
<path d="M64.3427 161.01L66.4363 156.853L64.4478 152.95" stroke="black" stroke-width="2.2" stroke-linecap="round"/>
<path opacity="0.202" d="M527.057 283.478H517.019" stroke="black" stroke-width="2.2" stroke-linecap="round"/>
<path opacity="0.202" d="M501.83 287.226L504.583 283.473H508.963" stroke="black" stroke-width="2.2" stroke-linecap="round"/>
<path opacity="0.202" d="M488.385 256.214L485.631 252.461H481.25" stroke="black" stroke-width="2.2" stroke-linecap="round"/>
<path opacity="0.202" d="M473.194 252.466H463.156" stroke="black" stroke-width="2.2" stroke-linecap="round"/>
<path opacity="0.202" d="M447.967 256.214L450.72 252.461H455.1" stroke="black" stroke-width="2.2" stroke-linecap="round"/>
<path opacity="0.202" d="M443.097 263.696L437.777 272.207" stroke="black" stroke-width="2.2" stroke-linecap="round"/>
<path opacity="0.202" d="M434.113 286.69L432.02 282.533L434.008 278.63" stroke="black" stroke-width="2.2" stroke-linecap="round"/>
<path opacity="0.202" d="M492.793 263.695L498.113 272.206" stroke="black" stroke-width="2.2" stroke-linecap="round"/>
<path opacity="0.202" d="M501.778 286.691L503.871 282.534L501.883 278.631" stroke="black" stroke-width="2.2" stroke-linecap="round"/>
<path opacity="0.202" d="M432.889 287.226L430.135 283.473H425.755" stroke="black" stroke-width="2.2" stroke-linecap="round"/>
<path opacity="0.202" d="M417.7 283.478H407.662" stroke="black" stroke-width="2.2" stroke-linecap="round"/>
<path opacity="0.202" d="M392.472 287.226L395.225 283.473H399.605" stroke="black" stroke-width="2.2" stroke-linecap="round"/>
<path opacity="0.202" d="M379.026 256.214L376.272 252.461H371.892" stroke="black" stroke-width="2.2" stroke-linecap="round"/>
<path opacity="0.202" d="M363.837 252.466H353.799" stroke="black" stroke-width="2.2" stroke-linecap="round"/>
<path opacity="0.202" d="M338.609 256.214L341.363 252.461H345.743" stroke="black" stroke-width="2.2" stroke-linecap="round"/>
<path opacity="0.202" d="M333.738 263.696L328.418 272.207" stroke="black" stroke-width="2.2" stroke-linecap="round"/>
<path opacity="0.202" d="M324.755 286.69L322.661 282.533L324.65 278.63" stroke="black" stroke-width="2.2" stroke-linecap="round"/>
<path opacity="0.202" d="M383.433 263.695L388.752 272.206" stroke="black" stroke-width="2.2" stroke-linecap="round"/>
<path opacity="0.202" d="M392.419 286.691L394.512 282.534L392.524 278.631" stroke="black" stroke-width="2.2" stroke-linecap="round"/>
<path opacity="0.202" d="M323.531 287.226L320.777 283.473H316.396" stroke="black" stroke-width="2.2" stroke-linecap="round"/>
<path d="M308.341 283.478H298.303" stroke="black" stroke-width="2.2" stroke-linecap="round"/>
<path opacity="0.248" d="M283.114 287.226L285.867 283.473H290.247" stroke="black" stroke-width="2.2" stroke-linecap="round"/>
<path opacity="0.248" d="M269.669 256.214L266.915 252.461H262.535" stroke="black" stroke-width="2.2" stroke-linecap="round"/>
<path opacity="0.248" d="M254.477 252.466H244.439" stroke="black" stroke-width="2.2" stroke-linecap="round"/>
<path opacity="0.248" d="M229.25 256.214L232.004 252.461H236.384" stroke="black" stroke-width="2.2" stroke-linecap="round"/>
<path opacity="0.248" d="M224.381 263.696L219.061 272.207" stroke="black" stroke-width="2.2" stroke-linecap="round"/>
<path opacity="0.248" d="M215.396 286.69L213.302 282.533L215.291 278.63" stroke="black" stroke-width="2.2" stroke-linecap="round"/>
<path opacity="0.248" d="M274.076 263.695L279.395 272.206" stroke="black" stroke-width="2.2" stroke-linecap="round"/>
<path opacity="0.248" d="M283.061 286.691L285.155 282.534L283.166 278.631" stroke="black" stroke-width="2.2" stroke-linecap="round"/>
<path opacity="0.248" d="M214.173 287.226L211.419 283.473H207.039" stroke="black" stroke-width="2.2" stroke-linecap="round"/>
<path opacity="0.248" d="M198.982 283.478H188.944" stroke="black" stroke-width="2.2" stroke-linecap="round"/>
<path opacity="0.248" d="M173.755 287.226L176.509 283.473H180.889" stroke="black" stroke-width="2.2" stroke-linecap="round"/>
<path opacity="0.248" d="M164.717 263.695L170.036 272.206" stroke="black" stroke-width="2.2" stroke-linecap="round"/>
<path opacity="0.248" d="M173.702 286.691L175.795 282.534L173.807 278.631" stroke="black" stroke-width="2.2" stroke-linecap="round"/>
<path d="M50.9512 59.865L48.1968 63.618" stroke="black" stroke-width="2.2" stroke-linecap="round"/>
<path d="M527.057 345.991H517.019" stroke="black" stroke-width="2.2" stroke-linecap="round"/>
<path d="M501.83 349.739L504.583 345.986H508.963" stroke="black" stroke-width="2.2" stroke-linecap="round"/>
<path d="M496.96 357.221L491.64 365.732" stroke="black" stroke-width="2.2" stroke-linecap="round"/>
<path d="M487.976 380.215L485.882 376.058L487.871 372.155" stroke="black" stroke-width="2.2" stroke-linecap="round"/>
<path d="M491.638 388.233L496.957 396.744" stroke="black" stroke-width="2.2" stroke-linecap="round"/>
<path opacity="0.202" d="M496.96 294.707L491.64 303.218" stroke="black" stroke-width="2.2" stroke-linecap="round"/>
<path d="M487.976 317.702L485.882 313.545L487.871 309.642" stroke="black" stroke-width="2.2" stroke-linecap="round"/>
<path d="M491.638 325.72L496.957 334.231" stroke="black" stroke-width="2.2" stroke-linecap="round"/>
<path d="M501.831 342.238L504.583 345.991" stroke="black" stroke-width="2.2" stroke-linecap="round"/>
<path d="M488.385 318.727L485.631 314.974H481.25" stroke="black" stroke-width="2.2" stroke-linecap="round"/>
<path d="M473.194 314.979H463.156" stroke="black" stroke-width="2.2" stroke-linecap="round"/>
<path d="M447.967 318.727L450.72 314.974H455.1" stroke="black" stroke-width="2.2" stroke-linecap="round"/>
<path d="M443.097 326.208L437.777 334.719" stroke="black" stroke-width="2.2" stroke-linecap="round"/>
<path d="M434.113 349.203L432.02 345.046L434.008 341.143" stroke="black" stroke-width="2.2" stroke-linecap="round"/>
<path d="M437.775 357.22L443.095 365.731" stroke="black" stroke-width="2.2" stroke-linecap="round"/>
<path d="M488.385 373.739L485.631 377.492H481.25" stroke="black" stroke-width="2.2" stroke-linecap="round"/>
<path d="M473.194 377.492H463.156" stroke="black" stroke-width="2.2" stroke-linecap="round"/>
<path d="M447.967 373.739L450.72 377.492H455.1" stroke="black" stroke-width="2.2" stroke-linecap="round"/>
<path d="M501.778 349.204L503.871 345.047L501.883 341.144" stroke="black" stroke-width="2.2" stroke-linecap="round"/>
<path opacity="0.202" d="M437.775 294.708L443.095 303.219" stroke="black" stroke-width="2.2" stroke-linecap="round"/>
<path d="M488.385 311.226L485.631 314.979" stroke="black" stroke-width="2.2" stroke-linecap="round"/>
<path d="M447.967 311.226L450.72 314.979" stroke="black" stroke-width="2.2" stroke-linecap="round"/>
<path d="M432.889 349.739L430.135 345.986H425.755" stroke="black" stroke-width="2.2" stroke-linecap="round"/>
<path d="M417.7 345.991H407.662" stroke="black" stroke-width="2.2" stroke-linecap="round"/>
<path d="M392.472 349.739L395.225 345.986H399.605" stroke="black" stroke-width="2.2" stroke-linecap="round"/>
<path d="M387.601 357.221L382.281 365.732" stroke="black" stroke-width="2.2" stroke-linecap="round"/>
<path d="M437.296 357.22L442.616 365.731" stroke="black" stroke-width="2.2" stroke-linecap="round"/>
<path d="M446.282 380.216L448.375 376.059L446.387 372.156" stroke="black" stroke-width="2.2" stroke-linecap="round"/>
<path d="M442.619 388.233L437.299 396.744" stroke="black" stroke-width="2.2" stroke-linecap="round"/>
<path opacity="0.202" d="M387.601 294.707L382.281 303.218" stroke="black" stroke-width="2.2" stroke-linecap="round"/>
<path d="M378.619 317.702L376.525 313.545L378.514 309.642" stroke="black" stroke-width="2.2" stroke-linecap="round"/>
<path d="M382.281 325.72L387.6 334.231" stroke="black" stroke-width="2.2" stroke-linecap="round"/>
<path d="M432.889 342.238L430.135 345.991" stroke="black" stroke-width="2.2" stroke-linecap="round"/>
<path d="M392.472 342.238L395.225 345.991" stroke="black" stroke-width="2.2" stroke-linecap="round"/>
<path opacity="0.202" d="M437.296 294.707L442.616 303.218" stroke="black" stroke-width="2.2" stroke-linecap="round"/>
<path d="M446.282 317.703L448.375 313.546L446.387 309.643" stroke="black" stroke-width="2.2" stroke-linecap="round"/>
<path d="M442.619 325.719L437.299 334.23" stroke="black" stroke-width="2.2" stroke-linecap="round"/>
<path d="M379.026 318.727L376.272 314.974H371.892" stroke="black" stroke-width="2.2" stroke-linecap="round"/>
<path d="M363.837 314.979H353.799" stroke="black" stroke-width="2.2" stroke-linecap="round"/>
<path d="M338.609 318.727L341.363 314.974H345.743" stroke="black" stroke-width="2.2" stroke-linecap="round"/>
<path d="M333.738 326.208L328.418 334.719" stroke="black" stroke-width="2.2" stroke-linecap="round"/>
<path d="M324.755 349.203L322.661 345.046L324.65 341.143" stroke="black" stroke-width="2.2" stroke-linecap="round"/>
<path d="M328.418 357.22L333.738 365.731" stroke="black" stroke-width="2.2" stroke-linecap="round"/>
<path d="M379.026 373.739L376.272 377.492H371.892" stroke="black" stroke-width="2.2" stroke-linecap="round"/>
<path d="M363.837 377.492H353.799" stroke="black" stroke-width="2.2" stroke-linecap="round"/>
<path d="M338.609 373.739L341.363 377.492H345.743" stroke="black" stroke-width="2.2" stroke-linecap="round"/>
<path d="M392.419 349.204L394.512 345.047L392.524 341.144" stroke="black" stroke-width="2.2" stroke-linecap="round"/>
<path opacity="0.202" d="M328.418 294.708L333.738 303.219" stroke="black" stroke-width="2.2" stroke-linecap="round"/>
<path d="M379.026 311.226L376.271 314.979" stroke="black" stroke-width="2.2" stroke-linecap="round"/>
<path d="M338.609 311.226L341.362 314.979" stroke="black" stroke-width="2.2" stroke-linecap="round"/>
<path d="M323.531 349.739L320.777 345.986H316.396" stroke="black" stroke-width="2.2" stroke-linecap="round"/>
<path d="M308.341 345.991H298.303" stroke="black" stroke-width="2.2" stroke-linecap="round"/>
<path opacity="0.248" d="M283.114 349.739L285.867 345.986H290.247" stroke="black" stroke-width="2.2" stroke-linecap="round"/>
<path opacity="0.248" d="M278.242 357.221L272.922 365.732" stroke="black" stroke-width="2.2" stroke-linecap="round"/>
<path d="M327.939 357.22L333.259 365.731" stroke="black" stroke-width="2.2" stroke-linecap="round"/>
<path opacity="0.248" d="M278.242 294.707L272.922 303.218" stroke="black" stroke-width="2.2" stroke-linecap="round"/>
<path opacity="0.248" d="M269.259 317.702L267.166 313.545L269.154 309.642" stroke="black" stroke-width="2.2" stroke-linecap="round"/>
<path opacity="0.248" d="M272.922 325.72L278.241 334.231" stroke="black" stroke-width="2.2" stroke-linecap="round"/>
<path d="M323.531 342.238L320.776 345.991" stroke="black" stroke-width="2.2" stroke-linecap="round"/>
<path opacity="0.248" d="M283.113 342.238L285.866 345.991" stroke="black" stroke-width="2.2" stroke-linecap="round"/>
<path opacity="0.202" d="M327.939 294.707L333.259 303.218" stroke="black" stroke-width="2.2" stroke-linecap="round"/>
<path d="M336.922 317.703L339.015 313.546L337.027 309.643" stroke="black" stroke-width="2.2" stroke-linecap="round"/>
<path d="M333.26 325.719L327.94 334.23" stroke="black" stroke-width="2.2" stroke-linecap="round"/>
<path opacity="0.248" d="M269.669 318.727L266.915 314.974H262.535" stroke="black" stroke-width="2.2" stroke-linecap="round"/>
<path opacity="0.248" d="M254.477 314.979H244.439" stroke="black" stroke-width="2.2" stroke-linecap="round"/>
<path opacity="0.248" d="M229.25 318.727L232.004 314.974H236.384" stroke="black" stroke-width="2.2" stroke-linecap="round"/>
<path opacity="0.248" d="M283.061 349.204L285.155 345.047L283.166 341.144" stroke="black" stroke-width="2.2" stroke-linecap="round"/>
<path opacity="0.248" d="M219.059 294.708L224.378 303.219" stroke="black" stroke-width="2.2" stroke-linecap="round"/>
<path opacity="0.248" d="M269.669 311.226L266.915 314.979" stroke="black" stroke-width="2.2" stroke-linecap="round"/>
<path opacity="0.248" d="M229.25 311.226L232.003 314.979" stroke="black" stroke-width="2.2" stroke-linecap="round"/>
<path opacity="0.248" d="M168.885 294.707L163.565 303.218" stroke="black" stroke-width="2.2" stroke-linecap="round"/>
<path opacity="0.248" d="M218.58 294.707L223.9 303.218" stroke="black" stroke-width="2.2" stroke-linecap="round"/>
<path opacity="0.248" d="M227.565 317.703L229.658 313.546L227.67 309.643" stroke="black" stroke-width="2.2" stroke-linecap="round"/>
<path d="M488.385 381.895L485.631 378.142H481.25" stroke="black" stroke-width="2.2" stroke-linecap="round"/>
<path d="M473.194 378.147H463.156" stroke="black" stroke-width="2.2" stroke-linecap="round"/>
<path d="M447.967 381.895L450.72 378.142H455.1" stroke="black" stroke-width="2.2" stroke-linecap="round"/>
<path d="M443.097 389.376L437.777 397.887" stroke="black" stroke-width="2.2" stroke-linecap="round"/>
<path d="M492.793 389.375L498.113 397.886" stroke="black" stroke-width="2.2" stroke-linecap="round"/>
<path opacity="0.202" d="M542.248 279.07L539.494 282.823H535.114" stroke="black" stroke-width="2.2" stroke-linecap="round"/>
<path opacity="0.202" d="M542.248 287.226L539.494 283.473H535.114" stroke="black" stroke-width="2.2" stroke-linecap="round"/>
<path d="M542.248 349.739L539.494 345.986H535.114" stroke="black" stroke-width="2.2" stroke-linecap="round"/>
<path d="M542.248 342.238L539.494 345.991" stroke="black" stroke-width="2.2" stroke-linecap="round"/>
</g>
<defs>
<clipPath id="clip0_332_1136">
<rect width="544" height="398" fill="white"/>
</clipPath>
</defs>
</svg>
