<svg width="240" height="545" viewBox="0 0 240 545" fill="none" xmlns="http://www.w3.org/2000/svg">
<g clip-path="url(#clip0_333_2622)">
<g opacity="0.43">
<path opacity="0.43" d="M109.001 514.544C107.155 514.185 105.415 513.692 103.83 513.08C101.697 512.255 99.9136 511.235 98.5294 510.047C93.6255 505.841 91.8179 497.923 91.8002 497.843L91.788 497.788L91.7697 497.735L3.12864 240.078C3.00375 239.551 1.64299 233.551 2.94419 227.875C4.25999 222.134 8.3433 216.488 8.66361 216.052L186.221 11.78C186.553 11.4354 192.775 5.02707 198.804 2.95903C202.436 1.71326 206.075 2.01108 208.488 2.48037C210.043 2.78286 211.033 3.15009 211.043 3.1538L211.121 3.18292L211.203 3.19926L475.568 54.6185C476.193 54.8094 483.547 57.1202 488.583 61.4547C493.633 65.8015 496.546 72.3571 496.755 72.8397L585.335 330.319C585.43 330.643 587.118 336.548 585.814 342.073C584.49 347.678 580.036 353.148 579.856 353.367L402.906 556.94L402.873 556.978L402.845 557.018C402.832 557.035 401.563 558.809 399.444 560.837C397.515 562.681 394.464 565.123 390.879 566.281C388.656 566.998 385.978 567.315 382.919 567.22C380.301 567.14 377.951 566.773 376.44 566.479C375.333 566.264 374.657 566.083 374.65 566.082L374.616 566.072L374.581 566.066L111.869 514.968L111.812 514.957L111.755 514.952C111.745 514.952 110.632 514.861 109.001 514.544Z" fill="url(#paint0_linear_333_2622)"/>
<path opacity="0.43" d="M208.297 3.46234C206.004 3.01636 202.552 2.73116 199.129 3.90521C193.402 5.86988 187.412 11.9873 186.961 12.4548L9.44572 216.677C9.01362 217.271 5.16493 222.665 3.91944 228.098C2.69733 233.43 3.92917 239.099 4.09099 239.799L92.7524 497.516L92.7768 497.626C92.7938 497.702 94.5269 505.296 99.1809 509.288C102.233 511.906 106.764 513.09 109.192 513.562C110.758 513.867 111.825 513.954 111.834 513.955L111.948 513.964L374.842 565.097L374.909 565.115C374.915 565.117 375.566 565.29 376.631 565.497C378.106 565.784 380.399 566.142 382.95 566.221C385.894 566.311 388.459 566.011 390.571 565.329C397.147 563.206 401.982 556.505 402.029 556.439L402.086 556.359L402.151 556.284L579.094 352.72C579.355 352.4 583.586 347.155 584.84 341.843C586.066 336.653 584.507 331.057 584.382 330.623L495.822 73.2004C495.536 72.5487 492.739 66.3521 487.93 62.2129C483.148 58.0971 476.156 55.8479 475.325 55.5903L210.851 4.15162L210.692 4.09076C210.653 4.07649 209.732 3.74155 208.297 3.46234ZM208.679 1.49835C210.35 1.82344 211.395 2.21726 211.395 2.21726L475.809 53.6461C475.809 53.6461 483.765 55.9884 489.236 60.6964C494.706 65.4045 497.689 72.4782 497.689 72.4782L586.288 330.013C586.288 330.013 588.205 336.303 586.788 342.302C585.371 348.302 580.621 354.013 580.621 354.013L403.661 557.597C403.661 557.597 398.504 564.87 391.186 567.233C383.869 569.595 374.391 567.048 374.391 567.048L111.678 515.95C111.678 515.95 103.092 515.279 97.8782 510.807C92.6647 506.334 90.8238 498.061 90.8238 498.061L2.16746 240.358C2.16746 240.358 0.540512 233.884 1.96914 227.651C3.39796 221.418 7.88225 215.426 7.88225 215.426L185.482 11.1054C185.482 11.1054 192.002 4.2348 198.48 2.01267C202.348 0.685906 206.202 1.01655 208.679 1.49835Z" fill="#FF9E00"/>
</g>
</g>
<defs>
<linearGradient id="paint0_linear_333_2622" x1="385.242" y1="561.365" x2="270.271" y2="0.419768" gradientUnits="userSpaceOnUse">
<stop stop-color="#FF9E00"/>
<stop offset="1"/>
</linearGradient>
<clipPath id="clip0_333_2622">
<rect width="240" height="545" fill="white"/>
</clipPath>
</defs>
</svg>
