<svg width="103" height="142" viewBox="0 0 103 142" fill="none" xmlns="http://www.w3.org/2000/svg">
<mask id="mask0_333_2616" style="mask-type:alpha" maskUnits="userSpaceOnUse" x="0" y="0" width="103" height="142">
<rect width="103" height="142" fill="#C4C4C4"/>
</mask>
<g mask="url(#mask0_333_2616)">
<path d="M69.4492 100.988L61.8492 100.996V95.9161H41.5662V101.016L33.9662 101.024C33.2946 101.025 32.6509 101.293 32.1763 101.768C31.7016 102.243 31.4347 102.887 31.4342 103.558L31.4262 108.586C31.4259 108.919 31.4914 109.25 31.6188 109.558C31.7463 109.866 31.9332 110.146 32.169 110.381C32.4047 110.617 32.6846 110.804 32.9926 110.931C33.3007 111.059 33.6308 111.124 33.9642 111.124L69.4512 111.083C70.1225 111.082 70.766 110.815 71.2407 110.341C71.7154 109.866 71.9824 109.222 71.9832 108.551L71.9892 103.523C71.9894 103.19 71.924 102.86 71.7965 102.552C71.6691 102.244 71.4821 101.964 71.2464 101.728C71.0107 101.492 70.7308 101.305 70.4227 101.178C70.1147 101.05 69.7845 100.985 69.4512 100.985L69.4492 100.988ZM93.7272 34.2371C93.5148 33.0434 92.887 31.9633 91.955 31.1879C91.0229 30.4125 89.8466 29.9918 88.6342 30.0001H14.7752C13.5628 29.9918 12.3865 30.4125 11.4544 31.1879C10.5223 31.9633 9.89457 33.0434 9.68218 34.2371C0.474181 88.4941 1.00718 85.1541 1.00518 85.7751C1.01865 87.1323 1.5703 88.4286 2.53895 89.3792C3.50761 90.3299 4.81402 90.8571 6.17118 90.8451H97.2402C98.5914 90.8569 99.8926 90.334 100.86 89.3905C101.827 88.4469 102.382 87.1592 102.404 85.8081C102.404 85.1621 102.935 88.4941 93.7272 34.2361V34.2371ZM42.1712 40.1371H61.2382L62.7862 55.3481H40.6232L42.1712 40.1371ZM30.2602 80.7001H12.2602L15.2722 62.9531H32.0682L30.2602 80.7001ZM32.8412 55.3481H16.5672L19.1482 40.1371H34.3892L32.8412 55.3481ZM38.0412 80.7001L39.8472 62.9531H63.5612L65.3672 80.7001H38.0412ZM69.0192 40.1411H84.2612L86.8422 55.3521H70.5672L69.0192 40.1411ZM73.1492 80.7001L71.3422 62.9581H88.1332L91.1462 80.7001H73.1462H73.1492Z" fill="white"/>
</g>
</svg>
