<svg xmlns="http://www.w3.org/2000/svg" width="103" height="142.648" viewBox="0 0 103 142.648">
  <g id="volcano-powder" fill="none" stroke-linejoin="round">
    <path d="M0,142.648,40.791,77.211H60.4L103,142.648ZM50,74.025V69.016l-3.293-6.573a19.741,19.741,0,0,1-6.886-2.832A13.2,13.2,0,0,1,24.257,38.836a11.317,11.317,0,1,1,8.33-21.045A14.168,14.168,0,1,1,60.079,10.94a13.2,13.2,0,0,1,15.76,19.652A13.833,13.833,0,0,1,65.47,56.239a19.822,19.822,0,0,1-10.363,6.108l-2.755,6.67v5.009ZM39.551,26.662l.062-.042-.074-.04Z" stroke="none"/>
    <path d="M 97.46747589111328 139.6483764648438 L 58.77567291259766 80.21060180664062 L 42.4561653137207 80.21060180664062 L 5.405205249786377 139.6483764648438 L 97.46747589111328 139.6483764648438 M 51.02667617797852 64.36689758300781 L 52.33452606201172 61.20104217529297 C 52.70646286010742 60.30073165893555 53.49237823486328 59.63704299926758 54.44225311279297 59.42110443115234 C 57.8492317199707 58.64664840698242 60.8900032043457 56.85381317138672 63.23581695556641 54.2364387512207 C 64.07080078125 53.30479049682617 65.39625549316406 52.98910903930664 66.56156921386719 53.44437408447266 C 67.81948089599609 53.93583297729492 69.150146484375 54.18502044677734 70.51660919189453 54.18502044677734 C 73.41641998291016 54.18502044677734 76.142333984375 53.05831146240234 78.19219207763672 51.01245880126953 C 80.24044036865234 48.96818923950195 81.36846160888672 46.25060653686523 81.36846160888672 43.36031341552734 C 81.36846160888672 41.18120956420898 80.72308349609375 39.08141708374023 79.50209045410156 37.28793716430664 C 78.30702209472656 35.53256225585938 76.64215087890625 34.17516708374023 74.68742370605469 33.36252212524414 C 73.85736083984375 33.01743698120117 73.22579193115234 32.31831359863281 72.96654510498047 31.45758438110352 C 72.707275390625 30.59685516357422 72.84767150878906 29.66522979736328 73.34904479980469 28.91910552978516 C 74.4764404296875 27.24141693115234 75.07235717773438 25.28141784667969 75.07235717773438 23.25102233886719 C 75.07235717773438 17.62873077392578 70.48664855957031 13.05464649200439 64.85006713867188 13.05464649200439 C 63.57585906982422 13.05464649200439 62.33441925048828 13.28466701507568 61.16025543212891 13.73835468292236 C 60.34948348999023 14.05160522460938 59.44272613525391 13.99783325195312 58.6746711730957 13.59095859527588 C 57.9066276550293 13.18408393859863 57.35277557373047 12.46410465240479 57.1565055847168 11.61739635467529 C 56.59810638427734 9.208396911621094 55.21944046020508 7.021021366119385 53.27450561523438 5.458250522613525 C 51.27302551269531 3.850042343139648 48.85327529907227 3.000000715255737 46.27687835693359 3.000000715255737 C 43.29319000244141 3.000000715255737 40.48835754394531 4.159417629241943 38.37906646728516 6.264646530151367 C 36.27133560180664 8.368354797363281 35.11054611206055 11.1649169921875 35.11054611206055 14.13916778564453 C 35.11054611206055 15.11618804931641 35.23685836791992 16.08441734313965 35.48600387573242 17.01695823669434 C 35.77956771850586 18.11581230163574 35.42648315429688 19.28616714477539 34.57416915893555 20.0393123626709 C 33.72187805175781 20.79248046875 32.51693725585938 20.99885749816895 31.46256637573242 20.57231330871582 C 30.4697322845459 20.17066764831543 29.41666984558105 19.96700096130371 28.33267021179199 19.96700096130371 C 23.73779487609863 19.96700096130371 19.99960708618164 23.69545936584473 19.99960708618164 28.27833366394043 C 19.99960708618164 29.99010467529297 20.51633644104004 31.63298034667969 21.49394226074219 33.02933502197266 C 22.45273208618164 34.3987922668457 23.78081703186035 35.43862533569336 25.33467102050781 36.03641891479492 C 26.26173210144043 36.39306259155273 26.95215034484863 37.18545913696289 27.17852401733398 38.15262603759766 C 27.40492057800293 39.11977005004883 27.13789939880371 40.13629150390625 26.46544075012207 40.86733245849609 C 24.73208808898926 42.75175094604492 23.7774829864502 45.19914627075195 23.7774829864502 47.75872802734375 C 23.7774829864502 53.38133239746094 28.3629207611084 57.95564651489258 33.99919128417969 57.95564651489258 C 35.58054733276367 57.95564651489258 37.09508895874023 57.60616683959961 38.500732421875 56.91691589355469 C 39.45177459716797 56.45058059692383 40.57823181152344 56.52033233642578 41.46448135375977 57.10041809082031 C 43.25206756591797 58.27045822143555 45.21694183349609 59.07870864868164 47.30450439453125 59.50275039672852 C 48.20785903930664 59.68622970581055 48.97671127319336 60.27483367919922 49.38958740234375 61.0989990234375 L 51.02667617797852 64.36689758300781 M 39.53899765014648 23.57953453063965 C 40.02859878540039 23.57953453063965 40.51972961425781 23.69923400878906 40.96685791015625 23.94127082824707 L 41.0245246887207 23.97222900390625 C 41.95379638671875 24.46768760681152 42.55523300170898 25.41410446166992 42.60916900634766 26.46581268310547 C 42.66310882568359 27.51754188537598 42.16164779663086 28.52052116394043 41.28794097900391 29.10843849182129 L 41.23577499389648 29.14366722106934 C 40.37985610961914 29.72471237182617 39.28498458862305 29.82376670837402 38.33866882324219 29.40579223632812 C 37.39235687255859 28.98779296875 36.72819137573242 28.11175155639648 36.58121109008789 27.0877513885498 L 36.5722541809082 27.02679252624512 C 36.40267181396484 25.90195846557617 36.88385772705078 24.7779598236084 37.81485748291016 24.12429237365723 C 38.32973861694336 23.76278877258301 38.93319702148438 23.57953453063965 39.53899765014648 23.57953453063965 M 103 142.6483764648438 L 3.814697265625e-06 142.6483764648438 L 40.79110717773438 77.21060180664062 L 60.40242004394531 77.21060180664062 L 103 142.6483764648438 Z M 52.35196304321289 74.02477264404297 L 50.00035858154297 74.02477264404297 L 50.00035858154297 69.01610565185547 L 46.70733642578125 62.44271087646484 C 44.20933532714844 61.9353141784668 41.88200378417969 60.95918655395508 39.82152557373047 59.61052322387695 C 38.06479644775391 60.47191619873047 36.08866882324219 60.95564651489258 33.99919128417969 60.95564651489258 C 26.69673347473145 60.95564651489258 20.7774829864502 55.04716873168945 20.7774829864502 47.75872802734375 C 20.7774829864502 44.31850051879883 22.09667015075684 41.18545913696289 24.25748252868652 38.83635330200195 C 20.0117130279541 37.20293807983398 16.99960708618164 33.09189605712891 16.99960708618164 28.27833366394043 C 16.99960708618164 22.03108406066895 22.07341957092285 16.96700096130371 28.33267021179199 16.96700096130371 C 29.83750343322754 16.96700096130371 31.27389907836914 17.25979232788086 32.58765029907227 17.7912712097168 C 32.2763786315918 16.62614631652832 32.11054611206055 15.40218830108643 32.11054611206055 14.13916778564453 C 32.11054611206055 6.33039665222168 38.45308685302734 7.324218813664629e-07 46.27687835693359 7.324218813664629e-07 C 52.998046875 7.324218813664629e-07 58.62621307373047 4.672417163848877 60.07902526855469 10.93995952606201 C 61.5591926574707 10.36806297302246 63.16767120361328 10.05464649200439 64.85006713867188 10.05464649200439 C 72.15254211425781 10.05464649200439 78.07235717773438 15.96256351470947 78.07235717773438 23.25102233886719 C 78.07235717773438 25.96816825866699 77.24946594238281 28.4935417175293 75.83906555175781 30.59237480163574 C 80.84756469726562 32.67458343505859 84.36846160888672 37.60696029663086 84.36846160888672 43.36031341552734 C 84.36846160888672 50.99546051025391 78.16700744628906 57.18502044677734 70.51660919189453 57.18502044677734 C 68.73581695556641 57.18502044677734 67.03371429443359 56.84966659545898 65.46985626220703 56.23868942260742 C 62.77783584594727 59.24235534667969 59.18175506591797 61.42027282714844 55.10725402832031 62.34648132324219 L 52.35196304321289 69.01610565185547 L 52.35196304321289 74.02477264404297 Z M 39.53873443603516 26.57954216003418 C 39.54281616210938 26.60662651062012 39.54689788818359 26.6344165802002 39.55079650878906 26.66156387329102 C 39.57188034057617 26.64725112915039 39.59196090698242 26.63370895385742 39.61310958862305 26.61948013305664 C 39.58829498291016 26.60625076293945 39.56344223022461 26.59291648864746 39.53873443603516 26.57954216003418 Z" stroke="none" fill="#fff"/>
  </g>
</svg>
