<svg width="103" height="142" viewBox="0 0 103 142" fill="none" xmlns="http://www.w3.org/2000/svg">
<mask id="mask0_333_2633" style="mask-type:alpha" maskUnits="userSpaceOnUse" x="0" y="0" width="103" height="142">
<rect width="103" height="142" fill="#C4C4C4"/>
</mask>
<g mask="url(#mask0_333_2633)">
<path d="M97.9845 92.609C94.393 92.2353 90.9731 90.8828 88.0975 88.699C86.9268 87.7701 85.4764 87.2645 83.982 87.2645C82.4876 87.2645 81.0371 87.7701 79.8665 88.699C73.3945 93.89 61.5615 93.89 54.9865 88.443C53.8235 87.5724 52.3967 87.1278 50.9451 87.1837C49.4934 87.2396 48.1051 87.7925 47.0125 88.75C40.5235 93.89 28.7585 93.873 22.2185 88.46C19.9135 86.547 16.5325 86.94 14.1755 88.802C11.3095 90.9661 7.89799 92.2905 4.32247 92.627C3.67289 92.7083 3.07636 93.027 2.64768 93.5218C2.21901 94.0166 1.98848 94.6524 2.00046 95.307V100.807C1.99562 101.177 2.06702 101.545 2.21022 101.886C2.35342 102.228 2.56536 102.536 2.83286 102.792C3.10036 103.048 3.4177 103.247 3.76514 103.375C4.11258 103.503 4.48269 103.559 4.85247 103.538C9.65641 103.149 14.3012 101.634 18.4105 99.115C28.0585 105.023 41.8045 104.938 51.1965 99.115C60.8445 105.023 74.5905 104.938 83.9825 99.115C88.0915 101.591 92.7108 103.098 97.4895 103.521C97.8594 103.542 98.2297 103.486 98.5773 103.358C98.9248 103.23 99.2423 103.031 99.5098 102.775C99.7773 102.518 99.9892 102.21 100.132 101.868C100.275 101.526 100.347 101.158 100.341 100.788V95.388C100.358 94.7159 100.128 94.061 99.6934 93.5479C99.259 93.0347 98.6511 92.6992 97.9855 92.605L97.9845 92.609ZM97.9845 68.02C94.393 67.6463 90.9731 66.2938 88.0975 64.11C86.9268 63.1811 85.4764 62.6755 83.982 62.6755C82.4876 62.6755 81.0371 63.1811 79.8665 64.11C73.3945 69.301 61.5615 69.301 54.9865 63.854C53.8235 62.9834 52.3967 62.5388 50.9451 62.5947C49.4934 62.6506 48.1051 63.2035 47.0125 64.161C40.5235 69.301 28.7585 69.284 22.2185 63.871C19.9135 61.958 16.5325 62.351 14.1755 64.213C11.3095 66.3771 7.89799 67.7015 4.32247 68.038C3.67289 68.1193 3.07636 68.438 2.64768 68.9328C2.21901 69.4276 1.98848 70.0634 2.00046 70.718V76.218C1.99576 76.5882 2.06726 76.9555 2.21052 77.2969C2.35379 77.6383 2.56575 77.9467 2.83323 78.2027C3.10071 78.4587 3.418 78.657 3.76537 78.7852C4.11275 78.9134 4.48278 78.9688 4.85247 78.948C9.65633 78.559 14.3011 77.0441 18.4105 74.526C28.0585 80.434 41.8045 80.349 51.1965 74.526C60.8445 80.434 74.5905 80.349 83.9825 74.526C88.0915 77.0019 92.7108 78.5087 97.4895 78.932C97.8593 78.9528 98.2295 78.8974 98.577 78.7691C98.9245 78.6407 99.2419 78.4423 99.5094 78.186C99.777 77.9298 99.9889 77.6212 100.132 77.2795C100.275 76.9378 100.346 76.5704 100.341 76.2V70.8C100.358 70.1279 100.128 69.473 99.6934 68.9599C99.259 68.4467 98.6511 68.1112 97.9855 68.017L97.9845 68.02ZM97.9845 43.431C94.3959 43.0487 90.979 41.6967 88.1005 39.52C86.9298 38.5911 85.4794 38.0855 83.985 38.0855C82.4906 38.0855 81.0401 38.5911 79.8695 39.52C73.3975 44.711 61.5645 44.711 54.9895 39.2639C53.8265 38.3934 52.3997 37.9488 50.9481 38.0047C49.4964 38.0606 48.1081 38.6135 47.0155 39.571C40.5265 44.7109 28.7615 44.694 22.2215 39.2809C19.9165 37.368 16.5355 37.761 14.1785 39.6229C11.3115 41.7873 7.89893 43.1113 4.32247 43.4469C3.67272 43.5283 3.07605 43.8472 2.64735 44.3422C2.21864 44.8372 1.98823 45.4732 2.00046 46.1279V51.628C1.99548 51.9984 2.06678 52.3658 2.20992 52.7075C2.35306 53.0492 2.56498 53.3578 2.83249 53.614C3.1 53.8703 3.41739 54.0687 3.7649 54.1971C4.11241 54.3254 4.48261 54.3808 4.85247 54.36C9.65649 53.9704 14.3012 52.4548 18.4105 49.936C28.0585 55.844 41.8045 55.759 51.1965 49.936C60.8445 55.844 74.5905 55.759 83.9825 49.936C88.0915 52.4119 92.7108 53.9187 97.4895 54.342C97.8593 54.3628 98.2295 54.3074 98.577 54.1791C98.9245 54.0507 99.2419 53.8523 99.5094 53.596C99.777 53.3398 99.9889 53.0312 100.132 52.6895C100.275 52.3478 100.346 51.9804 100.341 51.61V46.21C100.358 45.5379 100.128 44.883 99.6934 44.3699C99.259 43.8568 98.6511 43.5212 97.9855 43.4269L97.9845 43.431Z" fill="white"/>
</g>
</svg>
