<svg xmlns="http://www.w3.org/2000/svg" width="16.88" height="13.504" viewBox="0 0 16.88 13.504">
  <path id="Icon_awesome-broadcast-tower" data-name="Icon awesome-broadcast-tower" d="M3.981,5.064h.89a.416.416,0,0,0,.392-.559,3.3,3.3,0,0,1,0-2.259.416.416,0,0,0-.392-.559h-.89a.421.421,0,0,0-.406.3,4.972,4.972,0,0,0,0,2.783A.421.421,0,0,0,3.981,5.064ZM2.372.616A.418.418,0,0,0,2,0H1.072A.427.427,0,0,0,.683.246,7.534,7.534,0,0,0,0,3.376,7.35,7.35,0,0,0,.7,6.511a.425.425,0,0,0,.385.241h.919a.418.418,0,0,0,.368-.616,5.882,5.882,0,0,1,0-5.52ZM16.2.245A.426.426,0,0,0,15.807,0h-.934a.417.417,0,0,0-.37.613,5.915,5.915,0,0,1,.007,5.518.419.419,0,0,0,.367.62h.929a.426.426,0,0,0,.389-.245,7.5,7.5,0,0,0,0-6.262ZM12.9,1.688h-.89a.416.416,0,0,0-.392.559,3.3,3.3,0,0,1,0,2.259.416.416,0,0,0,.392.559h.89a.421.421,0,0,0,.406-.3,4.971,4.971,0,0,0,0-2.783A.42.42,0,0,0,12.9,1.688ZM9.831,4.329a1.687,1.687,0,1,0-2.783,0L3.606,12.595a.422.422,0,0,0,.227.552l.778.325a.422.422,0,0,0,.551-.227l1.3-3.116h3.958l1.3,3.116a.422.422,0,0,0,.551.227l.778-.325a.422.422,0,0,0,.227-.552L9.831,4.329ZM7.164,8.44,8.44,5.375,9.716,8.44H7.164Z" fill="#881dc2"/>
</svg>
