<svg id="globe" xmlns="http://www.w3.org/2000/svg" width="57.056" height="55.554" viewBox="0 0 57.056 55.554">
  <g id="Ellipse_10" data-name="Ellipse 10" transform="translate(0 0)" fill="none" stroke="#9e1ee3" stroke-width="3">
    <ellipse cx="28.528" cy="27.777" rx="28.528" ry="27.777" stroke="none"/>
    <ellipse cx="28.528" cy="27.777" rx="27.028" ry="26.277" fill="none"/>
  </g>
  <path id="Path_1749" data-name="Path 1749" d="M-2310.672,2440.211s-22.773,25.569,0,52.912" transform="translate(2335.48 -2438.872)" fill="none" stroke="#9e1ee3" stroke-width="3"/>
  <path id="Path_1750" data-name="Path 1750" d="M0,0S22.773,25.487,0,52.744" transform="matrix(1, -0.017, 0.017, 1, 33.405, 1.516)" fill="none" stroke="#9e1ee3" stroke-width="3"/>
  <path id="Path_1751" data-name="Path 1751" d="M-2290.5,2436.655v53.663" transform="translate(2319.002 -2436.151)" fill="none" stroke="#9e1ee3" stroke-width="5"/>
  <path id="Path_1752" data-name="Path 1752" d="M-2328.836,2452.307a42.628,42.628,0,0,0,34.63,0" transform="translate(2339.856 -2444.665)" fill="none" stroke="#9e1ee3" stroke-width="3"/>
  <path id="Path_1753" data-name="Path 1753" d="M35.869,3.986A42.029,42.029,0,0,0,0,3.986" transform="matrix(1, 0.017, -0.017, 1, 9.821, 43.941)" fill="none" stroke="#9e1ee3" stroke-width="3"/>
  <path id="Path_1754" data-name="Path 1754" d="M-2350.08,2496.5h54.169" transform="translate(2351.412 -2468.705)" fill="none" stroke="#9e1ee3" stroke-width="3"/>
</svg>
