<svg xmlns="http://www.w3.org/2000/svg" xmlns:xlink="http://www.w3.org/1999/xlink" width="62.806" height="62.806" viewBox="0 0 62.806 62.806">
  <defs>
    <linearGradient id="linear-gradient" x1="0.024" y1="0.057" x2="1.031" y2="1" gradientUnits="objectBoundingBox">
      <stop offset="0" stop-color="#931bd4"/>
      <stop offset="1" stop-color="#322539"/>
    </linearGradient>
    <linearGradient id="linear-gradient-2" x1="-0.107" x2="1.094" y2="1.049" gradientUnits="objectBoundingBox">
      <stop offset="0" stop-color="#9e1ee3"/>
      <stop offset="1" stop-color="#4a066f"/>
    </linearGradient>
  </defs>
  <g id="Group_4439" data-name="Group 4439" transform="translate(-863.25 -337.5)">
    <g id="Group_3477" data-name="Group 3477" transform="translate(863.25 337.5)">
      <path id="Path_159" data-name="Path 159" d="M31.4,0A31.4,31.4,0,1,1,0,31.4,31.4,31.4,0,0,1,31.4,0Z" transform="translate(0 0)" fill="url(#linear-gradient)"/>
      <g id="Path_160" data-name="Path 160" transform="translate(3.476 3.378)" fill="#171717">
        <path d="M 27.91799354553223 51.02632522583008 C 24.82399368286133 51.02632522583008 21.82504081726074 50.41934585571289 19.00444030761719 49.22227478027344 C 16.27642822265625 48.06448745727539 13.82509899139404 46.40568923950195 11.71853446960449 44.29194641113281 C 9.610816955566406 42.17702865600586 7.956429004669189 39.71525192260742 6.801334857940674 36.97500610351562 C 5.606064319610596 34.1394157409668 5.00000524520874 31.12421798706055 5.00000524520874 28.01315879821777 C 5.00000524520874 24.902099609375 5.606064319610596 21.88689994812012 6.801334857940674 19.05132293701172 C 7.956429004669189 16.31106376647949 9.610805511474609 13.84930038452148 11.71853446960449 11.73438262939453 C 13.82509899139404 9.620640754699707 16.27642822265625 7.961841106414795 19.00444030761719 6.804052829742432 C 21.82504081726074 5.60697078704834 24.82399368286133 5.000005722045898 27.91799354553223 5.000005722045898 C 31.01199340820312 5.000005722045898 34.01095962524414 5.60697078704834 36.83155822753906 6.804052829742432 C 39.5595703125 7.961841106414795 42.01089859008789 9.620640754699707 44.11746597290039 11.73438262939453 C 46.22518157958984 13.84930038452148 47.87957000732422 16.31106376647949 49.03466415405273 19.05132293701172 C 50.22993469238281 21.88689994812012 50.83599472045898 24.902099609375 50.83599472045898 28.01315879821777 C 50.83599472045898 31.12421798706055 50.22993469238281 34.1394157409668 49.03466415405273 36.97500610351562 C 47.87957000732422 39.71525192260742 46.22518157958984 42.17702865600586 44.11746597290039 44.29194641113281 C 42.01089859008789 46.40568923950195 39.5595703125 48.06448745727539 36.83155822753906 49.22227478027344 C 34.01094818115234 50.41934585571289 31.01199340820312 51.02632522583008 27.91799354553223 51.02632522583008 Z" stroke="none"/>
        <path d="M 27.91799354553223 9.999996185302734 C 18.0379753112793 9.999996185302734 9.999992370605469 18.08066940307617 9.999992370605469 28.01315879821777 C 9.999992370605469 37.94564819335938 18.0379753112793 46.02632141113281 27.91799354553223 46.02632141113281 C 37.79801177978516 46.02632141113281 45.83599472045898 37.94564819335938 45.83599472045898 28.01315879821777 C 45.83599472045898 18.08066940307617 37.79801177978516 9.999996185302734 27.91799354553223 9.999996185302734 M 27.91799354553223 -3.814697265625e-06 C 43.33668518066406 -3.814697265625e-06 55.83599472045898 12.54192352294922 55.83599472045898 28.01315879821777 C 55.83599472045898 43.48439407348633 43.33668518066406 56.02632141113281 27.91799354553223 56.02632141113281 C 12.49930191040039 56.02632141113281 -7.62939453125e-06 43.48439407348633 -7.62939453125e-06 28.01315879821777 C -7.62939453125e-06 12.54192352294922 12.49930191040039 -3.814697265625e-06 27.91799354553223 -3.814697265625e-06 Z" stroke="none" fill="#171717"/>
      </g>
    </g>
    <g id="Group_3478" data-name="Group 3478" transform="translate(878.087 351.125)">
      <path id="Union_14" data-name="Union 14" d="M27.313,35.428V32.3H25.421v3.124H23.528V32.3H20.212l-3.75-5.342L12.711,32.3H9.465v3.124H7.572V32.3H5.68v3.124H3.787V32.3H0L10.106,17.91,0,3.517H3.787V0H5.68V3.517H7.572V0H9.465V3.517h3.245l3.751,5.342,3.75-5.342h3.316V0h1.893V3.517h1.893V0h1.894V3.517h3.716L22.816,17.91,32.923,32.3H29.207v3.124Z" transform="translate(0 0)" fill="url(#linear-gradient-2)"/>
    </g>
  </g>
</svg>
