<svg xmlns="http://www.w3.org/2000/svg" width="50.817" height="84.475" viewBox="0 0 50.817 84.475">
  <g id="mobile" transform="translate(-98.666 -64.833)">
    <path id="Path_1897" data-name="Path 1897" d="M145.506,149.308H102.643a3.977,3.977,0,0,1-3.977-3.977V68.81a3.977,3.977,0,0,1,3.977-3.977h42.863a3.977,3.977,0,0,1,3.977,3.977v76.521a3.977,3.977,0,0,1-3.977,3.977Z" transform="translate(0 0)" fill="rgba(255,255,255,0.7)"/>
    <path id="Path_1898" data-name="Path 1898" d="M113.333,96.167h44.336v68.338H113.333Z" transform="translate(-11.426 -24.411)" fill="#282828"/>
    <path id="Path_1899" data-name="Path 1899" d="M191.995,419.784H179.247a1.58,1.58,0,1,0,0,3.16h12.747a1.58,1.58,0,1,0,0-3.16Z" transform="translate(-61.546 -276.526)"/>
    <path id="Path_2234" data-name="Path 2234" d="M4.539,0h28.53C36.56,0,37.3,1.607,37.3,3.59h0c0,1.982-.74,3.59-4.232,3.59H4.539C1.047,7.179,0,5.572,0,3.59H0C0,1.607,1.047,0,4.539,0Z" transform="translate(106.056 74.477)" fill="rgba(255,255,255,0.7)"/>
  </g>
</svg>
