<svg xmlns="http://www.w3.org/2000/svg" width="44.815" height="74.496" viewBox="0 0 44.815 74.496">
  <g id="Group_3957" data-name="Group 3957" transform="translate(-98.666 -64.833)">
    <path id="Path_1897" data-name="Path 1897" d="M139.973,139.329h-37.8a3.507,3.507,0,0,1-3.507-3.507V68.34a3.507,3.507,0,0,1,3.507-3.507h37.8a3.507,3.507,0,0,1,3.507,3.507v67.482A3.507,3.507,0,0,1,139.973,139.329Z" transform="translate(0)" fill="#d4d4d4"/>
    <path id="Path_1898" data-name="Path 1898" d="M113.333,96.167h39.1v60.266h-39.1Z" transform="translate(-11.809 -25.229)" fill="#282828"/>
    <path id="Path_1899" data-name="Path 1899" d="M190.3,419.784H179.061a1.394,1.394,0,1,0,0,2.787H190.3a1.394,1.394,0,1,0,0-2.787Z" transform="translate(-63.608 -285.79)" fill="#01726e"/>
    <path id="Path_1900" data-name="Path 1900" d="M201.087,77.75h-6.17a.731.731,0,0,0,0,1.461h6.17A.731.731,0,0,0,201.087,77.75Z" transform="translate(-76.929 -10.4)" fill="#01726e"/>
  </g>
</svg>
