<svg xmlns="http://www.w3.org/2000/svg" width="91.323" height="71.753" viewBox="0 0 91.323 71.753">
  <g id="shape1" transform="translate(-256.838 -1531.024)">
    <g id="illustration" transform="translate(252.838 1521.024)">
      <path id="Path_1890" data-name="Path 1890" d="M11.262,17.262H9.631a1.631,1.631,0,1,1,0-3.262h1.631a1.631,1.631,0,0,1,0,3.262Zm8.154,0H17.785a1.631,1.631,0,1,1,0-3.262h1.631a1.631,1.631,0,0,1,0,3.262Zm8.154,0H25.938a1.631,1.631,0,1,1,0-3.262h1.631a1.631,1.631,0,0,1,0,3.262Z" transform="translate(2.523 2.523)" fill="#fff"/>
      <path id="Path_1894" data-name="Path 1894" d="M67.507,29.262H31.631a1.631,1.631,0,0,1,0-3.262H67.507a1.631,1.631,0,1,1,0,3.262Zm0,8.154H31.631a1.631,1.631,0,1,1,0-3.262H67.507a1.631,1.631,0,1,1,0,3.262Zm-6.523,6.523a1.631,1.631,0,0,1-1.631,1.631H31.631a1.631,1.631,0,0,1,0-3.262H59.354A1.631,1.631,0,0,1,60.984,43.938Z" transform="translate(0.092 19.877)" fill="#fff"/>
      <path id="Path_1896" data-name="Path 1896" d="M93.692,81.753H5.631A1.631,1.631,0,0,1,4,80.123V11.631A1.631,1.631,0,0,1,5.631,10H93.692a1.631,1.631,0,0,1,1.631,1.631V80.123A1.631,1.631,0,0,1,93.692,81.753ZM7.262,78.492h84.8V13.262H7.262Z" fill="#fff"/>
      <path id="Path_2039" data-name="Path 2039" d="M-1.5,0H85V4H-1.5Z" transform="translate(7.696 23.405)" fill="#fff"/>
    </g>
  </g>
</svg>
