<svg width="919" height="209" viewBox="0 0 919 209" fill="none" xmlns="http://www.w3.org/2000/svg">
<g clip-path="url(#clip0_1418_471)">
<path opacity="0.733" d="M296.54 305.049L459.44 124.53C462.798 120.453 467.051 117.205 471.868 115.04C479.92 111.408 491.648 110 491.648 110L822.495 109.9C822.495 109.9 835.842 111.02 844.651 114.913C849.88 117.196 854.4 120.843 857.736 125.472L971.79 290.904L982.145 302.316C983.546 303.611 985.238 304.548 987.079 305.048C996.863 308.393 1016.55 308.133 1016.55 308.133" stroke="#A600FF" stroke-width="5"/>
<path opacity="0.28" d="M733.539 240.141L568.412 21.3892C565.241 16.0099 560.679 11.5849 555.205 8.58008C546.313 3.85708 532.842 2.5 532.842 2.5L198.918 2.61914C198.918 2.61914 187.081 4.32593 178.955 8.73193C173.932 11.5379 169.636 15.4813 166.411 20.2461L1.99609 239.246" stroke="#9E1EE3" stroke-width="5"/>
<path d="M621.039 108.82C621.039 105.348 622.391 102.083 624.847 99.6279C627.302 97.1726 630.567 95.8203 634.039 95.8203C637.511 95.8203 640.776 97.1726 643.231 99.6279C645.687 102.083 647.039 105.348 647.039 108.82C647.039 112.293 645.687 115.557 643.231 118.013C640.776 120.468 637.511 121.82 634.039 121.82C630.567 121.82 627.302 120.468 624.847 118.013C622.391 115.557 621.039 112.293 621.039 108.82Z" fill="#9E1EE4"/>
<path d="M646.539 108.82C646.539 105.481 645.239 102.342 642.878 99.9815C640.517 97.6205 637.378 96.3203 634.039 96.3203C630.7 96.3203 627.561 97.6205 625.2 99.9815C622.839 102.342 621.539 105.481 621.539 108.82C621.539 112.159 622.839 115.298 625.2 117.659C627.561 120.02 630.7 121.32 634.039 121.32C637.378 121.32 640.517 120.02 642.878 117.659C645.239 115.298 646.539 112.159 646.539 108.82ZM647.539 108.82C647.539 116.276 641.495 122.32 634.039 122.32C626.583 122.32 620.539 116.276 620.539 108.82C620.539 101.364 626.583 95.3203 634.039 95.3203C641.495 95.3203 647.539 101.364 647.539 108.82Z" fill="#9E1EE3"/>
</g>
<defs>
<clipPath id="clip0_1418_471">
<rect width="919" height="209" fill="white"/>
</clipPath>
</defs>
</svg>
