<svg width="685" height="231" viewBox="0 0 685 231" fill="none" xmlns="http://www.w3.org/2000/svg">
<g clip-path="url(#clip0_1424_1480)">
<g opacity="0.43">
<path opacity="0.43" d="M157.001 543.545C155.155 543.186 153.415 542.693 151.83 542.08C149.697 541.256 147.914 540.235 146.529 539.048C141.625 534.841 139.818 526.923 139.8 526.844L139.788 526.789L139.77 526.736L51.1286 269.078C51.0037 268.551 49.643 262.552 50.9442 256.875C52.26 251.135 56.3433 245.489 56.6636 245.052L234.221 40.7807C234.553 40.4361 240.775 34.0277 246.804 31.9597C250.436 30.7139 254.075 31.0117 256.488 31.481C258.043 31.7835 259.033 32.1507 259.043 32.1544L259.121 32.1836L259.203 32.1999L523.568 83.6191C524.193 83.81 531.547 86.1208 536.583 90.4553C541.633 94.8021 544.546 101.358 544.755 101.84L633.335 359.319C633.43 359.643 635.118 365.549 633.814 371.073C632.49 376.679 628.036 382.148 627.856 382.368L450.906 585.941L450.873 585.978L450.845 586.019C450.832 586.036 449.563 587.81 447.444 589.837C445.515 591.682 442.464 594.124 438.879 595.281C436.656 595.999 433.978 596.315 430.919 596.221C428.301 596.141 425.951 595.774 424.44 595.48C423.333 595.264 422.657 595.084 422.65 595.082L422.616 595.073L422.581 595.066L159.869 543.968L159.812 543.958L159.755 543.953C159.745 543.952 158.632 543.862 157.001 543.545Z" fill="url(#paint0_linear_1424_1480)"/>
<path opacity="0.43" d="M256.297 32.4622C254.004 32.0162 250.552 31.731 247.129 32.9051C241.402 34.8697 235.412 40.9872 234.961 41.4546L57.4457 245.677C57.0136 246.271 53.1649 251.665 51.9194 257.098C50.6973 262.43 51.9292 268.099 52.091 268.799L140.752 526.516L140.777 526.626C140.794 526.702 142.527 534.296 147.181 538.288C150.233 540.906 154.764 542.09 157.192 542.562C158.758 542.866 159.825 542.954 159.834 542.955L159.948 542.964L422.842 594.097L422.909 594.115C422.915 594.117 423.566 594.29 424.631 594.497C426.106 594.784 428.399 595.142 430.95 595.22C433.894 595.311 436.459 595.011 438.571 594.329C445.147 592.206 449.982 585.505 450.029 585.439L450.086 585.359L450.151 585.284L627.094 381.719C627.355 381.399 631.586 376.155 632.84 370.842C634.066 365.652 632.507 360.057 632.382 359.623L543.822 102.2C543.536 101.549 540.739 95.352 535.93 91.2127C531.148 87.097 524.156 84.8478 523.325 84.5901L258.851 33.1515L258.692 33.0906C258.653 33.0763 257.732 32.7414 256.297 32.4622ZM256.679 30.4982C258.35 30.8233 259.395 31.2171 259.395 31.2171L523.809 82.646C523.809 82.646 531.765 84.9882 537.236 89.6962C542.706 94.4043 545.689 101.478 545.689 101.478L634.288 359.013C634.288 359.013 636.205 365.302 634.788 371.302C633.371 377.302 628.621 383.013 628.621 383.013L451.661 586.596C451.661 586.596 446.504 593.87 439.186 596.233C431.869 598.595 422.391 596.048 422.391 596.048L159.678 544.95C159.678 544.95 151.092 544.279 145.878 539.806C140.665 535.334 138.824 527.06 138.824 527.06L50.1675 269.358C50.1675 269.358 48.5405 262.884 49.9691 256.651C51.398 250.418 55.8823 244.426 55.8823 244.426L233.482 40.1052C233.482 40.1052 240.002 33.2346 246.48 31.0125C250.348 29.6858 254.202 30.0164 256.679 30.4982Z" fill="#9E1EE3"/>
</g>
</g>
<defs>
<linearGradient id="paint0_linear_1424_1480" x1="433.242" y1="590.365" x2="318.271" y2="29.4204" gradientUnits="userSpaceOnUse">
<stop stop-color="#9E1EE3"/>
<stop offset="1"/>
</linearGradient>
<clipPath id="clip0_1424_1480">
<rect width="685" height="231" fill="white"/>
</clipPath>
</defs>
</svg>
