<svg width="475" height="358" viewBox="0 0 475 358" fill="none" xmlns="http://www.w3.org/2000/svg">
<g clip-path="url(#clip0_319_125)">
<g opacity="0.43">
<path opacity="0.43" d="M110.002 515.544C108.155 515.185 106.416 514.692 104.831 514.079C102.697 513.255 100.914 512.234 99.5297 511.047C94.6258 506.84 92.8183 498.922 92.8006 498.843L92.7884 498.788L92.77 498.735L4.12899 241.077C4.0041 240.55 2.64334 234.551 3.94454 228.874C5.26034 223.134 9.34365 217.488 9.66396 217.052L187.222 12.7797C187.553 12.4351 193.776 6.02673 199.805 3.9587C203.437 2.71292 207.075 3.01075 209.488 3.48003C211.043 3.78252 212.033 4.14975 212.043 4.15346L212.121 4.18258L212.204 4.19893L476.569 55.6182C477.193 55.809 484.547 58.1199 489.583 62.4544C494.634 66.8012 497.546 73.3568 497.756 73.8394L586.336 331.318C586.431 331.642 588.119 337.548 586.814 343.072C585.49 348.678 581.037 354.148 580.857 354.367L403.906 557.94L403.874 557.977L403.845 558.018C403.833 558.035 402.564 559.809 400.444 561.836C398.515 563.681 395.464 566.123 391.879 567.28C389.657 567.998 386.979 568.314 383.92 568.22C381.302 568.14 378.951 567.773 377.441 567.479C376.334 567.263 375.657 567.083 375.65 567.081L375.617 567.072L375.582 567.065L112.869 515.967L112.813 515.957L112.756 515.952C112.745 515.951 111.632 515.861 110.002 515.544Z" fill="url(#paint0_linear_319_125)"/>
<path opacity="0.43" d="M209.297 4.46219C207.004 4.0162 203.552 3.731 200.129 4.90506C194.402 6.86973 188.412 12.9872 187.961 13.4546L10.4459 217.677C10.0138 218.271 6.16511 223.665 4.91962 229.098C3.69751 234.43 4.92935 240.099 5.09117 240.799L93.7526 498.516L93.777 498.626C93.794 498.702 95.5271 506.296 100.181 510.288C103.233 512.906 107.764 514.09 110.193 514.562C111.758 514.866 112.825 514.954 112.834 514.955L112.948 514.964L375.842 566.097L375.909 566.115C375.915 566.117 376.566 566.29 377.632 566.497C379.106 566.784 381.399 567.142 383.95 567.22C386.895 567.311 389.459 567.011 391.572 566.329C398.147 564.206 402.982 557.505 403.029 557.439L403.086 557.359L403.151 557.284L580.094 353.719C580.355 353.399 584.586 348.155 585.841 342.842C587.066 337.652 585.507 332.057 585.382 331.623L496.822 74.2002C496.536 73.5486 493.74 67.352 488.93 63.2127C484.149 59.097 477.156 56.8478 476.325 56.5901L211.851 5.15146L211.692 5.09061C211.654 5.07634 210.732 4.74139 209.297 4.46219ZM209.679 2.4982C211.35 2.82328 212.395 3.21711 212.395 3.21711L476.809 54.646C476.809 54.646 484.766 56.9882 490.236 61.6962C495.706 66.4043 498.689 73.4781 498.689 73.4781L587.288 331.013C587.288 331.013 589.205 337.302 587.788 343.302C586.371 349.302 581.621 355.013 581.621 355.013L404.661 558.596C404.661 558.596 399.504 565.87 392.186 568.233C384.869 570.595 375.391 568.048 375.391 568.048L112.678 516.95C112.678 516.95 104.092 516.279 98.8784 511.806C93.6649 507.334 91.824 499.06 91.824 499.06L3.16764 241.358C3.16764 241.358 1.5407 234.884 2.96932 228.651C4.39814 222.418 8.88243 216.426 8.88243 216.426L186.483 12.1052C186.483 12.1052 193.002 5.23465 199.48 3.01252C203.348 1.68575 207.202 2.0164 209.679 2.4982Z" fill="#FFBF01"/>
</g>
</g>
<defs>
<linearGradient id="paint0_linear_319_125" x1="386.242" y1="562.364" x2="271.272" y2="1.41943" gradientUnits="userSpaceOnUse">
<stop stop-color="#FFBF01"/>
<stop offset="1"/>
</linearGradient>
<clipPath id="clip0_319_125">
<rect width="475" height="358" fill="white"/>
</clipPath>
</defs>
</svg>
