<svg xmlns="http://www.w3.org/2000/svg" width="403.075" height="351" viewBox="0 0 403.075 351">
  <g id="cnx-utility-img" transform="translate(-1196.261 -1364.651)">
    <line id="Line_115" data-name="Line 115" y1="117.449" x2="67.361" transform="translate(1296.645 1481.97)" fill="none" stroke="#896700" stroke-width="12"/>
    <line id="Line_116" data-name="Line 116" x1="67.361" y1="117.449" transform="translate(1428.775 1481.427)" fill="none" stroke="#896700" stroke-width="12"/>
    <line id="Line_117" data-name="Line 117" x1="133.858" transform="translate(1330.325 1653.826)" fill="none" stroke="#896700" stroke-width="12"/>
    <g id="Path_2366" data-name="Path 2366" transform="translate(1454.796 1592.533)" fill="none">
      <path d="M109.357,121.945a8.523,8.523,0,0,0,2.482-2.341l32.031-55.5a6.308,6.308,0,0,0,.667-2.816,7.975,7.975,0,0,0-.9-2.982L111.914,3.341A6.743,6.743,0,0,0,109.466.556a8.229,8.229,0,0,0-3.887-.712H42.609a6.533,6.533,0,0,0-3.418.568,6.315,6.315,0,0,0-2.2,2.627L4.938,58.573A7.275,7.275,0,0,0,4.321,61.5a9.009,9.009,0,0,0,.816,3.089l31.839,55.166a9.518,9.518,0,0,0,2.593,2.684,4.977,4.977,0,0,0,2.992.533h63.377A9.846,9.846,0,0,0,109.357,121.945Z" stroke="none"/>
      <path d="M 102.9663467407227 110.9706420898438 L 131.575439453125 61.41444396972656 L 102.9652099609375 11.84263229370117 L 45.77948379516602 11.81483459472656 L 17.15673828125 61.40845108032227 L 45.73759078979492 110.9706420898438 L 102.9663467407227 110.9706420898438 M 41.90248870849609 123.0146636962891 C 41.30875778198242 123.0146636962891 40.40386199951172 122.9179077148438 39.57010650634766 122.4377288818359 C 38.17381286621094 121.6335525512695 36.97678375244141 119.7539291381836 36.97678375244141 119.7539291381836 L 5.137871265411377 64.58784484863281 C 5.137871265411377 64.58784484863281 4.371371269226074 63.00252151489258 4.32140064239502 61.49878692626953 C 4.271459102630615 59.99507904052734 4.938018321990967 58.57299041748047 4.938018321990967 58.57299041748047 L 36.98939895629883 3.038697242736816 C 36.98939895629883 3.038697242736816 37.78622436523438 1.21052074432373 39.19116592407227 0.4118442833423615 C 40.59613418579102 -0.3868634104728699 42.60922241210938 -0.1560968905687332 42.60922241210938 -0.1560968905687332 L 105.5785217285156 -0.1560968905687332 C 105.5785140991211 -0.156096875667572 107.8819274902344 -0.3187702894210815 109.4658126831055 0.5556383728981018 C 111.0496673583984 1.430050134658813 111.9139556884766 3.341461896896362 111.9139556884766 3.341461896896362 L 143.6380767822266 58.30857849121094 C 143.6380767822266 58.30857849121094 144.4785766601562 59.84081649780273 144.5363159179688 61.29010772705078 C 144.5940246582031 62.73943328857422 143.8689575195312 64.10587310791016 143.8689575195312 64.10587310791016 L 111.8383102416992 119.6041641235352 C 111.8383102416992 119.6041641235352 110.8314590454102 121.103874206543 109.3566360473633 121.9454650878906 C 107.8818740844727 122.7870788574219 105.9391098022461 122.9706420898438 105.9391098022461 122.9706420898438 L 42.56198883056641 122.9706420898438 C 42.56198883056641 122.9706420898438 42.3031005859375 123.0146636962891 41.90248870849609 123.0146636962891 Z" stroke="none" fill="#ffbf01"/>
    </g>
    <g id="Path_2367" data-name="Path 2367" transform="translate(1322.369 1364.838)" fill="none">
      <path d="M109.357,121.945a8.523,8.523,0,0,0,2.482-2.341l32.031-55.5a6.308,6.308,0,0,0,.667-2.816,7.975,7.975,0,0,0-.9-2.982L111.914,3.341A6.743,6.743,0,0,0,109.466.556a8.229,8.229,0,0,0-3.887-.712H42.609a6.533,6.533,0,0,0-3.418.568,6.315,6.315,0,0,0-2.2,2.627L4.938,58.573A7.275,7.275,0,0,0,4.321,61.5a9.009,9.009,0,0,0,.816,3.089l31.839,55.166a9.518,9.518,0,0,0,2.593,2.684,4.977,4.977,0,0,0,2.992.533h63.377A9.846,9.846,0,0,0,109.357,121.945Z" stroke="none"/>
      <path d="M 102.9663467407227 110.9706420898438 L 131.575439453125 61.41444396972656 L 102.9652099609375 11.84263229370117 L 45.77948379516602 11.81483459472656 L 17.15673828125 61.40845108032227 L 45.73759078979492 110.9706420898438 L 102.9663467407227 110.9706420898438 M 41.90248870849609 123.0146636962891 C 41.30875778198242 123.0146636962891 40.40386199951172 122.9179077148438 39.57010650634766 122.4377288818359 C 38.17381286621094 121.6335525512695 36.97678375244141 119.7539291381836 36.97678375244141 119.7539291381836 L 5.137871265411377 64.58784484863281 C 5.137871265411377 64.58784484863281 4.371371269226074 63.00252151489258 4.32140064239502 61.49878692626953 C 4.271459102630615 59.99507904052734 4.938018321990967 58.57299041748047 4.938018321990967 58.57299041748047 L 36.98939895629883 3.038697242736816 C 36.98939895629883 3.038697242736816 37.78622436523438 1.21052074432373 39.19116592407227 0.4118442833423615 C 40.59613418579102 -0.3868634104728699 42.60922241210938 -0.1560968905687332 42.60922241210938 -0.1560968905687332 L 105.5785217285156 -0.1560968905687332 C 105.5785140991211 -0.156096875667572 107.8819274902344 -0.3187702894210815 109.4658126831055 0.5556383728981018 C 111.0496673583984 1.430050134658813 111.9139556884766 3.341461896896362 111.9139556884766 3.341461896896362 L 143.6380767822266 58.30857849121094 C 143.6380767822266 58.30857849121094 144.4785766601562 59.84081649780273 144.5363159179688 61.29010772705078 C 144.5940246582031 62.73943328857422 143.8689575195312 64.10587310791016 143.8689575195312 64.10587310791016 L 111.8383102416992 119.6041641235352 C 111.8383102416992 119.6041641235352 110.8314590454102 121.103874206543 109.3566360473633 121.9454650878906 C 107.8818740844727 122.7870788574219 105.9391098022461 122.9706420898438 105.9391098022461 122.9706420898438 L 42.56198883056641 122.9706420898438 C 42.56198883056641 122.9706420898438 42.3031005859375 123.0146636962891 41.90248870849609 123.0146636962891 Z" stroke="none" fill="#ffbf01"/>
    </g>
    <g id="Path_2368" data-name="Path 2368" transform="translate(1191.942 1592.637)" fill="none">
      <path d="M109.357,121.945a8.523,8.523,0,0,0,2.482-2.341l32.031-55.5a6.308,6.308,0,0,0,.667-2.816,7.975,7.975,0,0,0-.9-2.982L111.914,3.341A6.743,6.743,0,0,0,109.466.556a8.229,8.229,0,0,0-3.887-.712H42.609a6.533,6.533,0,0,0-3.418.568,6.315,6.315,0,0,0-2.2,2.627L4.938,58.573A7.275,7.275,0,0,0,4.321,61.5a9.009,9.009,0,0,0,.816,3.089l31.839,55.166a9.518,9.518,0,0,0,2.593,2.684,4.977,4.977,0,0,0,2.992.533h63.377A9.846,9.846,0,0,0,109.357,121.945Z" stroke="none"/>
      <path d="M 102.9663467407227 110.9706420898438 L 131.575439453125 61.41444396972656 L 102.9652099609375 11.84263229370117 L 45.77948379516602 11.81483459472656 L 17.15673828125 61.40845108032227 L 45.73759078979492 110.9706420898438 L 102.9663467407227 110.9706420898438 M 41.90248870849609 123.0146636962891 C 41.30875778198242 123.0146636962891 40.40386199951172 122.9179077148438 39.57010650634766 122.4377288818359 C 38.17381286621094 121.6335525512695 36.97678375244141 119.7539291381836 36.97678375244141 119.7539291381836 L 5.137871265411377 64.58784484863281 C 5.137871265411377 64.58784484863281 4.371371269226074 63.00252151489258 4.32140064239502 61.49878692626953 C 4.271459102630615 59.99507904052734 4.938018321990967 58.57299041748047 4.938018321990967 58.57299041748047 L 36.98939895629883 3.038697242736816 C 36.98939895629883 3.038697242736816 37.78622436523438 1.21052074432373 39.19116592407227 0.4118442833423615 C 40.59613418579102 -0.3868634104728699 42.60922241210938 -0.1560968905687332 42.60922241210938 -0.1560968905687332 L 105.5785217285156 -0.1560968905687332 C 105.5785140991211 -0.156096875667572 107.8819274902344 -0.3187702894210815 109.4658126831055 0.5556383728981018 C 111.0496673583984 1.430050134658813 111.9139556884766 3.341461896896362 111.9139556884766 3.341461896896362 L 143.6380767822266 58.30857849121094 C 143.6380767822266 58.30857849121094 144.4785766601562 59.84081649780273 144.5363159179688 61.29010772705078 C 144.5940246582031 62.73943328857422 143.8689575195312 64.10587310791016 143.8689575195312 64.10587310791016 L 111.8383102416992 119.6041641235352 C 111.8383102416992 119.6041641235352 110.8314590454102 121.103874206543 109.3566360473633 121.9454650878906 C 107.8818740844727 122.7870788574219 105.9391098022461 122.9706420898438 105.9391098022461 122.9706420898438 L 42.56198883056641 122.9706420898438 C 42.56198883056641 122.9706420898438 42.3031005859375 123.0146636962891 41.90248870849609 123.0146636962891 Z" stroke="none" fill="#ffbf01"/>
    </g>
    <g id="Path_2370" data-name="Path 2370" transform="translate(1501.51 1633.456)" fill="#896701">
      <path d="M 36.07196426391602 34.93605804443359 L 19.29192543029785 34.91437530517578 L 10.89505195617676 20.34870338439941 L 19.30379104614258 5.814127922058105 L 36.10507965087891 5.82229471206665 L 44.48292541503906 20.36873435974121 L 36.07196426391602 34.93605804443359 Z" stroke="none"/>
      <path d="M 32.62461090087891 28.91152000427246 L 37.55717849731445 20.37604522705078 L 32.62096405029297 11.82326602935791 L 22.76591300964355 11.82326602935791 L 17.8328857421875 20.37053489685059 L 22.75602531433105 28.91152000427246 L 32.62461090087891 28.91152000427246 M 16.86068534851074 40.92621231079102 C 16.66255378723145 40.92621231079102 16.36059379577637 40.89392471313477 16.08237457275391 40.73368453979492 C 15.61641025543213 40.46533966064453 15.21695518493652 39.83808517456055 15.21695518493652 39.83808517456055 L 4.592082977294922 21.42877578735352 C 4.592082977294922 21.42877578735352 4.336301326751709 20.89973831176758 4.319628238677979 20.39793968200684 C 4.302955627441406 19.89613914489746 4.525392055511475 19.42157554626465 4.525392055511475 19.42157554626465 L 15.2211742401123 0.8893933296203613 C 15.2211742401123 0.8893933296203613 15.48706436157227 0.2793387770652771 15.95591926574707 0.01279331557452679 C 16.42475700378418 -0.2537344694137573 17.09653663635254 -0.1767339557409286 17.09653663635254 -0.1767339557409286 L 38.10982894897461 -0.1767339557409286 C 38.10982894897461 -0.1767339557409286 38.87850570678711 -0.2310046255588531 39.40704727172852 0.06079331412911415 C 39.93559265136719 0.3525751233100891 40.2240104675293 0.990429699420929 40.2240104675293 0.990429699420929 L 50.81057357788086 19.33333969116211 C 50.81057357788086 19.33333969116211 51.09104537963867 19.84466552734375 51.11032104492188 20.32830238342285 C 51.12957382202148 20.81195640563965 50.88762664794922 21.2679386138916 50.88762664794922 21.2679386138916 L 40.19877243041992 39.78812026977539 C 40.19877243041992 39.78812026977539 39.86277389526367 40.28857421875 39.37062835693359 40.56941223144531 C 38.87848281860352 40.85026550292969 38.23015594482422 40.91152191162109 38.23015594482422 40.91152191162109 L 17.08077430725098 40.91152191162109 C 17.08077430725098 40.91152191162109 16.9943733215332 40.92621231079102 16.86068534851074 40.92621231079102 Z" stroke="none" fill="#896700"/>
    </g>
    <g id="Path_2371" data-name="Path 2371" transform="translate(1238.656 1633.681)" fill="#896701">
      <path d="M 36.07196426391602 34.93605804443359 L 19.29192543029785 34.91437530517578 L 10.89505195617676 20.34870338439941 L 19.30379104614258 5.814127922058105 L 36.10507965087891 5.82229471206665 L 44.48292541503906 20.36873435974121 L 36.07196426391602 34.93605804443359 Z" stroke="none"/>
      <path d="M 32.62461090087891 28.91152000427246 L 37.55717849731445 20.37604522705078 L 32.62096405029297 11.82326602935791 L 22.76591300964355 11.82326602935791 L 17.8328857421875 20.37053489685059 L 22.75602531433105 28.91152000427246 L 32.62461090087891 28.91152000427246 M 16.86068534851074 40.92621231079102 C 16.66255378723145 40.92621231079102 16.36059379577637 40.89392471313477 16.08237457275391 40.73368453979492 C 15.61641025543213 40.46533966064453 15.21695518493652 39.83808517456055 15.21695518493652 39.83808517456055 L 4.592082977294922 21.42877578735352 C 4.592082977294922 21.42877578735352 4.336301326751709 20.89973831176758 4.319628238677979 20.39793968200684 C 4.302955627441406 19.89613914489746 4.525392055511475 19.42157554626465 4.525392055511475 19.42157554626465 L 15.2211742401123 0.8893933296203613 C 15.2211742401123 0.8893933296203613 15.48706436157227 0.2793387770652771 15.95591926574707 0.01279331557452679 C 16.42475700378418 -0.2537344694137573 17.09653663635254 -0.1767339557409286 17.09653663635254 -0.1767339557409286 L 38.10982894897461 -0.1767339557409286 C 38.10982894897461 -0.1767339557409286 38.87850570678711 -0.2310046255588531 39.40704727172852 0.06079331412911415 C 39.93559265136719 0.3525751233100891 40.2240104675293 0.990429699420929 40.2240104675293 0.990429699420929 L 50.81057357788086 19.33333969116211 C 50.81057357788086 19.33333969116211 51.09104537963867 19.84466552734375 51.11032104492188 20.32830238342285 C 51.12957382202148 20.81195640563965 50.88762664794922 21.2679386138916 50.88762664794922 21.2679386138916 L 40.19877243041992 39.78812026977539 C 40.19877243041992 39.78812026977539 39.86277389526367 40.28857421875 39.37062835693359 40.56941223144531 C 38.87848281860352 40.85026550292969 38.23015594482422 40.91152191162109 38.23015594482422 40.91152191162109 L 17.08077430725098 40.91152191162109 C 17.08077430725098 40.91152191162109 16.9943733215332 40.92621231079102 16.86068534851074 40.92621231079102 Z" stroke="none" fill="#896700"/>
    </g>
    <g id="Path_2372" data-name="Path 2372" transform="translate(1369.539 1405.882)" fill="#896701">
      <path d="M 36.07196426391602 34.93605804443359 L 19.29192543029785 34.91437530517578 L 10.89505195617676 20.34870338439941 L 19.30379104614258 5.814127922058105 L 36.10507965087891 5.82229471206665 L 44.48292541503906 20.36873435974121 L 36.07196426391602 34.93605804443359 Z" stroke="none"/>
      <path d="M 32.62461090087891 28.91152000427246 L 37.55717849731445 20.37604522705078 L 32.62096405029297 11.82326602935791 L 22.76591300964355 11.82326602935791 L 17.8328857421875 20.37053489685059 L 22.75602531433105 28.91152000427246 L 32.62461090087891 28.91152000427246 M 16.86068534851074 40.92621231079102 C 16.66255378723145 40.92621231079102 16.36059379577637 40.89392471313477 16.08237457275391 40.73368453979492 C 15.61641025543213 40.46533966064453 15.21695518493652 39.83808517456055 15.21695518493652 39.83808517456055 L 4.592082977294922 21.42877578735352 C 4.592082977294922 21.42877578735352 4.336301326751709 20.89973831176758 4.319628238677979 20.39793968200684 C 4.302955627441406 19.89613914489746 4.525392055511475 19.42157554626465 4.525392055511475 19.42157554626465 L 15.2211742401123 0.8893933296203613 C 15.2211742401123 0.8893933296203613 15.48706436157227 0.2793387770652771 15.95591926574707 0.01279331557452679 C 16.42475700378418 -0.2537344694137573 17.09653663635254 -0.1767339557409286 17.09653663635254 -0.1767339557409286 L 38.10982894897461 -0.1767339557409286 C 38.10982894897461 -0.1767339557409286 38.87850570678711 -0.2310046255588531 39.40704727172852 0.06079331412911415 C 39.93559265136719 0.3525751233100891 40.2240104675293 0.990429699420929 40.2240104675293 0.990429699420929 L 50.81057357788086 19.33333969116211 C 50.81057357788086 19.33333969116211 51.09104537963867 19.84466552734375 51.11032104492188 20.32830238342285 C 51.12957382202148 20.81195640563965 50.88762664794922 21.2679386138916 50.88762664794922 21.2679386138916 L 40.19877243041992 39.78812026977539 C 40.19877243041992 39.78812026977539 39.86277389526367 40.28857421875 39.37062835693359 40.56941223144531 C 38.87848281860352 40.85026550292969 38.23015594482422 40.91152191162109 38.23015594482422 40.91152191162109 L 17.08077430725098 40.91152191162109 C 17.08077430725098 40.91152191162109 16.9943733215332 40.92621231079102 16.86068534851074 40.92621231079102 Z" stroke="none" fill="#896700"/>
    </g>
  </g>
</svg>
