<svg xmlns="http://www.w3.org/2000/svg" xmlns:xlink="http://www.w3.org/1999/xlink" width="1912.149" height="884.149" viewBox="0 0 1912.149 884.149">
  <defs>
    <clipPath id="clip-path">
      <rect width="1912.149" height="884.149" fill="none"/>
    </clipPath>
  </defs>
  <g id="coinx-banner-bg" clip-path="url(#clip-path)">
    <g transform="translate(-1611.703 -192.851)">
      <rect id="Rectangle_7191" data-name="Rectangle 7191" width="109" height="109" transform="translate(1842.926 195) rotate(45)" fill="rgba(183,183,183,0.4)" opacity="0.391"/>
      <rect id="Rectangle_7192" data-name="Rectangle 7192" width="109" height="109" transform="translate(1842.926 349) rotate(45)" fill="rgba(183,183,183,0.4)" opacity="0.702"/>
      <rect id="Rectangle_7193" data-name="Rectangle 7193" width="109" height="109" transform="translate(1688.777 349) rotate(45)" fill="rgba(183,183,183,0.4)" opacity="0.565"/>
      <rect id="Rectangle_7194" data-name="Rectangle 7194" width="109" height="109" transform="translate(1688.777 192.851) rotate(45)" fill="rgba(183,183,183,0.4)" opacity="0.178"/>
    </g>
    <g transform="translate(-1301.703 -192.851)">
      <rect id="Rectangle_7191-2" data-name="Rectangle 7191" width="109" height="109" transform="translate(1842.926 195) rotate(45)" fill="rgba(183,183,183,0.4)" opacity="0.391"/>
      <rect id="Rectangle_7192-2" data-name="Rectangle 7192" width="109" height="109" transform="translate(1842.926 349) rotate(45)" fill="rgba(183,183,183,0.4)" opacity="0.702"/>
      <rect id="Rectangle_7193-2" data-name="Rectangle 7193" width="109" height="109" transform="translate(1688.777 349) rotate(45)" fill="rgba(183,183,183,0.4)" opacity="0.565"/>
      <rect id="Rectangle_7194-2" data-name="Rectangle 7194" width="109" height="109" transform="translate(1688.777 192.851) rotate(45)" fill="rgba(183,183,183,0.4)" opacity="0.178"/>
    </g>
    <g transform="translate(-991.703 -192.851)">
      <rect id="Rectangle_7191-3" data-name="Rectangle 7191" width="109" height="109" transform="translate(1842.926 195) rotate(45)" fill="rgba(183,183,183,0.4)" opacity="0.391"/>
      <rect id="Rectangle_7192-3" data-name="Rectangle 7192" width="109" height="109" transform="translate(1842.926 349) rotate(45)" fill="rgba(183,183,183,0.4)" opacity="0.702"/>
      <rect id="Rectangle_7193-3" data-name="Rectangle 7193" width="109" height="109" transform="translate(1688.777 349) rotate(45)" fill="rgba(183,183,183,0.4)" opacity="0.565"/>
      <rect id="Rectangle_7194-3" data-name="Rectangle 7194" width="109" height="109" transform="translate(1688.777 192.851) rotate(45)" fill="rgba(183,183,183,0.4)" opacity="0.178"/>
    </g>
    <g transform="translate(-681.703 -192.851)">
      <rect id="Rectangle_7191-4" data-name="Rectangle 7191" width="109" height="109" transform="translate(1842.926 195) rotate(45)" fill="rgba(183,183,183,0.4)" opacity="0.391"/>
      <rect id="Rectangle_7192-4" data-name="Rectangle 7192" width="109" height="109" transform="translate(1842.926 349) rotate(45)" fill="rgba(183,183,183,0.4)" opacity="0.702"/>
      <rect id="Rectangle_7193-4" data-name="Rectangle 7193" width="109" height="109" transform="translate(1688.777 349) rotate(45)" fill="rgba(183,183,183,0.4)" opacity="0.565"/>
      <rect id="Rectangle_7194-4" data-name="Rectangle 7194" width="109" height="109" transform="translate(1688.777 192.851) rotate(45)" fill="rgba(183,183,183,0.4)" opacity="0.178"/>
    </g>
    <g transform="translate(-371.703 -192.851)">
      <rect id="Rectangle_7191-5" data-name="Rectangle 7191" width="109" height="109" transform="translate(1842.926 195) rotate(45)" fill="rgba(183,183,183,0.4)" opacity="0.391"/>
      <rect id="Rectangle_7192-5" data-name="Rectangle 7192" width="109" height="109" transform="translate(1842.926 349) rotate(45)" fill="rgba(183,183,183,0.4)" opacity="0.702"/>
      <rect id="Rectangle_7193-5" data-name="Rectangle 7193" width="109" height="109" transform="translate(1688.777 349) rotate(45)" fill="rgba(183,183,183,0.4)" opacity="0.565"/>
      <rect id="Rectangle_7194-5" data-name="Rectangle 7194" width="109" height="109" transform="translate(1688.777 192.851) rotate(45)" fill="rgba(183,183,183,0.4)" opacity="0.178"/>
    </g>
    <g transform="translate(-61.703 -192.851)">
      <rect id="Rectangle_7191-6" data-name="Rectangle 7191" width="109" height="109" transform="translate(1842.926 195) rotate(45)" fill="rgba(183,183,183,0.4)" opacity="0.391"/>
      <rect id="Rectangle_7192-6" data-name="Rectangle 7192" width="109" height="109" transform="translate(1842.926 349) rotate(45)" fill="rgba(183,183,183,0.4)" opacity="0.702"/>
      <rect id="Rectangle_7193-6" data-name="Rectangle 7193" width="109" height="109" transform="translate(1688.777 349) rotate(45)" fill="rgba(183,183,183,0.4)" opacity="0.565"/>
      <rect id="Rectangle_7194-6" data-name="Rectangle 7194" width="109" height="109" transform="translate(1688.777 192.851) rotate(45)" fill="rgba(183,183,183,0.4)" opacity="0.178"/>
    </g>
    <g transform="translate(248.297 -192.851)">
      <rect id="Rectangle_7191-7" data-name="Rectangle 7191" width="109" height="109" transform="translate(1842.926 195) rotate(45)" fill="rgba(183,183,183,0.4)" opacity="0.391"/>
      <rect id="Rectangle_7192-7" data-name="Rectangle 7192" width="109" height="109" transform="translate(1842.926 349) rotate(45)" fill="rgba(183,183,183,0.4)" opacity="0.702"/>
      <rect id="Rectangle_7193-7" data-name="Rectangle 7193" width="109" height="109" transform="translate(1688.777 349) rotate(45)" fill="rgba(183,183,183,0.4)" opacity="0.565"/>
      <rect id="Rectangle_7194-7" data-name="Rectangle 7194" width="109" height="109" transform="translate(1688.777 192.851) rotate(45)" fill="rgba(183,183,183,0.4)" opacity="0.178"/>
    </g>
    <g transform="translate(-1611.703 121.149)">
      <rect id="Rectangle_7191-8" data-name="Rectangle 7191" width="109" height="109" transform="translate(1842.926 195) rotate(45)" fill="rgba(183,183,183,0.4)" opacity="0.391"/>
      <rect id="Rectangle_7192-8" data-name="Rectangle 7192" width="109" height="109" transform="translate(1842.926 349) rotate(45)" fill="rgba(183,183,183,0.4)" opacity="0.702"/>
      <rect id="Rectangle_7193-8" data-name="Rectangle 7193" width="109" height="109" transform="translate(1688.777 349) rotate(45)" fill="rgba(183,183,183,0.4)" opacity="0.565"/>
      <rect id="Rectangle_7194-8" data-name="Rectangle 7194" width="109" height="109" transform="translate(1688.777 192.851) rotate(45)" fill="rgba(183,183,183,0.4)" opacity="0.178"/>
    </g>
    <g transform="translate(-1301.703 121.149)">
      <rect id="Rectangle_7191-9" data-name="Rectangle 7191" width="109" height="109" transform="translate(1842.926 195) rotate(45)" fill="rgba(183,183,183,0.4)" opacity="0.391"/>
      <rect id="Rectangle_7192-9" data-name="Rectangle 7192" width="109" height="109" transform="translate(1842.926 349) rotate(45)" fill="rgba(183,183,183,0.4)" opacity="0.702"/>
      <rect id="Rectangle_7193-9" data-name="Rectangle 7193" width="109" height="109" transform="translate(1688.777 349) rotate(45)" fill="rgba(183,183,183,0.4)" opacity="0.565"/>
      <rect id="Rectangle_7194-9" data-name="Rectangle 7194" width="109" height="109" transform="translate(1688.777 192.851) rotate(45)" fill="rgba(183,183,183,0.4)" opacity="0.178"/>
    </g>
    <g transform="translate(-991.703 121.149)">
      <rect id="Rectangle_7191-10" data-name="Rectangle 7191" width="109" height="109" transform="translate(1842.926 195) rotate(45)" fill="rgba(183,183,183,0.4)" opacity="0.391"/>
      <rect id="Rectangle_7192-10" data-name="Rectangle 7192" width="109" height="109" transform="translate(1842.926 349) rotate(45)" fill="rgba(183,183,183,0.4)" opacity="0.702"/>
      <rect id="Rectangle_7193-10" data-name="Rectangle 7193" width="109" height="109" transform="translate(1688.777 349) rotate(45)" fill="rgba(183,183,183,0.4)" opacity="0.565"/>
      <rect id="Rectangle_7194-10" data-name="Rectangle 7194" width="109" height="109" transform="translate(1688.777 192.851) rotate(45)" fill="rgba(183,183,183,0.4)" opacity="0.178"/>
    </g>
    <g transform="translate(-681.703 121.149)">
      <rect id="Rectangle_7191-11" data-name="Rectangle 7191" width="109" height="109" transform="translate(1842.926 195) rotate(45)" fill="rgba(183,183,183,0.4)" opacity="0.391"/>
      <rect id="Rectangle_7192-11" data-name="Rectangle 7192" width="109" height="109" transform="translate(1842.926 349) rotate(45)" fill="rgba(183,183,183,0.4)" opacity="0.702"/>
      <rect id="Rectangle_7193-11" data-name="Rectangle 7193" width="109" height="109" transform="translate(1688.777 349) rotate(45)" fill="rgba(183,183,183,0.4)" opacity="0.565"/>
      <rect id="Rectangle_7194-11" data-name="Rectangle 7194" width="109" height="109" transform="translate(1688.777 192.851) rotate(45)" fill="rgba(183,183,183,0.4)" opacity="0.178"/>
    </g>
    <g transform="translate(-371.703 121.149)">
      <rect id="Rectangle_7191-12" data-name="Rectangle 7191" width="109" height="109" transform="translate(1842.926 195) rotate(45)" fill="rgba(183,183,183,0.4)" opacity="0.391"/>
      <rect id="Rectangle_7192-12" data-name="Rectangle 7192" width="109" height="109" transform="translate(1842.926 349) rotate(45)" fill="rgba(183,183,183,0.4)" opacity="0.702"/>
      <rect id="Rectangle_7193-12" data-name="Rectangle 7193" width="109" height="109" transform="translate(1688.777 349) rotate(45)" fill="rgba(183,183,183,0.4)" opacity="0.565"/>
      <rect id="Rectangle_7194-12" data-name="Rectangle 7194" width="109" height="109" transform="translate(1688.777 192.851) rotate(45)" fill="rgba(183,183,183,0.4)" opacity="0.178"/>
    </g>
    <g transform="translate(-61.703 121.149)">
      <rect id="Rectangle_7191-13" data-name="Rectangle 7191" width="109" height="109" transform="translate(1842.926 195) rotate(45)" fill="rgba(183,183,183,0.4)" opacity="0.391"/>
      <rect id="Rectangle_7192-13" data-name="Rectangle 7192" width="109" height="109" transform="translate(1842.926 349) rotate(45)" fill="rgba(183,183,183,0.4)" opacity="0.702"/>
      <rect id="Rectangle_7193-13" data-name="Rectangle 7193" width="109" height="109" transform="translate(1688.777 349) rotate(45)" fill="rgba(183,183,183,0.4)" opacity="0.565"/>
      <rect id="Rectangle_7194-13" data-name="Rectangle 7194" width="109" height="109" transform="translate(1688.777 192.851) rotate(45)" fill="rgba(183,183,183,0.4)" opacity="0.178"/>
    </g>
    <g transform="translate(248.297 121.149)">
      <rect id="Rectangle_7191-14" data-name="Rectangle 7191" width="109" height="109" transform="translate(1842.926 195) rotate(45)" fill="rgba(183,183,183,0.4)" opacity="0.391"/>
      <rect id="Rectangle_7192-14" data-name="Rectangle 7192" width="109" height="109" transform="translate(1842.926 349) rotate(45)" fill="rgba(183,183,183,0.4)" opacity="0.702"/>
      <rect id="Rectangle_7193-14" data-name="Rectangle 7193" width="109" height="109" transform="translate(1688.777 349) rotate(45)" fill="rgba(183,183,183,0.4)" opacity="0.565"/>
      <rect id="Rectangle_7194-14" data-name="Rectangle 7194" width="109" height="109" transform="translate(1688.777 192.851) rotate(45)" fill="rgba(183,183,183,0.4)" opacity="0.178"/>
    </g>
    <g transform="translate(-1611.703 435.149)">
      <rect id="Rectangle_7191-15" data-name="Rectangle 7191" width="109" height="109" transform="translate(1842.926 195) rotate(45)" fill="rgba(183,183,183,0.4)" opacity="0.391"/>
      <rect id="Rectangle_7192-15" data-name="Rectangle 7192" width="109" height="109" transform="translate(1842.926 349) rotate(45)" fill="rgba(183,183,183,0.4)" opacity="0.702"/>
      <rect id="Rectangle_7193-15" data-name="Rectangle 7193" width="109" height="109" transform="translate(1688.777 349) rotate(45)" fill="rgba(183,183,183,0.4)" opacity="0.565"/>
      <rect id="Rectangle_7194-15" data-name="Rectangle 7194" width="109" height="109" transform="translate(1688.777 192.851) rotate(45)" fill="rgba(183,183,183,0.4)" opacity="0.178"/>
    </g>
    <g transform="translate(-1301.703 435.149)">
      <rect id="Rectangle_7191-16" data-name="Rectangle 7191" width="109" height="109" transform="translate(1842.926 195) rotate(45)" fill="rgba(183,183,183,0.4)" opacity="0.391"/>
      <rect id="Rectangle_7192-16" data-name="Rectangle 7192" width="109" height="109" transform="translate(1842.926 349) rotate(45)" fill="rgba(183,183,183,0.4)" opacity="0.702"/>
      <rect id="Rectangle_7193-16" data-name="Rectangle 7193" width="109" height="109" transform="translate(1688.777 349) rotate(45)" fill="rgba(183,183,183,0.4)" opacity="0.565"/>
      <rect id="Rectangle_7194-16" data-name="Rectangle 7194" width="109" height="109" transform="translate(1688.777 192.851) rotate(45)" fill="rgba(183,183,183,0.4)" opacity="0.178"/>
    </g>
    <g transform="translate(-991.703 435.149)">
      <rect id="Rectangle_7191-17" data-name="Rectangle 7191" width="109" height="109" transform="translate(1842.926 195) rotate(45)" fill="rgba(183,183,183,0.4)" opacity="0.391"/>
      <rect id="Rectangle_7192-17" data-name="Rectangle 7192" width="109" height="109" transform="translate(1842.926 349) rotate(45)" fill="rgba(183,183,183,0.4)" opacity="0.702"/>
      <rect id="Rectangle_7193-17" data-name="Rectangle 7193" width="109" height="109" transform="translate(1688.777 349) rotate(45)" fill="rgba(183,183,183,0.4)" opacity="0.565"/>
      <rect id="Rectangle_7194-17" data-name="Rectangle 7194" width="109" height="109" transform="translate(1688.777 192.851) rotate(45)" fill="rgba(183,183,183,0.4)" opacity="0.178"/>
    </g>
    <g transform="translate(-681.703 435.149)">
      <rect id="Rectangle_7191-18" data-name="Rectangle 7191" width="109" height="109" transform="translate(1842.926 195) rotate(45)" fill="rgba(183,183,183,0.4)" opacity="0.391"/>
      <rect id="Rectangle_7192-18" data-name="Rectangle 7192" width="109" height="109" transform="translate(1842.926 349) rotate(45)" fill="rgba(183,183,183,0.4)" opacity="0.702"/>
      <rect id="Rectangle_7193-18" data-name="Rectangle 7193" width="109" height="109" transform="translate(1688.777 349) rotate(45)" fill="rgba(183,183,183,0.4)" opacity="0.565"/>
      <rect id="Rectangle_7194-18" data-name="Rectangle 7194" width="109" height="109" transform="translate(1688.777 192.851) rotate(45)" fill="rgba(183,183,183,0.4)" opacity="0.178"/>
    </g>
    <g transform="translate(-371.703 435.149)">
      <rect id="Rectangle_7191-19" data-name="Rectangle 7191" width="109" height="109" transform="translate(1842.926 195) rotate(45)" fill="rgba(183,183,183,0.4)" opacity="0.391"/>
      <rect id="Rectangle_7192-19" data-name="Rectangle 7192" width="109" height="109" transform="translate(1842.926 349) rotate(45)" fill="rgba(183,183,183,0.4)" opacity="0.702"/>
      <rect id="Rectangle_7193-19" data-name="Rectangle 7193" width="109" height="109" transform="translate(1688.777 349) rotate(45)" fill="rgba(183,183,183,0.4)" opacity="0.565"/>
      <rect id="Rectangle_7194-19" data-name="Rectangle 7194" width="109" height="109" transform="translate(1688.777 192.851) rotate(45)" fill="rgba(183,183,183,0.4)" opacity="0.178"/>
    </g>
    <g transform="translate(-61.703 435.149)">
      <rect id="Rectangle_7191-20" data-name="Rectangle 7191" width="109" height="109" transform="translate(1842.926 195) rotate(45)" fill="rgba(183,183,183,0.4)" opacity="0.391"/>
      <rect id="Rectangle_7192-20" data-name="Rectangle 7192" width="109" height="109" transform="translate(1842.926 349) rotate(45)" fill="rgba(183,183,183,0.4)" opacity="0.702"/>
      <rect id="Rectangle_7193-20" data-name="Rectangle 7193" width="109" height="109" transform="translate(1688.777 349) rotate(45)" fill="rgba(183,183,183,0.4)" opacity="0.565"/>
      <rect id="Rectangle_7194-20" data-name="Rectangle 7194" width="109" height="109" transform="translate(1688.777 192.851) rotate(45)" fill="rgba(183,183,183,0.4)" opacity="0.178"/>
    </g>
    <g transform="translate(248.297 435.149)">
      <rect id="Rectangle_7191-21" data-name="Rectangle 7191" width="109" height="109" transform="translate(1842.926 195) rotate(45)" fill="rgba(183,183,183,0.4)" opacity="0.391"/>
      <rect id="Rectangle_7192-21" data-name="Rectangle 7192" width="109" height="109" transform="translate(1842.926 349) rotate(45)" fill="rgba(183,183,183,0.4)" opacity="0.702"/>
      <rect id="Rectangle_7193-21" data-name="Rectangle 7193" width="109" height="109" transform="translate(1688.777 349) rotate(45)" fill="rgba(183,183,183,0.4)" opacity="0.565"/>
      <rect id="Rectangle_7194-21" data-name="Rectangle 7194" width="109" height="109" transform="translate(1688.777 192.851) rotate(45)" fill="rgba(183,183,183,0.4)" opacity="0.178"/>
    </g>
  </g>
</svg>
