<svg xmlns="http://www.w3.org/2000/svg" width="54.183" height="47.607" viewBox="0 0 54.183 47.607">
  <g id="list-img" transform="translate(-262 -1412.178)">
    <g id="Path_2376" data-name="Path 2376" transform="translate(257.681 1412.365)">
      <path d="M 18.88774871826172 45.40970230102539 C 18.8097972869873 45.32959365844727 18.70972442626953 45.20813369750977 18.63868522644043 45.10508728027344 L 6.420467376708984 23.93502235412598 C 6.371167659759521 23.81368255615234 6.324688911437988 23.65542411804199 6.318813323974609 23.58374977111816 C 6.320306777954102 23.54309844970703 6.338718891143799 23.46350288391113 6.361047267913818 23.3957347869873 L 18.67537117004395 2.059166431427002 L 18.74968147277832 1.930416584014893 L 18.77186012268066 1.871163725852966 C 18.78138160705566 1.853078603744507 18.79290199279785 1.833267569541931 18.80502510070801 1.813856720924377 C 18.81941413879395 1.813282489776611 18.83493232727051 1.812946557998657 18.85151100158691 1.812946557998657 C 18.87315368652344 1.812946557998657 18.89057540893555 1.813551306724548 18.90191650390625 1.814099073410034 L 19.03226089477539 1.833346486091614 L 19.1147518157959 1.824906468391418 L 43.44702911376953 1.824906468391418 L 43.53902053833008 1.824906468391418 L 43.57926940917969 1.820815086364746 C 43.58821487426758 1.820564746856689 43.60214996337891 1.820286512374878 43.62010192871094 1.820286512374878 C 43.77608489990234 1.820286512374878 43.90005111694336 1.838516235351562 43.96848297119141 1.854020833969116 C 44.0046501159668 1.896356582641602 44.04983520507812 1.96190619468689 44.07895660400391 2.015596628189087 L 44.12448120117188 2.127446413040161 L 44.16294097900391 2.176156520843506 L 56.39926147460938 23.37754249572754 C 56.43861770629883 23.45749473571777 56.48089981079102 23.57058906555176 56.49778366088867 23.63935470581055 C 56.4913215637207 23.66606712341309 56.48014068603516 23.70092964172363 56.46862030029297 23.7300853729248 L 44.18804550170898 45.0081672668457 C 44.11009216308594 45.10592269897461 43.98820877075195 45.22832489013672 43.91569900512695 45.26970672607422 C 43.82743835449219 45.3200798034668 43.61698150634766 45.37641525268555 43.45639038085938 45.40291595458984 L 19.09650039672852 45.40291595458984 L 18.92765998840332 45.40291595458984 L 18.88774871826172 45.40970230102539 Z" stroke="none"/>
      <path d="M 42.8053092956543 43.40291595458984 L 54.22647476196289 23.61390495300293 L 42.80531311035156 3.824903249740601 L 19.96548652648926 3.824903249740601 L 8.54433536529541 23.61390495300293 L 19.96549415588379 43.40291595458984 L 42.8053092956543 43.40291595458984 M 18.84165382385254 47.41992568969727 C 18.61222839355469 47.41992568969727 18.26256942749023 47.38253784179688 17.94039726257324 47.19699096679688 C 17.40085220336914 46.88624954223633 16.93829727172852 46.1599235534668 16.93829727172852 46.1599235534668 L 4.63526439666748 24.84292602539062 C 4.63526439666748 24.84292602539062 4.339075565338135 24.23033714294434 4.319775581359863 23.64926910400391 C 4.300464153289795 23.06821441650391 4.55803108215332 22.51870346069336 4.55803108215332 22.51870346069336 L 16.94317626953125 1.059425473213196 C 16.94317626953125 1.059425473213196 17.25107574462891 0.3529920876026154 17.79396438598633 0.04436986148357391 C 18.33686256408691 -0.2642641365528107 19.11475372314453 -0.175096794962883 19.11475372314453 -0.1750968098640442 L 43.44702911376953 -0.1750968098640442 C 43.44702911376953 -0.1750967800617218 44.33710861206055 -0.2379501312971115 44.94913101196289 0.09992541372776031 C 45.56115341186523 0.4378142952919006 45.8951416015625 1.176414251327515 45.8951416015625 1.176414251327515 L 58.15380859375 22.41652488708496 C 58.15380859375 22.41652488708496 58.47858810424805 23.00860404968262 58.50090789794922 23.56863594055176 C 58.52319717407227 24.12868118286133 58.2430305480957 24.65669250488281 58.2430305480957 24.65669250488281 L 45.86589813232422 46.10206985473633 C 45.86589813232422 46.10206985473633 45.47685241699219 46.68156814575195 44.90695190429688 47.00678253173828 C 44.33707427978516 47.33199310302734 43.58636474609375 47.40291595458984 43.58636474609375 47.40291595458984 L 19.09649848937988 47.40291595458984 C 19.09649848937988 47.40291595458984 18.9964542388916 47.41992568969727 18.84165382385254 47.41992568969727 Z" stroke="none" fill="#ffbf01"/>
    </g>
    <g id="Path_2377" data-name="Path 2377" transform="translate(272.349 1425.253)" fill="#ffbf01">
      <path d="M 21.87284851074219 19.63746643066406 L 11.58989810943604 19.63746643066406 L 6.447793006896973 10.72793579101562 L 11.58988285064697 1.818425893783569 L 21.87284469604492 1.818425893783569 L 27.01494979858398 10.72793769836426 L 21.87284851074219 19.63746643066406 Z" stroke="none"/>
      <path d="M 20.71793937683105 17.63746643066406 L 24.70574760437012 10.72793960571289 L 20.71793937683105 3.818425893783569 L 12.74479675292969 3.818425893783569 L 8.756996154785156 10.72793960571289 L 12.74480628967285 17.63746643066406 L 20.71793937683105 17.63746643066406 M 10.97887802124023 21.64526748657227 C 10.87366390228271 21.64526748657227 10.71330642700195 21.62812042236328 10.56556415557861 21.54302597045898 C 10.31812381744385 21.40052604675293 10.1060037612915 21.06743621826172 10.1060037612915 21.06743621826172 L 4.463893890380859 11.29156589508057 C 4.463893890380859 11.29156589508057 4.32806396484375 11.01063632965088 4.3192138671875 10.74416637420654 C 4.310354232788086 10.47769546508789 4.428473949432373 10.22568607330322 4.428473949432373 10.22568607330322 L 10.10823440551758 0.3845759034156799 C 10.10823440551758 0.3845759034156799 10.24943447113037 0.06060591340065002 10.49840450286865 -0.08092408627271652 C 10.7473726272583 -0.222463846206665 11.10411262512207 -0.1815740764141083 11.10411357879639 -0.1815740913152695 L 22.26277351379395 -0.1815740913152695 C 22.26277160644531 -0.1815740764141083 22.67096519470215 -0.2103928178548813 22.95163345336914 -0.05544408783316612 C 23.23230361938477 0.09950590878725052 23.38546371459961 0.4382259249687195 23.38546371459961 0.4382259249687195 L 29.00723457336426 10.17883586883545 C 29.00723457336426 10.17883586883545 29.15616416931152 10.45035552978516 29.16640472412109 10.70718574523926 C 29.17663383483887 10.96401596069336 29.04814338684082 11.20615577697754 29.04814338684082 11.20615577697754 L 23.3720531463623 21.0409049987793 C 23.3720531463623 21.0409049987793 23.19364356994629 21.30665588378906 22.93229484558105 21.45579528808594 C 22.67094421386719 21.60493659973145 22.32667350769043 21.63746643066406 22.32667350769043 21.63746643066406 L 11.09574413299561 21.63746643066406 C 11.09574413299561 21.63746643066406 11.04987049102783 21.64526748657227 10.97887802124023 21.64526748657227 Z" stroke="none" fill="#ffbf01"/>
    </g>
  </g>
</svg>
