<svg xmlns="http://www.w3.org/2000/svg" xmlns:xlink="http://www.w3.org/1999/xlink" width="99.304" height="87.251" viewBox="0 0 99.304 87.251">
  <defs>
    <linearGradient id="linear-gradient" x1="0.219" y1="0.116" x2="0.897" y2="0.836" gradientUnits="objectBoundingBox">
      <stop offset="0" stop-color="#ffbf01"/>
      <stop offset="1" stop-color="#9f7b13"/>
    </linearGradient>
  </defs>
  <g id="step-2" transform="translate(-671.669 -5069.62)">
    <path id="Path_2384" data-name="Path 2384" d="M78.706,86.307a6.036,6.036,0,0,0,1.758-1.658l22.684-39.3a4.467,4.467,0,0,0,.473-1.994,5.648,5.648,0,0,0-.636-2.112L80.518,2.312A4.775,4.775,0,0,0,78.784.339a5.828,5.828,0,0,0-2.753-.5H31.436a4.626,4.626,0,0,0-2.421.4A4.473,4.473,0,0,0,27.456,2.1L4.757,41.427A5.152,5.152,0,0,0,4.321,43.5,6.38,6.38,0,0,0,4.9,45.686L27.447,84.755a6.74,6.74,0,0,0,1.837,1.9,3.524,3.524,0,0,0,2.119.377H76.286A6.973,6.973,0,0,0,78.706,86.307Z" transform="translate(667.351 5069.807)" fill="url(#linear-gradient)"/>
    <text id="_2" data-name="2" transform="translate(708 5129)" fill="#fff" font-size="49" font-family="Montserrat-Bold, Montserrat" font-weight="700"><tspan x="0" y="0">2</tspan></text>
  </g>
</svg>
