<svg xmlns="http://www.w3.org/2000/svg" width="99.304" height="87.251" viewBox="0 0 99.304 87.251">
  <g id="step-3" transform="translate(-812.548 0)">
    <g id="Path_2385" data-name="Path 2385" transform="translate(808.229 0.187)" fill="none">
      <path d="M78.706,86.307a6.036,6.036,0,0,0,1.758-1.658l22.684-39.3a4.467,4.467,0,0,0,.473-1.994,5.648,5.648,0,0,0-.636-2.112L80.518,2.312A4.775,4.775,0,0,0,78.784.339a5.828,5.828,0,0,0-2.753-.5H31.436a4.626,4.626,0,0,0-2.421.4A4.473,4.473,0,0,0,27.456,2.1L4.757,41.427A5.152,5.152,0,0,0,4.321,43.5,6.38,6.38,0,0,0,4.9,45.686L27.447,84.755a6.74,6.74,0,0,0,1.837,1.9,3.524,3.524,0,0,0,2.119.377H76.286A6.973,6.973,0,0,0,78.706,86.307Z" stroke="none"/>
      <path d="M 76.0201416015625 83.03302764892578 C 76.28631591796875 82.98710632324219 76.60225677490234 82.89914703369141 76.72174835205078 82.83412933349609 C 76.81353759765625 82.77854156494141 76.98793029785156 82.60687255859375 77.1121826171875 82.45427703857422 L 99.59263610839844 43.50325393676758 C 99.59552001953125 43.49542617797852 99.59836578369141 43.48741149902344 99.60111999511719 43.47937774658203 C 99.56943511962891 43.3803596496582 99.51932525634766 43.25330352783203 99.47274017333984 43.15690231323242 L 76.95426177978516 4.140045642852783 L 76.87281036376953 3.959895610809326 C 76.87258148193359 3.959380149841309 76.83595275878906 3.910123109817505 76.79676818847656 3.858490705490112 C 76.68562316894531 3.84153413772583 76.53003692626953 3.826395511627197 76.34794616699219 3.826395511627197 C 76.32539367675781 3.826395511627197 76.30699157714844 3.826661586761475 76.29353332519531 3.826955795288086 L 76.21971130371094 3.834862232208252 L 31.43599510192871 3.834862232208252 L 31.2801456451416 3.854528903961182 L 31.07683372497559 3.823534488677979 L 31.07451248168945 3.829978942871094 L 8.369827270507812 43.1695442199707 C 8.347174644470215 43.24286270141602 8.32804012298584 43.32145309448242 8.320968627929688 43.3734245300293 C 8.339208602905273 43.49004364013672 8.404370307922363 43.70428848266602 8.472638130187988 43.87648773193359 L 30.84591865539551 82.641845703125 C 30.93460464477539 82.76914215087891 31.04987716674805 82.91413116455078 31.15472030639648 83.03302764892578 L 76.0201416015625 83.03302764892578 M 30.93545532226562 87.064208984375 C 30.51498031616211 87.064208984375 29.87417030334473 86.99569702148438 29.28371238708496 86.65564727783203 C 28.29486274719238 86.08612823486328 27.44711112976074 84.75495910644531 27.44711112976074 84.75495910644531 L 4.898845195770264 45.6864128112793 C 4.898845195770264 45.6864128112793 4.356011867523193 44.56369400024414 4.320628643035889 43.49876403808594 C 4.285245418548584 42.43384552001953 4.757311820983887 41.42671203613281 4.757311820983887 41.42671203613281 L 27.45606231689453 2.097412347793579 C 27.45606231689453 2.097412347793579 28.02036285400391 0.8027122616767883 29.01534461975098 0.237078920006752 C 30.01032829284668 -0.3285542726516724 31.43599700927734 -0.1651377379894257 31.43599510192871 -0.1651377379894257 L 76.03077697753906 -0.1651377379894257 C 76.03076934814453 -0.1651377230882645 77.66204833984375 -0.2803355753421783 78.78374481201172 0.3389122486114502 C 79.90541076660156 0.958162248134613 80.51750946044922 2.311828851699829 80.51750946044922 2.311828851699829 L 102.9844818115234 41.23946380615234 C 102.9844818115234 41.23946380615234 103.5797271728516 42.3245964050293 103.6206130981445 43.35097885131836 C 103.6614761352539 44.37739562988281 103.1480102539062 45.34509658813477 103.1480102539062 45.34509658813477 L 80.46392822265625 84.64892578125 C 80.46392822265625 84.64892578125 79.75089263916016 85.71097564697266 78.70642852783203 86.30701446533203 C 77.66199493408203 86.90304565429688 76.28612518310547 87.03302764892578 76.28612518310547 87.03302764892578 L 31.40254592895508 87.03302764892578 C 31.40254592895508 87.03302764892578 31.21916770935059 87.064208984375 30.93545532226562 87.064208984375 Z" stroke="none" fill="#ffbf01"/>
    </g>
    <text id="_3" data-name="3" transform="translate(849 59.381)" fill="#fff" font-size="49" font-family="Montserrat-Bold, Montserrat" font-weight="700"><tspan x="0" y="0">3</tspan></text>
  </g>
</svg>
