<svg width="302" height="523" viewBox="0 0 302 523" fill="none" xmlns="http://www.w3.org/2000/svg">
<g clip-path="url(#clip0_310_121)">
<g opacity="0.43">
<path opacity="0.43" d="M159.855 522C157.975 522 156.173 521.849 154.5 521.551C152.248 521.149 150.303 520.489 148.717 519.589C143.1 516.399 139.814 508.981 139.781 508.907L139.759 508.855L139.731 508.807L3.52199 273.101C3.29879 272.608 0.817578 266.986 1.01105 261.172C1.20666 255.293 4.137 248.979 4.36811 248.49L139.665 14.3624C139.924 13.9614 144.809 6.49198 150.333 3.31482C153.66 1.40085 157.289 0.999023 159.747 0.999023C161.331 0.999023 162.373 1.17027 162.384 1.17204L162.466 1.18572L162.55 1.18595H431.88C432.529 1.25404 440.19 2.11725 445.961 5.40649C451.749 8.70505 455.859 14.5768 456.157 15.0099L592.272 250.553C592.427 250.852 595.212 256.32 594.986 261.985C594.757 267.733 591.429 273.945 591.294 274.194L456.46 507.521L456.435 507.564L456.415 507.609C456.406 507.628 455.499 509.61 453.805 512.001C452.264 514.178 449.735 517.154 446.437 518.972C444.393 520.099 441.824 520.92 438.803 521.411C436.218 521.832 433.841 521.92 432.302 521.92C431.174 521.92 430.475 521.872 430.468 521.871L430.433 521.869H430.398H162.751H162.694L162.637 521.876C162.627 521.877 161.516 522 159.855 522Z" fill="url(#paint0_linear_310_121)"/>
<path opacity="0.43" d="M159.747 1.99836C157.411 1.99836 153.968 2.37696 150.832 4.18071C145.585 7.19905 140.873 14.3388 140.519 14.8832L5.25511 248.954C4.94424 249.619 2.19608 255.641 2.01088 261.205C1.82922 266.666 4.12088 271.989 4.41331 272.644L140.653 508.405L140.698 508.508C140.73 508.579 143.881 515.693 149.212 518.72C152.708 520.705 157.381 521.001 159.855 521.001C161.45 521.001 162.515 520.884 162.523 520.883L162.637 520.87L430.469 520.87L430.538 520.875C430.544 520.875 431.216 520.921 432.302 520.921C433.804 520.921 436.123 520.835 438.643 520.425C441.55 519.952 444.01 519.169 445.954 518.097C452.003 514.762 455.47 507.271 455.503 507.198L455.544 507.108L455.593 507.022L590.422 273.705C590.617 273.341 593.769 267.393 593.986 261.945C594.199 256.623 591.6 251.434 591.394 251.033L455.309 15.5418C454.905 14.9574 450.976 9.41549 445.465 6.27439C439.985 3.15116 432.692 2.27938 431.827 2.18528L162.386 2.18699L162.218 2.15765C162.178 2.15107 161.209 1.99836 159.747 1.99836ZM159.747 0C161.45 0 162.55 0.186919 162.55 0.186919H431.931C431.931 0.186919 440.188 0.966065 446.457 4.53876C452.725 8.11151 457.005 14.4777 457.005 14.4777L593.149 250.072C593.149 250.072 596.231 255.872 595.986 262.025C595.74 268.177 592.168 274.682 592.168 274.682L457.326 508.021C457.326 508.021 453.653 516.135 446.921 519.847C440.188 523.559 430.398 522.868 430.398 522.868H162.751C162.751 522.868 154.194 523.848 148.223 520.457C142.251 517.067 138.864 509.306 138.864 509.306L2.63188 273.559C2.63188 273.559 -0.201286 267.522 0.0110277 261.139C0.223524 254.756 3.48144 248.026 3.48144 248.026L138.811 13.8421C138.811 13.8421 143.899 5.86293 149.833 2.44904C153.377 0.410674 157.223 0 159.747 0Z" fill="#FFBF01"/>
</g>
</g>
<defs>
<linearGradient id="paint0_linear_310_121" x1="439.965" y1="515.227" x2="220.476" y2="-12.9994" gradientUnits="userSpaceOnUse">
<stop stop-color="#FFBF01"/>
<stop offset="1"/>
</linearGradient>
<clipPath id="clip0_310_121">
<rect width="302" height="523" fill="white"/>
</clipPath>
</defs>
</svg>
