<svg xmlns="http://www.w3.org/2000/svg" xmlns:xlink="http://www.w3.org/1999/xlink" width="99.758" height="99.758" viewBox="0 0 99.758 99.758">
  <defs>
    <linearGradient id="linear-gradient" x1="0.024" y1="0.057" x2="1.031" y2="1" gradientUnits="objectBoundingBox">
      <stop offset="0" stop-color="#007fff"/>
      <stop offset="1" stop-color="#13395f"/>
    </linearGradient>
    <linearGradient id="linear-gradient-2" x1="-0.107" x2="1.094" y2="1.049" gradientUnits="objectBoundingBox">
      <stop offset="0" stop-color="#007fff"/>
      <stop offset="1" stop-color="#1f456a"/>
    </linearGradient>
  </defs>
  <g id="Group_4212" data-name="Group 4212" transform="translate(-863.25 -337.5)">
    <g id="Group_3477" data-name="Group 3477" transform="translate(863.25 337.5)">
      <path id="Path_159" data-name="Path 159" d="M49.879,0A49.879,49.879,0,1,1,0,49.879,49.879,49.879,0,0,1,49.879,0Z" transform="translate(0 0)" fill="url(#linear-gradient)"/>
      <g id="Path_160" data-name="Path 160" transform="translate(5.521 5.365)" fill="#171717">
        <path d="M 44.34382629394531 83.98996734619141 C 39.0323600769043 83.98996734619141 33.88225936889648 82.94721984863281 29.03659248352051 80.89070129394531 C 24.35260963439941 78.90278625488281 20.14464378356934 76.05558013916016 16.52956008911133 72.42816925048828 C 12.91331005096436 68.79959869384766 10.07455921173096 64.57520294189453 8.092159271240234 59.87229919433594 C 6.040359497070312 55.0047492980957 5.000009536743164 49.83108520507812 5.000009536743164 44.4949836730957 C 5.000009536743164 39.15888214111328 6.040359497070312 33.9852180480957 8.092159271240234 29.11766624450684 C 10.07455921173096 24.41476631164551 12.91331005096436 20.19036674499512 16.52956008911133 16.56180000305176 C 20.14464378356934 12.93438339233398 24.35260963439941 10.08718395233154 29.03659248352051 8.09926700592041 C 33.88225936889648 6.042750358581543 39.0323600769043 5.000000476837158 44.34382629394531 5.000000476837158 C 49.65530776977539 5.000000476837158 54.8054084777832 6.042750358581543 59.65105819702148 8.09926700592041 C 64.33506011962891 10.08718395233154 68.54302978515625 12.93438339233398 72.15811157226562 16.56180000305176 C 75.77436065673828 20.19036674499512 78.61311340332031 24.41476631164551 80.59551239013672 29.11766624450684 C 82.64730834960938 33.9852180480957 83.68766021728516 39.15888214111328 83.68766021728516 44.4949836730957 C 83.68766021728516 49.83108520507812 82.64730834960938 55.0047492980957 80.59551239013672 59.87229919433594 C 78.61311340332031 64.57520294189453 75.77436065673828 68.79959869384766 72.15811157226562 72.42816925048828 C 68.54302978515625 76.05558013916016 64.33506011962891 78.90278625488281 59.65105819702148 80.89070129394531 C 54.8054084777832 82.94721984863281 49.65530776977539 83.98996734619141 44.34382629394531 83.98996734619141 Z" stroke="none"/>
        <path d="M 44.34382629394531 10.00000762939453 C 25.40657806396484 10.00000762939453 9.999992370605469 25.47438049316406 9.999992370605469 44.4949836730957 C 9.999992370605469 63.51558685302734 25.40657806396484 78.98995971679688 44.34382629394531 78.98995971679688 C 63.28107452392578 78.98995971679688 78.68766021728516 63.51558685302734 78.68766021728516 44.4949836730957 C 78.68766021728516 25.47438049316406 63.28107452392578 10.00000762939453 44.34382629394531 10.00000762939453 M 44.34382629394531 7.62939453125e-06 C 68.83424377441406 7.62939453125e-06 88.68766021728516 19.92108917236328 88.68766021728516 44.4949836730957 C 88.68766021728516 69.06887817382812 68.83424377441406 88.98995971679688 44.34382629394531 88.98995971679688 C 19.85340881347656 88.98995971679688 -7.62939453125e-06 69.06887817382812 -7.62939453125e-06 44.4949836730957 C -7.62939453125e-06 19.92108917236328 19.85340881347656 7.62939453125e-06 44.34382629394531 7.62939453125e-06 Z" stroke="none" fill="#171717"/>
      </g>
    </g>
    <g id="Group_3478" data-name="Group 3478" transform="translate(886.817 359.141)">
      <path id="Union_14" data-name="Union 14" d="M43.383,56.272V51.31H40.377v4.962H37.371V51.31H32.1l-5.957-8.486L20.189,51.31H15.034v4.962H12.028V51.31H9.021v4.962H6.015V51.31H0L16.052,28.448,0,5.586H6.015V0H9.021V5.586h3.006V0h3.007V5.586h5.155l5.958,8.484L32.1,5.586h5.267V0h3.006V5.586h3.006V0h3.008V5.586h5.9L36.241,28.448,52.293,51.31h-5.9v4.962Z" transform="translate(0 0)" fill="url(#linear-gradient-2)"/>
    </g>
  </g>
</svg>
