<svg width="671" height="98" viewBox="0 0 671 98" fill="none" xmlns="http://www.w3.org/2000/svg">
<g clip-path="url(#clip0_1478_318)">
<g opacity="0.28">
<path d="M177.817 240.947L304.468 21.4531C304.468 21.4531 307.777 13.3391 314.598 8.6001C321.419 3.8611 331.75 2.5 331.75 2.5L587.87 2.62012C587.87 2.62012 596.949 4.33191 603.182 8.75391C607.218 11.831 610.507 15.7802 612.803 20.3062L738.91 240.044" fill="url(#paint0_linear_1478_318)"/>
<path d="M177.817 240.947L304.468 21.4531C304.468 21.4531 307.777 13.3391 314.598 8.6001C321.419 3.8611 331.75 2.5 331.75 2.5L587.87 2.62012C587.87 2.62012 596.949 4.33191 603.182 8.75391C607.218 11.831 610.507 15.7802 612.803 20.3062L738.91 240.044" stroke="#007FFF" stroke-width="5"/>
</g>
<path opacity="0.28" d="M-129.835 358.381L35.2891 72.21C35.2891 72.21 39.6031 61.6311 48.4961 55.4531C57.3891 49.2751 70.8591 47.5 70.8591 47.5L404.783 47.6563C404.783 47.6563 416.62 49.8882 424.746 55.6563C432.872 61.4243 437.29 70.7183 437.29 70.7183L601.705 357.208" stroke="#007FFF" stroke-width="5"/>
<path d="M293.474 61.4521C300.929 61.4521 306.974 55.408 306.974 47.9521C306.974 40.4963 300.929 34.4521 293.474 34.4521C286.018 34.4521 279.974 40.4963 279.974 47.9521C279.974 55.408 286.018 61.4521 293.474 61.4521Z" fill="#0050A2"/>
<path d="M293.474 60.9521C300.653 60.9521 306.474 55.1319 306.474 47.9521C306.474 40.7724 300.653 34.9521 293.474 34.9521C286.294 34.9521 280.474 40.7724 280.474 47.9521C280.474 55.1319 286.294 60.9521 293.474 60.9521Z" stroke="#0051A3"/>
</g>
<defs>
<linearGradient id="paint0_linear_1478_318" x1="226.632" y1="224.017" x2="336.926" y2="-78.2842" gradientUnits="userSpaceOnUse">
<stop stop-color="#007FFF"/>
<stop offset="1"/>
</linearGradient>
<clipPath id="clip0_1478_318">
<rect width="671" height="98" fill="white"/>
</clipPath>
</defs>
</svg>
