<svg width="384" height="627" viewBox="0 0 384 627" fill="none" xmlns="http://www.w3.org/2000/svg">
<g clip-path="url(#clip0_1287_18)">
<g opacity="0.5">
<path opacity="0.269" d="M428.467 596.013C430.312 596.372 432.109 596.567 433.808 596.593C436.094 596.628 438.129 596.35 439.856 595.768C445.977 593.706 450.618 587.046 450.664 586.979L450.696 586.932L450.733 586.89L629.391 381.303C629.705 380.861 633.213 375.811 634.133 370.063C635.064 364.25 633.394 357.488 633.261 356.963L545.219 101.144C545.041 100.701 541.674 92.4309 536.862 88.2562C533.962 85.7412 530.479 84.6543 528.067 84.1855C526.512 83.8833 525.457 83.8528 525.447 83.8526L525.363 83.8504L525.281 83.8345L261.016 32.4667C260.366 32.4098 252.685 31.7968 246.394 33.9276C240.085 36.0643 234.931 41.0489 234.556 41.4176L56.0205 246.862C55.811 247.126 52.0344 251.968 51.1743 257.576C50.3015 263.267 52.3802 270.004 52.465 270.275L140.206 525.219L140.222 525.266L140.233 525.314C140.238 525.334 140.75 527.454 141.955 530.127C143.051 532.559 144.965 535.965 147.854 538.38C149.644 539.878 152.008 541.174 154.878 542.232C157.334 543.138 159.65 543.679 161.16 543.972C162.267 544.187 162.962 544.273 162.969 544.274L163.003 544.279L163.038 544.285L425.651 595.332L425.707 595.343L425.762 595.36C425.772 595.363 426.837 595.697 428.467 596.013Z" fill="url(#paint0_linear_1287_18)"/>
<path opacity="0.269" d="M527.876 85.1669C530.168 85.6125 533.474 86.6411 536.206 89.0112C540.778 92.9773 544.038 100.89 544.281 101.493L632.302 357.25C632.48 357.962 634.027 364.402 633.146 369.904C632.281 375.304 629.016 380.096 628.604 380.684L449.904 586.318L449.84 586.411C449.796 586.475 445.346 592.864 439.537 594.82C435.728 596.104 431.086 595.504 428.658 595.032C427.093 594.727 426.071 594.409 426.063 594.406L425.954 594.372L163.159 543.29L163.091 543.282C163.084 543.281 162.416 543.197 161.351 542.99C159.877 542.704 157.618 542.177 155.224 541.294C152.462 540.275 150.198 539.037 148.495 537.613C143.197 533.182 141.225 525.161 141.206 525.083L141.184 524.987L141.152 524.893L53.4144 269.96C53.2921 269.566 51.3356 263.12 52.1627 257.727C52.9708 252.458 56.5115 247.856 56.7899 247.501L235.286 42.1015C235.795 41.6044 240.708 36.9092 246.715 34.8744C252.688 32.8512 260.011 33.3858 260.878 33.4583L525.25 84.8489L525.421 84.8521C525.462 84.8534 526.441 84.888 527.876 85.1669ZM528.258 83.2037C526.587 82.8789 525.471 82.8527 525.471 82.8527L261.157 31.4752C261.157 31.4752 252.906 30.6658 246.073 32.9801C239.24 35.2945 233.826 40.7327 233.826 40.7327L55.2517 246.222C55.2517 246.222 51.12 251.333 50.1858 257.424C49.2517 263.515 51.5149 270.587 51.5149 270.587L139.26 525.544C139.26 525.544 141.315 534.216 147.212 539.147C153.109 544.078 162.847 545.267 162.847 545.267L425.46 596.314C425.46 596.314 433.669 598.908 440.176 596.716C446.682 594.524 451.488 587.545 451.488 587.545L630.177 381.923C630.177 381.923 634.11 376.532 635.121 370.221C636.131 363.909 634.22 356.676 634.22 356.676L546.157 100.796C546.157 100.796 542.688 91.9863 537.517 87.5004C534.429 84.822 530.734 83.685 528.258 83.2037Z" fill="#FD8605"/>
</g>
</g>
<defs>
<linearGradient id="paint0_linear_1287_18" x1="154.919" y1="535.936" x2="471.579" y2="59.1339" gradientUnits="userSpaceOnUse">
<stop stop-color="#A8743A"/>
<stop offset="1"/>
</linearGradient>
<clipPath id="clip0_1287_18">
<rect width="384" height="627" fill="white" transform="matrix(-1 0 0 1 384 0)"/>
</clipPath>
</defs>
</svg>
