<svg width="468" height="587" viewBox="0 0 468 587" fill="none" xmlns="http://www.w3.org/2000/svg">
<g clip-path="url(#clip0_335_2634)">
<path opacity="0.798" d="M331.5 309C416.828 309 486 239.828 486 154.5C486 69.172 416.828 0 331.5 0C246.172 0 177 69.172 177 154.5C177 239.828 246.172 309 331.5 309Z" fill="url(#paint0_linear_335_2634)"/>
<path opacity="0.654" d="M191 587C296.486 587 382 501.486 382 396C382 290.514 296.486 205 191 205C85.5136 205 0 290.514 0 396C0 501.486 85.5136 587 191 587Z" fill="url(#paint1_linear_335_2634)"/>
<path opacity="0.366" d="M345.5 551C383.332 551 414 520.332 414 482.5C414 444.668 383.332 414 345.5 414C307.668 414 277 444.668 277 482.5C277 520.332 307.668 551 345.5 551Z" fill="url(#paint2_linear_335_2634)"/>
</g>
<defs>
<linearGradient id="paint0_linear_335_2634" x1="331.5" y1="0" x2="331.5" y2="309" gradientUnits="userSpaceOnUse">
<stop stop-color="#02E336"/>
<stop offset="1" stop-color="#01726E"/>
</linearGradient>
<linearGradient id="paint1_linear_335_2634" x1="191" y1="205" x2="191" y2="587" gradientUnits="userSpaceOnUse">
<stop stop-color="#02E336"/>
<stop offset="1" stop-color="#01726E"/>
</linearGradient>
<linearGradient id="paint2_linear_335_2634" x1="345.5" y1="414" x2="345.5" y2="551" gradientUnits="userSpaceOnUse">
<stop stop-color="#02E336"/>
<stop offset="1" stop-color="#01726E"/>
</linearGradient>
<clipPath id="clip0_335_2634">
<rect width="468" height="587" fill="white"/>
</clipPath>
</defs>
</svg>
