<svg width="666" height="845" viewBox="0 0 666 845" fill="none" xmlns="http://www.w3.org/2000/svg">
<g clip-path="url(#clip0_306_12)">
<g opacity="0.43">
<path opacity="0.43" d="M315.465 403.572C315.928 402.77 316.896 401.313 318.18 400.56C319.808 399.606 322.256 399.633 323.062 399.725L323.118 399.731L323.174 399.731L427.603 399.747C427.903 399.779 430.038 400.041 431.755 401.109C433.513 402.204 434.953 404.211 435.132 404.465L487.005 494.28C487.129 494.524 488.56 497.394 488.558 499.647C488.556 500.983 488.039 502.158 487.606 502.909C487.332 503.383 487.103 503.666 487.1 503.669L487.046 503.733L487.006 503.804L435.399 593.191C435.179 593.49 433.53 595.677 431.503 596.86C429.476 598.045 426.944 598.293 426.643 598.318L322.295 598.302C322.109 598.293 319.956 598.158 318.289 597.105C316.561 596.013 315.226 593.883 315.138 593.742L263.426 504.205L263.401 504.162L263.372 504.122C263.355 504.098 261.574 501.568 261.623 499C261.661 497.031 262.788 494.874 263.27 494.038C263.474 493.686 263.614 493.476 263.615 493.474L263.634 493.446L263.652 493.415L314.954 404.558L314.982 404.509L315.005 404.457C315.006 404.454 315.167 404.088 315.465 403.572Z" fill="url(#paint0_linear_306_12)"/>
<path opacity="0.43" d="M486.74 502.409C487.112 501.764 487.557 500.761 487.558 499.646C487.56 497.935 486.542 495.573 486.127 494.76L434.289 405.004C434.063 404.687 432.756 402.91 431.226 401.958C429.767 401.05 427.929 400.792 427.547 400.747L323.062 400.731L322.95 400.718C322.284 400.643 320.071 400.611 318.685 401.423C317.881 401.894 317.045 402.835 316.331 404.072C316.078 404.51 315.935 404.826 315.921 404.857L315.88 404.954L264.485 493.973L264.446 494.031C264.444 494.033 264.319 494.221 264.136 494.537C263.692 495.306 262.656 497.282 262.623 499.019C262.581 501.209 264.124 503.451 264.187 503.541L264.239 503.613L264.292 503.705L315.997 593.23C316.36 593.815 317.539 595.448 318.823 596.259C320.223 597.144 322.073 597.287 322.323 597.302L426.599 597.318C426.97 597.283 429.224 597.033 430.999 595.997C432.783 594.954 434.28 593.018 434.561 592.642L486.14 503.304L486.214 503.167L486.328 503.033C486.358 502.995 486.532 502.768 486.74 502.409ZM488.472 503.409C488.145 503.974 487.872 504.304 487.872 504.304L436.238 593.736C436.238 593.736 434.397 596.328 432.007 597.724C429.618 599.119 426.682 599.318 426.682 599.318L322.272 599.302C322.272 599.302 319.753 599.212 317.755 597.95C315.756 596.688 314.279 594.253 314.279 594.253L262.56 504.705C262.56 504.705 260.567 501.928 260.623 498.98C260.68 496.033 262.786 492.915 262.786 492.915L314.088 404.058C314.088 404.058 315.402 401.029 317.674 399.698C319.946 398.366 323.174 398.731 323.174 398.731L427.652 398.747C427.652 398.747 430.202 398.965 432.283 400.26C434.365 401.556 435.977 403.929 435.977 403.929L487.883 493.802C487.883 493.802 489.561 497.022 489.558 499.648C489.556 501.216 488.955 502.571 488.472 503.409Z" fill="#00FF64"/>
</g>
<g opacity="0.43">
<path opacity="0.43" d="M-30.5349 206.572C-30.0722 205.77 -29.1041 204.313 -27.8203 203.56C-26.1924 202.606 -23.7439 202.633 -22.9378 202.725L-22.8819 202.731L-22.8256 202.731L81.6027 202.747C81.9027 202.779 84.0381 203.041 85.7549 204.109C87.5129 205.204 88.9533 207.211 89.132 207.465L141.005 297.28C141.129 297.524 142.56 300.394 142.558 302.647C142.556 303.983 142.039 305.158 141.606 305.909C141.332 306.383 141.103 306.666 141.1 306.669L141.046 306.733L141.006 306.804L89.3986 396.191C89.179 396.49 87.5296 398.677 85.5032 399.86C83.4757 401.045 80.9436 401.293 80.6425 401.318L-23.7053 401.302C-23.8907 401.293 -26.0445 401.158 -27.7113 400.105C-29.4392 399.013 -30.7743 396.883 -30.8615 396.742L-82.574 307.205L-82.5987 307.162L-82.6276 307.122C-82.6446 307.098 -84.426 304.568 -84.3768 302C-84.339 300.031 -83.2123 297.874 -82.7296 297.038C-82.5264 296.686 -82.3861 296.476 -82.3847 296.474L-82.3656 296.446L-82.3479 296.415L-31.0462 207.558L-31.0177 207.509L-30.995 207.457C-30.9939 207.454 -30.8329 207.088 -30.5349 206.572Z" fill="url(#paint1_linear_306_12)"/>
<path opacity="0.43" d="M140.74 305.409C141.112 304.764 141.557 303.761 141.558 302.646C141.56 300.935 140.542 298.573 140.127 297.76L88.2885 208.004C88.0626 207.687 86.7559 205.91 85.2264 204.958C83.7674 204.05 81.9288 203.792 81.5468 203.747L-22.9384 203.731L-23.0502 203.718C-23.7163 203.643 -25.9292 203.611 -27.3146 204.423C-28.1189 204.894 -28.9551 205.835 -29.669 207.072C-29.922 207.51 -30.0647 207.826 -30.0789 207.857L-30.1202 207.954L-81.5149 296.973L-81.5544 297.031C-81.5557 297.033 -81.6809 297.221 -81.8637 297.537C-82.3076 298.306 -83.3437 300.282 -83.377 302.019C-83.419 304.209 -81.8763 306.451 -81.8132 306.541L-81.7611 306.613L-81.7081 306.705L-30.0025 396.23C-29.6403 396.815 -28.4614 398.448 -27.1773 399.259C-25.7769 400.144 -23.9269 400.287 -23.6773 400.302L80.5992 400.318C80.9701 400.283 83.2243 400.033 84.9987 398.997C86.7833 397.954 88.2798 396.018 88.5608 395.642L140.14 306.304L140.214 306.167L140.328 306.033C140.358 305.995 140.532 305.768 140.74 305.409ZM142.472 306.409C142.145 306.974 141.872 307.304 141.872 307.304L90.2384 396.736C90.2384 396.736 88.3966 399.328 86.0074 400.724C83.6183 402.119 80.6818 402.318 80.6818 402.318L-23.7284 402.302C-23.7284 402.302 -26.2473 402.212 -28.2455 400.95C-30.2436 399.688 -31.721 397.253 -31.721 397.253L-83.44 307.705C-83.44 307.705 -85.4331 304.928 -85.3766 301.98C-85.3201 299.033 -83.214 295.915 -83.214 295.915L-31.9123 207.058C-31.9123 207.058 -30.5978 204.029 -28.3262 202.698C-26.0545 201.366 -22.8256 201.731 -22.8256 201.731L81.6523 201.747C81.6523 201.747 84.2021 201.965 86.2833 203.26C88.3645 204.556 89.9771 206.929 89.9771 206.929L141.883 296.802C141.883 296.802 143.561 300.022 143.558 302.648C143.556 304.216 142.955 305.571 142.472 306.409Z" fill="#00FF64"/>
</g>
<g opacity="0.43">
<path opacity="0.43" d="M-30.5349 206.572C-30.0722 205.77 -29.1041 204.313 -27.8203 203.56C-26.1924 202.606 -23.7439 202.633 -22.9378 202.725L-22.8819 202.731L-22.8256 202.731L81.6027 202.747C81.9027 202.779 84.0381 203.041 85.7549 204.109C87.5129 205.204 88.9533 207.211 89.132 207.465L141.005 297.28C141.129 297.524 142.56 300.394 142.558 302.647C142.556 303.983 142.039 305.158 141.606 305.909C141.332 306.383 141.103 306.666 141.1 306.669L141.046 306.733L141.006 306.804L89.3986 396.191C89.179 396.49 87.5296 398.677 85.5032 399.86C83.4757 401.045 80.9436 401.293 80.6425 401.318L-23.7053 401.302C-23.8907 401.293 -26.0445 401.158 -27.7113 400.105C-29.4392 399.013 -30.7743 396.883 -30.8615 396.742L-82.574 307.205L-82.5987 307.162L-82.6276 307.122C-82.6446 307.098 -84.426 304.568 -84.3768 302C-84.339 300.031 -83.2123 297.874 -82.7296 297.038C-82.5264 296.686 -82.3861 296.476 -82.3847 296.474L-82.3656 296.446L-82.3479 296.415L-31.0462 207.558L-31.0177 207.509L-30.995 207.457C-30.9939 207.454 -30.8329 207.088 -30.5349 206.572Z" fill="url(#paint2_linear_306_12)"/>
<path opacity="0.43" d="M140.74 305.409C141.112 304.764 141.557 303.761 141.558 302.646C141.56 300.935 140.542 298.573 140.127 297.76L88.2885 208.004C88.0626 207.687 86.7559 205.91 85.2264 204.958C83.7674 204.05 81.9288 203.792 81.5468 203.747L-22.9384 203.731L-23.0502 203.718C-23.7163 203.643 -25.9292 203.611 -27.3146 204.423C-28.1189 204.894 -28.9551 205.835 -29.669 207.072C-29.922 207.51 -30.0647 207.826 -30.0789 207.857L-30.1202 207.954L-81.5149 296.973L-81.5544 297.031C-81.5557 297.033 -81.6809 297.221 -81.8637 297.537C-82.3076 298.306 -83.3437 300.282 -83.377 302.019C-83.419 304.209 -81.8763 306.451 -81.8132 306.541L-81.7611 306.613L-81.7081 306.705L-30.0025 396.23C-29.6403 396.815 -28.4614 398.448 -27.1773 399.259C-25.7769 400.144 -23.9269 400.287 -23.6773 400.302L80.5992 400.318C80.9701 400.283 83.2243 400.033 84.9987 398.997C86.7833 397.954 88.2798 396.018 88.5608 395.642L140.14 306.304L140.214 306.167L140.328 306.033C140.358 305.995 140.532 305.768 140.74 305.409ZM142.472 306.409C142.145 306.974 141.872 307.304 141.872 307.304L90.2384 396.736C90.2384 396.736 88.3966 399.328 86.0074 400.724C83.6183 402.119 80.6818 402.318 80.6818 402.318L-23.7284 402.302C-23.7284 402.302 -26.2473 402.212 -28.2455 400.95C-30.2436 399.688 -31.721 397.253 -31.721 397.253L-83.44 307.705C-83.44 307.705 -85.4331 304.928 -85.3766 301.98C-85.3201 299.033 -83.214 295.915 -83.214 295.915L-31.9123 207.058C-31.9123 207.058 -30.5978 204.029 -28.3262 202.698C-26.0545 201.366 -22.8256 201.731 -22.8256 201.731L81.6523 201.747C81.6523 201.747 84.2021 201.965 86.2833 203.26C88.3645 204.556 89.9771 206.929 89.9771 206.929L141.883 296.802C141.883 296.802 143.561 300.022 143.558 302.648C143.556 304.216 142.955 305.571 142.472 306.409Z" fill="#00FF64"/>
</g>
<g opacity="0.43">
<path opacity="0.43" d="M488.466 699.572C488.929 698.77 489.897 697.313 491.181 696.56C492.809 695.606 495.257 695.633 496.063 695.725L496.119 695.731L496.175 695.731L600.604 695.747C600.904 695.779 603.039 696.041 604.756 697.109C606.514 698.204 607.954 700.211 608.133 700.465L660.006 790.28C660.13 790.524 661.561 793.394 661.559 795.647C661.557 796.983 661.04 798.158 660.607 798.909C660.333 799.383 660.104 799.666 660.101 799.669L660.047 799.733L660.007 799.804L608.4 889.191C608.18 889.49 606.531 891.677 604.504 892.86C602.477 894.045 599.945 894.293 599.644 894.318L495.296 894.302C495.11 894.293 492.957 894.158 491.29 893.105C489.562 892.013 488.227 889.883 488.139 889.742L436.427 800.205L436.402 800.162L436.373 800.122C436.356 800.098 434.575 797.568 434.624 795C434.662 793.031 435.789 790.874 436.271 790.038C436.475 789.686 436.615 789.476 436.616 789.474L436.635 789.446L436.653 789.415L487.955 700.558L487.983 700.509L488.006 700.457C488.007 700.454 488.168 700.088 488.466 699.572Z" fill="url(#paint3_linear_306_12)"/>
<path opacity="0.43" d="M659.741 798.409C660.113 797.764 660.558 796.761 660.559 795.646C660.561 793.935 659.543 791.573 659.128 790.76L607.29 701.004C607.064 700.687 605.757 698.91 604.227 697.958C602.768 697.05 600.93 696.792 600.548 696.747L496.063 696.731L495.951 696.718C495.285 696.643 493.072 696.611 491.686 697.423C490.882 697.894 490.046 698.835 489.332 700.072C489.079 700.51 488.936 700.826 488.922 700.857L488.881 700.954L437.486 789.973L437.447 790.031C437.445 790.033 437.32 790.221 437.137 790.537C436.693 791.306 435.657 793.282 435.624 795.019C435.582 797.209 437.125 799.451 437.188 799.541L437.24 799.613L437.293 799.705L488.998 889.23C489.361 889.815 490.54 891.448 491.824 892.259C493.224 893.144 495.074 893.287 495.324 893.302L599.6 893.318C599.971 893.283 602.225 893.033 604 891.997C605.784 890.954 607.281 889.018 607.562 888.642L659.141 799.304L659.215 799.167L659.329 799.033C659.359 798.995 659.533 798.768 659.741 798.409ZM661.473 799.409C661.146 799.974 660.873 800.304 660.873 800.304L609.239 889.736C609.239 889.736 607.398 892.328 605.008 893.724C602.619 895.119 599.683 895.318 599.683 895.318L495.273 895.302C495.273 895.302 492.754 895.212 490.756 893.95C488.757 892.688 487.28 890.253 487.28 890.253L435.561 800.705C435.561 800.705 433.568 797.928 433.624 794.98C433.681 792.033 435.787 788.915 435.787 788.915L487.089 700.058C487.089 700.058 488.403 697.029 490.675 695.698C492.946 694.366 496.175 694.731 496.175 694.731L600.653 694.747C600.653 694.747 603.203 694.965 605.284 696.26C607.366 697.556 608.978 699.929 608.978 699.929L660.884 789.802C660.884 789.802 662.562 793.022 662.559 795.648C662.557 797.216 661.956 798.571 661.473 799.409Z" fill="#00FF64"/>
</g>
<g opacity="0.43">
<path opacity="0.43" d="M-30.5349 8.57189C-30.0722 7.77027 -29.1041 6.31309 -27.8203 5.56046C-26.1924 4.60603 -23.7439 4.63347 -22.9378 4.72461L-22.8819 4.73094L-22.8256 4.73092L81.6027 4.74691C81.9027 4.77909 84.0381 5.0407 85.7549 6.10946C87.5129 7.20382 88.9533 9.21068 89.132 9.46541L141.005 99.2803C141.129 99.524 142.56 102.394 142.558 104.647C142.556 105.983 142.039 107.158 141.606 107.909C141.332 108.383 141.103 108.666 141.1 108.669L141.046 108.733L141.006 108.804L89.3986 198.191C89.179 198.49 87.5296 200.677 85.5032 201.86C83.4757 203.045 80.9436 203.293 80.6425 203.318L-23.7053 203.302C-23.8907 203.293 -26.0445 203.158 -27.7113 202.105C-29.4392 201.013 -30.7743 198.883 -30.8615 198.742L-82.574 109.205L-82.5987 109.162L-82.6276 109.122C-82.6446 109.098 -84.426 106.568 -84.3768 104C-84.339 102.031 -83.2123 99.8736 -82.7296 99.0375C-82.5264 98.6855 -82.3861 98.4764 -82.3847 98.4743L-82.3656 98.4459L-82.3479 98.4154L-31.0462 9.55832L-31.0177 9.50888L-30.995 9.45651C-30.9939 9.4542 -30.8329 9.08792 -30.5349 8.57189Z" fill="url(#paint4_linear_306_12)"/>
<path opacity="0.43" d="M140.74 107.409C141.112 106.764 141.557 105.761 141.558 104.646C141.56 102.935 140.542 100.573 140.127 99.7603L88.2885 10.0044C88.0626 9.68745 86.7559 7.91037 85.2264 6.95821C83.7674 6.04995 81.9288 5.79199 81.5468 5.74675L-22.9384 5.73073L-23.0502 5.71807C-23.7163 5.64279 -25.9292 5.61068 -27.3146 6.42293C-28.1189 6.89445 -28.9551 7.83515 -29.669 9.07172C-29.922 9.5099 -30.0647 9.82551 -30.0789 9.85726L-30.1202 9.95412L-81.5149 98.9729L-81.5544 99.0314C-81.5557 99.0332 -81.6809 99.2208 -81.8637 99.5374C-82.3076 100.306 -83.3437 102.282 -83.377 104.019C-83.419 106.209 -81.8763 108.451 -81.8132 108.541L-81.7611 108.613L-81.7081 108.705L-30.0025 198.23C-29.6403 198.815 -28.4614 200.448 -27.1773 201.259C-25.7769 202.144 -23.9269 202.287 -23.6773 202.302L80.5992 202.318C80.9701 202.283 83.2243 202.033 84.9987 200.997C86.7833 199.954 88.2798 198.018 88.5608 197.642L140.14 108.304L140.214 108.167L140.328 108.033C140.358 107.995 140.532 107.768 140.74 107.409ZM142.472 108.409C142.145 108.974 141.872 109.304 141.872 109.304L90.2384 198.736C90.2384 198.736 88.3966 201.328 86.0074 202.724C83.6183 204.119 80.6818 204.318 80.6818 204.318L-23.7284 204.302C-23.7284 204.302 -26.2473 204.212 -28.2455 202.95C-30.2436 201.688 -31.721 199.253 -31.721 199.253L-83.44 109.705C-83.44 109.705 -85.4331 106.928 -85.3766 103.98C-85.3201 101.033 -83.214 97.9152 -83.214 97.9152L-31.9123 9.05813C-31.9123 9.05812 -30.5978 6.02942 -28.3262 4.69757C-26.0545 3.36573 -22.8256 3.73073 -22.8256 3.73073L81.6523 3.74675C81.6523 3.74675 84.2021 3.96472 86.2833 5.2603C88.3645 6.55592 89.9771 8.92912 89.9771 8.92912L141.883 98.8018C141.883 98.8018 143.561 102.022 143.558 104.648C143.556 106.216 142.955 107.571 142.472 108.409Z" fill="#00FF64"/>
</g>
<g opacity="0.43">
<path opacity="0.43" d="M315.465 403.572C315.928 402.77 316.896 401.313 318.18 400.56C319.808 399.606 322.256 399.633 323.062 399.725L323.118 399.731L323.174 399.731L427.603 399.747C427.903 399.779 430.038 400.041 431.755 401.109C433.513 402.204 434.953 404.211 435.132 404.465L487.005 494.28C487.129 494.524 488.56 497.394 488.558 499.647C488.556 500.983 488.039 502.158 487.606 502.909C487.332 503.383 487.103 503.666 487.1 503.669L487.046 503.733L487.006 503.804L435.399 593.191C435.179 593.49 433.53 595.677 431.503 596.86C429.476 598.045 426.944 598.293 426.643 598.318L322.295 598.302C322.109 598.293 319.956 598.158 318.289 597.105C316.561 596.013 315.226 593.883 315.138 593.742L263.426 504.205L263.401 504.162L263.372 504.122C263.355 504.098 261.574 501.568 261.623 499C261.661 497.031 262.788 494.874 263.27 494.038C263.474 493.686 263.614 493.476 263.615 493.474L263.634 493.446L263.652 493.415L314.954 404.558L314.982 404.509L315.005 404.457C315.006 404.454 315.167 404.088 315.465 403.572Z" fill="url(#paint5_linear_306_12)"/>
<path opacity="0.43" d="M486.74 502.409C487.112 501.764 487.557 500.761 487.558 499.646C487.56 497.935 486.542 495.573 486.127 494.76L434.289 405.004C434.063 404.687 432.756 402.91 431.226 401.958C429.767 401.05 427.929 400.792 427.547 400.747L323.062 400.731L322.95 400.718C322.284 400.643 320.071 400.611 318.685 401.423C317.881 401.894 317.045 402.835 316.331 404.072C316.078 404.51 315.935 404.826 315.921 404.857L315.88 404.954L264.485 493.973L264.446 494.031C264.444 494.033 264.319 494.221 264.136 494.537C263.692 495.306 262.656 497.282 262.623 499.019C262.581 501.209 264.124 503.451 264.187 503.541L264.239 503.613L264.292 503.705L315.997 593.23C316.36 593.815 317.539 595.448 318.823 596.259C320.223 597.144 322.073 597.287 322.323 597.302L426.599 597.318C426.97 597.283 429.224 597.033 430.999 595.997C432.783 594.954 434.28 593.018 434.561 592.642L486.14 503.304L486.214 503.167L486.328 503.033C486.358 502.995 486.532 502.768 486.74 502.409ZM488.472 503.409C488.145 503.974 487.872 504.304 487.872 504.304L436.238 593.736C436.238 593.736 434.397 596.328 432.007 597.724C429.618 599.119 426.682 599.318 426.682 599.318L322.272 599.302C322.272 599.302 319.753 599.212 317.755 597.95C315.756 596.688 314.279 594.253 314.279 594.253L262.56 504.705C262.56 504.705 260.567 501.928 260.623 498.98C260.68 496.033 262.786 492.915 262.786 492.915L314.088 404.058C314.088 404.058 315.402 401.029 317.674 399.698C319.946 398.366 323.174 398.731 323.174 398.731L427.652 398.747C427.652 398.747 430.202 398.965 432.283 400.26C434.365 401.556 435.977 403.929 435.977 403.929L487.883 493.802C487.883 493.802 489.561 497.022 489.558 499.648C489.556 501.216 488.955 502.571 488.472 503.409Z" fill="#00FF64"/>
</g>
<g opacity="0.43">
<path opacity="0.43" d="M315.465 600.572C315.928 599.77 316.896 598.313 318.18 597.56C319.808 596.606 322.256 596.633 323.062 596.725L323.118 596.731L323.174 596.731L427.603 596.747C427.903 596.779 430.038 597.041 431.755 598.109C433.513 599.204 434.953 601.211 435.132 601.465L487.005 691.28C487.129 691.524 488.56 694.394 488.558 696.647C488.556 697.983 488.039 699.158 487.606 699.909C487.332 700.383 487.103 700.666 487.1 700.669L487.046 700.733L487.006 700.804L435.399 790.191C435.179 790.49 433.53 792.677 431.503 793.86C429.476 795.045 426.944 795.293 426.643 795.318L322.295 795.302C322.109 795.293 319.956 795.158 318.289 794.105C316.561 793.013 315.226 790.883 315.138 790.742L263.426 701.205L263.401 701.162L263.372 701.122C263.355 701.098 261.574 698.568 261.623 696C261.661 694.031 262.788 691.874 263.27 691.038C263.474 690.686 263.614 690.476 263.615 690.474L263.634 690.446L263.652 690.415L314.954 601.558L314.982 601.509L315.005 601.457C315.006 601.454 315.167 601.088 315.465 600.572Z" fill="url(#paint6_linear_306_12)"/>
<path opacity="0.43" d="M486.74 699.409C487.112 698.764 487.557 697.761 487.558 696.646C487.56 694.935 486.542 692.573 486.127 691.76L434.289 602.004C434.063 601.687 432.756 599.91 431.226 598.958C429.767 598.05 427.929 597.792 427.547 597.747L323.062 597.731L322.95 597.718C322.284 597.643 320.071 597.611 318.685 598.423C317.881 598.894 317.045 599.835 316.331 601.072C316.078 601.51 315.935 601.826 315.921 601.857L315.88 601.954L264.485 690.973L264.446 691.031C264.444 691.033 264.319 691.221 264.136 691.537C263.692 692.306 262.656 694.282 262.623 696.019C262.581 698.209 264.124 700.451 264.187 700.541L264.239 700.613L264.292 700.705L315.997 790.23C316.36 790.815 317.539 792.448 318.823 793.259C320.223 794.144 322.073 794.287 322.323 794.302L426.599 794.318C426.97 794.283 429.224 794.033 430.999 792.997C432.783 791.954 434.28 790.018 434.561 789.642L486.14 700.304L486.214 700.167L486.328 700.033C486.358 699.995 486.532 699.768 486.74 699.409ZM488.472 700.409C488.145 700.974 487.872 701.304 487.872 701.304L436.238 790.736C436.238 790.736 434.397 793.328 432.007 794.724C429.618 796.119 426.682 796.318 426.682 796.318L322.272 796.302C322.272 796.302 319.753 796.212 317.755 794.95C315.756 793.688 314.279 791.253 314.279 791.253L262.56 701.705C262.56 701.705 260.567 698.928 260.623 695.98C260.68 693.033 262.786 689.915 262.786 689.915L314.088 601.058C314.088 601.058 315.402 598.029 317.674 596.698C319.946 595.366 323.174 595.731 323.174 595.731L427.652 595.747C427.652 595.747 430.202 595.965 432.283 597.26C434.365 598.556 435.977 600.929 435.977 600.929L487.883 690.802C487.883 690.802 489.561 694.022 489.558 696.648C489.556 698.216 488.955 699.571 488.472 700.409Z" fill="#00FF64"/>
</g>
<g opacity="0.43">
<path opacity="0.43" d="M315.465 797.572C315.928 796.77 316.896 795.313 318.18 794.56C319.808 793.606 322.256 793.633 323.062 793.725L323.118 793.731L323.174 793.731L427.603 793.747C427.903 793.779 430.038 794.041 431.755 795.109C433.513 796.204 434.953 798.211 435.132 798.465L487.005 888.28C487.129 888.524 488.56 891.394 488.558 893.647C488.556 894.983 488.039 896.158 487.606 896.909C487.332 897.383 487.103 897.666 487.1 897.669L487.046 897.733L487.006 897.804L435.399 987.191C435.179 987.49 433.53 989.677 431.503 990.86C429.476 992.045 426.944 992.293 426.643 992.318L322.295 992.302C322.109 992.293 319.956 992.158 318.289 991.105C316.561 990.013 315.226 987.883 315.138 987.742L263.426 898.205L263.401 898.162L263.372 898.122C263.355 898.098 261.574 895.568 261.623 893C261.661 891.031 262.788 888.874 263.27 888.038C263.474 887.686 263.614 887.476 263.615 887.474L263.634 887.446L263.652 887.415L314.954 798.558L314.982 798.509L315.005 798.457C315.006 798.454 315.167 798.088 315.465 797.572Z" fill="url(#paint7_linear_306_12)"/>
<path opacity="0.43" d="M486.74 896.409C487.112 895.764 487.557 894.761 487.558 893.646C487.56 891.935 486.542 889.573 486.127 888.76L434.289 799.004C434.063 798.687 432.756 796.91 431.226 795.958C429.767 795.05 427.929 794.792 427.547 794.747L323.062 794.731L322.95 794.718C322.284 794.643 320.071 794.611 318.685 795.423C317.881 795.894 317.045 796.835 316.331 798.072C316.078 798.51 315.935 798.826 315.921 798.857L315.88 798.954L264.485 887.973L264.446 888.031C264.444 888.033 264.319 888.221 264.136 888.537C263.692 889.306 262.656 891.282 262.623 893.019C262.581 895.209 264.124 897.451 264.187 897.541L264.239 897.613L264.292 897.705L315.997 987.23C316.36 987.815 317.539 989.448 318.823 990.259C320.223 991.144 322.073 991.287 322.323 991.302L426.599 991.318C426.97 991.283 429.224 991.033 430.999 989.997C432.783 988.954 434.28 987.018 434.561 986.642L486.14 897.304L486.214 897.167L486.328 897.033C486.358 896.995 486.532 896.768 486.74 896.409ZM488.472 897.409C488.145 897.974 487.872 898.304 487.872 898.304L436.238 987.736C436.238 987.736 434.397 990.328 432.007 991.724C429.618 993.119 426.682 993.318 426.682 993.318L322.272 993.302C322.272 993.302 319.753 993.212 317.755 991.95C315.756 990.688 314.279 988.253 314.279 988.253L262.56 898.705C262.56 898.705 260.567 895.928 260.623 892.98C260.68 890.033 262.786 886.915 262.786 886.915L314.088 798.058C314.088 798.058 315.402 795.029 317.674 793.698C319.946 792.366 323.174 792.731 323.174 792.731L427.652 792.747C427.652 792.747 430.202 792.965 432.283 794.26C434.365 795.556 435.977 797.929 435.977 797.929L487.883 887.802C487.883 887.802 489.561 891.022 489.558 893.648C489.556 895.216 488.955 896.571 488.472 897.409Z" fill="#00FF64"/>
</g>
<g opacity="0.43">
<path opacity="0.43" d="M142.465 501.572C142.928 500.77 143.896 499.313 145.18 498.56C146.808 497.606 149.256 497.633 150.062 497.725L150.118 497.731L150.174 497.731L254.603 497.747C254.903 497.779 257.038 498.041 258.755 499.109C260.513 500.204 261.953 502.211 262.132 502.465L314.005 592.28C314.129 592.524 315.56 595.394 315.558 597.647C315.556 598.983 315.039 600.158 314.606 600.909C314.332 601.383 314.103 601.666 314.1 601.669L314.046 601.733L314.006 601.804L262.399 691.191C262.179 691.49 260.53 693.677 258.503 694.86C256.476 696.045 253.944 696.293 253.643 696.318L149.295 696.302C149.109 696.293 146.956 696.158 145.289 695.105C143.561 694.013 142.226 691.883 142.138 691.742L90.426 602.205L90.4013 602.162L90.3724 602.122C90.3554 602.098 88.574 599.568 88.6232 597C88.661 595.031 89.7877 592.874 90.2704 592.038C90.4736 591.686 90.6139 591.476 90.6153 591.474L90.6344 591.446L90.6521 591.415L141.954 502.558L141.982 502.509L142.005 502.457C142.006 502.454 142.167 502.088 142.465 501.572Z" fill="url(#paint8_linear_306_12)"/>
<path opacity="0.43" d="M313.74 600.409C314.112 599.764 314.557 598.761 314.558 597.646C314.56 595.935 313.542 593.573 313.127 592.76L261.289 503.004C261.063 502.687 259.756 500.91 258.226 499.958C256.767 499.05 254.929 498.792 254.547 498.747L150.062 498.731L149.95 498.718C149.284 498.643 147.071 498.611 145.685 499.423C144.881 499.894 144.045 500.835 143.331 502.072C143.078 502.51 142.935 502.826 142.921 502.857L142.88 502.954L91.4851 591.973L91.4456 592.031C91.4443 592.033 91.3191 592.221 91.1363 592.537C90.6924 593.306 89.6563 595.282 89.623 597.019C89.581 599.209 91.1237 601.451 91.1868 601.541L91.2389 601.613L91.2919 601.705L142.997 691.23C143.36 691.815 144.539 693.448 145.823 694.259C147.223 695.144 149.073 695.287 149.323 695.302L253.599 695.318C253.97 695.283 256.224 695.033 257.999 693.997C259.783 692.954 261.28 691.018 261.561 690.642L313.14 601.304L313.214 601.167L313.328 601.033C313.358 600.995 313.532 600.768 313.74 600.409ZM315.472 601.409C315.145 601.974 314.872 602.304 314.872 602.304L263.238 691.736C263.238 691.736 261.397 694.328 259.007 695.724C256.618 697.119 253.682 697.318 253.682 697.318L149.272 697.302C149.272 697.302 146.753 697.212 144.755 695.95C142.756 694.688 141.279 692.253 141.279 692.253L89.56 602.705C89.56 602.705 87.5669 599.928 87.6234 596.98C87.6799 594.033 89.786 590.915 89.786 590.915L141.088 502.058C141.088 502.058 142.402 499.029 144.674 497.698C146.946 496.366 150.174 496.731 150.174 496.731L254.652 496.747C254.652 496.747 257.202 496.965 259.283 498.26C261.365 499.556 262.977 501.929 262.977 501.929L314.883 591.802C314.883 591.802 316.561 595.022 316.558 597.648C316.556 599.216 315.955 600.571 315.472 601.409Z" fill="#00FF64"/>
</g>
<g opacity="0.43">
<path opacity="0.43" d="M-30.5349 403.572C-30.0722 402.77 -29.1041 401.313 -27.8203 400.56C-26.1924 399.606 -23.7439 399.633 -22.9378 399.725L-22.8819 399.731L-22.8256 399.731L81.6027 399.747C81.9027 399.779 84.0381 400.041 85.7549 401.109C87.5129 402.204 88.9533 404.211 89.132 404.465L141.005 494.28C141.129 494.524 142.56 497.394 142.558 499.647C142.556 500.983 142.039 502.158 141.606 502.909C141.332 503.383 141.103 503.666 141.1 503.669L141.046 503.733L141.006 503.804L89.3986 593.191C89.179 593.49 87.5296 595.677 85.5032 596.86C83.4757 598.045 80.9436 598.293 80.6425 598.318L-23.7053 598.302C-23.8907 598.293 -26.0445 598.158 -27.7113 597.105C-29.4392 596.013 -30.7743 593.883 -30.8615 593.742L-82.574 504.205L-82.5987 504.162L-82.6276 504.122C-82.6446 504.098 -84.426 501.568 -84.3768 499C-84.339 497.031 -83.2123 494.874 -82.7296 494.038C-82.5264 493.686 -82.3861 493.476 -82.3847 493.474L-82.3656 493.446L-82.3479 493.415L-31.0462 404.558L-31.0177 404.509L-30.995 404.457C-30.9939 404.454 -30.8329 404.088 -30.5349 403.572Z" fill="url(#paint9_linear_306_12)"/>
<path opacity="0.43" d="M140.74 502.409C141.112 501.764 141.557 500.761 141.558 499.646C141.56 497.935 140.542 495.573 140.127 494.76L88.2885 405.004C88.0626 404.687 86.7559 402.91 85.2264 401.958C83.7674 401.05 81.9288 400.792 81.5468 400.747L-22.9384 400.731L-23.0502 400.718C-23.7163 400.643 -25.9292 400.611 -27.3146 401.423C-28.1189 401.894 -28.9551 402.835 -29.669 404.072C-29.922 404.51 -30.0647 404.826 -30.0789 404.857L-30.1202 404.954L-81.5149 493.973L-81.5544 494.031C-81.5557 494.033 -81.6809 494.221 -81.8637 494.537C-82.3076 495.306 -83.3437 497.282 -83.377 499.019C-83.419 501.209 -81.8763 503.451 -81.8132 503.541L-81.7611 503.613L-81.7081 503.705L-30.0025 593.23C-29.6403 593.815 -28.4614 595.448 -27.1773 596.259C-25.7769 597.144 -23.9269 597.287 -23.6773 597.302L80.5992 597.318C80.9701 597.283 83.2243 597.033 84.9987 595.997C86.7833 594.954 88.2798 593.018 88.5608 592.642L140.14 503.304L140.214 503.167L140.328 503.033C140.358 502.995 140.532 502.768 140.74 502.409ZM142.472 503.409C142.145 503.974 141.872 504.304 141.872 504.304L90.2384 593.736C90.2384 593.736 88.3966 596.328 86.0074 597.724C83.6183 599.119 80.6818 599.318 80.6818 599.318L-23.7284 599.302C-23.7284 599.302 -26.2473 599.212 -28.2455 597.95C-30.2436 596.688 -31.721 594.253 -31.721 594.253L-83.44 504.705C-83.44 504.705 -85.4331 501.928 -85.3766 498.98C-85.3201 496.033 -83.214 492.915 -83.214 492.915L-31.9123 404.058C-31.9123 404.058 -30.5978 401.029 -28.3262 399.698C-26.0545 398.366 -22.8256 398.731 -22.8256 398.731L81.6523 398.747C81.6523 398.747 84.2021 398.965 86.2833 400.26C88.3645 401.556 89.9771 403.929 89.9771 403.929L141.883 493.802C141.883 493.802 143.561 497.022 143.558 499.648C143.556 501.216 142.955 502.571 142.472 503.409Z" fill="#00FF64"/>
</g>
<g opacity="0.43">
<path opacity="0.43" d="M-30.5349 403.572C-30.0722 402.77 -29.1041 401.313 -27.8203 400.56C-26.1924 399.606 -23.7439 399.633 -22.9378 399.725L-22.8819 399.731L-22.8256 399.731L81.6027 399.747C81.9027 399.779 84.0381 400.041 85.7549 401.109C87.5129 402.204 88.9533 404.211 89.132 404.465L141.005 494.28C141.129 494.524 142.56 497.394 142.558 499.647C142.556 500.983 142.039 502.158 141.606 502.909C141.332 503.383 141.103 503.666 141.1 503.669L141.046 503.733L141.006 503.804L89.3986 593.191C89.179 593.49 87.5296 595.677 85.5032 596.86C83.4757 598.045 80.9436 598.293 80.6425 598.318L-23.7053 598.302C-23.8907 598.293 -26.0445 598.158 -27.7113 597.105C-29.4392 596.013 -30.7743 593.883 -30.8615 593.742L-82.574 504.205L-82.5987 504.162L-82.6276 504.122C-82.6446 504.098 -84.426 501.568 -84.3768 499C-84.339 497.031 -83.2123 494.874 -82.7296 494.038C-82.5264 493.686 -82.3861 493.476 -82.3847 493.474L-82.3656 493.446L-82.3479 493.415L-31.0462 404.558L-31.0177 404.509L-30.995 404.457C-30.9939 404.454 -30.8329 404.088 -30.5349 403.572Z" fill="url(#paint10_linear_306_12)"/>
<path opacity="0.43" d="M140.74 502.409C141.112 501.764 141.557 500.761 141.558 499.646C141.56 497.935 140.542 495.573 140.127 494.76L88.2885 405.004C88.0626 404.687 86.7559 402.91 85.2264 401.958C83.7674 401.05 81.9288 400.792 81.5468 400.747L-22.9384 400.731L-23.0502 400.718C-23.7163 400.643 -25.9292 400.611 -27.3146 401.423C-28.1189 401.894 -28.9551 402.835 -29.669 404.072C-29.922 404.51 -30.0647 404.826 -30.0789 404.857L-30.1202 404.954L-81.5149 493.973L-81.5544 494.031C-81.5557 494.033 -81.6809 494.221 -81.8637 494.537C-82.3076 495.306 -83.3437 497.282 -83.377 499.019C-83.419 501.209 -81.8763 503.451 -81.8132 503.541L-81.7611 503.613L-81.7081 503.705L-30.0025 593.23C-29.6403 593.815 -28.4614 595.448 -27.1773 596.259C-25.7769 597.144 -23.9269 597.287 -23.6773 597.302L80.5992 597.318C80.9701 597.283 83.2243 597.033 84.9987 595.997C86.7833 594.954 88.2798 593.018 88.5608 592.642L140.14 503.304L140.214 503.167L140.328 503.033C140.358 502.995 140.532 502.768 140.74 502.409ZM142.472 503.409C142.145 503.974 141.872 504.304 141.872 504.304L90.2384 593.736C90.2384 593.736 88.3966 596.328 86.0074 597.724C83.6183 599.119 80.6818 599.318 80.6818 599.318L-23.7284 599.302C-23.7284 599.302 -26.2473 599.212 -28.2455 597.95C-30.2436 596.688 -31.721 594.253 -31.721 594.253L-83.44 504.705C-83.44 504.705 -85.4331 501.928 -85.3766 498.98C-85.3201 496.033 -83.214 492.915 -83.214 492.915L-31.9123 404.058C-31.9123 404.058 -30.5978 401.029 -28.3262 399.698C-26.0545 398.366 -22.8256 398.731 -22.8256 398.731L81.6523 398.747C81.6523 398.747 84.2021 398.965 86.2833 400.26C88.3645 401.556 89.9771 403.929 89.9771 403.929L141.883 493.802C141.883 493.802 143.561 497.022 143.558 499.648C143.556 501.216 142.955 502.571 142.472 503.409Z" fill="#00FF64"/>
</g>
<g opacity="0.43">
<path opacity="0.43" d="M-30.5349 600.572C-30.0722 599.77 -29.1041 598.313 -27.8203 597.56C-26.1924 596.606 -23.7439 596.633 -22.9378 596.725L-22.8819 596.731L-22.8256 596.731L81.6027 596.747C81.9027 596.779 84.0381 597.041 85.7549 598.109C87.5129 599.204 88.9533 601.211 89.132 601.465L141.005 691.28C141.129 691.524 142.56 694.394 142.558 696.647C142.556 697.983 142.039 699.158 141.606 699.909C141.332 700.383 141.103 700.666 141.1 700.669L141.046 700.733L141.006 700.804L89.3986 790.191C89.179 790.49 87.5296 792.677 85.5032 793.86C83.4757 795.045 80.9436 795.293 80.6425 795.318L-23.7053 795.302C-23.8907 795.293 -26.0445 795.158 -27.7113 794.105C-29.4392 793.013 -30.7743 790.883 -30.8615 790.742L-82.574 701.205L-82.5987 701.162L-82.6276 701.122C-82.6446 701.098 -84.426 698.568 -84.3768 696C-84.339 694.031 -83.2123 691.874 -82.7296 691.038C-82.5264 690.686 -82.3861 690.476 -82.3847 690.474L-82.3656 690.446L-82.3479 690.415L-31.0462 601.558L-31.0177 601.509L-30.995 601.457C-30.9939 601.454 -30.8329 601.088 -30.5349 600.572Z" fill="url(#paint11_linear_306_12)"/>
<path opacity="0.43" d="M140.74 699.409C141.112 698.764 141.557 697.761 141.558 696.646C141.56 694.935 140.542 692.573 140.127 691.76L88.2885 602.004C88.0626 601.687 86.7559 599.91 85.2264 598.958C83.7674 598.05 81.9288 597.792 81.5468 597.747L-22.9384 597.731L-23.0502 597.718C-23.7163 597.643 -25.9292 597.611 -27.3146 598.423C-28.1189 598.894 -28.9551 599.835 -29.669 601.072C-29.922 601.51 -30.0647 601.826 -30.0789 601.857L-30.1202 601.954L-81.5149 690.973L-81.5544 691.031C-81.5557 691.033 -81.6809 691.221 -81.8637 691.537C-82.3076 692.306 -83.3437 694.282 -83.377 696.019C-83.419 698.209 -81.8763 700.451 -81.8132 700.541L-81.7611 700.613L-81.7081 700.705L-30.0025 790.23C-29.6403 790.815 -28.4614 792.448 -27.1773 793.259C-25.7769 794.144 -23.9269 794.287 -23.6773 794.302L80.5992 794.318C80.9701 794.283 83.2243 794.033 84.9987 792.997C86.7833 791.954 88.2798 790.018 88.5608 789.642L140.14 700.304L140.214 700.167L140.328 700.033C140.358 699.995 140.532 699.768 140.74 699.409ZM142.472 700.409C142.145 700.974 141.872 701.304 141.872 701.304L90.2384 790.736C90.2384 790.736 88.3966 793.328 86.0074 794.724C83.6183 796.119 80.6818 796.318 80.6818 796.318L-23.7284 796.302C-23.7284 796.302 -26.2473 796.212 -28.2455 794.95C-30.2436 793.688 -31.721 791.253 -31.721 791.253L-83.44 701.705C-83.44 701.705 -85.4331 698.928 -85.3766 695.98C-85.3201 693.033 -83.214 689.915 -83.214 689.915L-31.9123 601.058C-31.9123 601.058 -30.5978 598.029 -28.3262 596.698C-26.0545 595.366 -22.8256 595.731 -22.8256 595.731L81.6523 595.747C81.6523 595.747 84.2021 595.965 86.2833 597.26C88.3645 598.556 89.9771 600.929 89.9771 600.929L141.883 690.802C141.883 690.802 143.561 694.022 143.558 696.648C143.556 698.216 142.955 699.571 142.472 700.409Z" fill="#00FF64"/>
</g>
<g opacity="0.43">
<path opacity="0.43" d="M488.466 699.572C488.929 698.77 489.897 697.313 491.181 696.56C492.809 695.606 495.257 695.633 496.063 695.725L496.119 695.731L496.175 695.731L600.604 695.747C600.904 695.779 603.039 696.041 604.756 697.109C606.514 698.204 607.954 700.211 608.133 700.465L660.006 790.28C660.13 790.524 661.561 793.394 661.559 795.647C661.557 796.983 661.04 798.158 660.607 798.909C660.333 799.383 660.104 799.666 660.101 799.669L660.047 799.733L660.007 799.804L608.4 889.191C608.18 889.49 606.531 891.677 604.504 892.86C602.477 894.045 599.945 894.293 599.644 894.318L495.296 894.302C495.11 894.293 492.957 894.158 491.29 893.105C489.562 892.013 488.227 889.883 488.139 889.742L436.427 800.205L436.402 800.162L436.373 800.122C436.356 800.098 434.575 797.568 434.624 795C434.662 793.031 435.789 790.874 436.271 790.038C436.475 789.686 436.615 789.476 436.616 789.474L436.635 789.446L436.653 789.415L487.955 700.558L487.983 700.509L488.006 700.457C488.007 700.454 488.168 700.088 488.466 699.572Z" fill="url(#paint12_linear_306_12)"/>
<path opacity="0.43" d="M659.741 798.409C660.113 797.764 660.558 796.761 660.559 795.646C660.561 793.935 659.543 791.573 659.128 790.76L607.29 701.004C607.064 700.687 605.757 698.91 604.227 697.958C602.768 697.05 600.93 696.792 600.548 696.747L496.063 696.731L495.951 696.718C495.285 696.643 493.072 696.611 491.686 697.423C490.882 697.894 490.046 698.835 489.332 700.072C489.079 700.51 488.936 700.826 488.922 700.857L488.881 700.954L437.486 789.973L437.447 790.031C437.445 790.033 437.32 790.221 437.137 790.537C436.693 791.306 435.657 793.282 435.624 795.019C435.582 797.209 437.125 799.451 437.188 799.541L437.24 799.613L437.293 799.705L488.998 889.23C489.361 889.815 490.54 891.448 491.824 892.259C493.224 893.144 495.074 893.287 495.324 893.302L599.6 893.318C599.971 893.283 602.225 893.033 604 891.997C605.784 890.954 607.281 889.018 607.562 888.642L659.141 799.304L659.215 799.167L659.329 799.033C659.359 798.995 659.533 798.768 659.741 798.409ZM661.473 799.409C661.146 799.974 660.873 800.304 660.873 800.304L609.239 889.736C609.239 889.736 607.398 892.328 605.008 893.724C602.619 895.119 599.683 895.318 599.683 895.318L495.273 895.302C495.273 895.302 492.754 895.212 490.756 893.95C488.757 892.688 487.28 890.253 487.28 890.253L435.561 800.705C435.561 800.705 433.568 797.928 433.624 794.98C433.681 792.033 435.787 788.915 435.787 788.915L487.089 700.058C487.089 700.058 488.403 697.029 490.675 695.698C492.946 694.366 496.175 694.731 496.175 694.731L600.653 694.747C600.653 694.747 603.203 694.965 605.284 696.26C607.366 697.556 608.978 699.929 608.978 699.929L660.884 789.802C660.884 789.802 662.562 793.022 662.559 795.648C662.557 797.216 661.956 798.571 661.473 799.409Z" fill="#00FF64"/>
</g>
<g opacity="0.43">
<path opacity="0.43" d="M142.465 107.572C142.928 106.77 143.896 105.313 145.18 104.56C146.808 103.606 149.256 103.633 150.062 103.725L150.118 103.731L150.174 103.731L254.603 103.747C254.903 103.779 257.038 104.041 258.755 105.109C260.513 106.204 261.953 108.211 262.132 108.465L314.005 198.28C314.129 198.524 315.56 201.394 315.558 203.647C315.556 204.983 315.039 206.158 314.606 206.909C314.332 207.383 314.103 207.666 314.1 207.669L314.046 207.733L314.006 207.804L262.399 297.191C262.179 297.49 260.53 299.677 258.503 300.86C256.476 302.045 253.944 302.293 253.643 302.318L149.295 302.302C149.109 302.293 146.956 302.158 145.289 301.105C143.561 300.013 142.226 297.883 142.138 297.742L90.426 208.205L90.4013 208.162L90.3724 208.122C90.3554 208.098 88.574 205.568 88.6232 203C88.661 201.031 89.7877 198.874 90.2704 198.038C90.4736 197.686 90.6139 197.476 90.6153 197.474L90.6344 197.446L90.6521 197.415L141.954 108.558L141.982 108.509L142.005 108.457C142.006 108.454 142.167 108.088 142.465 107.572Z" fill="url(#paint13_linear_306_12)"/>
<path opacity="0.43" d="M313.74 206.409C314.112 205.764 314.557 204.761 314.558 203.646C314.56 201.935 313.542 199.573 313.127 198.76L261.289 109.004C261.063 108.687 259.756 106.91 258.226 105.958C256.767 105.05 254.929 104.792 254.547 104.747L150.062 104.731L149.95 104.718C149.284 104.643 147.071 104.611 145.685 105.423C144.881 105.894 144.045 106.835 143.331 108.072C143.078 108.51 142.935 108.826 142.921 108.857L142.88 108.954L91.4851 197.973L91.4456 198.031C91.4443 198.033 91.3191 198.221 91.1363 198.537C90.6924 199.306 89.6563 201.282 89.623 203.019C89.581 205.209 91.1237 207.451 91.1868 207.541L91.2389 207.613L91.2919 207.705L142.997 297.23C143.36 297.815 144.539 299.448 145.823 300.259C147.223 301.144 149.073 301.287 149.323 301.302L253.599 301.318C253.97 301.283 256.224 301.033 257.999 299.997C259.783 298.954 261.28 297.018 261.561 296.642L313.14 207.304L313.214 207.167L313.328 207.033C313.358 206.995 313.532 206.768 313.74 206.409ZM315.472 207.409C315.145 207.974 314.872 208.304 314.872 208.304L263.238 297.736C263.238 297.736 261.397 300.328 259.007 301.724C256.618 303.119 253.682 303.318 253.682 303.318L149.272 303.302C149.272 303.302 146.753 303.212 144.755 301.95C142.756 300.688 141.279 298.253 141.279 298.253L89.56 208.705C89.56 208.705 87.5669 205.928 87.6234 202.98C87.6799 200.033 89.786 196.915 89.786 196.915L141.088 108.058C141.088 108.058 142.402 105.029 144.674 103.698C146.946 102.366 150.174 102.731 150.174 102.731L254.652 102.747C254.652 102.747 257.202 102.965 259.283 104.26C261.365 105.556 262.977 107.929 262.977 107.929L314.883 197.802C314.883 197.802 316.561 201.022 316.558 203.648C316.556 205.216 315.955 206.571 315.472 207.409Z" fill="#00FF64"/>
</g>
<g opacity="0.43">
<path opacity="0.43" d="M142.465 304.572C142.928 303.77 143.896 302.313 145.18 301.56C146.808 300.606 149.256 300.633 150.062 300.725L150.118 300.731L150.174 300.731L254.603 300.747C254.903 300.779 257.038 301.041 258.755 302.109C260.513 303.204 261.953 305.211 262.132 305.465L314.005 395.28C314.129 395.524 315.56 398.394 315.558 400.647C315.556 401.983 315.039 403.158 314.606 403.909C314.332 404.383 314.103 404.666 314.1 404.669L314.046 404.733L314.006 404.804L262.399 494.191C262.179 494.49 260.53 496.677 258.503 497.86C256.476 499.045 253.944 499.293 253.643 499.318L149.295 499.302C149.109 499.293 146.956 499.158 145.289 498.105C143.561 497.013 142.226 494.883 142.138 494.742L90.426 405.205L90.4013 405.162L90.3724 405.122C90.3554 405.098 88.574 402.568 88.6232 400C88.661 398.031 89.7877 395.874 90.2704 395.038C90.4736 394.686 90.6139 394.476 90.6153 394.474L90.6344 394.446L90.6521 394.415L141.954 305.558L141.982 305.509L142.005 305.457C142.006 305.454 142.167 305.088 142.465 304.572Z" fill="url(#paint14_linear_306_12)"/>
<path opacity="0.43" d="M313.74 403.409C314.112 402.764 314.557 401.761 314.558 400.646C314.56 398.935 313.542 396.573 313.127 395.76L261.289 306.004C261.063 305.687 259.756 303.91 258.226 302.958C256.767 302.05 254.929 301.792 254.547 301.747L150.062 301.731L149.95 301.718C149.284 301.643 147.071 301.611 145.685 302.423C144.881 302.894 144.045 303.835 143.331 305.072C143.078 305.51 142.935 305.826 142.921 305.857L142.88 305.954L91.4851 394.973L91.4456 395.031C91.4443 395.033 91.3191 395.221 91.1363 395.537C90.6924 396.306 89.6563 398.282 89.623 400.019C89.581 402.209 91.1237 404.451 91.1868 404.541L91.2389 404.613L91.2919 404.705L142.997 494.23C143.36 494.815 144.539 496.448 145.823 497.259C147.223 498.144 149.073 498.287 149.323 498.302L253.599 498.318C253.97 498.283 256.224 498.033 257.999 496.997C259.783 495.954 261.28 494.018 261.561 493.642L313.14 404.304L313.214 404.167L313.328 404.033C313.358 403.995 313.532 403.768 313.74 403.409ZM315.472 404.409C315.145 404.974 314.872 405.304 314.872 405.304L263.238 494.736C263.238 494.736 261.397 497.328 259.007 498.724C256.618 500.119 253.682 500.318 253.682 500.318L149.272 500.302C149.272 500.302 146.753 500.212 144.755 498.95C142.756 497.688 141.279 495.253 141.279 495.253L89.56 405.705C89.56 405.705 87.5669 402.928 87.6234 399.98C87.6799 397.033 89.786 393.915 89.786 393.915L141.088 305.058C141.088 305.058 142.402 302.029 144.674 300.698C146.946 299.366 150.174 299.731 150.174 299.731L254.652 299.747C254.652 299.747 257.202 299.965 259.283 301.26C261.365 302.556 262.977 304.929 262.977 304.929L314.883 394.802C314.883 394.802 316.561 398.022 316.558 400.648C316.556 402.216 315.955 403.571 315.472 404.409Z" fill="#00FF64"/>
</g>
<g opacity="0.43">
<path opacity="0.43" d="M315.465 600.572C315.928 599.77 316.896 598.313 318.18 597.56C319.808 596.606 322.256 596.633 323.062 596.725L323.118 596.731L323.174 596.731L427.603 596.747C427.903 596.779 430.038 597.041 431.755 598.109C433.513 599.204 434.953 601.211 435.132 601.465L487.005 691.28C487.129 691.524 488.56 694.394 488.558 696.647C488.556 697.983 488.039 699.158 487.606 699.909C487.332 700.383 487.103 700.666 487.1 700.669L487.046 700.733L487.006 700.804L435.399 790.191C435.179 790.49 433.53 792.677 431.503 793.86C429.476 795.045 426.944 795.293 426.643 795.318L322.295 795.302C322.109 795.293 319.956 795.158 318.289 794.105C316.561 793.013 315.226 790.883 315.138 790.742L263.426 701.205L263.401 701.162L263.372 701.122C263.355 701.098 261.574 698.568 261.623 696C261.661 694.031 262.788 691.874 263.27 691.038C263.474 690.686 263.614 690.476 263.615 690.474L263.634 690.446L263.652 690.415L314.954 601.558L314.982 601.509L315.005 601.457C315.006 601.454 315.167 601.088 315.465 600.572Z" fill="url(#paint15_linear_306_12)"/>
<path opacity="0.43" d="M486.74 699.409C487.112 698.764 487.557 697.761 487.558 696.646C487.56 694.935 486.542 692.573 486.127 691.76L434.289 602.004C434.063 601.687 432.756 599.91 431.226 598.958C429.767 598.05 427.929 597.792 427.547 597.747L323.062 597.731L322.95 597.718C322.284 597.643 320.071 597.611 318.685 598.423C317.881 598.894 317.045 599.835 316.331 601.072C316.078 601.51 315.935 601.826 315.921 601.857L315.88 601.954L264.485 690.973L264.446 691.031C264.444 691.033 264.319 691.221 264.136 691.537C263.692 692.306 262.656 694.282 262.623 696.019C262.581 698.209 264.124 700.451 264.187 700.541L264.239 700.613L264.292 700.705L315.997 790.23C316.36 790.815 317.539 792.448 318.823 793.259C320.223 794.144 322.073 794.287 322.323 794.302L426.599 794.318C426.97 794.283 429.224 794.033 430.999 792.997C432.783 791.954 434.28 790.018 434.561 789.642L486.14 700.304L486.214 700.167L486.328 700.033C486.358 699.995 486.532 699.768 486.74 699.409ZM488.472 700.409C488.145 700.974 487.872 701.304 487.872 701.304L436.238 790.736C436.238 790.736 434.397 793.328 432.007 794.724C429.618 796.119 426.682 796.318 426.682 796.318L322.272 796.302C322.272 796.302 319.753 796.212 317.755 794.95C315.756 793.688 314.279 791.253 314.279 791.253L262.56 701.705C262.56 701.705 260.567 698.928 260.623 695.98C260.68 693.033 262.786 689.915 262.786 689.915L314.088 601.058C314.088 601.058 315.402 598.029 317.674 596.698C319.946 595.366 323.174 595.731 323.174 595.731L427.652 595.747C427.652 595.747 430.202 595.965 432.283 597.26C434.365 598.556 435.977 600.929 435.977 600.929L487.883 690.802C487.883 690.802 489.561 694.022 489.558 696.648C489.556 698.216 488.955 699.571 488.472 700.409Z" fill="#00FF64"/>
</g>
<g opacity="0.43">
<path opacity="0.43" d="M142.465 698.572C142.928 697.77 143.896 696.313 145.18 695.56C146.808 694.606 149.256 694.633 150.062 694.725L150.118 694.731L150.174 694.731L254.603 694.747C254.903 694.779 257.038 695.041 258.755 696.109C260.513 697.204 261.953 699.211 262.132 699.465L314.005 789.28C314.129 789.524 315.56 792.394 315.558 794.647C315.556 795.983 315.039 797.158 314.606 797.909C314.332 798.383 314.103 798.666 314.1 798.669L314.046 798.733L314.006 798.804L262.399 888.191C262.179 888.49 260.53 890.677 258.503 891.86C256.476 893.045 253.944 893.293 253.643 893.318L149.295 893.302C149.109 893.293 146.956 893.158 145.289 892.105C143.561 891.013 142.226 888.883 142.138 888.742L90.426 799.205L90.4013 799.162L90.3724 799.122C90.3554 799.098 88.574 796.568 88.6232 794C88.661 792.031 89.7877 789.874 90.2704 789.038C90.4736 788.686 90.6139 788.476 90.6153 788.474L90.6344 788.446L90.6521 788.415L141.954 699.558L141.982 699.509L142.005 699.457C142.006 699.454 142.167 699.088 142.465 698.572Z" fill="url(#paint16_linear_306_12)"/>
<path opacity="0.43" d="M313.74 797.409C314.112 796.764 314.557 795.761 314.558 794.646C314.56 792.935 313.542 790.573 313.127 789.76L261.289 700.004C261.063 699.687 259.756 697.91 258.226 696.958C256.767 696.05 254.929 695.792 254.547 695.747L150.062 695.731L149.95 695.718C149.284 695.643 147.071 695.611 145.685 696.423C144.881 696.894 144.045 697.835 143.331 699.072C143.078 699.51 142.935 699.826 142.921 699.857L142.88 699.954L91.4851 788.973L91.4456 789.031C91.4443 789.033 91.3191 789.221 91.1363 789.537C90.6924 790.306 89.6563 792.282 89.623 794.019C89.581 796.209 91.1237 798.451 91.1868 798.541L91.2389 798.613L91.2919 798.705L142.997 888.23C143.36 888.815 144.539 890.448 145.823 891.259C147.223 892.144 149.073 892.287 149.323 892.302L253.599 892.318C253.97 892.283 256.224 892.033 257.999 890.997C259.783 889.954 261.28 888.018 261.561 887.642L313.14 798.304L313.214 798.167L313.328 798.033C313.358 797.995 313.532 797.768 313.74 797.409ZM315.472 798.409C315.145 798.974 314.872 799.304 314.872 799.304L263.238 888.736C263.238 888.736 261.397 891.328 259.007 892.724C256.618 894.119 253.682 894.318 253.682 894.318L149.272 894.302C149.272 894.302 146.753 894.212 144.755 892.95C142.756 891.688 141.279 889.253 141.279 889.253L89.56 799.705C89.56 799.705 87.5669 796.928 87.6234 793.98C87.6799 791.033 89.786 787.915 89.786 787.915L141.088 699.058C141.088 699.058 142.402 696.029 144.674 694.698C146.946 693.366 150.174 693.731 150.174 693.731L254.652 693.747C254.652 693.747 257.202 693.965 259.283 695.26C261.365 696.556 262.977 698.929 262.977 698.929L314.883 788.802C314.883 788.802 316.561 792.022 316.558 794.648C316.556 796.216 315.955 797.571 315.472 798.409Z" fill="#00FF64"/>
</g>
<g opacity="0.43">
<path opacity="0.43" d="M315.465 797.572C315.928 796.77 316.896 795.313 318.18 794.56C319.808 793.606 322.256 793.633 323.062 793.725L323.118 793.731L323.174 793.731L427.603 793.747C427.903 793.779 430.038 794.041 431.755 795.109C433.513 796.204 434.953 798.211 435.132 798.465L487.005 888.28C487.129 888.524 488.56 891.394 488.558 893.647C488.556 894.983 488.039 896.158 487.606 896.909C487.332 897.383 487.103 897.666 487.1 897.669L487.046 897.733L487.006 897.804L435.399 987.191C435.179 987.49 433.53 989.677 431.503 990.86C429.476 992.045 426.944 992.293 426.643 992.318L322.295 992.302C322.109 992.293 319.956 992.158 318.289 991.105C316.561 990.013 315.226 987.883 315.138 987.742L263.426 898.205L263.401 898.162L263.372 898.122C263.355 898.098 261.574 895.568 261.623 893C261.661 891.031 262.788 888.874 263.27 888.038C263.474 887.686 263.614 887.476 263.615 887.474L263.634 887.446L263.652 887.415L314.954 798.558L314.982 798.509L315.005 798.457C315.006 798.454 315.167 798.088 315.465 797.572Z" fill="url(#paint17_linear_306_12)"/>
<path opacity="0.43" d="M486.74 896.409C487.112 895.764 487.557 894.761 487.558 893.646C487.56 891.935 486.542 889.573 486.127 888.76L434.289 799.004C434.063 798.687 432.756 796.91 431.226 795.958C429.767 795.05 427.929 794.792 427.547 794.747L323.062 794.731L322.95 794.718C322.284 794.643 320.071 794.611 318.685 795.423C317.881 795.894 317.045 796.835 316.331 798.072C316.078 798.51 315.935 798.826 315.921 798.857L315.88 798.954L264.485 887.973L264.446 888.031C264.444 888.033 264.319 888.221 264.136 888.537C263.692 889.306 262.656 891.282 262.623 893.019C262.581 895.209 264.124 897.451 264.187 897.541L264.239 897.613L264.292 897.705L315.997 987.23C316.36 987.815 317.539 989.448 318.823 990.259C320.223 991.144 322.073 991.287 322.323 991.302L426.599 991.318C426.97 991.283 429.224 991.033 430.999 989.997C432.783 988.954 434.28 987.018 434.561 986.642L486.14 897.304L486.214 897.167L486.328 897.033C486.358 896.995 486.532 896.768 486.74 896.409ZM488.472 897.409C488.145 897.974 487.872 898.304 487.872 898.304L436.238 987.736C436.238 987.736 434.397 990.328 432.007 991.724C429.618 993.119 426.682 993.318 426.682 993.318L322.272 993.302C322.272 993.302 319.753 993.212 317.755 991.95C315.756 990.688 314.279 988.253 314.279 988.253L262.56 898.705C262.56 898.705 260.567 895.928 260.623 892.98C260.68 890.033 262.786 886.915 262.786 886.915L314.088 798.058C314.088 798.058 315.402 795.029 317.674 793.698C319.946 792.366 323.174 792.731 323.174 792.731L427.652 792.747C427.652 792.747 430.202 792.965 432.283 794.26C434.365 795.556 435.977 797.929 435.977 797.929L487.883 887.802C487.883 887.802 489.561 891.022 489.558 893.648C489.556 895.216 488.955 896.571 488.472 897.409Z" fill="#00FF64"/>
</g>
<g opacity="0.43">
<path opacity="0.43" d="M-30.5349 600.572C-30.0722 599.77 -29.1041 598.313 -27.8203 597.56C-26.1924 596.606 -23.7439 596.633 -22.9378 596.725L-22.8819 596.731L-22.8256 596.731L81.6027 596.747C81.9027 596.779 84.0381 597.041 85.7549 598.109C87.5129 599.204 88.9533 601.211 89.132 601.465L141.005 691.28C141.129 691.524 142.56 694.394 142.558 696.647C142.556 697.983 142.039 699.158 141.606 699.909C141.332 700.383 141.103 700.666 141.1 700.669L141.046 700.733L141.006 700.804L89.3986 790.191C89.179 790.49 87.5296 792.677 85.5032 793.86C83.4757 795.045 80.9436 795.293 80.6425 795.318L-23.7053 795.302C-23.8907 795.293 -26.0445 795.158 -27.7113 794.105C-29.4392 793.013 -30.7743 790.883 -30.8615 790.742L-82.574 701.205L-82.5987 701.162L-82.6276 701.122C-82.6446 701.098 -84.426 698.568 -84.3768 696C-84.339 694.031 -83.2123 691.874 -82.7296 691.038C-82.5264 690.686 -82.3861 690.476 -82.3847 690.474L-82.3656 690.446L-82.3479 690.415L-31.0462 601.558L-31.0177 601.509L-30.995 601.457C-30.9939 601.454 -30.8329 601.088 -30.5349 600.572Z" fill="url(#paint18_linear_306_12)"/>
<path opacity="0.43" d="M140.74 699.409C141.112 698.764 141.557 697.761 141.558 696.646C141.56 694.935 140.542 692.573 140.127 691.76L88.2885 602.004C88.0626 601.687 86.7559 599.91 85.2264 598.958C83.7674 598.05 81.9288 597.792 81.5468 597.747L-22.9384 597.731L-23.0502 597.718C-23.7163 597.643 -25.9292 597.611 -27.3146 598.423C-28.1189 598.894 -28.9551 599.835 -29.669 601.072C-29.922 601.51 -30.0647 601.826 -30.0789 601.857L-30.1202 601.954L-81.5149 690.973L-81.5544 691.031C-81.5557 691.033 -81.6809 691.221 -81.8637 691.537C-82.3076 692.306 -83.3437 694.282 -83.377 696.019C-83.419 698.209 -81.8763 700.451 -81.8132 700.541L-81.7611 700.613L-81.7081 700.705L-30.0025 790.23C-29.6403 790.815 -28.4614 792.448 -27.1773 793.259C-25.7769 794.144 -23.9269 794.287 -23.6773 794.302L80.5992 794.318C80.9701 794.283 83.2243 794.033 84.9987 792.997C86.7833 791.954 88.2798 790.018 88.5608 789.642L140.14 700.304L140.214 700.167L140.328 700.033C140.358 699.995 140.532 699.768 140.74 699.409ZM142.472 700.409C142.145 700.974 141.872 701.304 141.872 701.304L90.2384 790.736C90.2384 790.736 88.3966 793.328 86.0074 794.724C83.6183 796.119 80.6818 796.318 80.6818 796.318L-23.7284 796.302C-23.7284 796.302 -26.2473 796.212 -28.2455 794.95C-30.2436 793.688 -31.721 791.253 -31.721 791.253L-83.44 701.705C-83.44 701.705 -85.4331 698.928 -85.3766 695.98C-85.3201 693.033 -83.214 689.915 -83.214 689.915L-31.9123 601.058C-31.9123 601.058 -30.5978 598.029 -28.3262 596.698C-26.0545 595.366 -22.8256 595.731 -22.8256 595.731L81.6523 595.747C81.6523 595.747 84.2021 595.965 86.2833 597.26C88.3645 598.556 89.9771 600.929 89.9771 600.929L141.883 690.802C141.883 690.802 143.561 694.022 143.558 696.648C143.556 698.216 142.955 699.571 142.472 700.409Z" fill="#00FF64"/>
</g>
<g opacity="0.43">
<path opacity="0.43" d="M-30.5349 797.572C-30.0722 796.77 -29.1041 795.313 -27.8203 794.56C-26.1924 793.606 -23.7439 793.633 -22.9378 793.725L-22.8819 793.731L-22.8256 793.731L81.6027 793.747C81.9027 793.779 84.0381 794.041 85.7549 795.109C87.5129 796.204 88.9533 798.211 89.132 798.465L141.005 888.28C141.129 888.524 142.56 891.394 142.558 893.647C142.556 894.983 142.039 896.158 141.606 896.909C141.332 897.383 141.103 897.666 141.1 897.669L141.046 897.733L141.006 897.804L89.3986 987.191C89.179 987.49 87.5296 989.677 85.5032 990.86C83.4757 992.045 80.9436 992.293 80.6425 992.318L-23.7053 992.302C-23.8907 992.293 -26.0445 992.158 -27.7113 991.105C-29.4392 990.013 -30.7743 987.883 -30.8615 987.742L-82.574 898.205L-82.5987 898.162L-82.6276 898.122C-82.6446 898.098 -84.426 895.568 -84.3768 893C-84.339 891.031 -83.2123 888.874 -82.7296 888.038C-82.5264 887.686 -82.3861 887.476 -82.3847 887.474L-82.3656 887.446L-82.3479 887.415L-31.0462 798.558L-31.0177 798.509L-30.995 798.457C-30.9939 798.454 -30.8329 798.088 -30.5349 797.572Z" fill="url(#paint19_linear_306_12)"/>
<path opacity="0.43" d="M140.74 896.409C141.112 895.764 141.557 894.761 141.558 893.646C141.56 891.935 140.542 889.573 140.127 888.76L88.2885 799.004C88.0626 798.687 86.7559 796.91 85.2264 795.958C83.7674 795.05 81.9288 794.792 81.5468 794.747L-22.9384 794.731L-23.0502 794.718C-23.7163 794.643 -25.9292 794.611 -27.3146 795.423C-28.1189 795.894 -28.9551 796.835 -29.669 798.072C-29.922 798.51 -30.0647 798.826 -30.0789 798.857L-30.1202 798.954L-81.5149 887.973L-81.5544 888.031C-81.5557 888.033 -81.6809 888.221 -81.8637 888.537C-82.3076 889.306 -83.3437 891.282 -83.377 893.019C-83.419 895.209 -81.8763 897.451 -81.8132 897.541L-81.7611 897.613L-81.7081 897.705L-30.0025 987.23C-29.6403 987.815 -28.4614 989.448 -27.1773 990.259C-25.7769 991.144 -23.9269 991.287 -23.6773 991.302L80.5992 991.318C80.9701 991.283 83.2243 991.033 84.9987 989.997C86.7833 988.954 88.2798 987.018 88.5608 986.642L140.14 897.304L140.214 897.167L140.328 897.033C140.358 896.995 140.532 896.768 140.74 896.409ZM142.472 897.409C142.145 897.974 141.872 898.304 141.872 898.304L90.2384 987.736C90.2384 987.736 88.3966 990.328 86.0074 991.724C83.6183 993.119 80.6818 993.318 80.6818 993.318L-23.7284 993.302C-23.7284 993.302 -26.2473 993.212 -28.2455 991.95C-30.2436 990.688 -31.721 988.253 -31.721 988.253L-83.44 898.705C-83.44 898.705 -85.4331 895.928 -85.3766 892.98C-85.3201 890.033 -83.214 886.915 -83.214 886.915L-31.9123 798.058C-31.9123 798.058 -30.5978 795.029 -28.3262 793.698C-26.0545 792.366 -22.8256 792.731 -22.8256 792.731L81.6523 792.747C81.6523 792.747 84.2021 792.965 86.2833 794.26C88.3645 795.556 89.9771 797.929 89.9771 797.929L141.883 887.802C141.883 887.802 143.561 891.022 143.558 893.648C143.556 895.216 142.955 896.571 142.472 897.409Z" fill="#00FF64"/>
</g>
<g opacity="0.43">
<path opacity="0.43" d="M-30.5349 797.572C-30.0722 796.77 -29.1041 795.313 -27.8203 794.56C-26.1924 793.606 -23.7439 793.633 -22.9378 793.725L-22.8819 793.731L-22.8256 793.731L81.6027 793.747C81.9027 793.779 84.0381 794.041 85.7549 795.109C87.5129 796.204 88.9533 798.211 89.132 798.465L141.005 888.28C141.129 888.524 142.56 891.394 142.558 893.647C142.556 894.983 142.039 896.158 141.606 896.909C141.332 897.383 141.103 897.666 141.1 897.669L141.046 897.733L141.006 897.804L89.3986 987.191C89.179 987.49 87.5296 989.677 85.5032 990.86C83.4757 992.045 80.9436 992.293 80.6425 992.318L-23.7053 992.302C-23.8907 992.293 -26.0445 992.158 -27.7113 991.105C-29.4392 990.013 -30.7743 987.883 -30.8615 987.742L-82.574 898.205L-82.5987 898.162L-82.6276 898.122C-82.6446 898.098 -84.426 895.568 -84.3768 893C-84.339 891.031 -83.2123 888.874 -82.7296 888.038C-82.5264 887.686 -82.3861 887.476 -82.3847 887.474L-82.3656 887.446L-82.3479 887.415L-31.0462 798.558L-31.0177 798.509L-30.995 798.457C-30.9939 798.454 -30.8329 798.088 -30.5349 797.572Z" fill="url(#paint20_linear_306_12)"/>
<path opacity="0.43" d="M140.74 896.409C141.112 895.764 141.557 894.761 141.558 893.646C141.56 891.935 140.542 889.573 140.127 888.76L88.2885 799.004C88.0626 798.687 86.7559 796.91 85.2264 795.958C83.7674 795.05 81.9288 794.792 81.5468 794.747L-22.9384 794.731L-23.0502 794.718C-23.7163 794.643 -25.9292 794.611 -27.3146 795.423C-28.1189 795.894 -28.9551 796.835 -29.669 798.072C-29.922 798.51 -30.0647 798.826 -30.0789 798.857L-30.1202 798.954L-81.5149 887.973L-81.5544 888.031C-81.5557 888.033 -81.6809 888.221 -81.8637 888.537C-82.3076 889.306 -83.3437 891.282 -83.377 893.019C-83.419 895.209 -81.8763 897.451 -81.8132 897.541L-81.7611 897.613L-81.7081 897.705L-30.0025 987.23C-29.6403 987.815 -28.4614 989.448 -27.1773 990.259C-25.7769 991.144 -23.9269 991.287 -23.6773 991.302L80.5992 991.318C80.9701 991.283 83.2243 991.033 84.9987 989.997C86.7833 988.954 88.2798 987.018 88.5608 986.642L140.14 897.304L140.214 897.167L140.328 897.033C140.358 896.995 140.532 896.768 140.74 896.409ZM142.472 897.409C142.145 897.974 141.872 898.304 141.872 898.304L90.2384 987.736C90.2384 987.736 88.3966 990.328 86.0074 991.724C83.6183 993.119 80.6818 993.318 80.6818 993.318L-23.7284 993.302C-23.7284 993.302 -26.2473 993.212 -28.2455 991.95C-30.2436 990.688 -31.721 988.253 -31.721 988.253L-83.44 898.705C-83.44 898.705 -85.4331 895.928 -85.3766 892.98C-85.3201 890.033 -83.214 886.915 -83.214 886.915L-31.9123 798.058C-31.9123 798.058 -30.5978 795.029 -28.3262 793.698C-26.0545 792.366 -22.8256 792.731 -22.8256 792.731L81.6523 792.747C81.6523 792.747 84.2021 792.965 86.2833 794.26C88.3645 795.556 89.9771 797.929 89.9771 797.929L141.883 887.802C141.883 887.802 143.561 891.022 143.558 893.648C143.556 895.216 142.955 896.571 142.472 897.409Z" fill="#00FF64"/>
</g>
<g opacity="0.43">
<path opacity="0.43" d="M142.466 501.572C142.929 500.77 143.897 499.313 145.181 498.56C146.809 497.606 149.257 497.633 150.063 497.725L150.119 497.731L150.175 497.731L254.604 497.747C254.904 497.779 257.039 498.041 258.756 499.109C260.514 500.204 261.954 502.211 262.133 502.465L314.006 592.28C314.13 592.524 315.561 595.394 315.559 597.647C315.557 598.983 315.04 600.158 314.607 600.909C314.333 601.383 314.104 601.666 314.101 601.669L314.047 601.733L314.007 601.804L262.4 691.191C262.18 691.49 260.531 693.677 258.504 694.86C256.477 696.045 253.945 696.293 253.644 696.318L149.296 696.302C149.11 696.293 146.957 696.158 145.29 695.105C143.562 694.013 142.227 691.883 142.139 691.742L90.427 602.205L90.4022 602.162L90.3734 602.122C90.3564 602.098 88.575 599.568 88.6242 597C88.662 595.031 89.7887 592.874 90.2714 592.038C90.4746 591.686 90.6149 591.476 90.6163 591.474L90.6354 591.446L90.6531 591.415L141.955 502.558L141.983 502.509L142.006 502.457C142.007 502.454 142.168 502.088 142.466 501.572Z" fill="url(#paint21_linear_306_12)"/>
<path opacity="0.43" d="M313.741 600.409C314.113 599.764 314.558 598.761 314.559 597.646C314.561 595.935 313.543 593.573 313.128 592.76L261.29 503.004C261.064 502.687 259.757 500.91 258.227 499.958C256.768 499.05 254.93 498.792 254.548 498.747L150.063 498.731L149.951 498.718C149.285 498.643 147.072 498.611 145.686 499.423C144.882 499.894 144.046 500.835 143.332 502.072C143.079 502.51 142.936 502.826 142.922 502.857L142.881 502.954L91.4861 591.973L91.4465 592.031C91.4453 592.033 91.3201 592.221 91.1373 592.537C90.6934 593.306 89.6573 595.282 89.624 597.019C89.582 599.209 91.1246 601.451 91.1878 601.541L91.2399 601.613L91.2929 601.705L142.998 691.23C143.361 691.815 144.54 693.448 145.824 694.259C147.224 695.144 149.074 695.287 149.324 695.302L253.6 695.318C253.971 695.283 256.225 695.033 258 693.997C259.784 692.954 261.281 691.018 261.562 690.642L313.141 601.304L313.215 601.167L313.329 601.033C313.359 600.995 313.533 600.768 313.741 600.409ZM315.473 601.409C315.146 601.974 314.873 602.304 314.873 602.304L263.239 691.736C263.239 691.736 261.398 694.328 259.008 695.724C256.619 697.119 253.683 697.318 253.683 697.318L149.273 697.302C149.273 697.302 146.754 697.212 144.756 695.95C142.757 694.688 141.28 692.253 141.28 692.253L89.5609 602.705C89.5609 602.705 87.5678 599.928 87.6243 596.98C87.6808 594.033 89.787 590.915 89.787 590.915L141.089 502.058C141.089 502.058 142.403 499.029 144.675 497.698C146.946 496.366 150.175 496.731 150.175 496.731L254.653 496.747C254.653 496.747 257.203 496.965 259.284 498.26C261.366 499.556 262.978 501.929 262.978 501.929L314.884 591.802C314.884 591.802 316.562 595.022 316.559 597.648C316.557 599.216 315.956 600.571 315.473 601.409Z" fill="#00FF64"/>
</g>
<g opacity="0.43">
<path opacity="0.43" d="M-30.534 206.572C-30.0712 205.77 -29.1031 204.313 -27.8193 203.56C-26.1914 202.606 -23.7429 202.633 -22.9368 202.725L-22.8809 202.731L-22.8247 202.731L81.6037 202.747C81.9037 202.779 84.0391 203.041 85.7559 204.109C87.5139 205.204 88.9543 207.211 89.133 207.465L141.006 297.28C141.13 297.524 142.561 300.394 142.559 302.647C142.557 303.983 142.04 305.158 141.607 305.909C141.333 306.383 141.104 306.666 141.101 306.669L141.047 306.733L141.007 306.804L89.3996 396.191C89.18 396.49 87.5306 398.677 85.5042 399.86C83.4767 401.045 80.9446 401.293 80.6435 401.318L-23.7043 401.302C-23.8897 401.293 -26.0435 401.158 -27.7103 400.105C-29.4383 399.013 -30.7733 396.883 -30.8606 396.742L-82.573 307.205L-82.5978 307.162L-82.6266 307.122C-82.6436 307.098 -84.425 304.568 -84.3758 302C-84.338 300.031 -83.2113 297.874 -82.7286 297.038C-82.5254 296.686 -82.3851 296.476 -82.3837 296.474L-82.3646 296.446L-82.3469 296.415L-31.0453 207.558L-31.0167 207.509L-30.994 207.457C-30.9929 207.454 -30.8319 207.088 -30.534 206.572Z" fill="url(#paint22_linear_306_12)"/>
<path opacity="0.43" d="M140.741 305.409C141.113 304.764 141.558 303.761 141.559 302.646C141.561 300.935 140.543 298.573 140.128 297.76L88.2895 208.004C88.0636 207.687 86.7569 205.91 85.2273 204.958C83.7684 204.05 81.9298 203.792 81.5478 203.747L-22.9375 203.731L-23.0492 203.718C-23.7153 203.643 -25.9283 203.611 -27.3137 204.423C-28.118 204.894 -28.9541 205.835 -29.668 207.072C-29.921 207.51 -30.0637 207.826 -30.0779 207.857L-30.1193 207.954L-81.5139 296.973L-81.5535 297.031C-81.5547 297.033 -81.6799 297.221 -81.8627 297.537C-82.3066 298.306 -83.3427 300.282 -83.376 302.019C-83.418 304.209 -81.8754 306.451 -81.8122 306.541L-81.7601 306.613L-81.7071 306.705L-30.0016 396.23C-29.6394 396.815 -28.4604 398.448 -27.1764 399.259C-25.7759 400.144 -23.9259 400.287 -23.6763 400.302L80.6001 400.318C80.971 400.283 83.2253 400.033 84.9997 398.997C86.7842 397.954 88.2807 396.018 88.5618 395.642L140.141 306.304L140.215 306.167L140.329 306.033C140.359 305.995 140.533 305.768 140.741 305.409ZM142.473 306.409C142.146 306.974 141.873 307.304 141.873 307.304L90.2394 396.736C90.2394 396.736 88.3976 399.328 86.0084 400.724C83.6193 402.119 80.6828 402.318 80.6828 402.318L-23.7274 402.302C-23.7274 402.302 -26.2463 402.212 -28.2445 400.95C-30.2426 399.688 -31.72 397.253 -31.72 397.253L-83.4391 307.705C-83.4391 307.705 -85.4322 304.928 -85.3757 301.98C-85.3192 299.033 -83.213 295.915 -83.213 295.915L-31.9114 207.058C-31.9114 207.058 -30.5969 204.029 -28.3252 202.698C-26.0535 201.366 -22.8246 201.731 -22.8246 201.731L81.6533 201.747C81.6533 201.747 84.2031 201.965 86.2843 203.26C88.3655 204.556 89.9781 206.929 89.9781 206.929L141.884 296.802C141.884 296.802 143.562 300.022 143.559 302.648C143.557 304.216 142.956 305.571 142.473 306.409Z" fill="#00FF64"/>
</g>
<g opacity="0.43">
<path opacity="0.43" d="M-30.534 403.572C-30.0712 402.77 -29.1031 401.313 -27.8193 400.56C-26.1914 399.606 -23.7429 399.633 -22.9368 399.725L-22.8809 399.731L-22.8247 399.731L81.6037 399.747C81.9037 399.779 84.0391 400.041 85.7559 401.109C87.5139 402.204 88.9543 404.211 89.133 404.465L141.006 494.28C141.13 494.524 142.561 497.394 142.559 499.647C142.557 500.983 142.04 502.158 141.607 502.909C141.333 503.383 141.104 503.666 141.101 503.669L141.047 503.733L141.007 503.804L89.3996 593.191C89.18 593.49 87.5306 595.677 85.5042 596.86C83.4767 598.045 80.9446 598.293 80.6435 598.318L-23.7043 598.302C-23.8897 598.293 -26.0435 598.158 -27.7103 597.105C-29.4383 596.013 -30.7733 593.883 -30.8606 593.742L-82.573 504.205L-82.5978 504.162L-82.6266 504.122C-82.6436 504.098 -84.425 501.568 -84.3758 499C-84.338 497.031 -83.2113 494.874 -82.7286 494.038C-82.5254 493.686 -82.3851 493.476 -82.3837 493.474L-82.3646 493.446L-82.3469 493.415L-31.0453 404.558L-31.0167 404.509L-30.994 404.457C-30.9929 404.454 -30.8319 404.088 -30.534 403.572Z" fill="url(#paint23_linear_306_12)"/>
<path opacity="0.43" d="M140.741 502.409C141.113 501.764 141.558 500.761 141.559 499.646C141.561 497.935 140.543 495.573 140.128 494.76L88.2895 405.004C88.0636 404.687 86.7569 402.91 85.2273 401.958C83.7684 401.05 81.9298 400.792 81.5478 400.747L-22.9375 400.731L-23.0492 400.718C-23.7153 400.643 -25.9283 400.611 -27.3137 401.423C-28.118 401.894 -28.9541 402.835 -29.668 404.072C-29.921 404.51 -30.0637 404.826 -30.0779 404.857L-30.1193 404.954L-81.5139 493.973L-81.5535 494.031C-81.5547 494.033 -81.6799 494.221 -81.8627 494.537C-82.3066 495.306 -83.3427 497.282 -83.376 499.019C-83.418 501.209 -81.8754 503.451 -81.8122 503.541L-81.7601 503.613L-81.7071 503.705L-30.0016 593.23C-29.6394 593.815 -28.4604 595.448 -27.1764 596.259C-25.7759 597.144 -23.9259 597.287 -23.6763 597.302L80.6001 597.318C80.971 597.283 83.2253 597.033 84.9997 595.997C86.7842 594.954 88.2807 593.018 88.5618 592.642L140.141 503.304L140.215 503.167L140.329 503.033C140.359 502.995 140.533 502.768 140.741 502.409ZM142.473 503.409C142.146 503.974 141.873 504.304 141.873 504.304L90.2394 593.736C90.2394 593.736 88.3976 596.328 86.0084 597.724C83.6193 599.119 80.6828 599.318 80.6828 599.318L-23.7274 599.302C-23.7274 599.302 -26.2463 599.212 -28.2445 597.95C-30.2426 596.688 -31.72 594.253 -31.72 594.253L-83.4391 504.705C-83.4391 504.705 -85.4322 501.928 -85.3757 498.98C-85.3192 496.033 -83.213 492.915 -83.213 492.915L-31.9114 404.058C-31.9114 404.058 -30.5969 401.029 -28.3252 399.698C-26.0535 398.366 -22.8246 398.731 -22.8246 398.731L81.6533 398.747C81.6533 398.747 84.2031 398.965 86.2843 400.26C88.3655 401.556 89.9781 403.929 89.9781 403.929L141.884 493.802C141.884 493.802 143.562 497.022 143.559 499.648C143.557 501.216 142.956 502.571 142.473 503.409Z" fill="#00FF64"/>
</g>
<g opacity="0.43">
<path opacity="0.43" d="M315.466 403.572C315.929 402.77 316.897 401.313 318.181 400.56C319.809 399.606 322.257 399.633 323.063 399.725L323.119 399.731L323.175 399.731L427.604 399.747C427.904 399.779 430.039 400.041 431.756 401.109C433.514 402.204 434.954 404.211 435.133 404.465L487.006 494.28C487.13 494.524 488.561 497.394 488.559 499.647C488.557 500.983 488.04 502.158 487.607 502.909C487.333 503.383 487.104 503.666 487.101 503.669L487.047 503.733L487.007 503.804L435.4 593.191C435.18 593.49 433.531 595.677 431.504 596.86C429.477 598.045 426.945 598.293 426.644 598.318L322.296 598.302C322.11 598.293 319.957 598.158 318.29 597.105C316.562 596.013 315.227 593.883 315.139 593.742L263.427 504.205L263.402 504.162L263.373 504.122C263.356 504.098 261.575 501.568 261.624 499C261.662 497.031 262.789 494.874 263.271 494.038C263.475 493.686 263.615 493.476 263.616 493.474L263.635 493.446L263.653 493.415L314.955 404.558L314.983 404.509L315.006 404.457C315.007 404.454 315.168 404.088 315.466 403.572Z" fill="url(#paint24_linear_306_12)"/>
<path opacity="0.43" d="M486.741 502.409C487.113 501.764 487.558 500.761 487.559 499.646C487.561 497.935 486.543 495.573 486.128 494.76L434.29 405.004C434.064 404.687 432.757 402.91 431.227 401.958C429.768 401.05 427.93 400.792 427.548 400.747L323.063 400.731L322.951 400.718C322.285 400.643 320.072 400.611 318.686 401.423C317.882 401.894 317.046 402.835 316.332 404.072C316.079 404.51 315.936 404.826 315.922 404.857L315.881 404.954L264.486 493.973L264.447 494.031C264.445 494.033 264.32 494.221 264.137 494.537C263.693 495.306 262.657 497.282 262.624 499.019C262.582 501.209 264.125 503.451 264.188 503.541L264.24 503.613L264.293 503.705L315.998 593.23C316.361 593.815 317.54 595.448 318.824 596.259C320.224 597.144 322.074 597.287 322.324 597.302L426.6 597.318C426.971 597.283 429.225 597.033 431 595.997C432.784 594.954 434.281 593.018 434.562 592.642L486.141 503.304L486.215 503.167L486.329 503.033C486.359 502.995 486.533 502.768 486.741 502.409ZM488.473 503.409C488.146 503.974 487.873 504.304 487.873 504.304L436.239 593.736C436.239 593.736 434.398 596.328 432.008 597.724C429.619 599.119 426.683 599.318 426.683 599.318L322.273 599.302C322.273 599.302 319.754 599.212 317.756 597.95C315.757 596.688 314.28 594.253 314.28 594.253L262.561 504.705C262.561 504.705 260.568 501.928 260.624 498.98C260.681 496.033 262.787 492.915 262.787 492.915L314.089 404.058C314.089 404.058 315.403 401.029 317.675 399.698C319.946 398.366 323.175 398.731 323.175 398.731L427.653 398.747C427.653 398.747 430.203 398.965 432.284 400.26C434.366 401.556 435.978 403.929 435.978 403.929L487.884 493.802C487.884 493.802 489.562 497.022 489.559 499.648C489.557 501.216 488.956 502.571 488.473 503.409Z" fill="#00FF64"/>
</g>
<g opacity="0.43">
<path opacity="0.43" d="M-30.534 8.57189C-30.0712 7.77027 -29.1031 6.31309 -27.8193 5.56046C-26.1914 4.60603 -23.7429 4.63347 -22.9368 4.72461L-22.8809 4.73094L-22.8247 4.73092L81.6037 4.74691C81.9037 4.77909 84.0391 5.0407 85.7559 6.10946C87.5139 7.20382 88.9543 9.21068 89.133 9.46541L141.006 99.2803C141.13 99.524 142.561 102.394 142.559 104.647C142.557 105.983 142.04 107.158 141.607 107.909C141.333 108.383 141.104 108.666 141.101 108.669L141.047 108.733L141.007 108.804L89.3996 198.191C89.18 198.49 87.5306 200.677 85.5042 201.86C83.4767 203.045 80.9446 203.293 80.6435 203.318L-23.7043 203.302C-23.8897 203.293 -26.0435 203.158 -27.7103 202.105C-29.4383 201.013 -30.7733 198.883 -30.8606 198.742L-82.573 109.205L-82.5978 109.162L-82.6266 109.122C-82.6436 109.098 -84.425 106.568 -84.3758 104C-84.338 102.031 -83.2113 99.8736 -82.7286 99.0375C-82.5254 98.6855 -82.3851 98.4764 -82.3837 98.4743L-82.3646 98.4459L-82.3469 98.4154L-31.0453 9.55832L-31.0167 9.50888L-30.994 9.45651C-30.9929 9.4542 -30.8319 9.08792 -30.534 8.57189Z" fill="url(#paint25_linear_306_12)"/>
<path opacity="0.43" d="M140.741 107.409C141.113 106.764 141.558 105.761 141.559 104.646C141.561 102.935 140.543 100.573 140.128 99.7603L88.2895 10.0044C88.0636 9.68745 86.7569 7.91037 85.2273 6.95821C83.7684 6.04995 81.9298 5.79199 81.5478 5.74675L-22.9375 5.73073L-23.0492 5.71807C-23.7153 5.64279 -25.9283 5.61068 -27.3137 6.42293C-28.118 6.89445 -28.9541 7.83515 -29.668 9.07172C-29.921 9.5099 -30.0637 9.82551 -30.0779 9.85726L-30.1193 9.95412L-81.5139 98.9729L-81.5535 99.0314C-81.5547 99.0332 -81.6799 99.2208 -81.8627 99.5374C-82.3066 100.306 -83.3427 102.282 -83.376 104.019C-83.418 106.209 -81.8754 108.451 -81.8122 108.541L-81.7601 108.613L-81.7071 108.705L-30.0016 198.23C-29.6394 198.815 -28.4604 200.448 -27.1764 201.259C-25.7759 202.144 -23.9259 202.287 -23.6763 202.302L80.6001 202.318C80.971 202.283 83.2253 202.033 84.9997 200.997C86.7842 199.954 88.2807 198.018 88.5618 197.642L140.141 108.304L140.215 108.167L140.329 108.033C140.359 107.995 140.533 107.768 140.741 107.409ZM142.473 108.409C142.146 108.974 141.873 109.304 141.873 109.304L90.2394 198.736C90.2394 198.736 88.3976 201.328 86.0084 202.724C83.6193 204.119 80.6828 204.318 80.6828 204.318L-23.7274 204.302C-23.7274 204.302 -26.2463 204.212 -28.2445 202.95C-30.2426 201.688 -31.72 199.253 -31.72 199.253L-83.4391 109.705C-83.4391 109.705 -85.4322 106.928 -85.3757 103.98C-85.3192 101.033 -83.213 97.9152 -83.213 97.9152L-31.9114 9.05813C-31.9114 9.05812 -30.5969 6.02942 -28.3252 4.69757C-26.0535 3.36573 -22.8246 3.73073 -22.8246 3.73073L81.6533 3.74675C81.6533 3.74675 84.2031 3.96472 86.2843 5.2603C88.3655 6.55592 89.9781 8.92912 89.9781 8.92912L141.884 98.8018C141.884 98.8018 143.562 102.022 143.559 104.648C143.557 106.216 142.956 107.571 142.473 108.409Z" fill="#00FF64"/>
</g>
<g opacity="0.43">
<path opacity="0.43" d="M-32.2603 206.409C-31.8877 205.764 -31.4434 204.761 -31.4422 203.646C-31.4404 201.935 -32.4578 199.573 -32.8726 198.76L-84.7115 109.004C-84.9374 108.687 -86.2441 106.91 -87.7736 105.958C-89.2326 105.05 -91.0712 104.792 -91.4532 104.747L-195.938 104.731L-196.05 104.718C-196.716 104.643 -198.929 104.611 -200.315 105.423C-201.119 105.894 -201.955 106.835 -202.669 108.072C-202.922 108.51 -203.065 108.826 -203.079 108.857L-203.12 108.954L-254.515 197.973L-254.554 198.031C-254.556 198.033 -254.681 198.221 -254.864 198.537C-255.308 199.306 -256.344 201.282 -256.377 203.019C-256.419 205.209 -254.876 207.451 -254.813 207.541L-254.761 207.613L-254.708 207.705L-203.003 297.23C-202.64 297.815 -201.461 299.448 -200.177 300.259C-198.777 301.144 -196.927 301.287 -196.677 301.302L-92.4008 301.318C-92.0299 301.283 -89.7757 301.033 -88.0013 299.997C-86.2167 298.954 -84.7202 297.018 -84.4392 296.642L-32.8597 207.304L-32.7863 207.167L-32.6718 207.033C-32.6421 206.995 -32.4678 206.768 -32.2603 206.409ZM-30.5282 207.409C-30.8546 207.974 -31.1277 208.304 -31.1277 208.304L-82.7616 297.736C-82.7616 297.736 -84.6034 300.328 -86.9926 301.724C-89.3817 303.119 -92.3182 303.318 -92.3182 303.318L-196.728 303.302C-196.728 303.302 -199.247 303.212 -201.245 301.95C-203.244 300.688 -204.721 298.253 -204.721 298.253L-256.44 208.705C-256.44 208.705 -258.433 205.928 -258.377 202.98C-258.32 200.033 -256.214 196.915 -256.214 196.915L-204.912 108.058C-204.912 108.058 -203.598 105.029 -201.326 103.698C-199.054 102.366 -195.826 102.731 -195.826 102.731L-91.3477 102.747C-91.3477 102.747 -88.7979 102.965 -86.7167 104.26C-84.6355 105.556 -83.0229 107.929 -83.0229 107.929L-31.1166 197.802C-31.1166 197.802 -29.4394 201.022 -29.4422 203.648C-29.4439 205.216 -30.0445 206.571 -30.5282 207.409Z" fill="#00FF64"/>
</g>
<g opacity="0.43">
<path opacity="0.43" d="M-32.2603 403.409C-31.8877 402.764 -31.4434 401.761 -31.4422 400.646C-31.4404 398.935 -32.4578 396.573 -32.8726 395.76L-84.7115 306.004C-84.9374 305.687 -86.2441 303.91 -87.7736 302.958C-89.2326 302.05 -91.0712 301.792 -91.4532 301.747L-195.938 301.731L-196.05 301.718C-196.716 301.643 -198.929 301.611 -200.315 302.423C-201.119 302.894 -201.955 303.835 -202.669 305.072C-202.922 305.51 -203.065 305.826 -203.079 305.857L-203.12 305.954L-254.515 394.973L-254.554 395.031C-254.556 395.033 -254.681 395.221 -254.864 395.537C-255.308 396.306 -256.344 398.282 -256.377 400.019C-256.419 402.209 -254.876 404.451 -254.813 404.541L-254.761 404.613L-254.708 404.705L-203.003 494.23C-202.64 494.815 -201.461 496.448 -200.177 497.259C-198.777 498.144 -196.927 498.287 -196.677 498.302L-92.4008 498.318C-92.0299 498.283 -89.7757 498.033 -88.0013 496.997C-86.2167 495.954 -84.7202 494.018 -84.4392 493.642L-32.8597 404.304L-32.7863 404.167L-32.6718 404.033C-32.6421 403.995 -32.4678 403.768 -32.2603 403.409ZM-30.5282 404.409C-30.8546 404.974 -31.1277 405.304 -31.1277 405.304L-82.7616 494.736C-82.7616 494.736 -84.6034 497.328 -86.9926 498.724C-89.3817 500.119 -92.3182 500.318 -92.3182 500.318L-196.728 500.302C-196.728 500.302 -199.247 500.212 -201.245 498.95C-203.244 497.688 -204.721 495.253 -204.721 495.253L-256.44 405.705C-256.44 405.705 -258.433 402.928 -258.377 399.98C-258.32 397.033 -256.214 393.915 -256.214 393.915L-204.912 305.058C-204.912 305.058 -203.598 302.029 -201.326 300.698C-199.054 299.366 -195.826 299.731 -195.826 299.731L-91.3477 299.747C-91.3477 299.747 -88.7979 299.965 -86.7167 301.26C-84.6355 302.556 -83.0229 304.929 -83.0229 304.929L-31.1166 394.802C-31.1166 394.802 -29.4394 398.022 -29.4422 400.648C-29.4439 402.216 -30.0445 403.571 -30.5282 404.409Z" fill="#00FF64"/>
</g>
</g>
<defs>
<linearGradient id="paint0_linear_306_12" x1="461.106" y1="548.808" x2="288.986" y2="449.435" gradientUnits="userSpaceOnUse">
<stop stop-color="#246A3F" stop-opacity="0.455"/>
<stop offset="1" stop-color="#2FDD71"/>
</linearGradient>
<linearGradient id="paint1_linear_306_12" x1="115.106" y1="351.808" x2="-57.0139" y2="252.435" gradientUnits="userSpaceOnUse">
<stop stop-color="#246A3F" stop-opacity="0.455"/>
<stop offset="1" stop-color="#2FDD71"/>
</linearGradient>
<linearGradient id="paint2_linear_306_12" x1="115.106" y1="351.808" x2="-57.0139" y2="252.435" gradientUnits="userSpaceOnUse">
<stop stop-color="#246A3F" stop-opacity="0.455"/>
<stop offset="1" stop-color="#2FDD71"/>
</linearGradient>
<linearGradient id="paint3_linear_306_12" x1="634.107" y1="844.808" x2="461.987" y2="745.435" gradientUnits="userSpaceOnUse">
<stop stop-color="#246A3F"/>
<stop offset="1" stop-color="#2FDD71"/>
</linearGradient>
<linearGradient id="paint4_linear_306_12" x1="115.106" y1="153.808" x2="-57.0139" y2="54.4348" gradientUnits="userSpaceOnUse">
<stop stop-color="#246A3F" stop-opacity="0.455"/>
<stop offset="1" stop-color="#2FDD71"/>
</linearGradient>
<linearGradient id="paint5_linear_306_12" x1="461.106" y1="548.808" x2="288.986" y2="449.435" gradientUnits="userSpaceOnUse">
<stop stop-color="#246A3F" stop-opacity="0.455"/>
<stop offset="1" stop-color="#2FDD71"/>
</linearGradient>
<linearGradient id="paint6_linear_306_12" x1="461.106" y1="745.808" x2="288.986" y2="646.435" gradientUnits="userSpaceOnUse">
<stop stop-color="#246A3F" stop-opacity="0.455"/>
<stop offset="1" stop-color="#2FDD71"/>
</linearGradient>
<linearGradient id="paint7_linear_306_12" x1="461.106" y1="942.808" x2="288.986" y2="843.435" gradientUnits="userSpaceOnUse">
<stop stop-color="#246A3F" stop-opacity="0.455"/>
<stop offset="1" stop-color="#2FDD71"/>
</linearGradient>
<linearGradient id="paint8_linear_306_12" x1="288.106" y1="646.808" x2="115.986" y2="547.435" gradientUnits="userSpaceOnUse">
<stop stop-color="#246A3F" stop-opacity="0.455"/>
<stop offset="1" stop-color="#2FDD71"/>
</linearGradient>
<linearGradient id="paint9_linear_306_12" x1="115.106" y1="548.808" x2="-57.0139" y2="449.435" gradientUnits="userSpaceOnUse">
<stop stop-color="#246A3F" stop-opacity="0.455"/>
<stop offset="1" stop-color="#2FDD71"/>
</linearGradient>
<linearGradient id="paint10_linear_306_12" x1="115.106" y1="548.808" x2="-57.0139" y2="449.435" gradientUnits="userSpaceOnUse">
<stop stop-color="#246A3F" stop-opacity="0.455"/>
<stop offset="1" stop-color="#2FDD71"/>
</linearGradient>
<linearGradient id="paint11_linear_306_12" x1="115.106" y1="745.808" x2="-57.0139" y2="646.435" gradientUnits="userSpaceOnUse">
<stop stop-color="#246A3F" stop-opacity="0.455"/>
<stop offset="1" stop-color="#2FDD71"/>
</linearGradient>
<linearGradient id="paint12_linear_306_12" x1="634.107" y1="844.808" x2="461.987" y2="745.435" gradientUnits="userSpaceOnUse">
<stop stop-color="#246A3F"/>
<stop offset="1" stop-color="#2FDD71"/>
</linearGradient>
<linearGradient id="paint13_linear_306_12" x1="288.106" y1="252.808" x2="115.986" y2="153.435" gradientUnits="userSpaceOnUse">
<stop stop-color="#246A3F" stop-opacity="0.455"/>
<stop offset="1" stop-color="#2FDD71"/>
</linearGradient>
<linearGradient id="paint14_linear_306_12" x1="288.106" y1="449.808" x2="115.986" y2="350.435" gradientUnits="userSpaceOnUse">
<stop stop-color="#246A3F" stop-opacity="0.455"/>
<stop offset="1" stop-color="#2FDD71"/>
</linearGradient>
<linearGradient id="paint15_linear_306_12" x1="461.106" y1="745.808" x2="288.986" y2="646.435" gradientUnits="userSpaceOnUse">
<stop stop-color="#246A3F" stop-opacity="0.455"/>
<stop offset="1" stop-color="#2FDD71"/>
</linearGradient>
<linearGradient id="paint16_linear_306_12" x1="288.106" y1="843.808" x2="115.986" y2="744.435" gradientUnits="userSpaceOnUse">
<stop stop-color="#246A3F" stop-opacity="0.455"/>
<stop offset="1" stop-color="#2FDD71"/>
</linearGradient>
<linearGradient id="paint17_linear_306_12" x1="461.106" y1="942.808" x2="288.986" y2="843.435" gradientUnits="userSpaceOnUse">
<stop stop-color="#246A3F" stop-opacity="0.455"/>
<stop offset="1" stop-color="#2FDD71"/>
</linearGradient>
<linearGradient id="paint18_linear_306_12" x1="115.106" y1="745.808" x2="-57.0139" y2="646.435" gradientUnits="userSpaceOnUse">
<stop stop-color="#246A3F" stop-opacity="0.455"/>
<stop offset="1" stop-color="#2FDD71"/>
</linearGradient>
<linearGradient id="paint19_linear_306_12" x1="115.106" y1="942.808" x2="-57.0139" y2="843.435" gradientUnits="userSpaceOnUse">
<stop stop-color="#246A3F" stop-opacity="0.455"/>
<stop offset="1" stop-color="#2FDD71"/>
</linearGradient>
<linearGradient id="paint20_linear_306_12" x1="115.106" y1="942.808" x2="-57.0139" y2="843.435" gradientUnits="userSpaceOnUse">
<stop stop-color="#246A3F" stop-opacity="0.455"/>
<stop offset="1" stop-color="#2FDD71"/>
</linearGradient>
<linearGradient id="paint21_linear_306_12" x1="288.107" y1="646.808" x2="115.987" y2="547.435" gradientUnits="userSpaceOnUse">
<stop stop-color="#246A3F"/>
<stop offset="1" stop-color="#2FDD71"/>
</linearGradient>
<linearGradient id="paint22_linear_306_12" x1="115.107" y1="351.808" x2="-57.0129" y2="252.435" gradientUnits="userSpaceOnUse">
<stop stop-color="#246A3F"/>
<stop offset="1" stop-color="#2FDD71"/>
</linearGradient>
<linearGradient id="paint23_linear_306_12" x1="115.107" y1="548.808" x2="-57.0129" y2="449.435" gradientUnits="userSpaceOnUse">
<stop stop-color="#246A3F"/>
<stop offset="1" stop-color="#2FDD71"/>
</linearGradient>
<linearGradient id="paint24_linear_306_12" x1="461.107" y1="548.808" x2="288.987" y2="449.435" gradientUnits="userSpaceOnUse">
<stop stop-color="#246A3F"/>
<stop offset="1" stop-color="#2FDD71"/>
</linearGradient>
<linearGradient id="paint25_linear_306_12" x1="115.107" y1="153.808" x2="-57.0129" y2="54.4348" gradientUnits="userSpaceOnUse">
<stop stop-color="#246A3F" stop-opacity="0.455"/>
<stop offset="1" stop-color="#2FDD71"/>
</linearGradient>
<clipPath id="clip0_306_12">
<rect width="666" height="845" fill="white"/>
</clipPath>
</defs>
</svg>
