<svg xmlns="http://www.w3.org/2000/svg" width="14.166" height="14.168" viewBox="0 0 14.166 14.168">
  <g id="Icon_ionic-ios-chatboxes" data-name="Icon ionic-ios-chatboxes" transform="translate(-3.375 -3.375)">
    <path id="Path_190" data-name="Path 190" d="M20.532,11.981H12.984a1.3,1.3,0,0,0-1.3,1.3v5.256a1.3,1.3,0,0,0,1.3,1.294H17.3a.372.372,0,0,1,.259.109l2.146,1.979c.119.116.317.068.317-.1V20.095c0-.2.129-.269.334-.269h.034a1.418,1.418,0,0,0,1.434-1.294V13.279A1.292,1.292,0,0,0,20.532,11.981Z" transform="translate(-4.285 -4.437)" fill="#00ab00"/>
    <path id="Path_191" data-name="Path 191" d="M7.68,6.71h6.042V4.485a1.111,1.111,0,0,0-1.11-1.11H4.485a1.111,1.111,0,0,0-1.11,1.11v5.627a1.111,1.111,0,0,0,1.11,1.11H6.567V7.82A1.116,1.116,0,0,1,7.68,6.71Z" transform="translate(0 0)" fill="#00ab00"/>
  </g>
</svg>
