<svg width="426" height="278" viewBox="0 0 426 278" fill="none" xmlns="http://www.w3.org/2000/svg">
<g clip-path="url(#clip0_306_117)">
<g opacity="0.43">
<path opacity="0.43" d="M274.191 270.447C272.546 271.358 270.897 272.099 269.289 272.649C267.124 273.389 265.102 273.754 263.279 273.734C256.818 273.664 250.343 268.761 250.278 268.712L250.234 268.678L250.185 268.649L16.6443 128.269C16.2099 127.945 11.3108 124.225 8.65813 119.04C5.97562 113.797 5.47365 106.847 5.43846 106.307L10.1256 -164.313C10.1579 -164.79 10.8047 -173.699 14.0934 -179.159C16.0747 -182.448 19.0532 -184.559 21.2031 -185.751C22.5888 -186.519 23.5833 -186.874 23.5931 -186.878L23.6716 -186.906L23.7455 -186.946L259.305 -317.513C259.906 -317.769 267.024 -320.726 273.669 -320.644C280.332 -320.561 286.777 -317.412 287.248 -317.177L520.627 -176.894C520.909 -176.707 525.998 -173.269 528.55 -168.198C531.14 -163.053 531.245 -156.001 531.248 -155.717L526.577 113.977L526.576 114.027L526.58 114.076C526.582 114.097 526.75 116.272 526.43 119.188C526.138 121.841 525.371 125.673 523.369 128.864C522.128 130.842 520.28 132.806 517.876 134.701C515.819 136.322 513.783 137.552 512.436 138.298C511.45 138.845 510.816 139.142 510.809 139.145L510.778 139.159L510.747 139.176L276.66 268.928L276.61 268.955L276.563 268.989C276.554 268.995 275.644 269.641 274.191 270.447Z" fill="url(#paint0_linear_306_117)"/>
<path opacity="0.43" d="M21.6879 -184.876C19.6448 -183.743 16.8174 -181.743 14.9503 -178.643C11.8262 -173.456 11.171 -164.919 11.1255 -164.271L6.43953 106.283C6.49003 107.016 7.00963 113.622 9.54867 118.585C12.0403 123.454 16.6285 127.005 17.2022 127.437L250.797 267.849L250.887 267.918C250.949 267.965 257.158 272.668 263.289 272.734C267.31 272.777 271.542 270.771 273.706 269.572C275.101 268.799 275.975 268.18 275.982 268.175L276.075 268.108L510.324 138.268L510.386 138.238C510.392 138.236 511.002 137.95 511.951 137.423C513.265 136.695 515.252 135.495 517.257 133.915C519.57 132.092 521.341 130.214 522.521 128.333C526.193 122.479 525.589 114.238 525.583 114.158L525.575 114.059L525.576 113.96L530.247 -155.722C530.242 -156.135 530.111 -162.873 527.657 -167.748C525.259 -172.512 520.468 -175.796 520.093 -176.048L286.765 -316.3C286.127 -316.615 280.001 -319.564 273.656 -319.643C267.347 -319.722 260.545 -316.949 259.743 -316.612L24.0879 -185.99L23.9269 -185.934C23.888 -185.92 22.967 -185.585 21.6879 -184.876ZM20.718 -186.626C22.2072 -187.451 23.2606 -187.821 23.2606 -187.821L258.864 -318.413C258.864 -318.413 266.464 -321.733 273.681 -321.644C280.898 -321.554 287.731 -318.054 287.731 -318.054L521.161 -177.74C521.161 -177.74 526.672 -174.155 529.444 -168.648C532.216 -163.141 532.248 -155.713 532.248 -155.713L527.577 113.995C527.577 113.995 528.303 122.882 524.216 129.396C520.13 135.91 511.232 140.052 511.232 140.052L277.145 269.803C277.145 269.803 270.136 274.809 263.268 274.735C256.399 274.661 249.67 269.506 249.67 269.506L16.0884 129.102C16.0884 129.102 10.6802 125.189 7.76739 119.496C4.85472 113.803 4.43751 106.33 4.43751 106.33L9.12579 -164.354C9.12579 -164.354 9.70278 -173.808 13.2364 -179.675C15.3464 -183.178 18.5108 -185.402 20.718 -186.626Z" fill="#00FF64"/>
</g>
</g>
<defs>
<linearGradient id="paint0_linear_306_117" x1="142.121" y1="-252.774" x2="395.013" y2="203.476" gradientUnits="userSpaceOnUse">
<stop stop-color="#246A3F"/>
<stop offset="1" stop-color="#27633E"/>
</linearGradient>
<clipPath id="clip0_306_117">
<rect width="426" height="278" fill="white"/>
</clipPath>
</defs>
</svg>
