<svg width="140" height="673" viewBox="0 0 140 673" fill="none" xmlns="http://www.w3.org/2000/svg">
<g clip-path="url(#clip0_306_107)">
<g opacity="0.28">
<path d="M240.947 509.261L21.453 382.61C21.453 382.61 13.339 379.301 8.59998 372.48C3.86098 365.659 2.49988 355.328 2.49988 355.328L2.62 99.208C2.62 99.208 4.33178 90.129 8.75378 83.896C11.8309 79.8601 15.78 76.5713 20.306 74.275L240.044 -51.832" fill="url(#paint0_linear_306_107)"/>
<path d="M240.947 509.261L21.453 382.61C21.453 382.61 13.339 379.301 8.59998 372.48C3.86098 365.659 2.49988 355.328 2.49988 355.328L2.62 99.208C2.62 99.208 4.33178 90.129 8.75378 83.896C11.8309 79.8601 15.78 76.5713 20.306 74.275L240.044 -51.832" stroke="#10BD53" stroke-width="5"/>
</g>
<path opacity="0.28" d="M396.388 819.028L110.217 653.904C110.217 653.904 99.638 649.59 93.46 640.697C87.282 631.804 85.5068 618.334 85.5068 618.334L85.6631 284.41C85.6631 284.41 87.8951 272.573 93.6631 264.447C99.4311 256.321 108.725 251.903 108.725 251.903L395.215 87.4883" stroke="#10BD53" stroke-width="5"/>
<path d="M85.507 432.939C92.9628 432.939 99.007 426.895 99.007 419.439C99.007 411.984 92.9628 405.939 85.507 405.939C78.0511 405.939 72.007 411.984 72.007 419.439C72.007 426.895 78.0511 432.939 85.507 432.939Z" fill="#0FB550"/>
<path d="M85.507 432.439C92.6867 432.439 98.507 426.619 98.507 419.439C98.507 412.26 92.6867 406.439 85.507 406.439C78.3273 406.439 72.507 412.26 72.507 419.439C72.507 426.619 78.3273 432.439 85.507 432.439Z" stroke="#10BD53"/>
<path d="M85.507 504.08C92.9628 504.08 99.007 498.036 99.007 490.58C99.007 483.124 92.9628 477.08 85.507 477.08C78.0511 477.08 72.007 483.124 72.007 490.58C72.007 498.036 78.0511 504.08 85.507 504.08Z" fill="#0FB550"/>
<path d="M85.507 503.58C92.6867 503.58 98.507 497.76 98.507 490.58C98.507 483.4 92.6867 477.58 85.507 477.58C78.3273 477.58 72.507 483.4 72.507 490.58C72.507 497.76 78.3273 503.58 85.507 503.58Z" stroke="#10BD53"/>
</g>
<defs>
<linearGradient id="paint0_linear_306_107" x1="224.017" y1="460.446" x2="-78.2844" y2="350.152" gradientUnits="userSpaceOnUse">
<stop stop-color="#10BD53"/>
<stop offset="1"/>
</linearGradient>
<clipPath id="clip0_306_107">
<rect width="140" height="673" fill="white"/>
</clipPath>
</defs>
</svg>
