<svg width="324" height="377" viewBox="0 0 324 377" fill="none" xmlns="http://www.w3.org/2000/svg">
<g clip-path="url(#clip0_306_98)">
<g opacity="0.43">
<path opacity="0.43" d="M98.9508 586.356C97.4898 587.539 95.9948 588.555 94.5074 589.375C92.5052 590.479 90.5782 591.19 88.7796 591.487C82.4075 592.54 75.1827 588.837 75.1105 588.8L75.0605 588.774L75.008 588.754L-179.255 491.107C-179.739 490.864 -185.208 488.052 -188.719 483.408C-192.27 478.713 -193.97 471.958 -194.099 471.433L-236.462 204.225C-236.513 203.75 -237.423 194.867 -235.134 188.921C-233.754 185.34 -231.189 182.745 -229.279 181.198C-228.048 180.202 -227.131 179.679 -227.122 179.674L-227.05 179.633L-226.984 179.58L-17.7679 10.1607C-17.2207 9.80522 -10.7265 5.658 -4.17173 4.58596C2.40169 3.51085 9.29315 5.49201 9.79751 5.64137L263.885 103.221C264.194 103.356 269.801 105.857 273.194 110.406C276.636 115.021 277.964 121.945 278.016 122.224L320.234 388.518L320.242 388.567L320.255 388.615C320.26 388.635 320.803 390.747 320.994 393.672C321.168 396.335 321.077 400.24 319.661 403.729C318.782 405.892 317.304 408.146 315.267 410.428C313.523 412.381 311.732 413.946 310.537 414.914C309.661 415.623 309.088 416.025 309.082 416.029L309.053 416.049L309.026 416.072L101.117 584.433L101.073 584.469L101.033 584.509C101.025 584.517 100.241 585.312 98.9508 586.356Z" fill="url(#paint0_linear_306_98)"/>
<path opacity="0.43" d="M-228.65 181.976C-230.465 183.445 -232.901 185.905 -234.2 189.281C-236.375 194.929 -235.538 203.446 -235.471 204.092L-193.117 471.236C-192.941 471.948 -191.282 478.361 -187.921 482.805C-184.623 487.167 -179.49 489.865 -178.851 490.191L75.4715 587.861L75.5714 587.913C75.6407 587.949 82.5692 591.5 88.6165 590.501C92.5823 589.845 96.3992 587.136 98.3215 585.579C99.5602 584.576 100.313 583.815 100.319 583.809L100.399 583.728L308.452 415.25L308.508 415.211C308.514 415.207 309.064 414.82 309.907 414.137C311.074 413.192 312.822 411.666 314.521 409.763C316.482 407.566 317.899 405.41 318.734 403.353C321.332 396.954 319.307 388.946 319.287 388.868L319.262 388.773L319.247 388.675L277.03 122.392C276.953 121.986 275.654 115.377 272.392 111.004C269.205 106.731 263.918 104.329 263.506 104.147L9.47374 6.58855C8.79129 6.38852 2.24911 4.54937 -4.0104 5.57307C-10.2343 6.59092 -16.4489 10.5007 -17.1801 10.9716L-226.481 180.462L-226.63 180.545C-226.666 180.566 -227.514 181.056 -228.65 181.976ZM-229.909 180.422C-228.586 179.35 -227.613 178.804 -227.613 178.804L-18.358 9.35202C-18.358 9.35202 -11.4528 4.76367 -4.33318 3.59927C2.78649 2.43492 10.1205 4.69448 10.1205 4.69448L264.263 102.295C264.263 102.295 270.311 104.868 273.995 109.808C277.68 114.747 279.001 122.054 279.001 122.054L321.222 388.362C321.222 388.362 323.479 396.984 320.587 404.106C317.695 411.227 309.655 416.849 309.655 416.849L101.747 585.21C101.747 585.21 95.7168 591.355 88.9426 592.474C82.1683 593.593 74.6495 589.688 74.6495 589.688L-179.658 492.023C-179.658 492.023 -185.661 489.11 -189.517 484.012C-193.372 478.913 -195.08 471.629 -195.08 471.629L-237.454 204.357C-237.454 204.357 -238.527 194.951 -236.067 188.562C-234.598 184.748 -231.869 182.009 -229.909 180.422Z" fill="#00FF64"/>
</g>
</g>
<defs>
<linearGradient id="paint0_linear_306_98" x1="-121.884" y1="94.2317" x2="206.261" y2="499.458" gradientUnits="userSpaceOnUse">
<stop stop-color="#246A3F"/>
<stop offset="1" stop-color="#27633E"/>
</linearGradient>
<clipPath id="clip0_306_98">
<rect width="324" height="377" fill="white"/>
</clipPath>
</defs>
</svg>
