<svg width="1169" height="309" viewBox="0 0 1169 309" fill="none" xmlns="http://www.w3.org/2000/svg">
<g clip-path="url(#clip0_306_102)">
<path opacity="0.733" d="M214.192 355.532L376.355 29.2646C380.505 22.2605 386.225 16.3162 393.064 11.8999C403.89 5.2539 419.656 2.67871 419.656 2.67871L864.456 2.49902C864.456 2.49902 882.4 4.54595 894.244 11.6689C906.088 18.7919 911.836 30.9888 911.836 30.9888L1022.93 250.6C1026.94 259.359 1031.56 267.823 1036.77 275.928C1044.32 287.266 1082.4 286.857 1082.4 286.857L1725.17 278.173C1725.17 278.173 1759.78 275.426 1776.28 287.606C1792.78 299.786 1791.16 326.89 1791.16 326.89V391.715L1556.81 446.278" stroke="#04E26F" stroke-width="5"/>
<path opacity="0.28" d="M684.708 402.566L519.581 116.395C519.581 116.395 515.267 105.816 506.374 99.6377C497.481 93.4597 484.011 91.6846 484.011 91.6846L150.087 91.8408C150.087 91.8408 138.25 94.0728 130.124 99.8408C121.998 105.609 117.58 114.903 117.58 114.903L-46.835 401.393" stroke="#04E26F" stroke-width="5"/>
<path d="M332.938 91.752C332.938 99.2078 338.982 105.252 346.438 105.252C353.894 105.252 359.938 99.2078 359.938 91.752C359.938 84.2961 353.894 78.252 346.438 78.252C338.982 78.252 332.938 84.2961 332.938 91.752Z" fill="#0CC64C"/>
</g>
<defs>
<clipPath id="clip0_306_102">
<rect width="1169" height="309" fill="white"/>
</clipPath>
</defs>
</svg>
