<svg xmlns="http://www.w3.org/2000/svg" width="80" height="48" viewBox="0 0 80 48">
  <g id="cnx-pay" transform="translate(-1440 -5990)">
    <g id="Group_4290" data-name="Group 4290" transform="translate(0.414 8.558)">
      <g id="Rectangle_8192" data-name="Rectangle 8192" transform="translate(1439.586 5981.442)" fill="none" stroke="#fff" stroke-width="4">
        <rect width="80" height="48" rx="6" stroke="none"/>
        <rect x="2" y="2" width="76" height="44" rx="4" fill="none"/>
      </g>
      <g id="Group_4288" data-name="Group 4288" transform="translate(1468.141 5992.137)">
        <g id="Group_3478" data-name="Group 3478" transform="translate(0 0)">
          <path id="Union_14" data-name="Union 14" d="M20.183,26.179V23.87h-1.4v2.308h-1.4V23.87h-2.45l-2.771-3.948L9.392,23.87h-2.4v2.308H5.6V23.87H4.2v2.308H2.8V23.87H0L7.468,13.234,0,2.6H2.8V0H4.2V2.6H5.6V0h1.4V2.6h2.4l2.772,3.947L14.935,2.6h2.45V0h1.4V2.6h1.4V0h1.4V2.6h2.746L16.86,13.234,24.328,23.87H21.582v2.308Z" transform="translate(0 0)" fill="#fff"/>
        </g>
      </g>
      <g id="Path_2342" data-name="Path 2342" transform="translate(1444.949 6015.145)" fill="#fff">
        <path d="M 7.998579025268555 7.998579025268555 L 0.4999990463256836 7.998579025268555 L 0.4999990463256836 0.4999990463256836 L 0.8498590588569641 0.4999990463256836 C 4.791678905487061 0.4999990463256836 7.998579025268555 3.706898927688599 7.998579025268555 7.64871883392334 L 7.998579025268555 7.998579025268555 Z" stroke="none"/>
        <path d="M 7.496908664703369 7.498579025268555 C 7.418001174926758 3.951301336288452 4.547276496887207 1.08057689666748 0.9999990463256836 1.001669406890869 L 0.9999990463256836 7.498579025268555 L 7.496908664703369 7.498579025268555 M 8.498579025268555 8.498579025268555 L -9.642028544476489e-07 8.498579025268555 L -9.642028544476489e-07 -9.642028544476489e-07 L 0.8498590588569641 -9.642028544476489e-07 C 5.074129104614258 -9.642028544476489e-07 8.498579025268555 3.42444896697998 8.498579025268555 7.64871883392334 L 8.498579025268555 8.498579025268555 Z" stroke="none" fill="#fff"/>
      </g>
    </g>
    <g id="Path_2346" data-name="Path 2346" transform="translate(1506.363 6023.703)" fill="#fff">
      <path d="M 7.998537540435791 7.998580455780029 L 0.4999975860118866 7.998580455780029 L 0.4999975860118866 7.648720264434814 C 0.4999975860118866 3.706900358200073 3.706877470016479 0.5000004768371582 7.648677349090576 0.5000004768371582 L 7.998537540435791 0.5000004768371582 L 7.998537540435791 7.998580455780029 Z" stroke="none"/>
      <path d="M 7.498537540435791 7.498580455780029 L 7.498537540435791 1.001670837402344 C 3.95128870010376 1.080578327178955 1.080575108528137 3.951302766799927 1.001667976379395 7.498580455780029 L 7.498537540435791 7.498580455780029 M 8.498538017272949 8.498580932617188 L -2.42187502408342e-06 8.498580932617188 L -2.42187502408342e-06 7.648720264434814 C -2.42187502408342e-06 3.424450397491455 3.424427509307861 4.663085917400167e-07 7.648677349090576 4.663085917400167e-07 L 8.498538017272949 4.663085917400167e-07 L 8.498538017272949 8.498580932617188 Z" stroke="none" fill="#fff"/>
    </g>
    <g id="Path_2347" data-name="Path 2347" transform="translate(1445.363 5995.703)" fill="#fff">
      <path d="M 0.8498590588569641 7.998579025268555 L 0.4999990463256836 7.998579025268555 L 0.4999990463256836 0.4999990463256836 L 7.998579025268555 0.4999990463256836 L 7.998579025268555 0.8498590588569641 C 7.998579025268555 4.791678905487061 4.791678905487061 7.998579025268555 0.8498590588569641 7.998579025268555 Z" stroke="none"/>
      <path d="M 0.9999990463256836 0.9999990463256836 L 0.9999990463256836 7.496908664703369 C 4.547276496887207 7.418001174926758 7.418001174926758 4.547276496887207 7.496908664703369 0.9999990463256836 L 0.9999990463256836 0.9999990463256836 M -9.5367431640625e-07 -9.5367431640625e-07 L 8.498579025268555 -9.5367431640625e-07 L 8.498579025268555 0.8498592376708984 C 8.498579025268555 5.074129104614258 5.074129104614258 8.498579025268555 0.8498592376708984 8.498579025268555 L -9.5367431640625e-07 8.498579025268555 L -9.5367431640625e-07 -9.5367431640625e-07 Z" stroke="none" fill="#fff"/>
    </g>
    <g id="Path_2348" data-name="Path 2348" transform="translate(1506.363 5995.703)" fill="#fff">
      <path d="M 7.998537540435791 7.998580455780029 L 7.648677349090576 7.998580455780029 C 3.706877470016479 7.998580455780029 0.4999975860118866 4.791680335998535 0.4999975860118866 0.8498604893684387 L 0.4999975860118866 0.5000004768371582 L 7.998537540435791 0.5000004768371582 L 7.998537540435791 7.998580455780029 Z" stroke="none"/>
      <path d="M 1.001667976379395 1.000000476837158 C 1.080574989318848 4.54727840423584 3.95128870010376 7.418002605438232 7.498537540435791 7.496910095214844 L 7.498537540435791 1.000000476837158 L 1.001667976379395 1.000000476837158 M -2.86102294921875e-06 0 L 8.498538017272949 0 L 8.498538017272949 8.498580932617188 L 7.648677825927734 8.498580932617188 C 3.424427509307861 8.498580932617188 -2.86102294921875e-06 5.074130535125732 -2.86102294921875e-06 0.849860668182373 L -2.86102294921875e-06 0 Z" stroke="none" fill="#fff"/>
    </g>
  </g>
</svg>
