<svg xmlns="http://www.w3.org/2000/svg" width="30.206" height="58.014" viewBox="0 0 30.206 58.014">
  <path id="dollar-icon" d="M40.163,40.567A12.316,12.316,0,0,1,36.942,49.1a13.9,13.9,0,0,1-8.369,4.419v5.665a1,1,0,0,1-1.036,1.036H23.167a1.05,1.05,0,0,1-1.036-1.036V53.517a20.407,20.407,0,0,1-4.128-1,21.733,21.733,0,0,1-3.286-1.441,21.805,21.805,0,0,1-2.4-1.554A18.452,18.452,0,0,1,10.816,48.3q-.4-.389-.567-.583a.983.983,0,0,1-.065-1.327l3.335-4.371a1.007,1.007,0,0,1,.745-.388.8.8,0,0,1,.777.291l.065.065a16.905,16.905,0,0,0,7.867,4.047,11.308,11.308,0,0,0,2.4.259A7.85,7.85,0,0,0,29.982,44.9a4.535,4.535,0,0,0,1.991-3.95,3.282,3.282,0,0,0-.486-1.716A6.066,6.066,0,0,0,30.4,37.88a8.885,8.885,0,0,0-1.894-1.214Q27.214,36,26.372,35.63t-2.59-1.052q-1.263-.518-1.991-.809T19.8,32.91q-1.263-.567-2.023-1t-1.829-1.149a11.4,11.4,0,0,1-1.732-1.376A20.178,20.178,0,0,1,12.807,27.8a7.92,7.92,0,0,1-1.149-1.878,12.984,12.984,0,0,1-.68-2.153,11.237,11.237,0,0,1-.275-2.525A11.07,11.07,0,0,1,13.876,13.4a14.813,14.813,0,0,1,8.255-4.338V3.239A1.051,1.051,0,0,1,23.167,2.2h4.371a1,1,0,0,1,1.036,1.036v5.7a18.007,18.007,0,0,1,3.577.745,20.741,20.741,0,0,1,2.817,1.085,15.6,15.6,0,0,1,2.056,1.214q.971.68,1.263.939t.486.453a.937.937,0,0,1,.162,1.23l-2.622,4.727a.882.882,0,0,1-.745.518,1.032,1.032,0,0,1-.874-.227q-.1-.1-.469-.388t-1.263-.858a16.706,16.706,0,0,0-1.894-1.036,14.459,14.459,0,0,0-2.412-.842,10.8,10.8,0,0,0-2.768-.372,8.414,8.414,0,0,0-5.018,1.392A4.352,4.352,0,0,0,19.2,22.664a3.644,3.644,0,0,0,.955,1.344,14.266,14.266,0,0,0,1.279,1.068,11.4,11.4,0,0,0,1.813,1q1.214.566,1.959.874t2.266.89q1.716.648,2.622,1.02T32.556,30A19.558,19.558,0,0,1,35,31.373a20.67,20.67,0,0,1,2.007,1.619,8.382,8.382,0,0,1,1.716,2.056,11.732,11.732,0,0,1,1.02,2.477,10.68,10.68,0,0,1,.421,3.043Z" transform="translate(-9.957 -2.204)" fill="#fff"/>
</svg>
