<svg width="355" height="1843" viewBox="0 0 355 1843" fill="none" xmlns="http://www.w3.org/2000/svg">
<g clip-path="url(#clip0_306_6)">
<path opacity="0.733" d="M359.577 1636.4L29.2646 1417.39C22.2605 1413.24 16.3162 1407.52 11.8999 1400.68C5.2539 1389.86 2.67871 1374.09 2.67871 1374.09L2.49902 929.291C2.49902 929.291 4.54595 911.347 11.6689 899.503C18.7919 887.659 30.9888 881.911 30.9888 881.911L248.081 737.189L268.964 723.263C280.302 715.705 279.606 677.009 279.606 677.009L278.173 68.5719C278.173 68.5719 275.426 33.9619 287.606 17.4628C299.786 0.963849 326.89 2.57894 326.89 2.57894H391.715L446.278 236.935" stroke="#04E26F" stroke-width="5"/>
<path opacity="0.28" d="M402.566 1109.04L116.395 1274.17C116.395 1274.17 105.816 1278.48 99.6377 1287.37C93.4597 1296.27 91.6846 1309.74 91.6846 1309.74L91.8408 1643.66C91.8408 1643.66 94.0728 1655.5 99.8408 1663.62C105.609 1671.75 114.903 1676.17 114.903 1676.17L401.393 1840.58" stroke="#04E26F" stroke-width="5"/>
<path d="M203.75 1237.96C211.206 1237.96 217.25 1231.92 217.25 1224.46C217.25 1217.01 211.206 1210.96 203.75 1210.96C196.294 1210.96 190.25 1217.01 190.25 1224.46C190.25 1231.92 196.294 1237.96 203.75 1237.96Z" fill="#0CC64C"/>
<path d="M91.75 1471.81C99.2058 1471.81 105.25 1465.76 105.25 1458.31C105.25 1450.85 99.2058 1444.81 91.75 1444.81C84.2942 1444.81 78.25 1450.85 78.25 1458.31C78.25 1465.76 84.2942 1471.81 91.75 1471.81Z" fill="#0CC64C"/>
</g>
<defs>
<clipPath id="clip0_306_6">
<rect width="355" height="1843" fill="white"/>
</clipPath>
</defs>
</svg>
