<svg xmlns="http://www.w3.org/2000/svg" xmlns:xlink="http://www.w3.org/1999/xlink" width="62.81" height="62.81" viewBox="0 0 62.81 62.81">
  <defs>
    <linearGradient id="linear-gradient" x1="-0.107" x2="1.094" y2="1.049" gradientUnits="objectBoundingBox">
      <stop offset="0" stop-color="#00d000"/>
      <stop offset="1" stop-color="#003100"/>
    </linearGradient>
    <linearGradient id="linear-gradient-2" x1="-0.107" x2="1.094" y2="1.049" gradientUnits="objectBoundingBox">
      <stop offset="0" stop-color="#00d000"/>
      <stop offset="1" stop-color="#004300"/>
    </linearGradient>
  </defs>
  <g id="logo-cnx" transform="translate(-864.25 -337.5)">
    <g id="Group_3477" data-name="Group 3477" transform="translate(864.25 337.5)">
      <path id="Path_159" data-name="Path 159" d="M31.4,0A31.4,31.4,0,1,1,0,31.4,31.4,31.4,0,0,1,31.4,0Z" transform="translate(0 0)" fill="url(#linear-gradient)"/>
      <g id="Path_160" data-name="Path 160" transform="translate(3.501 3.402)" fill="#171717">
        <path d="M 27.89445114135742 50.98053359985352 C 24.80363845825195 50.98053359985352 21.80779266357422 50.37417221069336 18.99009895324707 49.17829895019531 C 16.2648983001709 48.02167510986328 13.816086769104 46.36453628540039 11.71168613433838 44.25291061401367 C 9.606109619140625 42.14009857177734 7.953415870666504 39.68077087402344 6.799498081207275 36.94324111938477 C 5.605439186096191 34.11047744750977 5.000004291534424 31.09825325012207 5.000004291534424 27.99026489257812 C 5.000004291534424 24.88227653503418 5.605439186096191 21.87005233764648 6.799498081207275 19.03728866577148 C 7.953415870666504 16.29975891113281 9.606109619140625 13.84042930603027 11.71168613433838 11.72762966156006 C 13.816086769104 9.616005897521973 16.2648983001709 7.958864688873291 18.99009895324707 6.802241325378418 C 21.80779266357422 5.606359004974365 24.80363845825195 5.000006198883057 27.89445114135742 5.000006198883057 C 30.98526382446289 5.000006198883057 33.98110961914062 5.606359004974365 36.79880523681641 6.802241325378418 C 39.52400588989258 7.958864688873291 41.97281646728516 9.616005897521973 44.07721710205078 11.72762966156006 C 46.18279266357422 13.84042930603027 47.83548736572266 16.29975891113281 48.98940277099609 19.03728866577148 C 50.18346405029297 21.87005233764648 50.78889846801758 24.88227653503418 50.78889846801758 27.99026489257812 C 50.78889846801758 31.09825325012207 50.18346405029297 34.11047744750977 48.98940277099609 36.94324111938477 C 47.83548736572266 39.68077087402344 46.18279266357422 42.14009857177734 44.07721710205078 44.25291061401367 C 41.97281646728516 46.36453628540039 39.52400588989258 48.02167510986328 36.79880523681641 49.17829895019531 C 33.98110961914062 50.37417221069336 30.98526382446289 50.98053359985352 27.89445114135742 50.98053359985352 Z" stroke="none"/>
        <path d="M 27.89445114135742 9.999992370605469 C 18.02741622924805 9.999992370605469 9.999996185302734 18.07039260864258 9.999996185302734 27.99026489257812 C 9.999996185302734 37.91013717651367 18.02741622924805 45.98053741455078 27.89445114135742 45.98053741455078 C 37.76148986816406 45.98053741455078 45.78890609741211 37.91013717651367 45.78890609741211 27.99026489257812 C 45.78890609741211 18.07039260864258 37.76148986816406 9.999992370605469 27.89445114135742 9.999992370605469 M 27.89445114135742 -7.62939453125e-06 C 43.30012512207031 -7.62939453125e-06 55.78890609741211 12.53166580200195 55.78890609741211 27.99026489257812 C 55.78890609741211 43.4488639831543 43.30012512207031 55.98053741455078 27.89445114135742 55.98053741455078 C 12.48876190185547 55.98053741455078 -3.814697265625e-06 43.4488639831543 -3.814697265625e-06 27.99026489257812 C -3.814697265625e-06 12.53166580200195 12.48876190185547 -7.62939453125e-06 27.89445114135742 -7.62939453125e-06 Z" stroke="none" fill="#171717"/>
      </g>
    </g>
    <g id="Group_3478" data-name="Group 3478" transform="translate(878.969 350.997)">
      <path id="Union_14" data-name="Union 14" d="M27.514,35.688V32.541H25.607v3.147H23.7V32.541H20.36L16.582,27.16,12.8,32.541H9.535v3.147H7.628V32.541H5.721v3.147H3.815V32.541H0l10.18-14.5L0,3.543H3.815V0H5.721V3.543H7.628V0H9.535V3.543H12.8l3.778,5.381L20.36,3.543H23.7V0h1.907V3.543h1.907V0h1.907V3.543h3.743l-10.181,14.5,10.181,14.5H29.421v3.147Z" fill="url(#linear-gradient-2)"/>
    </g>
  </g>
</svg>
