<svg xmlns="http://www.w3.org/2000/svg" width="60.749" height="54.099" viewBox="0 0 60.749 54.099">
  <path id="Path_1816" data-name="Path 1816" d="M60.8,39.036a12.142,12.142,0,0,1-9.459,4.625H29.907a3.469,3.469,0,0,0-3.469,3.423v7.562l2.5-3.747a1.156,1.156,0,0,1,1.92,1.272L26.23,59.111h0a1.133,1.133,0,0,1-.37.347h0a1.041,1.041,0,0,1-1.041,0h0a1.133,1.133,0,0,1-.278-.254h0l-4.625-6.938a1.156,1.156,0,0,1,1.92-1.272l2.29,3.677V47.085a5.735,5.735,0,0,1,1.711-4.117,5.62,5.62,0,0,1,4.093-1.619H51.345a9.864,9.864,0,0,0,9.644-12,9.667,9.667,0,0,0-4-5.944,9.829,9.829,0,0,0-10.222-.555,14.963,14.963,0,0,1-5.759,9.644,1.156,1.156,0,1,1-1.388-1.85,12.65,12.65,0,0,0,4.949-8.7h0a10.247,10.247,0,0,0,0-1.388A12.4,12.4,0,0,0,36.475,8.717a12.858,12.858,0,0,0-11.818,1.526A12.673,12.673,0,0,0,19.5,20.535a1.3,1.3,0,0,1-.347,1.133,1.2,1.2,0,0,1-1.087.347,9.875,9.875,0,1,0-4.787,19.149H18.39a3.723,3.723,0,0,0,2.475-1.018,3.446,3.446,0,0,0,.948-2.475V30.133l-2.5,3.77A1.156,1.156,0,1,1,17.4,32.63l4.625-6.938h0a1.11,1.11,0,0,1,1.8,0h0L28.45,32.63A1.156,1.156,0,1,1,26.53,33.9l-2.405-3.77v7.539a5.735,5.735,0,0,1-1.711,4.093A6.082,6.082,0,0,1,18.3,43.454h-5.5A12.225,12.225,0,1,1,17.187,19.4,14.986,14.986,0,0,1,37.331,6.428a14.685,14.685,0,0,1,9.644,13.691,12.165,12.165,0,0,1,11.309,1.364,12,12,0,0,1,4.972,7.377A12.257,12.257,0,0,1,60.8,39.036Z" transform="translate(-2.763 -5.498)" fill="#00d000"/>
</svg>
