<svg xmlns="http://www.w3.org/2000/svg" width="170" height="170" viewBox="0 0 170 170">
  <g id="Group_4492" data-name="Group 4492" transform="translate(-357 -4265)">
    <circle id="Ellipse_7" data-name="Ellipse 7" cx="85" cy="85" r="85" transform="translate(357 4265)" fill="rgba(0,0,0,0.76)"/>
    <path id="Path_1745" data-name="Path 1745" d="M69.839,37.726c4.986-12.7,1.911-20.771-.593-24.66-3.8-5.9-10.724-9.139-16.8-7.843C41.872,7.461,37.367,15.4,37.367,31.807V45.5l-6.182-6.855a2.487,2.487,0,0,0-3.774,0,3.192,3.192,0,0,0,0,4.186l10.741,11.9a2.665,2.665,0,0,0,3.908,0L52.853,42.775a3.191,3.191,0,0,0,0-4.185,2.488,2.488,0,0,0-3.775,0s-4.78,8.758-6.373,7.062,0-13.845,0-13.845c0-17.071,5.3-19.616,10.73-20.771,3.486-.71,8.53.912,11.461,5.469,3.587,5.558,2.9,13.8-1.938,23.2a3.232,3.232,0,0,0,.137,3.173,2.557,2.557,0,0,0,2.649,1.208,25.191,25.191,0,0,1,3.79-.45c5.813,0,10.537,5.31,10.537,11.844S75.284,67.322,69.4,67.322L16.4,67.358C10.2,66.34,5.338,59.822,5.338,52.524c0-7.269,4.922-13.526,11.456-14.561l2.3-.367a2.879,2.879,0,0,0,2.29-2.93l-.043-3.149c.016-10.6,5.909-19.315,14.029-20.717a2.941,2.941,0,0,0,2.226-3.38A3.016,3.016,0,0,0,36.528,5.48a2.463,2.463,0,0,0-1.99-.529C23.808,6.8,16.014,17.973,16,31.5l.043.6C6.9,33.553,0,42.331,0,52.524,0,62.859,6.715,71.75,16.014,73.241H69.4c8.829,0,16.014-7.967,16.014-17.758C85.41,45.8,78.449,37.9,69.839,37.726Z" transform="translate(400.122 4307.389)" fill="#10bd53"/>
  </g>
</svg>
