<svg id="globe" xmlns="http://www.w3.org/2000/svg" width="60.873" height="59.271" viewBox="0 0 60.873 59.271">
  <g id="Ellipse_10" data-name="Ellipse 10" transform="translate(0 0)" fill="none" stroke="#00d000" stroke-width="3">
    <ellipse cx="30.437" cy="29.636" rx="30.437" ry="29.636" stroke="none"/>
    <ellipse cx="30.437" cy="29.636" rx="28.937" ry="28.136" fill="none"/>
  </g>
  <path id="Path_1749" data-name="Path 1749" d="M-2309.995,2440.211s-24.3,27.279,0,56.452" transform="translate(2336.463 -2438.782)" fill="none" stroke="#00d000" stroke-width="3"/>
  <path id="Path_1750" data-name="Path 1750" d="M0,0S24.3,27.192,0,56.273" transform="matrix(1, -0.017, 0.017, 1, 35.64, 1.617)" fill="none" stroke="#00d000" stroke-width="3"/>
  <path id="Path_1751" data-name="Path 1751" d="M-2290.5,2436.655v57.253" transform="translate(2320.909 -2436.117)" fill="none" stroke="#00d000" stroke-width="5"/>
  <path id="Path_1752" data-name="Path 1752" d="M-2328.836,2452.307a45.48,45.48,0,0,0,36.947,0" transform="translate(2340.593 -2444.154)" fill="none" stroke="#00d000" stroke-width="3"/>
  <path id="Path_1753" data-name="Path 1753" d="M38.269,4.253S21.033-5.316,0,4.253" transform="matrix(1, 0.017, -0.017, 1, 10.478, 46.881)" fill="none" stroke="#00d000" stroke-width="3"/>
  <path id="Path_1754" data-name="Path 1754" d="M-2350.08,2496.5h57.793" transform="translate(2351.501 -2466.845)" fill="none" stroke="#00d000" stroke-width="3"/>
</svg>
