<svg xmlns="http://www.w3.org/2000/svg" width="51" height="64" viewBox="0 0 51 64">
  <g id="Group_3850" data-name="Group 3850" transform="translate(-1599 -1415)">
    <g id="Ellipse_87" data-name="Ellipse 87" transform="translate(1599 1458)" fill="none" stroke="#00d000" stroke-width="4">
      <ellipse cx="25.5" cy="10.5" rx="25.5" ry="10.5" stroke="none"/>
      <ellipse cx="25.5" cy="10.5" rx="23.5" ry="8.5" fill="none"/>
    </g>
    <g id="Union_19" data-name="Union 19" transform="translate(1603.766 1415)">
      <path d="M 20.48219299316406 51.93731689453125 L 5.730638027191162 31.17140769958496 L 4.662299156188965 29.43748092651367 C 2.919429302215576 26.6087703704834 1.998199343681335 23.34745025634766 1.998199343681335 20.00610160827637 C 1.998199343681335 15.19635105133057 3.871159315109253 10.67460060119629 7.272069454193115 7.273800849914551 C 10.67302894592285 3.872941017150879 15.19507884979248 2.000000953674316 20.00519943237305 2.000000953674316 C 24.81491851806641 2.000000953674316 29.33667945861816 3.872931003570557 32.73751831054688 7.273780822753906 C 36.13837051391602 10.67462062835693 38.01129913330078 15.19638061523438 38.01129913330078 20.00610160827637 C 38.01129913330078 23.34741020202637 37.09006881713867 26.60874176025391 35.34720993041992 29.43749046325684 L 33.68575286865234 32.13412094116211 L 20.48219299316406 51.93731689453125 Z" stroke="none"/>
      <path d="M 20.42999267578125 48.41034317016602 L 32.00154113769531 31.05488777160645 L 33.64445114135742 28.38837242126465 C 35.1928596496582 25.87524032592773 36.01130294799805 22.9766960144043 36.01130294799805 20.00609588623047 C 36.01130294799805 15.73060703277588 34.34641647338867 11.71109580993652 31.32331657409668 8.687995910644531 C 28.30021667480469 5.664895534515381 24.28070449829102 4.000006675720215 20.00520515441895 4.000006675720215 C 15.72929382324219 4.000006675720215 11.70948219299316 5.664917469024658 8.686260223388672 8.688039779663086 C 5.663126945495605 11.71108436584473 3.998204946517944 15.73058414459229 3.998204946517944 20.00609588623047 C 3.998204946517944 22.97672843933105 4.816649436950684 25.8752613067627 6.365049362182617 28.38835144042969 L 7.399044036865234 30.0665397644043 L 20.42999267578125 48.41034317016602 M 20.53440475463867 55.46430587768555 L 2.790904760360718 30.48659515380859 L 2.959560394287109 30.48659515380859 C 1.081615924835205 27.43866157531738 -0.001795146381482482 23.84880638122559 -0.001795146381482482 20.00609588623047 C -0.001795146381482482 8.956806182861328 8.955004692077637 6.587049483641749e-06 20.00520515441895 6.587049483641749e-06 C 31.05450439453125 6.587049483641749e-06 40.01130294799805 8.956806182861328 40.01130294799805 20.00609588623047 C 40.01130294799805 23.84880638122559 38.92787170410156 27.43866157531738 37.04996109008789 30.48659515380859 L 37.18800354003906 30.48659515380859 L 20.53440475463867 55.46430587768555 Z" stroke="none" fill="#00d000"/>
    </g>
    <g id="Ellipse_89" data-name="Ellipse 89" transform="translate(1614 1425)" fill="none" stroke="#00d000" stroke-width="3.7">
      <ellipse cx="9.5" cy="10" rx="9.5" ry="10" stroke="none"/>
      <ellipse cx="9.5" cy="10" rx="7.65" ry="8.15" fill="none"/>
    </g>
  </g>
</svg>
