<svg xmlns="http://www.w3.org/2000/svg" xmlns:xlink="http://www.w3.org/1999/xlink" width="62.806" height="62.806" viewBox="0 0 62.806 62.806">
  <defs>
    <linearGradient id="linear-gradient" x1="-0.107" x2="1.094" y2="1.049" gradientUnits="objectBoundingBox">
      <stop offset="0" stop-color="#00d000"/>
      <stop offset="1" stop-color="#003100"/>
    </linearGradient>
    <linearGradient id="linear-gradient-2" x1="-0.107" x2="1.094" y2="1.049" gradientUnits="objectBoundingBox">
      <stop offset="0" stop-color="#00d000"/>
      <stop offset="1" stop-color="#004300"/>
    </linearGradient>
  </defs>
  <g id="Group_4424" data-name="Group 4424" transform="translate(-863.25 -337.5)">
    <g id="Group_3477" data-name="Group 3477" transform="translate(863.25 337.5)">
      <path id="Path_159" data-name="Path 159" d="M31.4,0A31.4,31.4,0,1,1,0,31.4,31.4,31.4,0,0,1,31.4,0Z" transform="translate(0 0)" fill="url(#linear-gradient)"/>
      <g id="Path_160" data-name="Path 160" transform="translate(3.476 3.378)" fill="#171717">
        <path d="M 27.91800117492676 51.02633285522461 C 24.82400131225586 51.02633285522461 21.82504844665527 50.41936492919922 19.00444793701172 49.22228240966797 C 16.27643585205078 48.06449508666992 13.82509517669678 46.40569686889648 11.71854209899902 44.29195404052734 C 9.610813140869141 42.17703628540039 7.956424713134766 39.71525955200195 6.80133056640625 36.97501373291016 C 5.606060028076172 34.13943862915039 5.000000953674316 31.12423706054688 5.000000953674316 28.0131664276123 C 5.000000953674316 24.90209579467773 5.606060028076172 21.88689613342285 6.80133056640625 19.05131912231445 C 7.956424713134766 16.31107139587402 9.610813140869141 13.8492956161499 11.71854209899902 11.73437786102295 C 13.82509517669678 9.620636940002441 16.27643585205078 7.961836814880371 19.00444793701172 6.804049015045166 C 21.82504844665527 5.606966495513916 24.82400131225586 5.000001907348633 27.91800117492676 5.000001907348633 C 31.01200103759766 5.000001907348633 34.01096725463867 5.606966495513916 36.83156585693359 6.804049015045166 C 39.55957794189453 7.961836814880371 42.01090621948242 9.620636940002441 44.11747360229492 11.73437786102295 C 46.22518920898438 13.8492956161499 47.87957763671875 16.31105995178223 49.03467178344727 19.05131912231445 C 50.22994232177734 21.88689613342285 50.83600234985352 24.90209579467773 50.83600234985352 28.0131664276123 C 50.83600234985352 31.12423706054688 50.22994232177734 34.13943862915039 49.03467178344727 36.97501373291016 C 47.87957763671875 39.71527099609375 46.22518920898438 42.17703628540039 44.11747360229492 44.29195404052734 C 42.01090621948242 46.40569686889648 39.55957794189453 48.06449508666992 36.83156585693359 49.22228240966797 C 34.01096725463867 50.41936492919922 31.01200103759766 51.02633285522461 27.91800117492676 51.02633285522461 Z" stroke="none"/>
        <path d="M 27.91800117492676 10.00000381469727 C 18.03798294067383 10.00000381469727 10 18.0806770324707 10 28.0131664276123 C 10 37.94565582275391 18.03798294067383 46.02632904052734 27.91800117492676 46.02632904052734 C 37.79801940917969 46.02632904052734 45.83600234985352 37.94565582275391 45.83600234985352 28.0131664276123 C 45.83600234985352 18.0806770324707 37.79801940917969 10.00000381469727 27.91800117492676 10.00000381469727 M 27.91800117492676 3.814697265625e-06 C 43.33669281005859 3.814697265625e-06 55.83600234985352 12.54191207885742 55.83600234985352 28.0131664276123 C 55.83600234985352 43.48440170288086 43.33669281005859 56.02632904052734 27.91800117492676 56.02632904052734 C 12.49930953979492 56.02632904052734 0 43.48440170288086 0 28.0131664276123 C 0 12.54191207885742 12.49930953979492 3.814697265625e-06 27.91800117492676 3.814697265625e-06 Z" stroke="none" fill="#171717"/>
      </g>
    </g>
    <g id="Group_3478" data-name="Group 3478" transform="translate(878.087 351.125)">
      <path id="Union_14" data-name="Union 14" d="M27.313,35.428V32.3H25.421v3.124H23.528V32.3H20.212l-3.75-5.342L12.711,32.3H9.465v3.124H7.572V32.3H5.68v3.124H3.787V32.3H0L10.106,17.91,0,3.517H3.787V0H5.68V3.517H7.572V0H9.465V3.517h3.245l3.751,5.342,3.75-5.342h3.316V0h1.893V3.517h1.893V0h1.894V3.517h3.716L22.817,17.91,32.923,32.3H29.207v3.124Z" transform="translate(0 0)" fill="url(#linear-gradient-2)"/>
    </g>
  </g>
</svg>
