<svg xmlns="http://www.w3.org/2000/svg" width="171" height="170" viewBox="0 0 171 170">
  <g id="Group_4494" data-name="Group 4494" transform="translate(-1393 -4265)">
    <ellipse id="Ellipse_9" data-name="Ellipse 9" cx="85.5" cy="85" rx="85.5" ry="85" transform="translate(1393 4265)" fill="rgba(0,0,0,0.76)"/>
    <path id="XMLID_2134_" d="M62.893,35.155a4.071,4.071,0,0,1,.248,5.785,4.011,4.011,0,0,1-3.058,1.322,4.14,4.14,0,0,1-2.81-1.074c-18.345-16.775-38.1-.826-38.922-.165a4.105,4.105,0,0,1-5.289-6.28c9.007-7.52,30.824-17.023,49.83.413ZM38.267,58.128a7.681,7.681,0,0,0-5.537,2.314,7.851,7.851,0,0,0,5.537,13.387A7.681,7.681,0,0,0,43.8,71.515a7.851,7.851,0,0,0-5.537-13.387Zm36.36-34.212C55.042,6.811,36.119,7.72,23.64,11.521a60.021,60.021,0,0,0-22.312,12.4A4.067,4.067,0,0,0,1.163,29.7a4.167,4.167,0,0,0,5.867.165A53.259,53.259,0,0,1,26.119,19.371c15.205-4.628,29.667-.992,43.137,10.743a4.108,4.108,0,0,0,2.727.992,4.269,4.269,0,0,0,3.14-1.4,4.164,4.164,0,0,0-.5-5.785ZM24.384,46.476a4.117,4.117,0,0,0,5.123,6.446c.331-.248,9.09-7.024,16.527-.083a4.2,4.2,0,0,0,5.867-.248,4,4,0,0,0-.248-5.785c-10-9.255-22.229-4.214-27.27-.331Z" transform="translate(1440.732 4308.738)" fill="#10bd53"/>
  </g>
</svg>
