<svg width="158" height="790" viewBox="0 0 158 790" fill="none" xmlns="http://www.w3.org/2000/svg">
<g clip-path="url(#clip0_1390_418)">
<g opacity="0.28">
<path opacity="0.28" d="M240.947 563.261L21.4531 436.61C21.4531 436.61 13.3391 433.301 8.6001 426.48C3.8611 419.659 2.5 409.328 2.5 409.328L2.62012 153.208C2.62012 153.208 4.33191 144.129 8.75391 137.896C11.831 133.86 15.7802 130.571 20.3062 128.275L240.044 2.16797" fill="url(#paint0_linear_1390_418)"/>
<path opacity="0.28" d="M240.947 563.261L21.4531 436.61C21.4531 436.61 13.3391 433.301 8.6001 426.48C3.8611 419.659 2.5 409.328 2.5 409.328L2.62012 153.208C2.62012 153.208 4.33191 144.129 8.75391 137.896C11.831 133.86 15.7802 130.571 20.3062 128.275L240.044 2.16797" stroke="#10BD53" stroke-width="5"/>
</g>
<path opacity="0.28" d="M396.388 873.028L110.217 707.904C110.217 707.904 99.638 703.59 93.46 694.697C87.282 685.804 85.5068 672.334 85.5068 672.334L85.6631 338.41C85.6631 338.41 87.8951 326.573 93.6631 318.447C99.4311 310.321 108.725 305.903 108.725 305.903L395.215 141.488" stroke="#10BD53" stroke-width="5"/>
<path d="M85.5068 486.939C92.9627 486.939 99.0068 480.895 99.0068 473.439C99.0068 465.984 92.9627 459.939 85.5068 459.939C78.051 459.939 72.0068 465.984 72.0068 473.439C72.0068 480.895 78.051 486.939 85.5068 486.939Z" fill="#0FB550"/>
<path d="M85.5068 486.439C92.6865 486.439 98.5068 480.619 98.5068 473.439C98.5068 466.26 92.6865 460.439 85.5068 460.439C78.3271 460.439 72.5068 466.26 72.5068 473.439C72.5068 480.619 78.3271 486.439 85.5068 486.439Z" stroke="#10BD53"/>
</g>
<defs>
<linearGradient id="paint0_linear_1390_418" x1="224.017" y1="514.446" x2="-78.2842" y2="404.152" gradientUnits="userSpaceOnUse">
<stop stop-color="#10BD53"/>
<stop offset="1"/>
</linearGradient>
<clipPath id="clip0_1390_418">
<rect width="158" height="790" fill="white"/>
</clipPath>
</defs>
</svg>
