<svg xmlns="http://www.w3.org/2000/svg" xmlns:xlink="http://www.w3.org/1999/xlink" width="62.806" height="62.806" viewBox="0 0 62.806 62.806">
  <defs>
    <linearGradient id="linear-gradient" x1="0.024" y1="0.057" x2="1.031" y2="1" gradientUnits="objectBoundingBox">
      <stop offset="0" stop-color="#f29500"/>
      <stop offset="1" stop-color="#794b00"/>
    </linearGradient>
    <linearGradient id="linear-gradient-2" x1="-0.107" x2="1.094" y2="1.049" gradientUnits="objectBoundingBox">
      <stop offset="0" stop-color="#eb9100"/>
      <stop offset="1" stop-color="#764900"/>
    </linearGradient>
  </defs>
  <g id="logo-img" transform="translate(-863.25 -337.5)">
    <g id="Group_3477" data-name="Group 3477" transform="translate(863.25 337.5)">
      <path id="Path_159" data-name="Path 159" d="M31.4,0A31.4,31.4,0,1,1,0,31.4,31.4,31.4,0,0,1,31.4,0Z" transform="translate(0 0)" fill="url(#linear-gradient)"/>
      <g id="Path_160" data-name="Path 160" transform="translate(3.476 3.378)">
        <path d="M 27.91790580749512 51.02613830566406 C 24.82391738891602 51.02613830566406 21.82497596740723 50.41917419433594 19.0043888092041 49.22209167480469 C 16.27637672424316 48.06431579589844 13.82505893707275 46.4055290222168 11.718505859375 44.29178619384766 C 9.610788345336914 42.1768913269043 7.956411838531494 39.71512985229492 6.801317691802979 36.97488021850586 C 5.6060471534729 34.13931655883789 5 31.1241283416748 5 28.01306915283203 C 5 24.90202140808105 5.6060471534729 21.88683319091797 6.801317691802979 19.0512580871582 C 7.956411838531494 16.31102180480957 9.610788345336914 13.84925746917725 11.718505859375 11.73435115814209 C 13.82505893707275 9.620621681213379 16.27638816833496 7.961822032928467 19.0043888092041 6.804045677185059 C 21.82497596740723 5.606963157653809 24.82391738891602 4.999998569488525 27.91790580749512 4.999998569488525 C 31.01189422607422 4.999998569488525 34.01083374023438 5.606963157653809 36.83142471313477 6.804045677185059 C 39.55942535400391 7.961822032928467 42.0107536315918 9.620621681213379 44.11730575561523 11.73435115814209 C 46.22502517700195 13.84925746917725 47.87939834594727 16.31102180480957 49.03449249267578 19.0512580871582 C 50.22976303100586 21.88683319091797 50.83581161499023 24.90202140808105 50.83581161499023 28.01306915283203 C 50.83581161499023 31.1241283416748 50.22976303100586 34.13931655883789 49.03449249267578 36.97488021850586 C 47.87939834594727 39.71512985229492 46.22502517700195 42.1768913269043 44.11730575561523 44.29178619384766 C 42.0107536315918 46.4055290222168 39.5594367980957 48.06431579589844 36.83142471313477 49.22209167480469 C 34.01083374023438 50.41917419433594 31.01189422607422 51.02613830566406 27.91790580749512 51.02613830566406 Z" stroke="none"/>
        <path d="M 27.91790580749512 9.999996185302734 C 18.03794097900391 9.999996185302734 9.999996185302734 18.08063125610352 9.999996185302734 28.01306915283203 C 9.999996185302734 37.94550323486328 18.03794097900391 46.02614212036133 27.91790580749512 46.02614212036133 C 37.79786682128906 46.02614212036133 45.8358154296875 37.94550323486328 45.8358154296875 28.01306915283203 C 45.8358154296875 18.08063125610352 37.79786682128906 9.999996185302734 27.91790580749512 9.999996185302734 M 27.91790580749512 -3.814697265625e-06 C 43.33654022216797 -3.814697265625e-06 55.8358154296875 12.5418701171875 55.8358154296875 28.01306915283203 C 55.8358154296875 43.48426818847656 43.33654022216797 56.02614212036133 27.91790580749512 56.02614212036133 C 12.499267578125 56.02614212036133 -3.814697265625e-06 43.48426818847656 -3.814697265625e-06 28.01306915283203 C -3.814697265625e-06 12.5418701171875 12.499267578125 -3.814697265625e-06 27.91790580749512 -3.814697265625e-06 Z" stroke="none" fill="#000"/>
      </g>
    </g>
    <g id="Group_3478" data-name="Group 3478" transform="translate(878.087 351.125)">
      <path id="Union_14" data-name="Union 14" d="M27.313,35.428V32.3H25.421v3.124H23.528V32.3H20.212l-3.75-5.342L12.711,32.3H9.465v3.124H7.572V32.3H5.68v3.124H3.787V32.3H0L10.106,17.91,0,3.517H3.787V0H5.68V3.517H7.572V0H9.465V3.517h3.245l3.751,5.342,3.75-5.342h3.316V0h1.893V3.517h1.893V0h1.894V3.517h3.716L22.816,17.91,32.923,32.3H29.207v3.124Z" transform="translate(0 0)" fill="url(#linear-gradient-2)"/>
    </g>
  </g>
</svg>
