<svg width="392" height="680" viewBox="0 0 392 680" fill="none" xmlns="http://www.w3.org/2000/svg">
<g clip-path="url(#clip0_333_2114)">
<path opacity="0.248" d="M199.383 238.565L194.882 237.381L191.478 240.137" stroke="black" stroke-width="2.2" stroke-linecap="round"/>
<path opacity="0.248" d="M207.876 241.313L217.367 244.58" stroke="black" stroke-width="2.2" stroke-linecap="round"/>
<path opacity="0.248" d="M229.329 253.531L228.34 248.982L224.338 247.201" stroke="black" stroke-width="2.2" stroke-linecap="round"/>
<path opacity="0.248" d="M231.527 262.066L232.75 272.028" stroke="black" stroke-width="2.2" stroke-linecap="round"/>
<path opacity="0.248" d="M234.003 281.316L234.225 285.965L230.821 288.722" stroke="black" stroke-width="2.2" stroke-linecap="round"/>
<path opacity="0.248" d="M168.536 192.731L178.026 195.998" stroke="black" stroke-width="2.2" stroke-linecap="round"/>
<path opacity="0.248" d="M189.988 204.949L188.999 200.4L184.998 198.619" stroke="black" stroke-width="2.2" stroke-linecap="round"/>
<path opacity="0.248" d="M192.187 213.484L193.409 223.447" stroke="black" stroke-width="2.2" stroke-linecap="round"/>
<path opacity="0.248" d="M194.662 232.736L194.885 237.385" stroke="black" stroke-width="2.2" stroke-linecap="round"/>
<path opacity="0.248" d="M230.617 253.177L230.395 248.527L233.799 245.771" stroke="black" stroke-width="2.2" stroke-linecap="round"/>
<path opacity="0.248" d="M265.237 295.93L269.739 297.113L273.143 294.357" stroke="black" stroke-width="2.2" stroke-linecap="round"/>
<path opacity="0.248" d="M231.899 261.764L233.121 271.726" stroke="black" stroke-width="2.2" stroke-linecap="round"/>
<path opacity="0.248" d="M239.389 285.289L235.146 283.376L234.235 279.091" stroke="black" stroke-width="2.2" stroke-linecap="round"/>
<path opacity="0.248" d="M247.281 289.214L256.772 292.481" stroke="black" stroke-width="2.2" stroke-linecap="round"/>
<path opacity="0.248" d="M191.276 204.596L191.055 199.946L194.458 197.189" stroke="black" stroke-width="2.2" stroke-linecap="round"/>
<path opacity="0.248" d="M225.896 247.348L230.398 248.531" stroke="black" stroke-width="2.2" stroke-linecap="round"/>
<path opacity="0.248" d="M192.559 213.182L193.781 223.144" stroke="black" stroke-width="2.2" stroke-linecap="round"/>
<path opacity="0.248" d="M200.05 236.708L195.806 234.795L194.895 230.51" stroke="black" stroke-width="2.2" stroke-linecap="round"/>
<path opacity="0.248" d="M207.94 240.632L217.431 243.899" stroke="black" stroke-width="2.2" stroke-linecap="round"/>
<path opacity="0.248" d="M278.476 336.236L273.975 335.052L270.571 337.809" stroke="black" stroke-width="2.2" stroke-linecap="round"/>
<path opacity="0.248" d="M239.136 287.656L234.635 286.471L231.23 289.228" stroke="black" stroke-width="2.2" stroke-linecap="round"/>
<path opacity="0.248" d="M247.629 290.404L257.12 293.671" stroke="black" stroke-width="2.2" stroke-linecap="round"/>
<path opacity="0.248" d="M269.082 302.621L268.093 298.073L264.091 296.291" stroke="black" stroke-width="2.2" stroke-linecap="round"/>
<path opacity="0.248" d="M273.756 330.407L273.978 335.056" stroke="black" stroke-width="2.2" stroke-linecap="round"/>
<path opacity="0.248" d="M270.37 302.268L270.148 297.618L273.552 294.862" stroke="black" stroke-width="2.2" stroke-linecap="round"/>
<path d="M10.2739 502.393L14.7763 503.577L18.1801 500.82" stroke="black" stroke-width="2.2" stroke-linecap="round"/>
<path d="M24.4414 495.751L32.2425 489.434" stroke="black" stroke-width="2.2" stroke-linecap="round"/>
<path d="M41.6847 476.957L41.9071 481.606L38.5029 484.363" stroke="black" stroke-width="2.2" stroke-linecap="round"/>
<path d="M70.0879 378.347L77.8889 372.03" stroke="black" stroke-width="2.2" stroke-linecap="round"/>
<path opacity="0.248" d="M92.0524 365.383L87.5512 364.199L84.147 366.956" stroke="black" stroke-width="2.2" stroke-linecap="round"/>
<path opacity="0.248" d="M100.546 368.133L110.036 371.4" stroke="black" stroke-width="2.2" stroke-linecap="round"/>
<path opacity="0.248" d="M121.998 380.349L121.009 375.801L117.007 374.019" stroke="black" stroke-width="2.2" stroke-linecap="round"/>
<path opacity="0.248" d="M124.197 388.885L125.42 398.848" stroke="black" stroke-width="2.2" stroke-linecap="round"/>
<path d="M95.2617 433.572L99.7641 434.755L103.168 431.998" stroke="black" stroke-width="2.2" stroke-linecap="round"/>
<path d="M109.429 426.929L117.23 420.612" stroke="black" stroke-width="2.2" stroke-linecap="round"/>
<path opacity="0.248" d="M126.673 408.135L126.895 412.784L123.491 415.541" stroke="black" stroke-width="2.2" stroke-linecap="round"/>
<path d="M30.7476 329.766L38.5486 323.449" stroke="black" stroke-width="2.2" stroke-linecap="round"/>
<path opacity="0.248" d="M52.7126 316.802L48.2113 315.618L44.8071 318.375" stroke="black" stroke-width="2.2" stroke-linecap="round"/>
<path opacity="0.248" d="M61.2061 319.551L70.6966 322.818" stroke="black" stroke-width="2.2" stroke-linecap="round"/>
<path opacity="0.248" d="M82.6582 331.768L81.6688 327.219L77.6675 325.438" stroke="black" stroke-width="2.2" stroke-linecap="round"/>
<path opacity="0.248" d="M84.8569 340.303L86.0792 350.266" stroke="black" stroke-width="2.2" stroke-linecap="round"/>
<path opacity="0.248" d="M87.3318 359.554L87.5542 364.203" stroke="black" stroke-width="2.2" stroke-linecap="round"/>
<path opacity="0.248" d="M82.9844 332.823L82.7631 328.173L86.1669 325.416" stroke="black" stroke-width="2.2" stroke-linecap="round"/>
<path opacity="0.248" d="M92.4321 320.349L100.233 314.032" stroke="black" stroke-width="2.2" stroke-linecap="round"/>
<path opacity="0.248" d="M114.396 307.386L109.895 306.202L106.491 308.958" stroke="black" stroke-width="2.2" stroke-linecap="round"/>
<path opacity="0.248" d="M122.889 310.135L132.379 313.402" stroke="black" stroke-width="2.2" stroke-linecap="round"/>
<path opacity="0.248" d="M144.341 322.353L143.351 317.804L139.35 316.022" stroke="black" stroke-width="2.2" stroke-linecap="round"/>
<path opacity="0.248" d="M146.54 330.888L147.762 340.85" stroke="black" stroke-width="2.2" stroke-linecap="round"/>
<path opacity="0.248" d="M117.604 375.574L122.106 376.757L125.51 374.001" stroke="black" stroke-width="2.2" stroke-linecap="round"/>
<path opacity="0.248" d="M131.772 368.93L139.574 362.613" stroke="black" stroke-width="2.2" stroke-linecap="round"/>
<path opacity="0.248" d="M149.016 350.138L149.238 354.787L145.834 357.543" stroke="black" stroke-width="2.2" stroke-linecap="round"/>
<path opacity="0.248" d="M91.7581 364.935L87.5145 363.021L86.6039 358.737" stroke="black" stroke-width="2.2" stroke-linecap="round"/>
<path d="M43.6436 284.241L43.4223 279.591L46.8261 276.834" stroke="black" stroke-width="2.2" stroke-linecap="round"/>
<path d="M75.0554 258.804L70.5541 257.62L67.1499 260.377" stroke="black" stroke-width="2.2" stroke-linecap="round"/>
<path opacity="0.248" d="M83.5479 261.553L93.0383 264.82" stroke="black" stroke-width="2.2" stroke-linecap="round"/>
<path opacity="0.248" d="M105.001 273.771L104.011 269.222L100.01 267.441" stroke="black" stroke-width="2.2" stroke-linecap="round"/>
<path opacity="0.248" d="M107.198 282.305L108.421 292.268" stroke="black" stroke-width="2.2" stroke-linecap="round"/>
<path opacity="0.248" d="M78.2637 326.993L82.7661 328.176" stroke="black" stroke-width="2.2" stroke-linecap="round"/>
<path opacity="0.248" d="M109.675 301.557L109.897 306.206" stroke="black" stroke-width="2.2" stroke-linecap="round"/>
<path opacity="0.248" d="M44.9258 292.826L46.1481 302.789" stroke="black" stroke-width="2.2" stroke-linecap="round"/>
<path opacity="0.248" d="M52.4168 316.353L48.1732 314.439L47.2626 310.155" stroke="black" stroke-width="2.2" stroke-linecap="round"/>
<path opacity="0.248" d="M145.629 321.998L145.408 317.348L148.811 314.592" stroke="black" stroke-width="2.2" stroke-linecap="round"/>
<path opacity="0.248" d="M155.076 309.525L162.877 303.208" stroke="black" stroke-width="2.2" stroke-linecap="round"/>
<path opacity="0.248" d="M177.04 296.562L172.538 295.378L169.134 298.134" stroke="black" stroke-width="2.2" stroke-linecap="round"/>
<path opacity="0.248" d="M185.533 299.312L195.023 302.579" stroke="black" stroke-width="2.2" stroke-linecap="round"/>
<path opacity="0.248" d="M206.985 311.528L205.996 306.979L201.995 305.198" stroke="black" stroke-width="2.2" stroke-linecap="round"/>
<path opacity="0.248" d="M209.186 320.063L210.408 330.026" stroke="black" stroke-width="2.2" stroke-linecap="round"/>
<path opacity="0.248" d="M180.249 364.75L184.751 365.933L188.155 363.177" stroke="black" stroke-width="2.2" stroke-linecap="round"/>
<path opacity="0.248" d="M194.417 358.108L202.218 351.79" stroke="black" stroke-width="2.2" stroke-linecap="round"/>
<path opacity="0.248" d="M211.66 339.314L211.882 343.963L208.478 346.72" stroke="black" stroke-width="2.2" stroke-linecap="round"/>
<path opacity="0.248" d="M146.913 330.586L148.135 340.548" stroke="black" stroke-width="2.2" stroke-linecap="round"/>
<path opacity="0.248" d="M154.402 354.111L150.158 352.197L149.247 347.913" stroke="black" stroke-width="2.2" stroke-linecap="round"/>
<path opacity="0.248" d="M162.294 358.035L171.784 361.302" stroke="black" stroke-width="2.2" stroke-linecap="round"/>
<path opacity="0.248" d="M106.289 273.417L106.067 268.767L109.471 266.01" stroke="black" stroke-width="2.2" stroke-linecap="round"/>
<path opacity="0.248" d="M115.736 260.944L123.537 254.627" stroke="black" stroke-width="2.2" stroke-linecap="round"/>
<path opacity="0.248" d="M137.699 247.981L133.198 246.797L129.794 249.553" stroke="black" stroke-width="2.2" stroke-linecap="round"/>
<path opacity="0.248" d="M146.192 250.73L155.683 253.997" stroke="black" stroke-width="2.2" stroke-linecap="round"/>
<path opacity="0.248" d="M167.646 262.947L166.656 258.398L162.655 256.617" stroke="black" stroke-width="2.2" stroke-linecap="round"/>
<path opacity="0.248" d="M169.845 271.482L171.067 281.444" stroke="black" stroke-width="2.2" stroke-linecap="round"/>
<path opacity="0.248" d="M140.908 316.168L145.411 317.352" stroke="black" stroke-width="2.2" stroke-linecap="round"/>
<path opacity="0.248" d="M172.318 290.733L172.541 295.382" stroke="black" stroke-width="2.2" stroke-linecap="round"/>
<path opacity="0.248" d="M107.571 282.003L108.794 291.966" stroke="black" stroke-width="2.2" stroke-linecap="round"/>
<path opacity="0.248" d="M115.061 305.53L110.818 303.617L109.907 299.332" stroke="black" stroke-width="2.2" stroke-linecap="round"/>
<path opacity="0.248" d="M122.953 309.454L132.444 312.72" stroke="black" stroke-width="2.2" stroke-linecap="round"/>
<path opacity="0.248" d="M167.972 264.001L167.751 259.351L171.155 256.594" stroke="black" stroke-width="2.2" stroke-linecap="round"/>
<path opacity="0.248" d="M177.419 251.528L185.22 245.211" stroke="black" stroke-width="2.2" stroke-linecap="round"/>
<path opacity="0.248" d="M202.592 306.752L207.094 307.936L210.498 305.179" stroke="black" stroke-width="2.2" stroke-linecap="round"/>
<path opacity="0.248" d="M216.759 300.109L224.56 293.792" stroke="black" stroke-width="2.2" stroke-linecap="round"/>
<path opacity="0.248" d="M176.745 296.114L172.501 294.2L171.591 289.916" stroke="black" stroke-width="2.2" stroke-linecap="round"/>
<path d="M128.631 215.419L128.41 210.769L131.814 208.013" stroke="black" stroke-width="2.2" stroke-linecap="round"/>
<path opacity="0.248" d="M163.252 258.171L167.754 259.355" stroke="black" stroke-width="2.2" stroke-linecap="round"/>
<path opacity="0.248" d="M129.913 224.005L131.135 233.967" stroke="black" stroke-width="2.2" stroke-linecap="round"/>
<path opacity="0.248" d="M137.404 247.531L133.16 245.618L132.249 241.333" stroke="black" stroke-width="2.2" stroke-linecap="round"/>
<path opacity="0.248" d="M240.063 240.704L247.864 234.387" stroke="black" stroke-width="2.2" stroke-linecap="round"/>
<path d="M262.027 227.741L257.525 226.557L254.121 229.313" stroke="black" stroke-width="2.2" stroke-linecap="round"/>
<path d="M270.521 230.49L280.011 233.757" stroke="black" stroke-width="2.2" stroke-linecap="round"/>
<path d="M291.973 242.706L290.984 238.157L286.982 236.376" stroke="black" stroke-width="2.2" stroke-linecap="round"/>
<path d="M294.172 251.242L295.395 261.205" stroke="black" stroke-width="2.2" stroke-linecap="round"/>
<path opacity="0.248" d="M279.404 289.286L287.205 282.969" stroke="black" stroke-width="2.2" stroke-linecap="round"/>
<path d="M296.647 270.493L296.87 275.142L293.465 277.899" stroke="black" stroke-width="2.2" stroke-linecap="round"/>
<path opacity="0.248" d="M200.723 192.123L208.524 185.806" stroke="black" stroke-width="2.2" stroke-linecap="round"/>
<path d="M222.687 179.16L218.185 177.976L214.781 180.732" stroke="black" stroke-width="2.2" stroke-linecap="round"/>
<path d="M231.18 181.908L240.671 185.175" stroke="black" stroke-width="2.2" stroke-linecap="round"/>
<path d="M252.633 194.125L251.644 189.576L247.643 187.795" stroke="black" stroke-width="2.2" stroke-linecap="round"/>
<path d="M254.832 202.66L256.054 212.623" stroke="black" stroke-width="2.2" stroke-linecap="round"/>
<path d="M257.307 221.911L257.529 226.56" stroke="black" stroke-width="2.2" stroke-linecap="round"/>
<path d="M262.406 182.707L270.207 176.39" stroke="black" stroke-width="2.2" stroke-linecap="round"/>
<path d="M284.371 169.743L279.87 168.559L276.466 171.315" stroke="black" stroke-width="2.2" stroke-linecap="round"/>
<path d="M292.864 172.492L302.355 175.759" stroke="black" stroke-width="2.2" stroke-linecap="round"/>
<path d="M314.317 184.709L313.328 180.16L309.326 178.379" stroke="black" stroke-width="2.2" stroke-linecap="round"/>
<path d="M316.516 193.244L317.738 203.206" stroke="black" stroke-width="2.2" stroke-linecap="round"/>
<path d="M287.58 237.93L292.082 239.114L295.486 236.357" stroke="black" stroke-width="2.2" stroke-linecap="round"/>
<path d="M301.747 231.288L309.548 224.97" stroke="black" stroke-width="2.2" stroke-linecap="round"/>
<path d="M318.991 212.495L319.213 217.144L315.809 219.9" stroke="black" stroke-width="2.2" stroke-linecap="round"/>
<path d="M261.733 227.292L257.49 225.378L256.579 221.094" stroke="black" stroke-width="2.2" stroke-linecap="round"/>
<path d="M213.62 146.597L213.398 141.947L216.802 139.191" stroke="black" stroke-width="2.2" stroke-linecap="round"/>
<path d="M245.03 121.161L240.529 119.977L237.125 122.734" stroke="black" stroke-width="2.2" stroke-linecap="round"/>
<path d="M253.523 123.91L263.013 127.177" stroke="black" stroke-width="2.2" stroke-linecap="round"/>
<path d="M274.976 136.127L273.987 131.579L269.985 129.797" stroke="black" stroke-width="2.2" stroke-linecap="round"/>
<path d="M277.174 144.662L278.396 154.624" stroke="black" stroke-width="2.2" stroke-linecap="round"/>
<path d="M248.24 189.35L252.742 190.533" stroke="black" stroke-width="2.2" stroke-linecap="round"/>
<path d="M279.65 163.914L279.873 168.563" stroke="black" stroke-width="2.2" stroke-linecap="round"/>
<path d="M214.901 155.183L216.124 165.145" stroke="black" stroke-width="2.2" stroke-linecap="round"/>
<path d="M222.392 178.709L218.148 176.796L217.238 172.511" stroke="black" stroke-width="2.2" stroke-linecap="round"/>
<path d="M315.604 184.355L315.383 179.705L318.787 176.948" stroke="black" stroke-width="2.2" stroke-linecap="round"/>
<path d="M325.051 171.882L332.852 165.565" stroke="black" stroke-width="2.2" stroke-linecap="round"/>
<path d="M347.015 158.918L342.514 157.734L339.11 160.491" stroke="black" stroke-width="2.2" stroke-linecap="round"/>
<path d="M355.509 161.668L364.999 164.935" stroke="black" stroke-width="2.2" stroke-linecap="round"/>
<path d="M376.96 173.885L375.971 169.336L371.97 167.555" stroke="black" stroke-width="2.2" stroke-linecap="round"/>
<path d="M379.16 182.421L380.382 192.383" stroke="black" stroke-width="2.2" stroke-linecap="round"/>
<path d="M350.224 227.107L354.727 228.29L358.13 225.534" stroke="black" stroke-width="2.2" stroke-linecap="round"/>
<path d="M364.392 220.465L372.193 214.147" stroke="black" stroke-width="2.2" stroke-linecap="round"/>
<path d="M381.635 201.671L381.858 206.32L378.454 209.076" stroke="black" stroke-width="2.2" stroke-linecap="round"/>
<path d="M316.888 192.943L318.11 202.905" stroke="black" stroke-width="2.2" stroke-linecap="round"/>
<path d="M324.378 216.467L320.134 214.554L319.224 210.27" stroke="black" stroke-width="2.2" stroke-linecap="round"/>
<path d="M332.268 220.393L341.759 223.66" stroke="black" stroke-width="2.2" stroke-linecap="round"/>
<path d="M276.264 135.774L276.042 131.124L279.446 128.367" stroke="black" stroke-width="2.2" stroke-linecap="round"/>
<path d="M285.711 123.301L293.512 116.984" stroke="black" stroke-width="2.2" stroke-linecap="round"/>
<path d="M307.675 110.337L303.174 109.153L299.77 111.91" stroke="black" stroke-width="2.2" stroke-linecap="round"/>
<path d="M316.168 113.086L325.658 116.353" stroke="black" stroke-width="2.2" stroke-linecap="round"/>
<path d="M337.621 125.304L336.631 120.755L332.63 118.974" stroke="black" stroke-width="2.2" stroke-linecap="round"/>
<path d="M339.819 133.839L341.041 143.801" stroke="black" stroke-width="2.2" stroke-linecap="round"/>
<path d="M310.883 178.525L315.386 179.709" stroke="black" stroke-width="2.2" stroke-linecap="round"/>
<path d="M342.294 153.09L342.516 157.739" stroke="black" stroke-width="2.2" stroke-linecap="round"/>
<path d="M277.546 144.36L278.769 154.323" stroke="black" stroke-width="2.2" stroke-linecap="round"/>
<path d="M285.038 167.886L280.794 165.973L279.884 161.688" stroke="black" stroke-width="2.2" stroke-linecap="round"/>
<path d="M292.928 171.811L302.418 175.078" stroke="black" stroke-width="2.2" stroke-linecap="round"/>
<path d="M337.948 126.358L337.727 121.708L341.13 118.951" stroke="black" stroke-width="2.2" stroke-linecap="round"/>
<path opacity="0.3" d="M347.395 113.884L355.196 107.567" stroke="black" stroke-width="2.2" stroke-linecap="round"/>
<path opacity="0.3" d="M369.359 100.921L364.858 99.737L361.454 102.494" stroke="black" stroke-width="2.2" stroke-linecap="round"/>
<path opacity="0.3" d="M377.851 103.671L387.342 106.937" stroke="black" stroke-width="2.2" stroke-linecap="round"/>
<path opacity="0.3" d="M399.304 115.888L398.314 111.339L394.313 109.558" stroke="black" stroke-width="2.2" stroke-linecap="round"/>
<path d="M372.567 169.109L377.069 170.293L380.473 167.536" stroke="black" stroke-width="2.2" stroke-linecap="round"/>
<path opacity="0.3" d="M386.736 162.465L394.537 156.148" stroke="black" stroke-width="2.2" stroke-linecap="round"/>
<path d="M346.72 158.471L342.476 156.557L341.566 152.273" stroke="black" stroke-width="2.2" stroke-linecap="round"/>
<path d="M298.606 77.776L298.385 73.126L301.789 70.3696" stroke="black" stroke-width="2.2" stroke-linecap="round"/>
<path d="M330.018 52.3394L325.517 51.1552L322.113 53.9119" stroke="black" stroke-width="2.2" stroke-linecap="round"/>
<path opacity="0.3" d="M338.51 55.0891L348.001 58.356" stroke="black" stroke-width="2.2" stroke-linecap="round"/>
<path opacity="0.3" d="M359.963 67.306L358.974 62.7573L354.973 60.9758" stroke="black" stroke-width="2.2" stroke-linecap="round"/>
<path opacity="0.3" d="M362.162 75.8398L363.384 85.8022" stroke="black" stroke-width="2.2" stroke-linecap="round"/>
<path d="M333.227 120.528L337.729 121.712" stroke="black" stroke-width="2.2" stroke-linecap="round"/>
<path opacity="0.3" d="M364.636 95.0932L364.859 99.7423" stroke="black" stroke-width="2.2" stroke-linecap="round"/>
<path d="M299.889 86.3616L301.111 96.3239" stroke="black" stroke-width="2.2" stroke-linecap="round"/>
<path d="M307.379 109.888L303.135 107.975L302.225 103.69" stroke="black" stroke-width="2.2" stroke-linecap="round"/>
<path opacity="0.3" d="M361.251 66.952L361.03 62.302L364.434 59.5457" stroke="black" stroke-width="2.2" stroke-linecap="round"/>
<path opacity="0.3" d="M370.698 54.48L378.499 48.1628" stroke="black" stroke-width="2.2" stroke-linecap="round"/>
<path opacity="0.3" d="M392.662 41.5166L388.161 40.3325L384.757 43.0891" stroke="black" stroke-width="2.2" stroke-linecap="round"/>
<path opacity="0.3" d="M362.533 75.5391L363.755 85.5014" stroke="black" stroke-width="2.2" stroke-linecap="round"/>
<path opacity="0.3" d="M370.024 99.065L365.781 97.1515L364.87 92.8672" stroke="black" stroke-width="2.2" stroke-linecap="round"/>
<path opacity="0.3" d="M377.916 102.989L387.406 106.256" stroke="black" stroke-width="2.2" stroke-linecap="round"/>
<path d="M383.595 8.95422L383.374 4.3042L386.778 1.54785" stroke="black" stroke-width="2.2" stroke-linecap="round"/>
<path opacity="0.3" d="M384.876 17.5403L386.098 27.5026" stroke="black" stroke-width="2.2" stroke-linecap="round"/>
<path opacity="0.3" d="M392.367 41.0662L388.123 39.1527L387.213 34.8684" stroke="black" stroke-width="2.2" stroke-linecap="round"/>
<path opacity="0.202" d="M9.66357 603.448L19.1541 606.715" stroke="black" stroke-width="2.2" stroke-linecap="round"/>
<path opacity="0.202" d="M31.1162 615.665L30.1268 611.117L26.1255 609.335" stroke="black" stroke-width="2.2" stroke-linecap="round"/>
<path opacity="0.202" d="M33.3154 624.201L34.5377 634.164" stroke="black" stroke-width="2.2" stroke-linecap="round"/>
<path opacity="0.202" d="M18.5483 662.244L26.3494 655.927" stroke="black" stroke-width="2.2" stroke-linecap="round"/>
<path opacity="0.202" d="M35.7917 643.452L36.0141 648.101L32.6099 650.858" stroke="black" stroke-width="2.2" stroke-linecap="round"/>
<path d="M1.55029 555.664L9.35135 549.347" stroke="black" stroke-width="2.2" stroke-linecap="round"/>
<path d="M23.5138 542.701L19.0126 541.517L15.6084 544.273" stroke="black" stroke-width="2.2" stroke-linecap="round"/>
<path d="M32.0073 545.451L41.4978 548.718" stroke="black" stroke-width="2.2" stroke-linecap="round"/>
<path d="M53.459 557.667L52.4696 553.119L48.4683 551.337" stroke="black" stroke-width="2.2" stroke-linecap="round"/>
<path opacity="0.202" d="M55.6582 566.202L56.8805 576.164" stroke="black" stroke-width="2.2" stroke-linecap="round"/>
<path opacity="0.202" d="M26.7227 610.89L31.2251 612.073L34.6289 609.317" stroke="black" stroke-width="2.2" stroke-linecap="round"/>
<path opacity="0.202" d="M40.8906 604.246L48.6917 597.928" stroke="black" stroke-width="2.2" stroke-linecap="round"/>
<path opacity="0.202" d="M58.1344 585.453L58.3568 590.102L54.9527 592.859" stroke="black" stroke-width="2.2" stroke-linecap="round"/>
<path d="M14.1187 509.087L13.1293 504.538L9.12793 502.756" stroke="black" stroke-width="2.2" stroke-linecap="round"/>
<path d="M16.3174 517.62L17.5397 527.583" stroke="black" stroke-width="2.2" stroke-linecap="round"/>
<path d="M18.7927 536.872L19.0152 541.521" stroke="black" stroke-width="2.2" stroke-linecap="round"/>
<path d="M54.7481 557.314L54.5268 552.664L57.9306 549.908" stroke="black" stroke-width="2.2" stroke-linecap="round"/>
<path d="M64.1943 544.842L71.9954 538.525" stroke="black" stroke-width="2.2" stroke-linecap="round"/>
<path d="M86.1589 531.878L81.6576 530.694L78.2534 533.451" stroke="black" stroke-width="2.2" stroke-linecap="round"/>
<path opacity="0.202" d="M94.6509 534.626L104.141 537.893" stroke="black" stroke-width="2.2" stroke-linecap="round"/>
<path opacity="0.202" d="M116.103 546.844L115.114 542.295L111.112 540.514" stroke="black" stroke-width="2.2" stroke-linecap="round"/>
<path opacity="0.202" d="M118.303 555.38L119.525 565.342" stroke="black" stroke-width="2.2" stroke-linecap="round"/>
<path opacity="0.202" d="M89.3682 600.067L93.8706 601.25L97.2744 598.494" stroke="black" stroke-width="2.2" stroke-linecap="round"/>
<path opacity="0.202" d="M103.535 593.424L111.336 587.107" stroke="black" stroke-width="2.2" stroke-linecap="round"/>
<path opacity="0.202" d="M120.779 574.63L121.001 579.28L117.597 582.036" stroke="black" stroke-width="2.2" stroke-linecap="round"/>
<path opacity="0.202" d="M56.0298 565.901L57.2521 575.863" stroke="black" stroke-width="2.2" stroke-linecap="round"/>
<path opacity="0.202" d="M63.5203 589.427L59.2767 587.513L58.3661 583.229" stroke="black" stroke-width="2.2" stroke-linecap="round"/>
<path opacity="0.202" d="M71.4116 593.352L80.9021 596.618" stroke="black" stroke-width="2.2" stroke-linecap="round"/>
<path d="M15.4068 508.732L15.1855 504.082L18.5893 501.325" stroke="black" stroke-width="2.2" stroke-linecap="round"/>
<path d="M24.854 496.26L32.6551 489.942" stroke="black" stroke-width="2.2" stroke-linecap="round"/>
<path d="M46.8185 483.296L42.3173 482.112L38.9131 484.868" stroke="black" stroke-width="2.2" stroke-linecap="round"/>
<path d="M55.3105 486.046L64.801 489.312" stroke="black" stroke-width="2.2" stroke-linecap="round"/>
<path d="M76.7622 498.262L75.7728 493.714L71.7715 491.932" stroke="black" stroke-width="2.2" stroke-linecap="round"/>
<path d="M78.9619 506.797L80.1842 516.759" stroke="black" stroke-width="2.2" stroke-linecap="round"/>
<path d="M50.0269 551.484L54.5293 552.667" stroke="black" stroke-width="2.2" stroke-linecap="round"/>
<path d="M81.4373 526.048L81.6597 530.697" stroke="black" stroke-width="2.2" stroke-linecap="round"/>
<path d="M16.6895 517.32L17.9117 527.282" stroke="black" stroke-width="2.2" stroke-linecap="round"/>
<path d="M24.1804 540.845L19.9369 538.931L19.0263 534.647" stroke="black" stroke-width="2.2" stroke-linecap="round"/>
<path d="M32.0703 544.769L41.5608 548.036" stroke="black" stroke-width="2.2" stroke-linecap="round"/>
<path d="M77.0903 499.316L76.8691 494.666L80.2729 491.909" stroke="black" stroke-width="2.2" stroke-linecap="round"/>
<path d="M86.5366 486.843L94.3377 480.526" stroke="black" stroke-width="2.2" stroke-linecap="round"/>
<path d="M108.501 473.879L104 472.695L100.596 475.452" stroke="black" stroke-width="2.2" stroke-linecap="round"/>
<path d="M116.995 476.629L126.486 479.896" stroke="black" stroke-width="2.2" stroke-linecap="round"/>
<path d="M138.447 488.846L137.457 484.297L133.456 482.515" stroke="black" stroke-width="2.2" stroke-linecap="round"/>
<path opacity="0.202" d="M140.646 497.381L141.869 507.343" stroke="black" stroke-width="2.2" stroke-linecap="round"/>
<path opacity="0.202" d="M111.71 542.068L116.213 543.251L119.617 540.495" stroke="black" stroke-width="2.2" stroke-linecap="round"/>
<path opacity="0.202" d="M125.878 535.425L133.679 529.108" stroke="black" stroke-width="2.2" stroke-linecap="round"/>
<path opacity="0.202" d="M143.121 516.632L143.344 521.281L139.939 524.038" stroke="black" stroke-width="2.2" stroke-linecap="round"/>
<path d="M85.863 531.429L81.6195 529.515L80.7089 525.231" stroke="black" stroke-width="2.2" stroke-linecap="round"/>
<path d="M99.107 440.265L98.1175 435.716L94.1162 433.934" stroke="black" stroke-width="2.2" stroke-linecap="round"/>
<path d="M101.305 448.799L102.527 458.761" stroke="black" stroke-width="2.2" stroke-linecap="round"/>
<path d="M72.3696 493.486L76.872 494.669" stroke="black" stroke-width="2.2" stroke-linecap="round"/>
<path d="M103.781 468.05L104.003 472.699" stroke="black" stroke-width="2.2" stroke-linecap="round"/>
<path d="M46.5237 482.847L42.2801 480.934L41.3695 476.65" stroke="black" stroke-width="2.2" stroke-linecap="round"/>
<path d="M139.736 488.492L139.515 483.842L142.918 481.086" stroke="black" stroke-width="2.2" stroke-linecap="round"/>
<path d="M149.183 476.02L156.984 469.703" stroke="black" stroke-width="2.2" stroke-linecap="round"/>
<path opacity="0.248" d="M171.147 463.056L166.646 461.872L163.242 464.629" stroke="black" stroke-width="2.2" stroke-linecap="round"/>
<path opacity="0.248" d="M179.639 465.805L189.129 469.072" stroke="black" stroke-width="2.2" stroke-linecap="round"/>
<path opacity="0.248" d="M201.092 478.022L200.102 473.473L196.101 471.691" stroke="black" stroke-width="2.2" stroke-linecap="round"/>
<path opacity="0.248" d="M203.291 486.558L204.513 496.52" stroke="black" stroke-width="2.2" stroke-linecap="round"/>
<path opacity="0.202" d="M174.356 531.245L178.859 532.428L182.263 529.672" stroke="black" stroke-width="2.2" stroke-linecap="round"/>
<path d="M188.523 524.602L196.324 518.285" stroke="black" stroke-width="2.2" stroke-linecap="round"/>
<path opacity="0.248" d="M205.767 505.809L205.989 510.458L202.585 513.214" stroke="black" stroke-width="2.2" stroke-linecap="round"/>
<path opacity="0.202" d="M141.018 497.079L142.24 507.042" stroke="black" stroke-width="2.2" stroke-linecap="round"/>
<path opacity="0.202" d="M148.507 520.605L144.264 518.692L143.353 514.407" stroke="black" stroke-width="2.2" stroke-linecap="round"/>
<path opacity="0.202" d="M156.399 524.53L165.89 527.796" stroke="black" stroke-width="2.2" stroke-linecap="round"/>
<path d="M100.396 439.91L100.174 435.26L103.578 432.503" stroke="black" stroke-width="2.2" stroke-linecap="round"/>
<path d="M109.841 427.438L117.642 421.121" stroke="black" stroke-width="2.2" stroke-linecap="round"/>
<path opacity="0.248" d="M131.805 414.474L127.304 413.29L123.9 416.046" stroke="black" stroke-width="2.2" stroke-linecap="round"/>
<path opacity="0.248" d="M140.299 417.224L149.79 420.49" stroke="black" stroke-width="2.2" stroke-linecap="round"/>
<path opacity="0.248" d="M161.751 429.44L160.762 424.891L156.76 423.11" stroke="black" stroke-width="2.2" stroke-linecap="round"/>
<path opacity="0.248" d="M163.95 437.975L165.172 447.937" stroke="black" stroke-width="2.2" stroke-linecap="round"/>
<path d="M135.015 482.662L139.518 483.846" stroke="black" stroke-width="2.2" stroke-linecap="round"/>
<path opacity="0.248" d="M166.427 457.227L166.649 461.876" stroke="black" stroke-width="2.2" stroke-linecap="round"/>
<path d="M101.677 448.498L102.9 458.46" stroke="black" stroke-width="2.2" stroke-linecap="round"/>
<path d="M109.167 472.024L104.923 470.11L104.013 465.826" stroke="black" stroke-width="2.2" stroke-linecap="round"/>
<path d="M117.059 475.947L126.549 479.214" stroke="black" stroke-width="2.2" stroke-linecap="round"/>
<path opacity="0.248" d="M162.077 430.494L161.856 425.844L165.26 423.088" stroke="black" stroke-width="2.2" stroke-linecap="round"/>
<path opacity="0.248" d="M171.525 418.021L179.326 411.704" stroke="black" stroke-width="2.2" stroke-linecap="round"/>
<path opacity="0.248" d="M193.489 405.058L188.988 403.873L185.583 406.63" stroke="black" stroke-width="2.2" stroke-linecap="round"/>
<path opacity="0.248" d="M201.982 407.808L211.473 411.074" stroke="black" stroke-width="2.2" stroke-linecap="round"/>
<path opacity="0.248" d="M223.434 420.024L222.445 415.476L218.443 413.694" stroke="black" stroke-width="2.2" stroke-linecap="round"/>
<path opacity="0.248" d="M225.632 428.56L226.855 438.522" stroke="black" stroke-width="2.2" stroke-linecap="round"/>
<path opacity="0.248" d="M196.698 473.247L201.2 474.43L204.604 471.673" stroke="black" stroke-width="2.2" stroke-linecap="round"/>
<path opacity="0.248" d="M210.866 466.603L218.667 460.285" stroke="black" stroke-width="2.2" stroke-linecap="round"/>
<path opacity="0.248" d="M228.109 447.81L228.331 452.459L224.927 455.216" stroke="black" stroke-width="2.2" stroke-linecap="round"/>
<path opacity="0.248" d="M170.851 462.607L166.607 460.693L165.697 456.409" stroke="black" stroke-width="2.2" stroke-linecap="round"/>
<path opacity="0.248" d="M122.737 381.913L122.516 377.263L125.92 374.507" stroke="black" stroke-width="2.2" stroke-linecap="round"/>
<path opacity="0.248" d="M132.185 369.44L139.986 363.123" stroke="black" stroke-width="2.2" stroke-linecap="round"/>
<path opacity="0.248" d="M154.149 356.477L149.648 355.293L146.244 358.049" stroke="black" stroke-width="2.2" stroke-linecap="round"/>
<path opacity="0.248" d="M162.642 359.226L172.132 362.493" stroke="black" stroke-width="2.2" stroke-linecap="round"/>
<path opacity="0.248" d="M184.094 371.443L183.104 366.895L179.103 365.113" stroke="black" stroke-width="2.2" stroke-linecap="round"/>
<path opacity="0.248" d="M186.292 379.978L187.514 389.94" stroke="black" stroke-width="2.2" stroke-linecap="round"/>
<path opacity="0.248" d="M157.357 424.665L161.859 425.848" stroke="black" stroke-width="2.2" stroke-linecap="round"/>
<path opacity="0.248" d="M188.767 399.229L188.99 403.878" stroke="black" stroke-width="2.2" stroke-linecap="round"/>
<path opacity="0.248" d="M124.02 390.499L125.242 400.461" stroke="black" stroke-width="2.2" stroke-linecap="round"/>
<path opacity="0.248" d="M131.511 414.026L127.267 412.112L126.357 407.828" stroke="black" stroke-width="2.2" stroke-linecap="round"/>
<path opacity="0.248" d="M224.723 419.671L224.502 415.021L227.906 412.265" stroke="black" stroke-width="2.2" stroke-linecap="round"/>
<path opacity="0.248" d="M234.17 407.198L241.971 400.881" stroke="black" stroke-width="2.2" stroke-linecap="round"/>
<path opacity="0.248" d="M256.134 394.235L251.633 393.051L248.229 395.808" stroke="black" stroke-width="2.2" stroke-linecap="round"/>
<path opacity="0.248" d="M264.626 396.983L274.116 400.25" stroke="black" stroke-width="2.2" stroke-linecap="round"/>
<path opacity="0.248" d="M288.279 417.736L289.501 427.698" stroke="black" stroke-width="2.2" stroke-linecap="round"/>
<path opacity="0.248" d="M259.343 462.424L263.846 463.607L267.249 460.85" stroke="black" stroke-width="2.2" stroke-linecap="round"/>
<path opacity="0.248" d="M273.511 455.78L281.312 449.463" stroke="black" stroke-width="2.2" stroke-linecap="round"/>
<path opacity="0.248" d="M290.754 436.987L290.976 441.637L287.572 444.393" stroke="black" stroke-width="2.2" stroke-linecap="round"/>
<path opacity="0.248" d="M226.005 428.258L227.228 438.22" stroke="black" stroke-width="2.2" stroke-linecap="round"/>
<path opacity="0.248" d="M233.495 451.784L229.252 449.87L228.341 445.586" stroke="black" stroke-width="2.2" stroke-linecap="round"/>
<path opacity="0.248" d="M241.388 455.708L250.878 458.975" stroke="black" stroke-width="2.2" stroke-linecap="round"/>
<path opacity="0.248" d="M185.382 371.089L185.161 366.439L188.564 363.682" stroke="black" stroke-width="2.2" stroke-linecap="round"/>
<path opacity="0.248" d="M194.829 358.616L202.63 352.299" stroke="black" stroke-width="2.2" stroke-linecap="round"/>
<path opacity="0.248" d="M216.793 345.653L212.291 344.468L208.887 347.225" stroke="black" stroke-width="2.2" stroke-linecap="round"/>
<path opacity="0.248" d="M225.286 348.403L234.776 351.669" stroke="black" stroke-width="2.2" stroke-linecap="round"/>
<path opacity="0.248" d="M246.738 360.619L245.749 356.07L241.748 354.289" stroke="black" stroke-width="2.2" stroke-linecap="round"/>
<path opacity="0.248" d="M248.938 369.153L250.16 379.116" stroke="black" stroke-width="2.2" stroke-linecap="round"/>
<path opacity="0.248" d="M220.002 413.841L224.504 415.024" stroke="black" stroke-width="2.2" stroke-linecap="round"/>
<path opacity="0.248" d="M251.412 388.406L251.634 393.055" stroke="black" stroke-width="2.2" stroke-linecap="round"/>
<path opacity="0.248" d="M186.665 379.676L187.887 389.638" stroke="black" stroke-width="2.2" stroke-linecap="round"/>
<path opacity="0.248" d="M194.155 403.202L189.911 401.288L189 397.004" stroke="black" stroke-width="2.2" stroke-linecap="round"/>
<path opacity="0.248" d="M202.046 407.125L211.537 410.392" stroke="black" stroke-width="2.2" stroke-linecap="round"/>
<path opacity="0.248" d="M247.065 361.672L246.844 357.022L250.248 354.266" stroke="black" stroke-width="2.2" stroke-linecap="round"/>
<path opacity="0.248" d="M256.512 349.2L264.313 342.883" stroke="black" stroke-width="2.2" stroke-linecap="round"/>
<path opacity="0.248" d="M255.838 393.785L251.595 391.872L250.684 387.588" stroke="black" stroke-width="2.2" stroke-linecap="round"/>
<path opacity="0.248" d="M207.725 313.091L207.504 308.441L210.908 305.685" stroke="black" stroke-width="2.2" stroke-linecap="round"/>
<path opacity="0.248" d="M217.172 300.619L224.973 294.301" stroke="black" stroke-width="2.2" stroke-linecap="round"/>
<path opacity="0.248" d="M242.345 355.843L246.847 357.026" stroke="black" stroke-width="2.2" stroke-linecap="round"/>
<path opacity="0.248" d="M209.006 321.678L210.229 331.64" stroke="black" stroke-width="2.2" stroke-linecap="round"/>
<path opacity="0.248" d="M216.498 345.204L212.254 343.291L211.344 339.007" stroke="black" stroke-width="2.2" stroke-linecap="round"/>
<path opacity="0.248" d="M279.816 289.795L287.617 283.478" stroke="black" stroke-width="2.2" stroke-linecap="round"/>
<path d="M301.779 276.831L297.278 275.647L293.874 278.404" stroke="black" stroke-width="2.2" stroke-linecap="round"/>
<path d="M292.713 244.27L292.492 239.62L295.895 236.863" stroke="black" stroke-width="2.2" stroke-linecap="round"/>
<path d="M302.159 231.798L309.96 225.48" stroke="black" stroke-width="2.2" stroke-linecap="round"/>
<path d="M324.124 218.834L319.623 217.65L316.219 220.406" stroke="black" stroke-width="2.2" stroke-linecap="round"/>
<path d="M332.617 221.583L342.107 224.85" stroke="black" stroke-width="2.2" stroke-linecap="round"/>
<path d="M354.07 233.8L353.08 229.251L349.079 227.469" stroke="black" stroke-width="2.2" stroke-linecap="round"/>
<path d="M293.995 252.855L295.217 262.818" stroke="black" stroke-width="2.2" stroke-linecap="round"/>
<path d="M301.486 276.383L297.243 274.469L296.332 270.185" stroke="black" stroke-width="2.2" stroke-linecap="round"/>
<path d="M355.356 233.446L355.135 228.796L358.539 226.039" stroke="black" stroke-width="2.2" stroke-linecap="round"/>
<path d="M364.804 220.973L372.605 214.656" stroke="black" stroke-width="2.2" stroke-linecap="round"/>
<path d="M386.769 208.009L382.267 206.825L378.863 209.582" stroke="black" stroke-width="2.2" stroke-linecap="round"/>
<path d="M377.7 175.448L377.479 170.798L380.883 168.042" stroke="black" stroke-width="2.2" stroke-linecap="round"/>
<path opacity="0.3" d="M387.148 162.975L394.949 156.658" stroke="black" stroke-width="2.2" stroke-linecap="round"/>
<path d="M378.983 184.034L380.205 193.996" stroke="black" stroke-width="2.2" stroke-linecap="round"/>
<path d="M386.473 207.561L382.229 205.648L381.319 201.364" stroke="black" stroke-width="2.2" stroke-linecap="round"/>
<path opacity="0.202" d="M18.9609 662.753L26.762 656.436" stroke="black" stroke-width="2.2" stroke-linecap="round"/>
<path opacity="0.202" d="M40.9245 649.79L36.4232 648.606L33.019 651.363" stroke="black" stroke-width="2.2" stroke-linecap="round"/>
<path opacity="0.202" d="M31.8555 617.228L31.6342 612.578L35.038 609.822" stroke="black" stroke-width="2.2" stroke-linecap="round"/>
<path opacity="0.202" d="M41.3032 604.755L49.1043 598.437" stroke="black" stroke-width="2.2" stroke-linecap="round"/>
<path opacity="0.202" d="M63.2668 591.792L58.7655 590.607L55.3613 593.364" stroke="black" stroke-width="2.2" stroke-linecap="round"/>
<path opacity="0.202" d="M71.7603 594.541L81.2507 597.808" stroke="black" stroke-width="2.2" stroke-linecap="round"/>
<path opacity="0.202" d="M93.2119 606.758L92.2225 602.209L88.2212 600.428" stroke="black" stroke-width="2.2" stroke-linecap="round"/>
<path opacity="0.202" d="M33.1387 625.815L34.3609 635.778" stroke="black" stroke-width="2.2" stroke-linecap="round"/>
<path opacity="0.202" d="M40.6287 649.34L36.3851 647.427L35.4745 643.143" stroke="black" stroke-width="2.2" stroke-linecap="round"/>
<path opacity="0.202" d="M94.501 606.405L94.2797 601.755L97.6835 598.999" stroke="black" stroke-width="2.2" stroke-linecap="round"/>
<path opacity="0.202" d="M103.947 593.933L111.748 587.616" stroke="black" stroke-width="2.2" stroke-linecap="round"/>
<path opacity="0.202" d="M125.912 580.969L121.411 579.785L118.006 582.542" stroke="black" stroke-width="2.2" stroke-linecap="round"/>
<path opacity="0.202" d="M116.843 548.406L116.622 543.756L120.026 541" stroke="black" stroke-width="2.2" stroke-linecap="round"/>
<path opacity="0.202" d="M126.29 535.934L134.091 529.617" stroke="black" stroke-width="2.2" stroke-linecap="round"/>
<path opacity="0.202" d="M148.254 522.97L143.753 521.786L140.349 524.543" stroke="black" stroke-width="2.2" stroke-linecap="round"/>
<path opacity="0.202" d="M156.748 525.719L166.239 528.986" stroke="black" stroke-width="2.2" stroke-linecap="round"/>
<path opacity="0.202" d="M178.2 537.936L177.21 533.388L173.209 531.606" stroke="black" stroke-width="2.2" stroke-linecap="round"/>
<path opacity="0.202" d="M118.125 556.994L119.348 566.956" stroke="black" stroke-width="2.2" stroke-linecap="round"/>
<path opacity="0.202" d="M125.616 580.519L121.372 578.606L120.462 574.322" stroke="black" stroke-width="2.2" stroke-linecap="round"/>
<path opacity="0.202" d="M179.489 537.583L179.268 532.933L182.671 530.177" stroke="black" stroke-width="2.2" stroke-linecap="round"/>
<path d="M188.935 525.111L196.736 518.794" stroke="black" stroke-width="2.2" stroke-linecap="round"/>
<path opacity="0.248" d="M210.9 512.147L206.398 510.963L202.994 513.72" stroke="black" stroke-width="2.2" stroke-linecap="round"/>
<path opacity="0.248" d="M201.83 479.585L201.609 474.935L205.013 472.179" stroke="black" stroke-width="2.2" stroke-linecap="round"/>
<path opacity="0.248" d="M211.278 467.112L219.079 460.794" stroke="black" stroke-width="2.2" stroke-linecap="round"/>
<path opacity="0.248" d="M233.242 454.148L228.741 452.964L225.336 455.721" stroke="black" stroke-width="2.2" stroke-linecap="round"/>
<path opacity="0.248" d="M241.735 456.898L251.226 460.165" stroke="black" stroke-width="2.2" stroke-linecap="round"/>
<path opacity="0.248" d="M263.187 469.115L262.198 464.566L258.196 462.785" stroke="black" stroke-width="2.2" stroke-linecap="round"/>
<path opacity="0.248" d="M203.113 488.172L204.336 498.134" stroke="black" stroke-width="2.2" stroke-linecap="round"/>
<path opacity="0.248" d="M210.604 511.697L206.36 509.784L205.45 505.499" stroke="black" stroke-width="2.2" stroke-linecap="round"/>
<path opacity="0.248" d="M264.476 468.762L264.255 464.112L267.659 461.355" stroke="black" stroke-width="2.2" stroke-linecap="round"/>
<path opacity="0.248" d="M273.923 456.289L281.724 449.972" stroke="black" stroke-width="2.2" stroke-linecap="round"/>
<path opacity="0.248" d="M295.887 443.326L291.386 442.142L287.981 444.898" stroke="black" stroke-width="2.2" stroke-linecap="round"/>
<path opacity="0.248" d="M288.101 419.351L289.323 429.313" stroke="black" stroke-width="2.2" stroke-linecap="round"/>
<path opacity="0.248" d="M295.591 442.876L291.348 440.963L290.437 436.678" stroke="black" stroke-width="2.2" stroke-linecap="round"/>
<path d="M248.24 189.35L252.742 190.533" stroke="black" stroke-width="2.2" stroke-linecap="round"/>
<path d="M276.264 135.774L276.042 131.124L279.446 128.367" stroke="black" stroke-width="2.2" stroke-linecap="round"/>
<path opacity="0.202" d="M49.4165 652.539L58.907 655.805" stroke="black" stroke-width="2.2" stroke-linecap="round"/>
<path d="M70.8692 664.756L69.8797 660.208L65.8784 658.426" stroke="black" stroke-width="2.2" stroke-linecap="round"/>
<path d="M73.0684 673.292L74.2906 683.255" stroke="black" stroke-width="2.2" stroke-linecap="round"/>
<path d="M71.1958 665.81L70.9746 661.16L74.3784 658.404" stroke="black" stroke-width="2.2" stroke-linecap="round"/>
<path d="M80.6436 653.336L88.4446 647.019" stroke="black" stroke-width="2.2" stroke-linecap="round"/>
<path d="M102.608 640.373L98.1063 639.189L94.7021 641.946" stroke="black" stroke-width="2.2" stroke-linecap="round"/>
<path d="M111.1 643.122L120.591 646.389" stroke="black" stroke-width="2.2" stroke-linecap="round"/>
<path d="M132.553 655.34L131.563 650.791L127.562 649.01" stroke="black" stroke-width="2.2" stroke-linecap="round"/>
<path d="M134.752 663.875L135.974 673.837" stroke="black" stroke-width="2.2" stroke-linecap="round"/>
<path opacity="0.202" d="M95.4111 615.293L96.6334 625.255" stroke="black" stroke-width="2.2" stroke-linecap="round"/>
<path d="M66.4756 659.98L70.978 661.164" stroke="black" stroke-width="2.2" stroke-linecap="round"/>
<path d="M97.886 634.545L98.1084 639.194" stroke="black" stroke-width="2.2" stroke-linecap="round"/>
<path d="M133.842 654.987L133.621 650.337L137.024 647.58" stroke="black" stroke-width="2.2" stroke-linecap="round"/>
<path d="M143.288 642.515L151.089 636.197" stroke="black" stroke-width="2.2" stroke-linecap="round"/>
<path d="M165.253 629.551L160.751 628.367L157.347 631.123" stroke="black" stroke-width="2.2" stroke-linecap="round"/>
<path d="M173.745 632.299L183.235 635.566" stroke="black" stroke-width="2.2" stroke-linecap="round"/>
<path d="M135.124 663.574L136.346 673.536" stroke="black" stroke-width="2.2" stroke-linecap="round"/>
<path d="M142.614 687.099L138.37 685.185L137.459 680.901" stroke="black" stroke-width="2.2" stroke-linecap="round"/>
<path opacity="0.202" d="M134.404 583.717L143.894 586.984" stroke="black" stroke-width="2.2" stroke-linecap="round"/>
<path d="M155.856 595.935L154.867 591.386L150.865 589.605" stroke="black" stroke-width="2.2" stroke-linecap="round"/>
<path d="M158.056 604.47L159.278 614.433" stroke="black" stroke-width="2.2" stroke-linecap="round"/>
<path d="M129.121 649.157L133.623 650.341" stroke="black" stroke-width="2.2" stroke-linecap="round"/>
<path d="M160.532 623.721L160.754 628.37" stroke="black" stroke-width="2.2" stroke-linecap="round"/>
<path opacity="0.202" d="M95.7827 614.992L97.005 624.954" stroke="black" stroke-width="2.2" stroke-linecap="round"/>
<path d="M103.273 638.517L99.0297 636.604L98.119 632.319" stroke="black" stroke-width="2.2" stroke-linecap="round"/>
<path d="M111.164 642.441L120.655 645.708" stroke="black" stroke-width="2.2" stroke-linecap="round"/>
<path d="M156.184 596.988L155.962 592.338L159.366 589.582" stroke="black" stroke-width="2.2" stroke-linecap="round"/>
<path d="M165.63 584.516L173.431 578.199" stroke="black" stroke-width="2.2" stroke-linecap="round"/>
<path d="M187.595 571.552L183.094 570.368L179.689 573.125" stroke="black" stroke-width="2.2" stroke-linecap="round"/>
<path d="M196.088 574.301L205.578 577.567" stroke="black" stroke-width="2.2" stroke-linecap="round"/>
<path d="M217.541 586.518L216.551 581.969L212.55 580.188" stroke="black" stroke-width="2.2" stroke-linecap="round"/>
<path d="M219.739 595.053L220.962 605.016" stroke="black" stroke-width="2.2" stroke-linecap="round"/>
<path d="M190.804 639.74L195.307 640.924L198.71 638.167" stroke="black" stroke-width="2.2" stroke-linecap="round"/>
<path d="M204.971 633.098L212.772 626.78" stroke="black" stroke-width="2.2" stroke-linecap="round"/>
<path d="M222.215 614.304L222.437 618.953L219.033 621.71" stroke="black" stroke-width="2.2" stroke-linecap="round"/>
<path d="M164.957 629.101L160.713 627.188L159.803 622.903" stroke="black" stroke-width="2.2" stroke-linecap="round"/>
<path opacity="0.202" d="M180.398 546.472L181.621 556.434" stroke="black" stroke-width="2.2" stroke-linecap="round"/>
<path d="M151.463 591.159L155.966 592.342" stroke="black" stroke-width="2.2" stroke-linecap="round"/>
<path d="M182.874 565.723L183.096 570.372" stroke="black" stroke-width="2.2" stroke-linecap="round"/>
<path d="M218.83 586.165L218.608 581.515L222.012 578.759" stroke="black" stroke-width="2.2" stroke-linecap="round"/>
<path d="M228.276 573.693L236.077 567.375" stroke="black" stroke-width="2.2" stroke-linecap="round"/>
<path opacity="0.248" d="M250.24 560.729L245.739 559.545L242.335 562.301" stroke="black" stroke-width="2.2" stroke-linecap="round"/>
<path opacity="0.248" d="M258.732 563.477L268.223 566.744" stroke="black" stroke-width="2.2" stroke-linecap="round"/>
<path d="M220.111 594.752L221.334 604.714" stroke="black" stroke-width="2.2" stroke-linecap="round"/>
<path opacity="0.248" d="M219.392 514.896L228.882 518.162" stroke="black" stroke-width="2.2" stroke-linecap="round"/>
<path opacity="0.248" d="M240.845 527.112L239.855 522.564L235.854 520.782" stroke="black" stroke-width="2.2" stroke-linecap="round"/>
<path opacity="0.248" d="M243.044 535.648L244.266 545.611" stroke="black" stroke-width="2.2" stroke-linecap="round"/>
<path d="M214.109 580.335L218.611 581.519" stroke="black" stroke-width="2.2" stroke-linecap="round"/>
<path opacity="0.248" d="M245.52 554.9L245.742 559.549" stroke="black" stroke-width="2.2" stroke-linecap="round"/>
<path opacity="0.202" d="M180.771 546.17L181.993 556.132" stroke="black" stroke-width="2.2" stroke-linecap="round"/>
<path d="M188.26 569.696L184.016 567.783L183.106 563.498" stroke="black" stroke-width="2.2" stroke-linecap="round"/>
<path d="M196.152 573.62L205.642 576.886" stroke="black" stroke-width="2.2" stroke-linecap="round"/>
<path opacity="0.248" d="M241.171 528.167L240.95 523.517L244.353 520.76" stroke="black" stroke-width="2.2" stroke-linecap="round"/>
<path opacity="0.248" d="M250.619 515.693L258.42 509.376" stroke="black" stroke-width="2.2" stroke-linecap="round"/>
<path opacity="0.248" d="M272.583 502.73L268.081 501.546L264.677 504.303" stroke="black" stroke-width="2.2" stroke-linecap="round"/>
<path opacity="0.248" d="M249.945 560.279L245.701 558.366L244.79 554.081" stroke="black" stroke-width="2.2" stroke-linecap="round"/>
<path opacity="0.248" d="M265.385 477.65L266.608 487.613" stroke="black" stroke-width="2.2" stroke-linecap="round"/>
<path opacity="0.248" d="M236.451 522.337L240.953 523.521" stroke="black" stroke-width="2.2" stroke-linecap="round"/>
<path opacity="0.248" d="M267.861 496.902L268.084 501.551" stroke="black" stroke-width="2.2" stroke-linecap="round"/>
<path opacity="0.248" d="M304.379 446.074L313.869 449.341" stroke="black" stroke-width="2.2" stroke-linecap="round"/>
<path opacity="0.248" d="M265.758 477.348L266.981 487.311" stroke="black" stroke-width="2.2" stroke-linecap="round"/>
<path opacity="0.248" d="M273.248 500.874L269.005 498.961L268.094 494.676" stroke="black" stroke-width="2.2" stroke-linecap="round"/>
</g>
<defs>
<clipPath id="clip0_333_2114">
<rect width="392" height="680" fill="white"/>
</clipPath>
</defs>
</svg>
